<svg id="Layer_1" data-name="Layer 1" xmlns="http://www.w3.org/2000/svg" viewBox="0 0 58.29 81.78"><defs><style>.cls-1{fill:#f1ebdf;}</style></defs><title>cake</title><path class="cls-1" d="M75.55,76h0l0,0Z" transform="translate(-25.86 -28.71)"/><path class="cls-1" d="M70.74,77.34a.11.11,0,0,0-.08,0l-1.33.94a.23.23,0,0,0-.07.1.15.15,0,0,0,0,.13.18.18,0,0,0,.23.06l1.33-.94a.25.25,0,0,0,.08-.1.2.2,0,0,0,0-.13A.18.18,0,0,0,70.74,77.34Z" transform="translate(-25.86 -28.71)"/><path class="cls-1" d="M70.74,78.18a.11.11,0,0,0-.08,0c-.36.24-.73.49-1.08.75a.19.19,0,0,0-.08.1.15.15,0,0,0,0,.13.16.16,0,0,0,.22.06l1.09-.76a.16.16,0,0,0,.06-.22A.19.19,0,0,0,70.74,78.18Z" transform="translate(-25.86 -28.71)"/><path class="cls-1" d="M71.71,77.72c.76-.47,1.51-1,2.26-1.44a.15.15,0,0,0,.06-.22.17.17,0,0,0-.14-.09.11.11,0,0,0-.08,0c-.76.48-1.51,1-2.27,1.43a.19.19,0,0,0-.06.23A.17.17,0,0,0,71.71,77.72Z" transform="translate(-25.86 -28.71)"/><path class="cls-1" d="M71.63,78.53a.17.17,0,0,0,.23,0c.81-.5,1.62-1,2.42-1.54a.17.17,0,0,0-.09-.31l-.08,0c-.8.53-1.61,1-2.42,1.55A.16.16,0,0,0,71.63,78.53Z" transform="translate(-25.86 -28.71)"/><path class="cls-1" d="M72,79.33a.16.16,0,0,0-.06.22.17.17,0,0,0,.23.06c.78-.46,1.56-.92,2.32-1.39A.17.17,0,0,0,74.5,78a.16.16,0,0,0-.14-.08.11.11,0,0,0-.08,0C73.51,78.41,72.73,78.86,72,79.33Z" transform="translate(-25.86 -28.71)"/><path class="cls-1" d="M72.49,80.59a.18.18,0,0,0,.23.06c.77-.46,1.55-.9,2.34-1.34a.18.18,0,0,0,.06-.23A.17.17,0,0,0,75,79l-.09,0c-.78.44-1.57.88-2.34,1.34A.17.17,0,0,0,72.49,80.59Z" transform="translate(-25.86 -28.71)"/><path class="cls-1" d="M75,79.94l-.08,0-.89.58-.94.65a.17.17,0,0,0-.06.23.16.16,0,0,0,.22.06c.3-.21.6-.42.91-.62s.61-.41.93-.61a.17.17,0,0,0,0-.23A.15.15,0,0,0,75,79.94Z" transform="translate(-25.86 -28.71)"/><path class="cls-1" d="M35.12,67.9a.3.3,0,0,0-.08-.08,1.43,1.43,0,0,0-.24-.16,6.73,6.73,0,0,0-.81-.39c-.29-.13-.59-.24-.88-.34l-.74-.27c-.24-.08-.48-.17-.73-.24s-.51-.16-.77-.22a2.61,2.61,0,0,0-.55-.08h-.07a.16.16,0,0,0-.14.08h-.06a.17.17,0,0,0-.06.23l.1.15a.47.47,0,0,0,.14.14,1.48,1.48,0,0,0,.3.21,4.09,4.09,0,0,0,.46.25,3,3,0,0,0,.41.17l.44.17.46.17.48.17c.32.11.65.2,1,.28a3.55,3.55,0,0,0,.47.08,3.31,3.31,0,0,0,.55.05.71.71,0,0,0,.28-.06.25.25,0,0,0,.11-.19.23.23,0,0,0,0-.11Zm-.69,0-.4-.07-.42-.09c-.26-.07-.53-.14-.78-.23L32,67.26,31.28,67h0a3.59,3.59,0,0,1-.34-.17c-.17-.1-.33-.19-.49-.3a.08.08,0,0,0,0,0h.09a5.9,5.9,0,0,1,.83.2l.78.25.84.3.87.32a8.06,8.06,0,0,1,.83.42Z" transform="translate(-25.86 -28.71)"/><path class="cls-1" d="M41.78,69a.46.46,0,0,0-.07-.07.62.62,0,0,0-.17-.11l-.19-.08-.27-.08-.22-.06-.31-.06c-.32-.06-.64-.1-1-.14s-.45-.07-.68-.09l-.8,0a.15.15,0,0,0-.12-.07h0a3.88,3.88,0,0,0-.48,0,.8.8,0,0,0-.26.09.24.24,0,0,0-.1.25l0,0,.06.09.06.06.12.08.15.08.11,0a3,3,0,0,0,.49.14c.34.08.67.14,1,.19l1,.09h1a4,4,0,0,0,.47,0l.14,0a.34.34,0,0,0,.08-.09.17.17,0,0,0,0-.12A.19.19,0,0,0,41.78,69Zm-1.45,0A10.75,10.75,0,0,1,39.2,69h0l-.39-.06c-.14,0-.28-.06-.42-.09s-.28-.06-.41-.09l-.31-.11-.05,0,0,0h0l.36,0a.31.31,0,0,0,.13.06c.34,0,.68,0,1,.07l.85.11h0a7,7,0,0,1,1.28.28A8.81,8.81,0,0,1,40.33,69.07Z" transform="translate(-25.86 -28.71)"/><path class="cls-1" d="M48.94,54.26c-.46.37-.93.75-1.41,1.12a.14.14,0,0,0-.05.11.17.17,0,0,0,.05.12.17.17,0,0,0,.24,0l1.41-1.12a.18.18,0,0,0,0-.12.16.16,0,0,0,0-.11.21.21,0,0,0-.12,0A.18.18,0,0,0,48.94,54.26Z" transform="translate(-25.86 -28.71)"/><path class="cls-1" d="M47.89,55.83a.17.17,0,0,0,0,.12.16.16,0,0,0,0,.11.17.17,0,0,0,.24,0l1.27-1a.14.14,0,0,0,.05-.11.17.17,0,0,0-.17-.17.14.14,0,0,0-.11,0Z" transform="translate(-25.86 -28.71)"/><path class="cls-1" d="M60,53h0l0,0Z" transform="translate(-25.86 -28.71)"/><path class="cls-1" d="M60.68,53.24h0a0,0,0,0,0,0,0Z" transform="translate(-25.86 -28.71)"/><path class="cls-1" d="M60.55,55.59Z" transform="translate(-25.86 -28.71)"/><path class="cls-1" d="M48.17,62.3c.53-.27,1-.53,1.59-.77a.16.16,0,0,0,.08-.1.2.2,0,0,0,0-.13.18.18,0,0,0-.1-.07h0a.16.16,0,0,0-.09,0c-.53.23-1.06.5-1.58.76a.18.18,0,0,0-.06.23A.16.16,0,0,0,48.17,62.3Z" transform="translate(-25.86 -28.71)"/><path class="cls-1" d="M48.79,62.34a.15.15,0,0,0,0,.13.16.16,0,0,0,.22.06c.36-.25.7-.5,1-.76a.18.18,0,0,0,.08-.09.19.19,0,0,0,0-.13.19.19,0,0,0-.15-.09.13.13,0,0,0-.08,0l-1,.75S48.8,62.29,48.79,62.34Z" transform="translate(-25.86 -28.71)"/><path class="cls-1" d="M69.53,59.86a.17.17,0,1,0,.17-.17A.18.18,0,0,0,69.53,59.86Z" transform="translate(-25.86 -28.71)"/><path class="cls-1" d="M54.78,58.88l-.35.81a.16.16,0,0,0,.06.23.16.16,0,0,0,.12,0,.15.15,0,0,0,.1-.07c.29-.63.54-1.27.81-1.91a.19.19,0,0,0,0-.13.16.16,0,0,0-.1-.08h0a.12.12,0,0,0-.08,0,.14.14,0,0,0-.07.1l-.43,1Z" transform="translate(-25.86 -28.71)"/><path class="cls-1" d="M40.14,55.26a.16.16,0,0,0,0,.16.17.17,0,0,0,.24,0l.08-.09a.61.61,0,0,0,.12-.15.17.17,0,0,0,0-.2h0a.17.17,0,0,0,0-.21.19.19,0,0,0-.15-.08.11.11,0,0,0-.08,0l-.15.1-.11.06L40,55a.15.15,0,0,0,0,.23A.23.23,0,0,0,40.14,55.26Z" transform="translate(-25.86 -28.71)"/><path class="cls-1" d="M68.73,66.87a.17.17,0,0,0,.12,0l1.41-.19.46,0,.39,0,1.33-.08a.16.16,0,0,0,.16-.16.17.17,0,0,0-.15-.17h0l-1.18.07-.79.08-.81.1-.89.12a.2.2,0,0,0-.1.08.15.15,0,0,0,0,.13A.16.16,0,0,0,68.73,66.87Z" transform="translate(-25.86 -28.71)"/><path class="cls-1" d="M64.4,69l-1.34,0h-.13c-.34,0-.67,0-1,0s-.74,0-1.1,0H59.65a.17.17,0,0,0-.16.17.16.16,0,0,0,.16.16h1.17c.36,0,.73,0,1.1,0s.76,0,1.14,0l1.34,0a.18.18,0,0,0,.17-.17A.17.17,0,0,0,64.4,69Z" transform="translate(-25.86 -28.71)"/><path class="cls-1" d="M66.88,68.8h0l-.87,0a.18.18,0,0,0-.17.17.18.18,0,0,0,.17.17c.29,0,.58,0,.87,0A.18.18,0,0,0,67,69,.17.17,0,0,0,66.88,68.8Z" transform="translate(-25.86 -28.71)"/><path class="cls-1" d="M72.9,67.58h0l-.61.15a5.41,5.41,0,0,1-.55.12c-.35.08-.69.14-1,.2l-1,.19c-.34.07-.69.13-1,.18a.14.14,0,0,0-.1.07.2.2,0,0,0,0,.13.16.16,0,0,0,.2.12c.33,0,.67-.1,1-.17l1-.19,1-.19.54-.12.67-.17a.17.17,0,0,0,.11-.21A.17.17,0,0,0,72.9,67.58Z" transform="translate(-25.86 -28.71)"/><path class="cls-1" d="M73.81,67.33a.17.17,0,0,0-.12.2.17.17,0,0,0,.21.12l.76-.21,1-.23a.17.17,0,0,0,.12-.2.17.17,0,0,0-.17-.13h0l-1,.23C74.34,67.18,74.07,67.25,73.81,67.33Z" transform="translate(-25.86 -28.71)"/><path class="cls-1" d="M75.49,71.21a.18.18,0,0,0-.12,0,.14.14,0,0,0-.11,0l-.25.27.36-.47a.15.15,0,0,0,0-.13.14.14,0,0,0-.07-.1.15.15,0,0,0-.09,0h0a.25.25,0,0,0-.1.08l-.37.5a.15.15,0,0,0,0,.13.16.16,0,0,0,.08.1.16.16,0,0,0,.12,0l.06,0,0,0a.17.17,0,0,0,0,.23.17.17,0,0,0,.24,0l.34-.39A.16.16,0,0,0,75.49,71.21Z" transform="translate(-25.86 -28.71)"/><path class="cls-1" d="M75.65,71.5a.18.18,0,0,0-.17.17.17.17,0,0,0,.17.16.16.16,0,0,0,.16-.16A.17.17,0,0,0,75.65,71.5Z" transform="translate(-25.86 -28.71)"/><path class="cls-1" d="M58.71,76.51c.61-.35,1.19-.73,1.77-1.12a.19.19,0,0,0,.06-.23.18.18,0,0,0-.15-.08l-.08,0c-.58.39-1.16.77-1.76,1.12a.17.17,0,0,0-.06.23A.15.15,0,0,0,58.71,76.51Z" transform="translate(-25.86 -28.71)"/><path class="cls-1" d="M59.05,76.87a.18.18,0,0,0,.23.06l1.88-1.07a.17.17,0,0,0-.09-.31.12.12,0,0,0-.08,0c-.62.37-1.25.73-1.88,1.07A.17.17,0,0,0,59.05,76.87Z" transform="translate(-25.86 -28.71)"/><path class="cls-1" d="M60.17,78.6l.32-.19.26-.13.41-.2,1-.45a.16.16,0,0,0,.08-.1.15.15,0,0,0,0-.13.13.13,0,0,0-.1-.07h0l-.08,0-.57.26-.41.18-.24.11-.18.09-.24.12-.37.21a.17.17,0,1,0,.17.29Z" transform="translate(-25.86 -28.71)"/><path class="cls-1" d="M60,79.87l.9-.44.7-.33h0l.61-.25a.13.13,0,0,0,.1-.08.16.16,0,0,0,0-.12.16.16,0,0,0-.08-.1.24.24,0,0,0-.09,0h0l-.61.25c-.17.07-.34.16-.51.24l-1.14.55a.18.18,0,0,0-.06.23A.17.17,0,0,0,60,79.87Z" transform="translate(-25.86 -28.71)"/><path class="cls-1" d="M58.7,81l.75-.39.24-.11.39-.18h0l.07,0a.13.13,0,0,0,.1-.07.15.15,0,0,0,0-.13.23.23,0,0,0-.07-.1l-.09,0h0c-.26.1-.51.22-.76.34a1.59,1.59,0,0,0-.29.15l-.47.24a.17.17,0,0,0,.16.29Z" transform="translate(-25.86 -28.71)"/><path class="cls-1" d="M65.49,81.43a.71.71,0,0,0-.08-.15.44.44,0,0,0-.19-.17.27.27,0,0,0-.12,0H65a.28.28,0,0,0-.13,0l-.13.1a.17.17,0,0,0,0,.23h0a.2.2,0,0,0,0,.11c0,.08,0,.16,0,.23a1.48,1.48,0,0,0,0,.21.93.93,0,0,0,0,.23,1.2,1.2,0,0,0,.13.31.94.94,0,0,0,.12.18.49.49,0,0,0,.19.16.15.15,0,0,0,.11,0h.07l.08,0,0,0,.05-.07,0,0a.4.4,0,0,0,0-.15.41.41,0,0,0,0-.11s0-.1,0-.15a2.83,2.83,0,0,0,0-.5A1.36,1.36,0,0,0,65.49,81.43Zm-.24,1v.09a1.35,1.35,0,0,1-.15-.26s0,0,0-.05a.94.94,0,0,1,0-.16,1.1,1.1,0,0,1,0-.18v-.12a1.5,1.5,0,0,0,0-.2.15.15,0,0,0,0-.12h0l0,0h0l.06,0h0l0,0,0,.07.06.2a2.43,2.43,0,0,1,0,.38c0,.11,0,.23,0,.35Z" transform="translate(-25.86 -28.71)"/><path class="cls-1" d="M64.8,79.47a.17.17,0,0,0,.11-.21,2.81,2.81,0,0,1,0-.29.16.16,0,0,0-.16-.16h0a.17.17,0,0,0-.16.17,1.6,1.6,0,0,0,0,.38A.18.18,0,0,0,64.8,79.47Z" transform="translate(-25.86 -28.71)"/><path class="cls-1" d="M28.14,68.71a.36.36,0,0,1,0-.09.34.34,0,0,0-.08-.09s0,0-.06,0h-.11a.25.25,0,0,0-.11,0l0,0-.06.07a1.57,1.57,0,0,0-.15.43,2.63,2.63,0,0,0-.06.39c0,.12,0,.25,0,.37s0,.3,0,.44a0,0,0,0,0,0,0c0,.23,0,.45,0,.68a1.65,1.65,0,0,0,0,.21l0,.09s.05.07.09.09a.2.2,0,0,0,.2,0l0,0,.06-.07a1.14,1.14,0,0,0,.1-.19c0-.12.09-.24.13-.37l.09-.35c0-.11,0-.22.05-.34a2.13,2.13,0,0,0,0-.44,3.82,3.82,0,0,0-.05-.68C28.17,68.81,28.15,68.76,28.14,68.71Zm-.25,1.18a3.21,3.21,0,0,1-.07.43c0,.1-.05.2-.08.3l0-.57a.08.08,0,0,0,0-.07v-.16c0-.12,0-.24,0-.36h0l0-.27.06-.24v0c0,.14,0,.27,0,.41v.22a2.53,2.53,0,0,1,0,.28Z" transform="translate(-25.86 -28.71)"/><path class="cls-1" d="M34,71.07a.47.47,0,0,0-.06-.15l0-.07-.07-.09a.44.44,0,0,0-.18-.09h0a.31.31,0,0,0-.18.07.18.18,0,0,0-.07.1s0,0,0,0a.15.15,0,0,0-.14.16,2.28,2.28,0,0,0,0,.27,2,2,0,0,0,0,.24,1.8,1.8,0,0,0,.1.4.89.89,0,0,0,.08.17l.1.11a.3.3,0,0,0,.22.1h0l.08,0,0,0a.13.13,0,0,0,.06-.07l0,0,0-.11a.62.62,0,0,0,0-.19,2,2,0,0,0,0-.42A1.78,1.78,0,0,0,34,71.07Zm-.25.81h0v0l0,0a.58.58,0,0,1,0-.14,1.6,1.6,0,0,1-.05-.21,1.25,1.25,0,0,1,0-.19l0-.31h0l.06,0,0,0a1.12,1.12,0,0,1,.06.23c0,.1,0,.19,0,.28A1.5,1.5,0,0,1,33.75,71.88Z" transform="translate(-25.86 -28.71)"/><path class="cls-1" d="M33.34,70a.17.17,0,0,0-.17-.16.17.17,0,1,0,0,.33A.16.16,0,0,0,33.34,70Z" transform="translate(-25.86 -28.71)"/><path class="cls-1" d="M47.69,74.75a2.56,2.56,0,0,0-.52-.52L46.93,74a2.75,2.75,0,0,1-.22-.26s0,0,0,0a4,4,0,0,0-.39-.43l-.29-.23a1,1,0,0,0-.23-.13.42.42,0,0,0-.19,0h-.12a.17.17,0,0,0-.14.09s0,0-.06,0a.16.16,0,0,0,0,.12.94.94,0,0,0,0,.16,1.19,1.19,0,0,0,.08.2,1.37,1.37,0,0,0,.34.42l.2.17.26.21c.16.14.31.3.46.46a1.8,1.8,0,0,0,.2.19l.13.09a1.46,1.46,0,0,0,.31.14l.13,0h.12l.09,0,.06-.06a.25.25,0,0,0,.06-.16.21.21,0,0,0,0-.11A.34.34,0,0,0,47.69,74.75Zm-.38.15h0l-.2-.1L47,74.68l-.15-.16a3.06,3.06,0,0,0-.36-.36c-.21-.2-.46-.35-.65-.56a1.58,1.58,0,0,1-.15-.24l0-.08h.06l.2.12a2.54,2.54,0,0,1,.24.2,1.31,1.31,0,0,1,.2.21c.15.17.29.35.45.51l.28.25a3.83,3.83,0,0,1,.29.28l.06.07h0Zm.1,0v0Z" transform="translate(-25.86 -28.71)"/><path class="cls-1" d="M44.74,71.76a.16.16,0,0,0-.15.17.17.17,0,0,0,.17.16.17.17,0,0,0,.16-.17A.18.18,0,0,0,44.74,71.76Z" transform="translate(-25.86 -28.71)"/><path class="cls-1" d="M28,66.94a.16.16,0,0,0,.16-.17.17.17,0,0,0-.17-.16.17.17,0,0,0-.16.17A.17.17,0,0,0,28,66.94Z" transform="translate(-25.86 -28.71)"/><path class="cls-1" d="M29,73.41a.17.17,0,0,0,.12,0l1-.48.18-.1.2-.11.58-.34a.17.17,0,0,0,0-.23.16.16,0,0,0-.14-.08.16.16,0,0,0-.09,0c-.22.13-.44.27-.67.39l-.3.16-.38.19h0l-.55.26a.18.18,0,0,0-.09.08.15.15,0,0,0,0,.13A.14.14,0,0,0,29,73.41Z" transform="translate(-25.86 -28.71)"/><path class="cls-1" d="M29,73.89a.25.25,0,0,0-.1.08.2.2,0,0,0,0,.13.2.2,0,0,0,.08.1.15.15,0,0,0,.13,0l1.23-.54,1.14-.52a.18.18,0,0,0,.08-.11.13.13,0,0,0,0-.12.16.16,0,0,0-.1-.08h0a.16.16,0,0,0-.09,0l-.42.19C30.23,73.35,29.61,73.62,29,73.89Z" transform="translate(-25.86 -28.71)"/><path class="cls-1" d="M31.06,74a.17.17,0,0,0-.16-.12h0a16.26,16.26,0,0,0-1.8.82.15.15,0,0,0-.05.22.15.15,0,0,0,.23,0l.54-.27.56-.25.62-.25A.17.17,0,0,0,31.06,74Z" transform="translate(-25.86 -28.71)"/><path class="cls-1" d="M29,77.29a.19.19,0,0,0,.13,0l.05,0h0l.71-.3a.18.18,0,0,0,.09-.08.12.12,0,0,0,0-.13.15.15,0,0,0-.15-.12h-.05L28.9,77s-.06.06-.07.1a.15.15,0,0,0,0,.13A.18.18,0,0,0,29,77.29Z" transform="translate(-25.86 -28.71)"/><path class="cls-1" d="M36.7,73.65l.45-.24.29-.14h0l.45-.2A.18.18,0,0,0,38,73a.2.2,0,0,0,0-.13.27.27,0,0,0-.08-.1l-.09,0h0l-.57.26-.27.13-.45.24a.17.17,0,0,0-.05.23A.16.16,0,0,0,36.7,73.65Z" transform="translate(-25.86 -28.71)"/><path class="cls-1" d="M37.44,73.27h0Z" transform="translate(-25.86 -28.71)"/><path class="cls-1" d="M36.56,74.22l.38-.2.27-.11.41-.14a.17.17,0,0,0,.11-.21.17.17,0,0,0-.16-.12h0c-.18.06-.36.12-.54.2a1,1,0,0,0-.21.09l-.38.2a.16.16,0,0,0,0,.23A.17.17,0,0,0,36.56,74.22Z" transform="translate(-25.86 -28.71)"/><path class="cls-1" d="M31.08,77.41c-.33.14-.65.3-1,.46A.14.14,0,0,0,30,78a.13.13,0,0,0,0,.12.16.16,0,0,0,.1.08.17.17,0,0,0,.12,0l.4-.18h0l.35-.16.34-.15.29-.12.52-.18a.17.17,0,0,0,.11-.21.17.17,0,0,0-.16-.12h0l-.56.2-.15.06Z" transform="translate(-25.86 -28.71)"/><path class="cls-1" d="M32.25,77.68h0a.19.19,0,0,0-.1,0c-1.1.58-2.23,1.12-3.35,1.67a.16.16,0,0,0-.08.1.2.2,0,0,0,0,.13.19.19,0,0,0,.11.07.2.2,0,0,0,.13,0c1.12-.55,2.24-1.09,3.35-1.67a.16.16,0,0,0,.05-.23A.14.14,0,0,0,32.25,77.68Z" transform="translate(-25.86 -28.71)"/><path class="cls-1" d="M31.52,78.8h-.21a.17.17,0,0,0-.11.06.13.13,0,0,0,0,.12v0l-.14.09-.29.16-.28.15-.51.26-1.07.52a.15.15,0,0,0-.05.23.18.18,0,0,0,.1.07.17.17,0,0,0,.12,0l1.13-.55.51-.26.33-.18.29-.16a1.76,1.76,0,0,0,.3-.24.17.17,0,0,0-.08-.27Z" transform="translate(-25.86 -28.71)"/><path class="cls-1" d="M50.2,78.5,51.4,78l.55-.24.82-.36a.25.25,0,0,0,.1-.08.2.2,0,0,0,0-.13.2.2,0,0,0-.08-.1l-.08,0h0l-1.37.61-.55.23-.66.27a.17.17,0,0,0,.11.32Z" transform="translate(-25.86 -28.71)"/><path class="cls-1" d="M50,79.2c.73-.26,1.47-.5,2.21-.75a.16.16,0,0,0,.11-.21.17.17,0,0,0-.16-.12h0l-2.21.76a.17.17,0,0,0-.11.21A.16.16,0,0,0,50,79.2Z" transform="translate(-25.86 -28.71)"/><path class="cls-1" d="M51.74,78.82h-.05l-1.76.62a.18.18,0,0,0-.11.21.19.19,0,0,0,.21.11l1.76-.63a.16.16,0,0,0,.11-.2A.17.17,0,0,0,51.74,78.82Z" transform="translate(-25.86 -28.71)"/><path class="cls-1" d="M49.7,80.75l.74-.3c.19-.07.36-.16.55-.24l.47-.22.75-.36a.16.16,0,0,0,.08-.1.2.2,0,0,0,0-.13.16.16,0,0,0-.11-.07h0l-.09,0-1.13.54h0l-.54.23-.31.12-.43.18a.16.16,0,0,0-.11.21A.16.16,0,0,0,49.7,80.75Z" transform="translate(-25.86 -28.71)"/><path class="cls-1" d="M50.91,79.89h0Z" transform="translate(-25.86 -28.71)"/><polygon class="cls-1" points="25.05 51.18 25.04 51.18 25.05 51.18 25.05 51.18"/><path class="cls-1" d="M51.82,80.3l-.09,0-.89.53-1.05.58a.18.18,0,0,0-.06.23.16.16,0,0,0,.23,0l1-.56.92-.55a.16.16,0,0,0,.05-.23A.15.15,0,0,0,51.82,80.3Z" transform="translate(-25.86 -28.71)"/><path class="cls-1" d="M51.37,81.24l-.08,0-.3.23a2.48,2.48,0,0,1-.26.19c-.21.15-.42.28-.63.42a.17.17,0,0,0-.05.23.17.17,0,0,0,.23,0l.36-.24.24-.16.28-.2a3.65,3.65,0,0,0,.31-.24.17.17,0,0,0,.07-.1.15.15,0,0,0,0-.13A.18.18,0,0,0,51.37,81.24Z" transform="translate(-25.86 -28.71)"/><path class="cls-1" d="M55.84,78.38h0Z" transform="translate(-25.86 -28.71)"/><path class="cls-1" d="M55.82,78.39h0Z" transform="translate(-25.86 -28.71)"/><path class="cls-1" d="M56.31,78.52h0Z" transform="translate(-25.86 -28.71)"/><path class="cls-1" d="M55.56,78.8a.17.17,0,0,0,.12,0l.62-.3h0l.49-.21c.18-.08.36-.14.54-.2a.18.18,0,0,0,.1-.22.17.17,0,0,0-.15-.11h-.06l-.72.28c-.24.1-.46.21-.69.32h0l-.23.1a.18.18,0,0,0-.09.08.15.15,0,0,0,0,.13A.14.14,0,0,0,55.56,78.8Z" transform="translate(-25.86 -28.71)"/><path class="cls-1" d="M55.13,79.86l.66-.18.35-.11.24-.1.29-.13c.38-.17.75-.38,1.12-.58a.17.17,0,0,0,.05-.23.17.17,0,0,0-.14-.08.16.16,0,0,0-.09,0l-.61.33c-.13.08-.27.14-.41.21l-.27.12-.12,0-.4.14-.78.22a.16.16,0,0,0-.1.21A.17.17,0,0,0,55.13,79.86Z" transform="translate(-25.86 -28.71)"/><path class="cls-1" d="M55.32,80.47a.16.16,0,0,0,.21.11c.84-.24,1.69-.49,2.54-.71a.18.18,0,0,0,.11-.21.17.17,0,0,0-.16-.11H58l-2.54.71A.17.17,0,0,0,55.32,80.47Z" transform="translate(-25.86 -28.71)"/><path class="cls-1" d="M54.65,81.55c.53-.16,1.05-.33,1.58-.48s.86-.22,1.3-.3l.34-.06a.22.22,0,0,0,.11,0,.21.21,0,0,0,.05-.12.17.17,0,0,0-.06-.12.18.18,0,0,0-.1,0h0l-.86.16c-.24,0-.49.11-.73.18s-.28.08-.42.12l-.37.11-.92.28a.19.19,0,0,0-.11.21A.17.17,0,0,0,54.65,81.55Z" transform="translate(-25.86 -28.71)"/><path class="cls-1" d="M57.84,81.27l-.08,0h0l-.59.11-.55.15c-.4.11-.8.23-1.2.37a.17.17,0,0,0-.11.21.18.18,0,0,0,.21.11l.66-.22c.18,0,.35-.11.53-.15l.54-.14.61-.13a.11.11,0,0,0,.09-.08.19.19,0,0,0,0-.13A.34.34,0,0,0,57.84,81.27Z" transform="translate(-25.86 -28.71)"/><path class="cls-1" d="M76.08,103.55h0Z" transform="translate(-25.86 -28.71)"/><polygon class="cls-1" points="50.19 74.85 50.19 74.85 50.2 74.85 50.19 74.85"/><polygon class="cls-1" points="41.54 75.05 41.53 75.05 41.53 75.05 41.54 75.05"/><path class="cls-1" d="M67.39,103.76h0Z" transform="translate(-25.86 -28.71)"/><path class="cls-1" d="M67.42,106.86h0c-.47,0-.94.13-1.41.2s-.75.12-1.13.18l-2.43.46a.18.18,0,0,0-.09.08.15.15,0,0,0,0,.13.16.16,0,0,0,.08.1.17.17,0,0,0,.12,0l1.94-.37,1.35-.24.23,0,.49-.07.45-.06.43,0a.18.18,0,0,0,.16-.18A.18.18,0,0,0,67.42,106.86Z" transform="translate(-25.86 -28.71)"/><path class="cls-1" d="M28.81,103.05H29c-.1.17-.19.35-.29.53a.16.16,0,0,0,.07.22.17.17,0,0,0,.23-.07c.12-.22.24-.44.35-.67h.27c.28,0,.56,0,.85.07a.15.15,0,0,0,.11-.06.17.17,0,0,0,0-.12.24.24,0,0,0-.06-.11s-.07,0-.12,0l-.82-.06h-.1c.06-.11.11-.23.17-.34a.16.16,0,0,0-.06-.22l-.08,0a.16.16,0,0,0-.15.09l-.25.47H28.8a.17.17,0,0,0-.16.17C28.64,103,28.72,103,28.81,103.05Z" transform="translate(-25.86 -28.71)"/><path class="cls-1" d="M29.48,104.75c.07-.1.15-.19.22-.28l.78.08-.61.73a.18.18,0,0,0,0,.23.17.17,0,0,0,.24,0l.76-.91.67.07a.19.19,0,0,0,.13,0,.13.13,0,0,0,.07-.1.16.16,0,0,0,0-.12.16.16,0,0,0-.1-.08l-.62-.06s0,0,0,0a.16.16,0,0,0-.11,0,.17.17,0,0,0-.12,0h0l-.75-.07h0l.36-.45a.17.17,0,0,0-.12-.28.14.14,0,0,0-.12.06l-.47.58,0,.05L28.15,104h0a.13.13,0,0,0-.1.06.13.13,0,0,0-.05.12.14.14,0,0,0,.06.11.22.22,0,0,0,.11,0l1,.08h0l.18,0,0,.06-.08.1a.51.51,0,0,0-.09.16.17.17,0,0,0,.29.16A.83.83,0,0,1,29.48,104.75Z" transform="translate(-25.86 -28.71)"/><path class="cls-1" d="M33.21,106.9l-1-.21-.47-.1c-.15,0-.3-.08-.45-.12l-.32-.08-.46-.15-.43-.15-.54-.2h0l-.1,0a.26.26,0,0,0-.07.11.16.16,0,0,0,0,.13.2.2,0,0,0,.1.07l1,.35.17.05.29.09.32.09.45.11.46.1,1,.21a.16.16,0,1,0,.08-.32Z" transform="translate(-25.86 -28.71)"/><path class="cls-1" d="M60.22,99.58a.17.17,0,0,0-.17-.16h0q-1.44.1-2.88.24a.17.17,0,0,0-.16.17.17.17,0,0,0,.17.16c1-.08,1.92-.17,2.88-.24A.17.17,0,0,0,60.22,99.58Z" transform="translate(-25.86 -28.71)"/><path class="cls-1" d="M61.05,99.93l.57-.57.73-.69a.17.17,0,0,0-.12-.28.19.19,0,0,0-.13.06l-.7.66-.59.59a.17.17,0,0,0,0,.24A.18.18,0,0,0,61.05,99.93Z" transform="translate(-25.86 -28.71)"/><path class="cls-1" d="M62.3,99.51a.16.16,0,0,0,0,.13.17.17,0,0,0,.23,0l1.12-.86a.15.15,0,0,0,0-.22.16.16,0,0,0-.14-.08.16.16,0,0,0-.09,0l-1.12.85S62.31,99.46,62.3,99.51Z" transform="translate(-25.86 -28.71)"/><path class="cls-1" d="M60,106.87l-1.05-.06-.88-.08h0l-.6-.06h0a.16.16,0,0,0-.09,0,.13.13,0,0,0-.06.1.13.13,0,0,0,0,.13.18.18,0,0,0,.1.07l1.23.12c.45,0,.9,0,1.35.08a.17.17,0,0,0,.15-.18.16.16,0,0,0,0-.11A.17.17,0,0,0,60,106.87Z" transform="translate(-25.86 -28.71)"/><path class="cls-1" d="M30.63,85.18a.24.24,0,0,0,.11-.06l.7-.6a.17.17,0,0,0,0-.12.18.18,0,0,0-.05-.12.21.21,0,0,0-.11,0h0a.18.18,0,0,0-.12.05l-.28.25a.18.18,0,0,0-.18-.15.17.17,0,0,0-.15.18.16.16,0,0,0,.12.15l-.2.18a.16.16,0,0,0,0,.23A.17.17,0,0,0,30.63,85.18Z" transform="translate(-25.86 -28.71)"/><path class="cls-1" d="M31.18,85.33a.16.16,0,0,0,.22,0c.26-.19.53-.36.8-.55a.16.16,0,0,0,0-.22.17.17,0,0,0-.14-.08.16.16,0,0,0-.09,0l-.8.54A.16.16,0,0,0,31.18,85.33Z" transform="translate(-25.86 -28.71)"/><path class="cls-1" d="M31.79,85.48a.2.2,0,0,0,0,.13.21.21,0,0,0,.11.07.17.17,0,0,0,.12,0c.29-.24.58-.45.88-.67a.16.16,0,0,0,0-.23.17.17,0,0,0-.14-.08.11.11,0,0,0-.08,0l-.88.67A.18.18,0,0,0,31.79,85.48Z" transform="translate(-25.86 -28.71)"/><path class="cls-1" d="M33,85.84a.23.23,0,0,0,.1.07.14.14,0,0,0,.13,0l.84-.67a.17.17,0,0,0,.07-.1.15.15,0,0,0,0-.13.2.2,0,0,0-.14-.08.16.16,0,0,0-.09,0l-.84.67a.23.23,0,0,0-.07.1A.19.19,0,0,0,33,85.84Z" transform="translate(-25.86 -28.71)"/><path class="cls-1" d="M33.86,86.17a.16.16,0,0,0,0,.12.17.17,0,0,0,.23.06l.5-.39a.17.17,0,0,0-.1-.31.13.13,0,0,0-.08,0l-.5.39A.15.15,0,0,0,33.86,86.17Z" transform="translate(-25.86 -28.71)"/><path class="cls-1" d="M31.34,88.91a.17.17,0,0,0-.17-.16.18.18,0,0,0-.16.18.18.18,0,0,0,.18.16A.16.16,0,0,0,31.34,88.91Z" transform="translate(-25.86 -28.71)"/><path class="cls-1" d="M31.63,89.49a.13.13,0,0,0,.12,0l.05,0a.17.17,0,0,0,.05-.23.12.12,0,0,0-.1-.07h0a.16.16,0,0,0-.09,0l-.05,0a.17.17,0,0,0-.05.23A.16.16,0,0,0,31.63,89.49Z" transform="translate(-25.86 -28.71)"/><path class="cls-1" d="M32.9,89.13a.16.16,0,0,0-.09,0c-.18.12-.37.25-.54.39a.19.19,0,0,0-.08.1.2.2,0,0,0,0,.13.19.19,0,0,0,.11.07.16.16,0,0,0,.12,0c.18-.14.36-.27.55-.39a.17.17,0,0,0-.09-.31Z" transform="translate(-25.86 -28.71)"/><path class="cls-1" d="M34.32,89.15a.17.17,0,1,0,0,.33.17.17,0,0,0,.16-.17A.17.17,0,0,0,34.32,89.15Z" transform="translate(-25.86 -28.71)"/><path class="cls-1" d="M36.19,88.53a.17.17,0,1,0-.17-.16A.17.17,0,0,0,36.19,88.53Z" transform="translate(-25.86 -28.71)"/><path class="cls-1" d="M36.84,89.21l.53-.58a.17.17,0,0,0,0-.24.15.15,0,0,0-.11,0,.17.17,0,0,0-.12.05L36.6,89a.17.17,0,0,0,0,.24A.16.16,0,0,0,36.84,89.21Z" transform="translate(-25.86 -28.71)"/><path class="cls-1" d="M37.29,90a.18.18,0,0,0,.18.16.16.16,0,0,0,.15-.18.16.16,0,0,0-.17-.15A.17.17,0,0,0,37.29,90Z" transform="translate(-25.86 -28.71)"/><path class="cls-1" d="M36.49,93.25a.17.17,0,1,0,0-.33.18.18,0,0,0-.16.18A.16.16,0,0,0,36.49,93.25Z" transform="translate(-25.86 -28.71)"/><path class="cls-1" d="M59.26,87.21a.16.16,0,0,0,.23-.07c.12-.25.25-.49.37-.74a.15.15,0,0,0-.06-.22.12.12,0,0,0-.08,0,.16.16,0,0,0-.15.09c-.13.24-.25.49-.38.74A.16.16,0,0,0,59.26,87.21Z" transform="translate(-25.86 -28.71)"/><path class="cls-1" d="M61.09,87.43l.2-.21a.16.16,0,0,0,0-.23.21.21,0,0,0-.12,0,.17.17,0,0,0-.12.06l-.21.21a.17.17,0,0,0,0,.23A.17.17,0,0,0,61.09,87.43Z" transform="translate(-25.86 -28.71)"/><path class="cls-1" d="M62.06,87.42a.17.17,0,0,0,.11-.06l.37-.32a.17.17,0,0,0,0-.23.16.16,0,0,0-.11,0h0a.26.26,0,0,0-.12,0l-.36.33a.16.16,0,0,0,0,.23A.17.17,0,0,0,62.06,87.42Z" transform="translate(-25.86 -28.71)"/><path class="cls-1" d="M63.61,87.47l.36-.35a.15.15,0,0,0,0-.23.14.14,0,0,0-.1,0,.21.21,0,0,0-.13.05l-.36.34a.16.16,0,0,0,0,.24A.17.17,0,0,0,63.61,87.47Z" transform="translate(-25.86 -28.71)"/><path class="cls-1" d="M64.65,87.7c.38-.44.77-.87,1.15-1.3a.17.17,0,0,0-.12-.28.16.16,0,0,0-.12.06c-.39.43-.78.86-1.15,1.3a.16.16,0,1,0,.24.22Z" transform="translate(-25.86 -28.71)"/><path class="cls-1" d="M67.84,89.69l.55-.7a.21.21,0,0,0,0-.12.16.16,0,0,0-.05-.11.18.18,0,0,0-.12-.05.14.14,0,0,0-.12.06l-.54.69a.14.14,0,0,0,0,.12.21.21,0,0,0,0,.12A.17.17,0,0,0,67.84,89.69Z" transform="translate(-25.86 -28.71)"/><path class="cls-1" d="M69.33,89.53c.23-.27.47-.53.71-.79a.17.17,0,0,0-.12-.28.16.16,0,0,0-.12.06c-.24.25-.48.51-.71.78a.17.17,0,0,0,0,.24A.17.17,0,0,0,69.33,89.53Z" transform="translate(-25.86 -28.71)"/><path class="cls-1" d="M72.31,86.15a.2.2,0,0,0,.13,0,.14.14,0,0,0,.09-.08l.06-.08,0,0a2.68,2.68,0,0,1,.3-.28l.27-.23a.17.17,0,0,0,0-.12.16.16,0,0,0-.05-.11.18.18,0,0,0-.12-.05.16.16,0,0,0-.12.06,3.47,3.47,0,0,0-.29.25l-.17.15a.52.52,0,0,0-.1.11l-.09.12a.19.19,0,0,0,0,.13A.14.14,0,0,0,72.31,86.15Z" transform="translate(-25.86 -28.71)"/><path class="cls-1" d="M73.74,84.87A.16.16,0,0,0,74,84.8c.05-.09.1-.19.16-.28l.16-.26.12-.17.15-.21,0,0,.12-.15a.19.19,0,0,0,0-.12.17.17,0,0,0-.05-.12.17.17,0,0,0-.12,0,.18.18,0,0,0-.12,0l-.39.55-.12.19-.07.12-.14.25A.18.18,0,0,0,73.74,84.87Z" transform="translate(-25.86 -28.71)"/><path class="cls-1" d="M73.42,87.69a.18.18,0,0,0,.2-.13v0c0-.09.1-.17.15-.26-.13.33-.27.65-.4,1a.13.13,0,0,0,0,.12.16.16,0,0,0,.08.1.19.19,0,0,0,.13,0,.12.12,0,0,0,.09-.08l.42-1a.28.28,0,0,0,0-.13.19.19,0,0,0-.08-.1h-.08a.16.16,0,0,0-.14.07.16.16,0,0,0-.07-.21h-.08a.17.17,0,0,0-.14.08l-.11.17a.25.25,0,0,1,0,.07.49.49,0,0,0-.06.17A.17.17,0,0,0,73.42,87.69Z" transform="translate(-25.86 -28.71)"/><path class="cls-1" d="M74.83,91.19A.17.17,0,0,0,75,91a.18.18,0,0,0-.18-.16.16.16,0,0,0-.15.17A.17.17,0,0,0,74.83,91.19Z" transform="translate(-25.86 -28.71)"/><path class="cls-1" d="M75.65,85.73a.15.15,0,0,0,.13,0l.15-.07h0l.81-.38c.37-.18.74-.36,1.1-.55a.18.18,0,0,0,.06-.23.19.19,0,0,0-.11-.07h0a.16.16,0,0,0-.09,0l-.74.37-.5.24h0l-.83.38a.21.21,0,0,0-.07.11.2.2,0,0,0,0,.13A.18.18,0,0,0,75.65,85.73Z" transform="translate(-25.86 -28.71)"/><path class="cls-1" d="M64.49,91.87l.35,0a2.31,2.31,0,0,1,.37,0,.17.17,0,0,0,.16-.17.16.16,0,0,0-.16-.16h0a4.38,4.38,0,0,0-.51,0l-.3,0-.46.1a.17.17,0,0,0-.11.21A.17.17,0,0,0,64,92Z" transform="translate(-25.86 -28.71)"/><path class="cls-1" d="M64,92.9a.18.18,0,0,0,.08.09.15.15,0,0,0,.13,0c.68-.16,1.35-.31,2-.45a.16.16,0,0,0,.1-.08.19.19,0,0,0,0-.13.14.14,0,0,0-.08-.09l-.07,0h-.06c-.68.13-1.35.29-2,.44A.17.17,0,0,0,64,92.9Z" transform="translate(-25.86 -28.71)"/><path class="cls-1" d="M66.08,93h0c-.66.27-1.31.53-2,.78A.17.17,0,0,0,64,94a.17.17,0,0,0,.21.11c.66-.25,1.31-.51,2-.78a.17.17,0,0,0,.1-.21A.18.18,0,0,0,66.08,93Z" transform="translate(-25.86 -28.71)"/><path class="cls-1" d="M63.36,95.55a.19.19,0,0,0,.13,0c.72-.34,1.45-.69,2.16-1.06a.16.16,0,0,0,0-.23.14.14,0,0,0-.1-.07h0a.12.12,0,0,0-.09,0c-.72.37-1.45.72-2.17,1.06a.17.17,0,0,0-.07.1.15.15,0,0,0,0,.13A.14.14,0,0,0,63.36,95.55Z" transform="translate(-25.86 -28.71)"/><path class="cls-1" d="M44.05,92.6c.86-.24,1.73-.42,2.6-.6a.17.17,0,0,0,.1-.21.14.14,0,0,0-.08-.09.08.08,0,0,0-.07,0h-.05l-.91.19a.21.21,0,0,0-.11,0,.14.14,0,0,0-.13.09c-.49.11-1,.22-1.45.35a.19.19,0,0,0-.11.21A.18.18,0,0,0,44.05,92.6Z" transform="translate(-25.86 -28.71)"/><path class="cls-1" d="M46.62,92.77a.2.2,0,0,0,0-.13.18.18,0,0,0-.08-.09.12.12,0,0,0-.08,0h0c-.61.13-1.23.25-1.84.41a.16.16,0,0,0-.1.2.17.17,0,0,0,.21.11c.6-.15,1.22-.28,1.83-.4A.14.14,0,0,0,46.62,92.77Z" transform="translate(-25.86 -28.71)"/><path class="cls-1" d="M45.39,93.75a.46.46,0,0,0-.15.09.65.65,0,0,0-.17.16.39.39,0,0,0-.06.11.44.44,0,0,0,0,.16.5.5,0,0,0,0,.13l0,.09a.64.64,0,0,1,.06.18.17.17,0,0,0,.21.11.18.18,0,0,0,.09-.08.16.16,0,0,0,0-.13.64.64,0,0,0-.06-.18l-.06-.15h0v0l.1-.09a.35.35,0,0,1,.12-.07l.17,0,.2,0,.25-.06.71-.19a.16.16,0,0,0-.05-.32h0l-1,.26A2,2,0,0,0,45.39,93.75Z" transform="translate(-25.86 -28.71)"/><path class="cls-1" d="M28.74,92.07l1.85.37a.16.16,0,1,0,.07-.32l-1.84-.37h0a.17.17,0,0,0-.16.12A.16.16,0,0,0,28.74,92.07Z" transform="translate(-25.86 -28.71)"/><path class="cls-1" d="M32.05,93.05c-.67,0-1.34-.06-2-.08h0a.17.17,0,0,0-.15.17.17.17,0,0,0,.17.16l2,.08a.17.17,0,0,0,.16-.17.17.17,0,0,0,0-.12A.19.19,0,0,0,32.05,93.05Z" transform="translate(-25.86 -28.71)"/><path class="cls-1" d="M53.29,88.73h1.09a.17.17,0,1,0,0-.33H53.28a.18.18,0,0,0-.16.18A.17.17,0,0,0,53.29,88.73Z" transform="translate(-25.86 -28.71)"/><path class="cls-1" d="M53.38,89.55a.15.15,0,0,0-.15.17.17.17,0,0,0,.17.16.17.17,0,0,0,.16-.17A.18.18,0,0,0,53.38,89.55Z" transform="translate(-25.86 -28.71)"/><path class="cls-1" d="M53.14,92.38a.17.17,0,0,0,.16-.17.17.17,0,1,0-.16.17Z" transform="translate(-25.86 -28.71)"/><path class="cls-1" d="M40.46,75.85l.89-.1.8-.07a.17.17,0,0,0,0-.33h0l-.79.07-.9.1a.18.18,0,0,0-.16.18A.16.16,0,0,0,40.46,75.85Z" transform="translate(-25.86 -28.71)"/><path class="cls-1" d="M39.49,77.44a.18.18,0,0,0,.16-.18.17.17,0,0,0-.17-.16.18.18,0,0,0-.16.18A.17.17,0,0,0,39.49,77.44Z" transform="translate(-25.86 -28.71)"/><path class="cls-1" d="M37.81,79.59a.16.16,0,0,0,.17.16l1.74-.08a.16.16,0,0,0,.16-.17.17.17,0,0,0-.17-.16h0L38,79.42A.17.17,0,0,0,37.81,79.59Z" transform="translate(-25.86 -28.71)"/><path class="cls-1" d="M38.24,81.26a.15.15,0,0,0,0,.13.12.12,0,0,0,.08.09s.08,0,.13,0l.19,0,.93-.14,1.16-.16a.22.22,0,0,0,.11,0,.21.21,0,0,0,.05-.12.18.18,0,0,0-.16-.16h0c-.79.1-1.58.21-2.36.35A.16.16,0,0,0,38.24,81.26Z" transform="translate(-25.86 -28.71)"/><path class="cls-1" d="M44.52,100.94l1.88.13,1.8.1c.09,0,.16-.09.16-.17a.2.2,0,0,0-.06-.12.15.15,0,0,0-.11,0l-1.8-.1-1.88-.13h0a.22.22,0,0,0-.11,0,.14.14,0,0,0,0,.12.17.17,0,0,0,0,.12A.17.17,0,0,0,44.52,100.94Z" transform="translate(-25.86 -28.71)"/><path class="cls-1" d="M50.56,102.27,47,102.13h0a.16.16,0,0,0-.15.17.18.18,0,0,0,.05.12.16.16,0,0,0,.12,0l3.57.14a.17.17,0,0,0,.16-.17A.16.16,0,0,0,50.56,102.27Z" transform="translate(-25.86 -28.71)"/><path class="cls-1" d="M42.75,104c1,.1,1.9.17,2.85.25l3.17.28a.17.17,0,0,0,.12-.06.17.17,0,0,0,0-.23.26.26,0,0,0-.12,0L45.67,104c-.94-.08-1.88-.15-2.81-.24h-.07a.15.15,0,0,0-.09,0,.14.14,0,0,0-.07.11.13.13,0,0,0,0,.12A.14.14,0,0,0,42.75,104Z" transform="translate(-25.86 -28.71)"/><path class="cls-1" d="M49.58,104.24a.17.17,0,0,0,0,.33.17.17,0,0,0,.16-.17A.17.17,0,0,0,49.58,104.24Z" transform="translate(-25.86 -28.71)"/><path class="cls-1" d="M49.58,106.27l-7.22-.21h0a.16.16,0,0,0-.15.17.16.16,0,0,0,.17.16l7.22.21a.17.17,0,0,0,.16-.17A.16.16,0,0,0,49.58,106.27Z" transform="translate(-25.86 -28.71)"/><path class="cls-1" d="M50.1,62.4a.4.4,0,0,0-.24.07,4.5,4.5,0,0,1-.64.38l-.28.08a2.57,2.57,0,0,1-.62,0h-.08a.56.56,0,0,0-.38.05.5.5,0,0,0-.23.3.57.57,0,0,0,0,.38.5.5,0,0,0,.3.23c.2,0,.41.06.61.07a2.5,2.5,0,0,0,.82-.11,1.45,1.45,0,0,0,.29-.11,2.48,2.48,0,0,0,.32-.17l.34-.22a.5.5,0,0,0,.18-.68A.53.53,0,0,0,50.1,62.4Z" transform="translate(-25.86 -28.71)"/><path class="cls-1" d="M58.91,61.59h0a3.28,3.28,0,0,1-.63-.19,4.89,4.89,0,0,1-.63-.36.44.44,0,0,0-.24-.07.52.52,0,0,0-.44.25.5.5,0,0,0,.18.68,4.64,4.64,0,0,0,1,.51,3.27,3.27,0,0,0,.81.18.5.5,0,0,0,.35-.85A.58.58,0,0,0,58.91,61.59Z" transform="translate(-25.86 -28.71)"/><path class="cls-1" d="M84.13,41.91a2,2,0,0,0-.09-.22,1,1,0,0,0-.2-.3.87.87,0,0,0-.31-.18,1.28,1.28,0,0,0-.34-.06h-.11a5.67,5.67,0,0,0-.58.05.36.36,0,0,0-.11-.16.48.48,0,0,0-.32-.15h0a2.82,2.82,0,0,1-.41,0,2.64,2.64,0,0,0-.4,0,1.12,1.12,0,0,0-.36.09,1.28,1.28,0,0,0-.29.23,3,3,0,0,0-.23.27.51.51,0,0,0-.15.35.24.24,0,0,0,0,.08,16.82,16.82,0,0,0-1.8.65c-.71.29-1.41.58-2.1.92a18.88,18.88,0,0,0-1.86,1,21.64,21.64,0,0,0-1.82,1.32c-.25.19-.49.38-.72.59l-.44.38c-.15.14-.29.29-.43.43s-.46.49-.68.73-.44.51-.65.77-.51.64-.75,1-.41.62-.6.93-.36.66-.53,1l-.27.56-.73-.32a7.76,7.76,0,0,0-1-.33,5.43,5.43,0,0,0-1-.15,5.24,5.24,0,0,0-.56,0H64c-.33,0-.66.07-1,.12a6.3,6.3,0,0,0-.84.18,6,6,0,0,0-.59.22,4.22,4.22,0,0,0-.36-.27,5,5,0,0,0-.93-.52,4.84,4.84,0,0,0-2.58-.42c-.35,0-.71.06-1.06.11-.68.1-1.35.24-2,.35a8.27,8.27,0,0,1-.86,0L53.67,50c-.07-1.42-.14-2.83-.18-4.25s0-2.75,0-4.12-.06-2.83,0-4.24c0-1,0-2.06.09-3.09,0-.5,0-1,0-1.5a.5.5,0,0,0,.24-.09l.15-.08a.8.8,0,0,0,.34-.29,1.55,1.55,0,0,0,.18-.6c0-.31.08-.62.13-.93s.13-.71.17-1.06a.81.81,0,0,0-.36-.85,1.31,1.31,0,0,0-.44-.12l-.27,0a.55.55,0,0,0-.18,0,.71.71,0,0,0-.41.29,1.36,1.36,0,0,0-.16.53c-.06.32-.12.63-.17.95s-.12.76-.16,1.15,0,.66,0,1c0,.7,0,1.4-.08,2.1s0,1.46,0,2.19c0,1.39,0,2.77,0,4.15s0,2.83,0,4.24.11,2.83.17,4.25c0,.54.06,1.07.1,1.6l-.3,0c-.3,0-.6-.1-.89-.17s-.61-.14-.92-.19a4.89,4.89,0,0,0-.85-.08h-.14a5.94,5.94,0,0,0-.93.13,5.19,5.19,0,0,0-1.91.84l-.43.33a3.23,3.23,0,0,0-.37.37,4.63,4.63,0,0,0-.32.42,1.88,1.88,0,0,0-.3.75l0,.17-.23-.18a3.4,3.4,0,0,0-.54-.27,2.42,2.42,0,0,0-.7-.19h-.17a2.82,2.82,0,0,0-.65.08c-.14,0-.27.09-.41.12s-.44,0-.66-.06a3.87,3.87,0,0,0-1,.07,3.19,3.19,0,0,0-.67.19,6.44,6.44,0,0,0-.7.34,4.09,4.09,0,0,0-.56.45,3.43,3.43,0,0,0-.48.53,5.74,5.74,0,0,0-.32.53,2.92,2.92,0,0,1-.23.47,3.25,3.25,0,0,1-.39.35,4.67,4.67,0,0,0-.44.45,4.2,4.2,0,0,0-.68,1.29,4.15,4.15,0,0,0-.24,1.3c0,.4.09.81.09,1.21a4.75,4.75,0,0,0-.61.79c-.09.19-.18.38-.25.57a1,1,0,0,0,0,.17l-1.88.49c-.65.17-1.28.37-1.92.56l-1,.28-1,.32-.91.28a6.5,6.5,0,0,1-.85.28,2.18,2.18,0,0,0-.61.2,1.4,1.4,0,0,0-.52.63,6.27,6.27,0,0,0-.33,1c-.09.32-.16.66-.22,1A10.68,10.68,0,0,0,26,68.05c0,.34-.07.67-.09,1q-.07,1-.09,2A3.51,3.51,0,0,0,26,72a1.91,1.91,0,0,0,.4.74,1.75,1.75,0,0,0,.51.43,1.3,1.3,0,0,0,.88.18c0,.1,0,.2-.05.3a3.46,3.46,0,0,0,0,.56l.09.57a3.66,3.66,0,0,1,0,.81c-.06.45-.15.89-.19,1.34,0,.22,0,.43,0,.65s0,.47,0,.7c0,.43,0,.87.08,1.31,0,.2,0,.4.07.6a1.49,1.49,0,0,0,0,.21c0,.06,0,.11,0,.17a.44.44,0,0,0,0,.34.48.48,0,0,0,.08.18,4.29,4.29,0,0,0-.38.45,1.48,1.48,0,0,0-.17.41,2.2,2.2,0,0,0-.09.43,3.33,3.33,0,0,0,0,.63c0,.4.06.81.1,1.21a15.3,15.3,0,0,1,.1,2.53,2.7,2.7,0,0,1-.14.56c-.08.23-.17.46-.26.69a4.62,4.62,0,0,0-.21.66,7.55,7.55,0,0,0-.13.83,5.31,5.31,0,0,0,0,.69c0,.23,0,.46,0,.69.05.47.13.93.2,1.4A7.81,7.81,0,0,0,27,93.56a2.87,2.87,0,0,0,.24.57l.07.13a7.11,7.11,0,0,0-.25,1.13,5.37,5.37,0,0,0,.13,1.49c0,.3.07.61.08.92a8.15,8.15,0,0,1-.05,1c-.07.67-.13,1.35-.19,2s-.17,1.36-.24,2c0,.33-.05.67-.05,1a8.51,8.51,0,0,0,.06,1c0,.26.05.51.08.77a2.47,2.47,0,0,0,.21.75.45.45,0,0,0,.39.23,11.91,11.91,0,0,0,1.7.79c.67.23,1.36.41,2.05.58.34.08.69.14,1,.2l1.08.21,2,.41c.73.15,1.45.28,2.18.39s1.45.19,2.18.26c1.4.14,2.8.31,4.21.43.72.07,1.45.12,2.18.17s1.44.08,2.16.12c1.43.08,2.87.18,4.31.23s2.87.08,4.3.08,2.77,0,4.15-.14,2.87-.25,4.29-.44,2.88-.36,4.31-.58c.71-.11,1.4-.25,2.09-.39l2-.4c.63-.15,1.28-.28,1.91-.46a6.81,6.81,0,0,0,1.74-.67c.25-.16.49-.33.72-.49a5.32,5.32,0,0,0,.47-.36c.11-.1.21-.22.32-.33a2.79,2.79,0,0,0,.34-.43,1.38,1.38,0,0,0,.14-.8,6.89,6.89,0,0,1,0-.79l.09-.43c0-.18.07-.37.1-.55a.53.53,0,0,0,0-.39h0a5.84,5.84,0,0,0,.06-1.18c0-.39,0-.79,0-1.18,0-.21,0-.42,0-.63s0-.31,0-.47c.07-.48.15-.94.18-1.43a6.23,6.23,0,0,0-.15-1.55c0-.22-.1-.43-.15-.65l-.15-.63c-.1-.45-.24-.88-.32-1.33s0-.87,0-1.3a.39.39,0,0,0,0-.21c0-.12.07-.25.1-.38s.09-.37.13-.55a4.64,4.64,0,0,0,.13-1.23A7.51,7.51,0,0,0,79,88.85c-.08-.36-.17-.72-.23-1.08,0-.16,0-.31,0-.47a.16.16,0,0,0,0-.15h0a1.23,1.23,0,0,1,0-.2,6.23,6.23,0,0,1,.07-.86v0c.06-.43.12-.86.17-1.29,0-.22.06-.43.07-.65s0-.47,0-.71a5.26,5.26,0,0,0-.46-1.78c-.17-.37-.34-.73-.52-1.09a2,2,0,0,0,0-.91A27.38,27.38,0,0,1,78,76.49c0-.55,0-1.1,0-1.66a13.7,13.7,0,0,1,0-1.57,8.36,8.36,0,0,1,.23-1,2.58,2.58,0,0,0,.42-.25,2.21,2.21,0,0,0,.62-.74,2.25,2.25,0,0,0,.2-.62,5.32,5.32,0,0,0,0-2.14c-.06-.31-.13-.62-.19-.93s-.14-.57-.2-.86l-.06-.32a2.26,2.26,0,0,0-.13-.33,1,1,0,0,0-.37-.43,4.37,4.37,0,0,0-1.07-.5l.12.06-1.07-.46c-.34-.13-.67-.27-1-.38s-.66-.2-1-.29l-.76-.18.29-.44c.18-.29.35-.58.51-.88s.28-.62.41-.92a9.4,9.4,0,0,0,.65-2,7.11,7.11,0,0,0,0-2.11,5.67,5.67,0,0,0-.61-2.08,6.57,6.57,0,0,0-.64-.92,5.82,5.82,0,0,0-.4-.45,2.93,2.93,0,0,0-.52-.41,2.35,2.35,0,0,0-.42-.21l-.43-.15a2.87,2.87,0,0,0-.76-.12l-1,0-.57,0c-.32-.05-.63-.12-.94-.2a7.34,7.34,0,0,1-.74-.27c.19-.4.39-.8.61-1.19a7.75,7.75,0,0,1,.46-.79c.2-.29.4-.57.62-.85a.39.39,0,0,0-.08.1c.26-.33.52-.66.8-1s.56-.65.86-.95.64-.62,1-.9.66-.54,1-.8A20.12,20.12,0,0,1,75.62,45c.35-.2.7-.4,1.06-.58s.71-.34,1.08-.5l1.4-.57c.36-.14.72-.27,1.09-.39a2.06,2.06,0,0,0,.12.26,1.58,1.58,0,0,0,.12.15.66.66,0,0,0,.3.15,1.23,1.23,0,0,0,.54,0l.2,0,.44-.09a8.14,8.14,0,0,0,1.67-.54.81.81,0,0,0,.29-.19.75.75,0,0,0,.2-.33A.77.77,0,0,0,84.13,41.91ZM63.4,63.1a1.09,1.09,0,0,0,0-.18,1.77,1.77,0,0,0,0-.23h0l.46-.26,0,.41-.45.29Zm1.35,2a.11.11,0,0,0,.08,0,.12.12,0,0,0,.1,0l.43-.2v.07h0c-.09,0-.18.1-.27.15a.17.17,0,0,0-.06.23.11.11,0,0,0,.07.06h0c-.53-.08-1-.17-1.56-.3l.18-.1h0a.17.17,0,0,0,.29.12A.31.31,0,0,0,64,65v-.21l.35-.2a.16.16,0,0,0,0-.22.14.14,0,0,0-.14-.08.11.11,0,0,0-.08,0l-.14.08V64.2l.15-.08.41-.24h0c0,.34,0,.69,0,1A.17.17,0,0,0,64.75,65.07Zm2.59-1.2s0,0,.07-.08a1.09,1.09,0,0,0,0,.18l-.07,0-.83.38v-.09Zm.44-1.35q.31-.14.63-.24l.41-.16v.12a.49.49,0,0,1,0,.12c0,.11,0,.21,0,.31l-1,.39c0-.14,0-.28,0-.42a.13.13,0,0,0,0-.1h0Zm1.46-1.35,1.16-.51-.15.6-1.06.38c0-.16,0-.31,0-.47Zm3,.62.07-.25.31-.14c.11-.06.23-.1.34-.15l-.18.51h0l-.16.34-.3.15-.27.13A5.62,5.62,0,0,0,72.22,61.79Zm.7-3.14.46-.22.27-.13,0,.21h0l-.06.42-.74.33a1.55,1.55,0,0,0,0-.21Zm.12-.74.34-.18.33-.16c0,.12,0,.23,0,.35l-.48.22-.22.11C73,58.14,73,58,73,57.91Zm1.16-1.65c.08.21.14.42.2.63l-.11,0-.22.1V56.8c0-.15,0-.31,0-.47Zm-1.07,8.56h-.3l.09-.08,0,0A.37.37,0,0,0,73.13,64.82Zm-.42.22-.17,0,.17-.12s0,0,0,.06S72.7,65,72.71,65Zm-3.55-3,1-.36c-.05.18-.09.36-.14.54l-.88.35h0c0-.1,0-.2,0-.3A1.94,1.94,0,0,0,69.16,62Zm.06.85.69-.27c0,.13-.07.25-.1.38l-.69.24-.1,0a3.11,3.11,0,0,0,0-.32Zm1.08.32a.15.15,0,0,0-.07.1.16.16,0,0,0,0,.12.18.18,0,0,0,.11.08h.05c0,.14-.09.27-.13.4l0,.06-.2.08a.17.17,0,0,0-.1.07.2.2,0,0,0,0,.13.18.18,0,0,0,.07.1.18.18,0,0,0,.1,0v0a.05.05,0,0,1,0,0c-.05.11-.1.22-.14.33l-.32.11.23-.84.19-.06a.18.18,0,0,0,.11-.21.16.16,0,0,0-.16-.12h0c0-.09,0-.18.08-.28v-.05l.39-.14Zm1.58-.37.48-.22-.22.42-.14.24-.33.13.1-.27ZM74,58.14l.56-.26c0,.18,0,.36,0,.54l-.47.23-.21.09v0C74,58.53,74,58.33,74,58.14Zm-1.09,5.1-.2.29-.18.21-.53.2.24-.44Zm1.38-3.78-.56.27a5.6,5.6,0,0,0,.12-.59l.44-.2.2-.1C74.43,59.05,74.36,59.25,74.29,59.46Zm-.56.64.42-.2c-.07.19-.13.38-.19.56l-.47.2c.05-.17.09-.34.14-.51Zm-.49,1.31.12-.34.46-.19-.22.67c-.14.08-.27.17-.41.24l-.12.06C73.13,61.71,73.19,61.56,73.24,61.41Zm0,.73.2-.11c-.09.25-.17.5-.25.75l-.71.27c.09-.17.19-.33.27-.51a1.36,1.36,0,0,0,.1-.21Zm-1.48,1.55-.06.11a.16.16,0,0,0,.06.23h0l-.41.16c0-.09.07-.18.11-.26l.05-.14Zm-.83.65-.47.17-.07,0c0-.11.08-.22.12-.33v0l.58-.22C71,64.08,71,64.21,70.93,64.34Zm-1.4.87,0,0h0l.21-.07,0,.08Zm.14-1.71c0,.06,0,.13,0,.19l-.7.25s0,0,0-.07,0-.18,0-.27l.24-.08.5-.17A.83.83,0,0,1,69.67,63.5Zm-1-.18h0v0l-.68.26s-.07,0-.09.07a.15.15,0,0,0,0,.13.16.16,0,0,0,.08.1.13.13,0,0,0,.12,0l.53-.21c0,.11,0,.22,0,.33l-.74.27a.2.2,0,0,0-.11.11v0c0-.22,0-.45,0-.68s0-.2,0-.3l1-.37Zm-1.3,1.08v.16h-.06l-.08,0-.56.27-.2.09a1.21,1.21,0,0,0,0-.19l.9-.41Zm-1.22.69-.36.16-.16.07c0-.07,0-.14,0-.21l.22-.1.27-.12V65A.2.2,0,0,0,66.16,65.09Zm-.86.27h-.07l.08,0Zm1.1,0,.39-.19.57-.27c0,.09,0,.18,0,.28l-.5.27h-.62Zm1.27,0,.51-.28a.16.16,0,0,0,.06-.23.16.16,0,0,0-.14-.08l-.08,0-.33.18c0-.15,0-.29,0-.44h0a.17.17,0,0,0,.2.12l.59-.21c0,.3-.1.61-.16.91l-.67.05Zm1.18-1v-.06l.65-.23-.21.76-.13.43-.49,0C68.74,65,68.8,64.68,68.85,64.37Zm1.32.69a.61.61,0,0,1,0-.12l.52-.19-.06.14a5.08,5.08,0,0,1-.51.17Zm1-.45.11,0,.4-.15-.56.28Zm3.35-7.08-.49.23,0-.35.33-.15.08,0C74.49,57.32,74.51,57.43,74.52,57.53Zm-1.8,2.23,0-.11.74-.34c0,.2-.09.41-.14.61l-.74.36Zm-.2,1v0l.7-.35c0,.16-.09.32-.14.49l-.68.29Zm-1.27,2.83-.6.23a1.21,1.21,0,0,0,0-.14l.09-.3v0l.66-.3Zm-.64-.79a.15.15,0,0,0-.07,0h-.05l-.3.11c0-.14.07-.28.1-.41l.44-.18ZM71,60.67s0,0,0,0q-.09.61-.21,1.23l-.43.17c0-.17.09-.35.13-.52l.21-.07a.17.17,0,0,0,.12-.2.18.18,0,0,0-.16-.13h-.07c0-.19.1-.37.14-.56a.09.09,0,0,0,0-.07l.27-.12,0,0A3.11,3.11,0,0,1,71,60.67Zm-4.85,3.85-.4.19-.07,0v-.08l.46-.21Zm-5.92.7a.19.19,0,0,0-.15-.08.11.11,0,0,0-.08,0l-1.12.69-.67.4h-.07l-.38,0,1.51-.9A.17.17,0,0,0,59.2,65l-.08,0-1.87,1.12-.38-.09.2-.13.5-.31,1.1-.7a.17.17,0,0,0,.06-.23.18.18,0,0,0-.15-.08.12.12,0,0,0-.08,0l-1.14.73-.51.31-.23.16a.41.41,0,0,0-.11.07l-.15-.14,0,0,1.48-1a.17.17,0,0,0,.06-.23.18.18,0,0,0-.15-.08l-.08,0-1.49,1,0,0a.51.51,0,0,0-.22-.19l1.48-1a.17.17,0,0,0-.09-.31l-.08,0L56,64.77s0,0,0-.06,0-.18.06-.26c.41-.32.83-.63,1.25-.94a.25.25,0,0,0,.08-.1.2.2,0,0,0,0-.13.14.14,0,0,0-.1-.07h0l-.09,0-1,.77a7.27,7.27,0,0,0,0-1.32,3.94,3.94,0,0,0-.21-1,2.85,2.85,0,0,0-.24-.53,3.67,3.67,0,0,0-.27-.38,2.69,2.69,0,0,1,.16-.29,3,3,0,0,1,.36-.35,3.68,3.68,0,0,1,.64-.37h0l0,0,0,0,.48-.17.56-.12a6,6,0,0,1,1.2,0,6.27,6.27,0,0,1,1.27.34l.45.21.08,0a.16.16,0,0,0-.1.15.16.16,0,0,0,.05.11,2,2,0,0,0-.25.14l-.76.4a.16.16,0,0,0-.06.22.18.18,0,0,0,.23.06l.76-.4.37-.2.23-.15.29.27-.35.2-.46.28-.19.13a4,4,0,0,0-.34.23.18.18,0,0,0-.07.1.2.2,0,0,0,0,.13.18.18,0,0,0,.23.06l.28-.2.25-.16.15-.09.28-.18.42-.23a3.37,3.37,0,0,1,.19.32c-.12.09-.25.17-.38.25l-.52.32-.49.3-.55.34a.18.18,0,0,0-.06.23.18.18,0,0,0,.23.06l.55-.34.49-.3.52-.32.35-.23c.05.12.08.25.12.38L61.9,62l-.21.14-.51.3-.53.3L60.3,63l-.11.06-.09.06-.07.08,0,.08a.17.17,0,0,0,.12.21.17.17,0,0,0,.2-.12l.34-.19L60.9,63l.46-.26.49-.29.17-.11.06,0c0,.09,0,.18,0,.27l-.05,0-.52.37-.2.13-.23.15-.46.28c-.14.09-.28.17-.42.27a.16.16,0,0,0-.07.09.15.15,0,0,0,0,.13.18.18,0,0,0,.23.06l.4-.26.42-.25.43-.28.43-.31a2.46,2.46,0,0,1,0,.28c0,.08,0,.16,0,.24l-.68.42-1,.58a.19.19,0,0,0-.06.23.18.18,0,0,0,.23.06l1-.55.47-.29c0,.08,0,.17-.07.25l-.12.24-1.37.89a.15.15,0,0,0-.06.22.16.16,0,0,0,.23.06l.84-.54a4.07,4.07,0,0,1-.43.4c-.1.08-.2.14-.3.21a3.59,3.59,0,0,1-.34.17c-.21.08-.42.16-.64.22s-.45.1-.67.14l.09-.06,1.13-.7A.17.17,0,0,0,60.25,65.22Zm-8.7,2.41c-.33,0-.66.05-1,.06a5.51,5.51,0,0,1-.81,0,8.41,8.41,0,0,1-.85-.15q-.42-.13-.84-.3a4.36,4.36,0,0,1-.59-.35,3.78,3.78,0,0,1-.49-.49,2.87,2.87,0,0,1-.32-.53,3,3,0,0,1-.12-.43,6.43,6.43,0,0,1,0-1.24,6.83,6.83,0,0,1,.17-.81,7,7,0,0,1,.3-.88l.23-.45a3.46,3.46,0,0,1,.29-.45l.31-.36a4.89,4.89,0,0,1,.41-.37l.73-.52a.49.49,0,0,0,.29-.06l.36-.2a3.66,3.66,0,0,1,.65-.17,5.49,5.49,0,0,1,.9,0c.35.06.71.13,1.06.21a7.42,7.42,0,0,1,1.11.33l-.58.38c-.27.17-.52.36-.78.54a.17.17,0,0,0-.07.1.15.15,0,0,0,0,.13.17.17,0,0,0,.23.06l.41-.3.35-.24.78-.51a3.78,3.78,0,0,1,.43.26L52,62.22a.19.19,0,0,0-.06.23.17.17,0,0,0,.23.06c.75-.47,1.51-.93,2.27-1.39l.23.27c.07.09.12.18.18.27l-.26.14c-.23.13-.46.24-.69.36s-.42.2-.63.3l-.77.38a.16.16,0,0,0-.06.22.16.16,0,0,0,.23.06l.74-.35.64-.31.41-.22.27-.14L55,62c0,.11.07.22.1.33l-1.9,1.13a.16.16,0,0,0-.06.22.17.17,0,0,0,.23.06l1.79-1.06a5.44,5.44,0,0,1,0,.57l-.28.16-.62.33L53.7,64l-.32.16-.16.09-.06,0L53,64.4a.39.39,0,0,0-.08.1.2.2,0,0,0,0,.13.17.17,0,0,0,.23.06.42.42,0,0,1,.14-.09l.08,0,.2-.1.33-.18.54-.28c.21-.11.43-.22.63-.34l.1-.06a2.55,2.55,0,0,1,0,.39.09.09,0,0,1,0,.05l-.82.49-1.09.63a.15.15,0,0,0-.06.22.15.15,0,0,0,.22.06l1-.6c.17-.09.34-.18.5-.28l.11-.07a2,2,0,0,1-.06.23,1.83,1.83,0,0,1-.08.25l-.42.31-.4.27-.41.27c-.15.1-.31.19-.45.3a.19.19,0,0,0-.08.1.16.16,0,0,0,.12.2.16.16,0,0,0,.12,0c.27-.2.55-.36.82-.54s.28-.18.41-.28l.08-.06-.09.18c-.56.36-1.11.71-1.68,1a.16.16,0,0,0-.06.23.17.17,0,0,0,.22.06l1.1-.68a4,4,0,0,1-.37.35,4.14,4.14,0,0,1-.82.51c-.24.1-.49.19-.73.27A4.22,4.22,0,0,1,51.55,67.63Zm-8.86-1.74a7.32,7.32,0,0,1-1-.26l-.45-.17a.14.14,0,0,0,0-.07,1.11,1.11,0,0,0-.05-.25.57.57,0,0,0-.08-.13L41,64.93h0v-.06h0l.12-.24a.36.36,0,0,0,.09-.22.41.41,0,0,1,0-.11.43.43,0,0,0,0-.11V64a1.34,1.34,0,0,1,.19-.48,2.84,2.84,0,0,1,.26-.24,2.33,2.33,0,0,1,.34-.2l.26-.06a2.18,2.18,0,0,1,.51,0l.6,0a3.62,3.62,0,0,0,.57,0l.19,0a.56.56,0,0,0,0,.08l0,0h0a.12.12,0,0,0-.11.05c-.07.07-.12.14-.18.21l-.06.05-.06.08a.23.23,0,0,0,0,.18.23.23,0,0,0,.07.1.25.25,0,0,0,.14.06h.11a.18.18,0,0,0,0,.1.18.18,0,0,0,.13.16h0l-.13.08a.18.18,0,0,0-.08.15.17.17,0,0,0,.08.14.31.31,0,0,0,.16.06h.12l-.13.11s-.11.09-.16.15l-.35.32h0a.09.09,0,0,0-.06.06.16.16,0,0,0,.19.24l.29-.1.31-.09.21-.06.13,0-.28.18-.24.14a4,4,0,0,1-.4.22.18.18,0,0,0-.08.13l-.19,0A4.93,4.93,0,0,1,42.69,65.89Zm-4-1.15h0a.17.17,0,0,0-.17.13c-.08.32-.17.63-.26,1l-.16,0-.05,0c.09-.29.18-.58.26-.87a.16.16,0,0,0-.11-.2h-.05a.17.17,0,0,0-.16.12.74.74,0,0,1,0,.14.16.16,0,0,0-.1-.08h0a.16.16,0,0,0-.16.12l0,0a1.46,1.46,0,0,0,0-.22.71.71,0,0,0-.17-.44.2.2,0,0,0,.13,0,12.51,12.51,0,0,1,1.07-.72c.18-.1.37-.18.55-.26l.26.05a.25.25,0,0,0,0,.07.16.16,0,0,0,0,.16l0,0,0,.06a.42.42,0,0,0,0,.1.14.14,0,0,0,0,.09.2.2,0,0,0,0,.08l.06.06.11,0h0v0a.2.2,0,0,0,0,.13.2.2,0,0,0,.15.08h.13a.22.22,0,0,0,0,.08.17.17,0,0,0,.14.25h.07l0,0a.15.15,0,0,0,0,.13.2.2,0,0,0,0,.08h0a1.82,1.82,0,0,1,0,.33.9.9,0,0,1,0,.16.45.45,0,0,0,0,.23l-.12.06a4.92,4.92,0,0,1-.85.26,3.62,3.62,0,0,1-.57,0c.09-.31.17-.62.25-.94A.16.16,0,0,0,38.73,64.74Zm-1,.83h0l-.06-.06s0,0,0,0a.17.17,0,0,0,.14,0ZM48.9,57.9l-.09-.1a.14.14,0,0,0,.12,0l0,0a.41.41,0,0,1,0,.11Zm-1.74,2.6a3.19,3.19,0,0,0-.33.4,3.89,3.89,0,0,0-.28.39.34.34,0,0,0-.27-.15h-.09l-.07,0h0a.76.76,0,0,1-.08-.11l-.11-.13-.09-.21a1.39,1.39,0,0,0-.21-.27,2.09,2.09,0,0,0-.14-.17l0,0v0a2.18,2.18,0,0,1,0-.25c0-.1,0-.2,0-.3v0a1.13,1.13,0,0,1,0-.18.31.31,0,0,0,.21,0,.36.36,0,0,0,.16-.37h.25l.3,0,.18,0a.57.57,0,0,0,.26,0,2.21,2.21,0,0,0,.61-.57h0l.18-.11.11-.07h0c.08.07.17.12.26.19l.07.06.05.08,0,.13a1.4,1.4,0,0,1,0,.29,4.76,4.76,0,0,1-.23.82A6.4,6.4,0,0,0,47.16,60.5ZM46,62.38a7.13,7.13,0,0,0-.46,2c0,.2,0,.39,0,.59a.38.38,0,0,0-.13.09l0,0,0-.07a.19.19,0,0,0,0-.13.16.16,0,0,0-.14-.08H45l-.12,0-.13,0-.26.07.12-.11.07-.09,0-.1a.14.14,0,0,0,0-.09.22.22,0,0,0,0-.1l-.09-.12.09-.06a.81.81,0,0,0,.14-.12h0c0,.06,0,.11,0,.16a.17.17,0,0,0,.16.17.16.16,0,0,0,.16-.12h0a.16.16,0,0,0,.11-.2c0-.11-.07-.21-.11-.32h.07a.43.43,0,0,0,.2-.15.39.39,0,0,0,0-.26.37.37,0,0,0-.15-.2l-.11-.08-.33-.27.17-.07a1.59,1.59,0,0,0,.56-.44,2,2,0,0,0,.24-.38l.3-.1,0,0h0Zm.6-4,0,0,0,0ZM42.73,62l-.09-.2a1.71,1.71,0,0,1-.09-.3.07.07,0,0,0,0,0v0h0l0-.16a2,2,0,0,1,.08-.26c.05-.11.11-.22.17-.33a2.37,2.37,0,0,1,.22-.33,4.58,4.58,0,0,1,.42-.46l.13,0,.14,0a.33.33,0,0,0,.39.2l.27-.06a.37.37,0,0,0,.1.22c.24.25.48.49.7.76l.1.17s0,.05,0,.08h-.1l-.07,0a1.2,1.2,0,0,0-.2,0,.86.86,0,0,0-.21.07,1.28,1.28,0,0,0-.23.14,1,1,0,0,0-.25.25l-.12.13A1,1,0,0,0,44,62a.5.5,0,0,0-.05.13H43.9l-.18,0h0l-.22,0a.17.17,0,0,0-.12,0,.19.19,0,0,0-.08.1.25.25,0,0,0,0,.12,1.6,1.6,0,0,0-.23,0h-.45a.23.23,0,0,0,.09-.08.29.29,0,0,0,0-.1A.33.33,0,0,0,42.73,62Zm.4-1.93h0Zm-1-1.19,0,0L42,58.74a3.26,3.26,0,0,1-.27-.48l0-.1a.34.34,0,0,1,0-.1l.06-.18c.05-.09.09-.19.13-.28a.15.15,0,0,0,0-.22h0l.11-.07a3.4,3.4,0,0,1,.26.5,2.64,2.64,0,0,1,.15.55.75.75,0,0,1,0,.15,1.21,1.21,0,0,1,0,.18l0-.08-.13.31Zm.67-2.27h0a.19.19,0,0,0,0,.08h-.17Zm2,2.49v0h0l-.07,0-.25.07Zm0-.89a.16.16,0,0,0-.13.16.17.17,0,0,0,0,.1v.06l.06.24-.06,0-.58.28-.4.18-.24.08a.22.22,0,0,0-.11.1h-.29a.35.35,0,0,0-.08-.13s0,0,0-.06a.16.16,0,0,0-.16-.16h0l0-.09.06-.13a2.17,2.17,0,0,0,.07-.24,2.09,2.09,0,0,0,0-.25,3.39,3.39,0,0,0-.08-.44,3.13,3.13,0,0,0-.32-.78l-.06-.1h.3l.1,0a.42.42,0,0,1,.15,0,1.51,1.51,0,0,1,.22.11.17.17,0,0,0,.23-.06s0,0,0,0l.14,0,.25,0a.17.17,0,0,0,.2.22l.32-.11a.74.74,0,0,0,0,.21.22.22,0,0,0,0,.08.17.17,0,0,0,0,.07.37.37,0,0,0,.05.11l0,.07.08.1.15.14h0s0,.06,0,.09Zm-3.44,0a1.69,1.69,0,0,0,.15.37,2,2,0,0,0,.28.41.16.16,0,0,0-.14.16.17.17,0,1,0,.33,0l0,0,.1,0h0a.19.19,0,0,0,0,.07.36.36,0,0,0,.15.12H42a.16.16,0,0,0-.14.08h0l-.68-.15h-.12l-.52-.08a1.09,1.09,0,0,1-.23-.14h0v0c0-.06.05-.12.08-.19a.13.13,0,0,0,0-.12s0,0,0,0a.11.11,0,0,0,0-.12.31.31,0,0,0-.17-.23l.27-.24s0,0,0,0l.05-.05s0-.08,0-.13,0-.08,0-.11h0l.07,0,.09,0,0,0a.13.13,0,0,0,.09-.07.1.1,0,0,0,0-.09,4.17,4.17,0,0,0,.79-.1l.06,0a3.89,3.89,0,0,0-.19.42.33.33,0,0,0-.05.16.45.45,0,0,0,0,.11Zm3.4,5.54h0v0a.11.11,0,0,1,0,.08l-.06-.05A.08.08,0,0,0,44.77,63.78Zm-.08-1.55-.16.05.32-.2L45,62l0,0-.09.09Zm.69-3.75h0Zm-5.26,4.23a.16.16,0,0,0,.27.07l.24-.21-.23.24a.17.17,0,1,0,.24.24l.6-.64a.17.17,0,0,0,0-.23.16.16,0,0,0-.11,0l.06-.06a.17.17,0,0,0-.11-.28.18.18,0,0,0-.12.05l-.06,0a.15.15,0,0,0-.15-.14.17.17,0,0,0-.12,0l-.88.81a.63.63,0,0,0-.11-.12l0,0-.1-.09a.28.28,0,0,0,.14-.26,4,4,0,0,0-.47-1.5l.12,0a.33.33,0,0,0,.24-.41h0l.07,0a1.89,1.89,0,0,0,.27-.2h0a.14.14,0,0,0,.11,0,4.28,4.28,0,0,1,.62,0L41,60l.09,0-.08,0,0,0a.33.33,0,0,0-.19.19.2.2,0,0,0,0,.13s.09.09.14.08l.23,0h0l-.17.12a.14.14,0,0,0,0,.16.16.16,0,0,0,.16.12h.18l.22,0-.07,0-.06.05a.24.24,0,0,0-.09.11.19.19,0,0,0,0,.16.17.17,0,0,0,.12.11l.06,0,.12,0h.25l0,0-.06,0-.22.2a.16.16,0,0,0,0,.23.15.15,0,0,0,.23,0l.26-.23a.31.31,0,0,0,.19,0v.08s0,.07,0,.11a1.27,1.27,0,0,0,.06.18s0,0,0,0a.86.86,0,0,0,.1.16l0,0,.07,0a.15.15,0,0,0,.09,0l-.17,0a2.66,2.66,0,0,0-.38.1l-.13,0a2.07,2.07,0,0,0-.46.2,2,2,0,0,0-.33.25,1.72,1.72,0,0,0-.4.49,1.45,1.45,0,0,0-.09.22.3.3,0,0,0-.24-.12h0l0,0-.19-.16L40,63.19l-.16-.07-.12,0ZM40,63.84l0,0v.06h0a.19.19,0,0,0,0-.08Zm4.33-.58h0a1.19,1.19,0,0,1,.09.15.75.75,0,0,1,.07.12h-.3l.1-.12A.18.18,0,0,0,44.36,63.26Zm3-5.65c-.14.17-.29.33-.43.49a3.83,3.83,0,0,1-.28.29h-.15l-.21,0c-.14,0-.28,0-.42,0h-.2a.18.18,0,0,0-.06-.23c-.14-.08-.27-.17-.4-.26a.29.29,0,0,0,0-.09.15.15,0,0,0-.11-.2H45s0,0,0,0a2.51,2.51,0,0,1,0-.27h0a.58.58,0,0,1,0-.19l0-.12h0a3.74,3.74,0,0,0,.52-.28l.26-.2.1-.1a.38.38,0,0,0,.26-.23h.09l.15,0h0l.15.09.18.18a5.52,5.52,0,0,1,.51.92l0,.08Zm-4.53-1.4v0l.06,0Zm.29-1.11h0Zm-4.49,6.4,0,0-.24.18h0Zm0,.42h0l-.29.24-.16.13,0,0c.14-.13.28-.24.43-.36h0Zm.26.78,0,0-.06,0Zm6.15,3.81a4.1,4.1,0,0,0,.56-.36l.08-.07.11.27-.38.07-.15,0-.26.07Zm9.64.74.17-.18.12,0h.14l.23,0,.2,0-.89.11Zm.76-.63-.26,0c.06-.09.11-.19.17-.29l.07,0,.09-.06a1.71,1.71,0,0,0,.21.26l0,0Zm.66.22h0l.12,0-.17,0Zm2-10.51a.15.15,0,0,0,.16,0l.06,0-.18.41h0a.18.18,0,0,0-.07.2c-.22.53-.45,1.05-.67,1.57l-.16,0h0c.1-.27.21-.53.32-.79C57.71,57.25,57.9,56.79,58.09,56.33Zm1.26,0,.47-.3,0,.08c-.13.27-.26.56-.39.84a1.17,1.17,0,0,0,0,.11l-.44.27.15-.37.24-.59Zm1.17-.93.12-.08a.18.18,0,0,0,.07-.1l.13-.09c-.06.13-.12.25-.17.38l-.12.09h0l0,0h0l-.09.07-.08.06-.06.09a.15.15,0,0,0,0,.17.14.14,0,0,0,.1.07c-.07.16-.14.32-.22.48l-.29.18-.06,0c.08-.17.16-.35.25-.52l.28-.57a.21.21,0,0,0,.07-.14l.06-.13Zm1.75-1.22h0a.18.18,0,0,0-.12,0l-.48.45-.14.12-.21.18-.17.14a.16.16,0,0,0-.07-.09L61,55l.46-.34c.26-.19.51-.39.76-.59A.47.47,0,0,1,62.27,54.17Zm.23,1.19a.86.86,0,0,0,.13-.14c0,.15.06.31.08.46h0l-.23.17a.14.14,0,0,0-.13.08l0,0,0,0-.43.31c.13-.26.27-.51.41-.77Zm-4,2.87v0h0l.16-.37.05,0,.36-.22a.61.61,0,0,1-.05.12c-.06.15-.13.3-.2.46l-.12.29-.37,0a.2.2,0,0,0,.09,0l0,0A.16.16,0,0,0,58.53,58.23Zm.54.26h0c.17-.4.35-.81.53-1.21l.35-.2-.24.5c-.05.12-.11.23-.16.35l0,0a.17.17,0,0,0-.08.18.54.54,0,0,1-.07.13l-.06.14s0,.07,0,.11,0,0,0,0l-.22,0Zm2.38-3.2-.2.37c0,.11-.1.21-.16.32l-.39.24.24-.52Zm-1.14,3.12-.08.05a.19.19,0,0,0,0-.08v0l0,0c.09-.21.2-.42.31-.62l.15-.09.09,0L60.6,58c-.06.11-.12.22-.17.33l0,0ZM61.83,57l-.58.48.1-.2.44-.25,0,0Zm-.29,2.5-.08-.06.15-.12a.06.06,0,0,0,.06,0,.18.18,0,0,0,.1-.07l0-.08.42-.33-.09.21Zm.85-1.1-.08,0a.16.16,0,0,0-.11,0l-.12.09.06-.12.33-.21A1.8,1.8,0,0,1,62.39,58.38Zm.2-.64a.13.13,0,0,0-.08,0l-.15.09.23-.53.16-.13,0,.44a.22.22,0,0,0-.07.09v0Zm-1.24.06.08-.06,0,0ZM61,58c0-.08.08-.16.13-.24l0,0a.16.16,0,0,0,.11,0h0L61,58l-.1.06Zm.66.08.36-.29.07,0-.06.14-.1.24-.44.27Zm0,.58c0,.09-.07.18-.11.27l-.36.28L61,59.11Zm.26,1a1,1,0,0,1,0,.1h0l0,0ZM62.35,57l0,0,0,.11-.32.26.09-.18.31-.27ZM62,56.72l-.09.18a.25.25,0,0,0,0-.12l0,0,.17-.11,0,0Zm-1.3-.08h.09l-.35.67a.61.61,0,0,1-.07.14l-.27.16h0c.09-.19.19-.39.27-.59l.12-.27Zm-.78,1.64c0-.06.09-.12.13-.19L60,58.2s0,.06,0,.08a.38.38,0,0,0,0,.1.17.17,0,0,0,.16.17,1.18,1.18,0,0,0-.18.13l-.24-.07Zm.54.46a.19.19,0,0,0,.09,0,.17.17,0,0,0,.16-.17h0l.06,0,.38-.22c0,.09-.09.18-.13.27a.17.17,0,0,0,0,.1l-.37.23h0l-.32-.13Zm2.33-2.55,0,0-.22.2a1.51,1.51,0,0,1,.11-.22l.14-.11S62.75,56.15,62.75,56.19Zm-1.49.53-.27.19.14-.27c.07-.14.14-.27.2-.4a3.55,3.55,0,0,0,.31-.23C61.52,56.25,61.39,56.48,61.26,56.72Zm-2.82.85v0c-.1.22-.2.45-.28.68a.16.16,0,0,0,.08.19h-.5c.21-.5.43-1,.65-1.5l.41-.26C58.68,57,58.56,57.27,58.44,57.57ZM59,56.14l-.39.25,0-.12a.13.13,0,0,0,0-.12.1.1,0,0,0,0-.08l.56-.37Zm4,8.71,0,0h.07a.18.18,0,0,0,.12,0,.15.15,0,0,0,0-.11l.43-.24v.14l-.47.27a.15.15,0,0,0-.08.14l-.19,0Zm.8-1.59-.06.74-.25.14-.18.1c0-.23,0-.46,0-.69ZM63,64.45l0,0-.12.09-.09.13a.19.19,0,0,0,0,.13.21.21,0,0,0,0,.06l-.08,0-.06,0,0-.06a2.93,2.93,0,0,0,.28-.8,1.62,1.62,0,0,1,0-.19s0,0,0,0h0C63,64,63,64.23,63,64.45ZM62.43,55l-.2.18h0a.16.16,0,0,0-.14.08.41.41,0,0,0,0,.09h0l-.33.24.06-.12L62,55a.15.15,0,0,0,0-.16l.37-.34,0,0v0c0,.13.09.26.13.39Zm-16-1.48a2,2,0,0,1,.17-.27,3.88,3.88,0,0,1,.26-.31l.28-.25c.18-.14.36-.26.55-.38a4.49,4.49,0,0,1,.54-.26,5.07,5.07,0,0,1,1.16-.3,2.69,2.69,0,0,1,.4,0,4.38,4.38,0,0,1,.5,0c.5.08,1,.21,1.5.3.3.06.6.1.9.13h.14c0,.55.09,1.09.14,1.64l-.87-.07a.47.47,0,0,0-.35.14.52.52,0,0,0-.14.35.54.54,0,0,0,.14.36.52.52,0,0,0,.35.14,11.76,11.76,0,0,0,1.45.09c.26,0,.51,0,.76-.06A4.29,4.29,0,0,0,55,54.6a.5.5,0,0,0-.13-1,.27.27,0,0,0-.13,0,4,4,0,0,1-.69.15H54c0-.52-.1-1-.14-1.57a9.44,9.44,0,0,0,1.5-.17c.54-.09,1.07-.2,1.61-.28q.38,0,.75-.06a9.55,9.55,0,0,1,1.07,0,3.9,3.9,0,0,1,.59.14l-.87.61a.39.39,0,0,0-.08.1.19.19,0,0,0,0,.13.17.17,0,0,0,.23.06L59.74,52l.2.07.22.12-.44.35h0l-.49.37a.18.18,0,0,0-.07.1.2.2,0,0,0,0,.13.39.39,0,0,0,.1.08.19.19,0,0,0,.13,0c.36-.27.72-.56,1.07-.84l.18.12-.23.19-.2.16L60,53h0l-.73.56a.14.14,0,0,0-.08.1.13.13,0,0,0,0,.12.14.14,0,0,0,.09.08.15.15,0,0,0,.13,0l.81-.61.39-.3.2-.17.08-.07.19.17,0,0-.45.36h0l0,0h0l-.82.61a.14.14,0,0,0-.08.09.19.19,0,0,0,0,.13.17.17,0,0,0,.23.06l.83-.62.32-.25.23-.19.19.19-.61.48h0l-.42.33-.27.21-.26.19-.13.12-.09.12a.16.16,0,0,0,0,.12.18.18,0,0,0,.07.1A.2.2,0,0,0,60,55c.05,0,.07,0,.1-.08l0-.05.19-.16.79-.6.7-.56a.6.6,0,0,1,.08.08c.05.07.09.14.14.2l-.51.4-.61.45-.32.24,0,0-.08,0a.15.15,0,0,0-.14.08c-.09.18-.17.35-.26.52l-.6.4.08-.21v0a1.22,1.22,0,0,1,.07-.17.44.44,0,0,0,0-.1.16.16,0,0,0,0-.21.17.17,0,0,0-.14-.09.11.11,0,0,0-.08,0L58.17,56a.22.22,0,0,0-.06-.07.16.16,0,0,0-.09,0h0a.16.16,0,0,0-.1.08c-.37.87-.72,1.74-1.07,2.62l-.43.14c.29-.61.58-1.23.88-1.85a.13.13,0,0,0,0-.12.21.21,0,0,0-.07-.11l-.08,0a.18.18,0,0,0-.15.08c-.35.74-.7,1.48-1.06,2.22l-.36.21.21-.6c.07-.18.13-.37.21-.55s.19-.47.29-.7l.08-.15a.18.18,0,0,0-.06-.23l-.09,0a.17.17,0,0,0-.14.08c-.13.26-.23.53-.34.79,0,.08-.07.15-.1.23l-.12.34c-.08.22-.16.43-.23.65l-.18.53a1.48,1.48,0,0,0-.24.26,1.44,1.44,0,0,0-.18.25L54.59,60a2.08,2.08,0,0,0-.38-.22c.1-.31.21-.61.31-.91s.1-.29.14-.44.11-.4.16-.59a.16.16,0,0,0-.11-.21h0a.18.18,0,0,0-.17.12c0,.2-.1.39-.16.59s-.1.3-.14.44l-.3.85-.23-.1-.09,0c.09-.22.17-.44.25-.66l.18-.51c.08-.23.16-.47.23-.71a.16.16,0,0,0-.11-.2h0a.18.18,0,0,0-.17.12c-.07.23-.14.45-.22.68s-.11.33-.17.51-.17.45-.26.68L53,59.3l.18-.51c.09-.26.19-.51.28-.77,0,0,0,0,0,0l.21-.47a.16.16,0,0,0-.06-.23l-.08,0a.15.15,0,0,0-.14.08c-.05.09-.09.18-.13.27a2.56,2.56,0,0,1-.11.24c-.06.19-.13.36-.2.55s-.13.34-.19.52,0,.14-.08.22l-.08,0-.2-.05.27-.72v0c.09-.2.17-.39.25-.59a.17.17,0,0,0,0-.12.18.18,0,0,0-.08-.11l-.08,0h0a.15.15,0,0,0-.1.07c-.2.46-.39.92-.56,1.38l-.2,0a7.75,7.75,0,0,1,.24-.78c.11-.33.21-.66.31-1a.16.16,0,0,0-.11-.2h0a.18.18,0,0,0-.17.12c-.09.32-.19.63-.29.94l-.15.43c0,.14-.09.29-.12.43h-.05a3,3,0,0,0-.42,0c.2-.54.4-1.07.61-1.6a.08.08,0,0,1,0,0l.27-.6a.15.15,0,0,0,0-.13.13.13,0,0,0-.07-.09l-.09,0a.17.17,0,0,0-.14.08c-.17.37-.32.74-.46,1.11s-.3.79-.45,1.18h-.33c.16-.74.34-1.48.52-2.22a.17.17,0,0,0-.11-.2h0a.17.17,0,0,0-.16.12c-.2.78-.38,1.57-.56,2.35l-.29.07a.16.16,0,0,0,0-.08c.08-.41.17-.83.25-1.24,0-.2.07-.4.11-.6s.09-.48.13-.72a.13.13,0,0,0,0-.12.16.16,0,0,0-.1-.08h0a.15.15,0,0,0-.16.12l-.12.7-.12.61c-.08.41-.17.83-.25,1.25a.16.16,0,0,0,.12.2h0l-.11,0a.5.5,0,0,0-.24,0c0-.36,0-.72,0-1.08l.34-.42a.18.18,0,0,0,.05-.12.15.15,0,0,0-.05-.12.15.15,0,0,0-.11,0,.17.17,0,0,0-.12,0l-.09.11v0l.36-.38a.15.15,0,0,0,0-.23.17.17,0,0,0-.12,0,.13.13,0,0,0-.11,0l-.1.1c0-.08,0-.16,0-.24l.23-.22a.15.15,0,0,0,0-.23.16.16,0,0,0-.11-.05l-.08,0c0-.16,0-.32,0-.47l0-.05a.17.17,0,0,0,0-.23.21.21,0,0,0-.12,0,.18.18,0,0,0-.12,0l-.7.64a.16.16,0,0,0,.23.23l.3-.27,0,.47-.32.29a.17.17,0,0,0,0,.23A.17.17,0,0,0,49,57l0,0c0,.1,0,.19,0,.29l-.28.29a.19.19,0,0,0-.05.14l-.2-.14,0-.06-.12-.29a.32.32,0,0,0,.07-.19.33.33,0,0,0-.1-.23.34.34,0,0,0-.19-.09l-.18-.34a3.92,3.92,0,0,0-.45-.62,1.75,1.75,0,0,0-.48-.34h0l2.1-1.6a.19.19,0,0,0,.08-.1.2.2,0,0,0,0-.13.16.16,0,0,0-.1-.08h0a.1.1,0,0,0-.07,0l-2.27,1.72,0,0h0c-.06-.09-.11-.19-.16-.28l2.35-1.81a.17.17,0,0,0,0-.24.17.17,0,0,0-.12-.05.16.16,0,0,0-.11.05L47.12,54h0l-.88.68,0,0a1.05,1.05,0,0,0,.05-.19v0c0-.09,0-.19,0-.29l.06,0a.15.15,0,0,0,.13,0L48,53s.07,0,.08-.1a.16.16,0,0,0-.12-.2h-.05l-.07,0-1.51,1.13C46.38,53.73,46.41,53.61,46.44,53.49Zm-2.12.73a3.07,3.07,0,0,1,.46.27,2.41,2.41,0,0,1,.24.21h0c.08.31.17.61.24.92a1.92,1.92,0,0,1,0,.24,1,1,0,0,1-.05.18l-.08.13,0,0-.36.28a2.46,2.46,0,0,1-.39.09l-.48,0a.33.33,0,0,0-.31-.25.33.33,0,0,0-.25.12l0,0-.11-.09.14-.09a.17.17,0,0,0-.09-.31l-.08,0-.06,0a.22.22,0,0,0,0-.16.14.14,0,0,0-.1-.07h0l0,0v0c.09-.12.18-.22.28-.33l.1-.11.17-.16a.16.16,0,0,0,0-.24.16.16,0,0,0-.11-.05.21.21,0,0,0-.11,0,.11.11,0,0,0,0-.08.16.16,0,0,0-.1-.08h0a.12.12,0,0,0-.08,0,.77.77,0,0,1,0-.15l.06,0a.14.14,0,0,0,.09,0l.49-.31a.18.18,0,0,0,.08-.16h.06A2.81,2.81,0,0,1,44.32,54.22Zm-1.18,0-.06,0h0a.15.15,0,0,0-.09,0l-.05,0,0,0Zm-3.16.6.29-.19.29-.14a4.63,4.63,0,0,1,.83-.23H42l.12.08a.17.17,0,0,0,0,.1s0,.11.1.14l.09,0,0,0-.18.09a.62.62,0,0,0-.18.14.17.17,0,0,0,0,.26l.09,0a.16.16,0,0,0,.2-.11v0l.12-.06,0,0v.3c0,.11,0,.22-.07.33l-.1,0a.17.17,0,0,0-.06.23l0,.06s0,0,0,0a.69.69,0,0,1-.11.13,1.78,1.78,0,0,0-.21.27.23.23,0,0,0,0,.18l-.1.09a.15.15,0,0,0-.16-.15.16.16,0,0,0-.16.16.15.15,0,0,0,.11.16l-.09,0a1.18,1.18,0,0,1-.27.06l-.5,0h-.31v-.07A.34.34,0,0,0,40,56.5h0L40,56.44a2.91,2.91,0,0,0-.6-.27l-.26-.08-.09,0,.1-.22a3.55,3.55,0,0,1,.32-.53A4.76,4.76,0,0,1,40,54.77Zm-2.69,4.11a6.33,6.33,0,0,1,.31-1.05,3.1,3.1,0,0,1,.29-.5,3.6,3.6,0,0,1,.37-.41l.23-.2.49.2L39,57l.28.16h0a.16.16,0,0,0,0,.28.37.37,0,0,0,.12.07l.14,0h.15v.07l-.06.06s0,0,0,0l-.09.09a.25.25,0,0,0,0,.07s0,.08,0,.12a.21.21,0,0,0,.1.16l0,0a.28.28,0,0,1,0,.09c0,.06,0,.12,0,.18l-.05.07a.15.15,0,0,0,0,.13.16.16,0,0,0,.08.1h0c0,.14,0,.28,0,.42s0,0,0,.06,0,0,0,0l-.24.23a2,2,0,0,1-.32.18.3.3,0,0,0-.16.33l-.33.08a.33.33,0,0,0-.29-.17.32.32,0,0,0-.32.29l-.26,0h0l-.3-.06s0-.08,0-.13A7.71,7.71,0,0,1,37.29,58.88Zm-.92,1.51h0l0,0Zm0,2.1c0-.1,0-.21.06-.32s.07-.19.11-.29a2.74,2.74,0,0,1,.29-.49l.25-.3a.12.12,0,0,0,.1,0l.3-.11a.16.16,0,0,0,.15,0l.09-.07h.06a.17.17,0,0,0-.06.06.3.3,0,0,0,0,.08.13.13,0,0,0,0,.12v0s0,0,.06,0l0,0-.09.11a.45.45,0,0,0,0,.11.18.18,0,0,0,.12.2.16.16,0,0,0,.2-.12v0l0,0,.12-.11a.71.71,0,0,0,.09-.07l.18-.15h0l0,.06-.35.35-.2.21-.14.15a.14.14,0,0,0,0,.08.2.2,0,0,1,0,.07.14.14,0,0,0,.05.11.16.16,0,0,0,.12,0h0a.17.17,0,0,0,0,.12.16.16,0,0,0,.21,0l0,0a1.34,1.34,0,0,0-.11.14.17.17,0,0,0,.06.23.17.17,0,0,0,.23-.06v0l.11-.1.07-.06.15-.12.15-.12s0,0,0,0c-.13.19-.27.37-.41.56a.16.16,0,0,0,0,.12l-.2.11,0,0-.18.07a1.12,1.12,0,0,0-.47.33l-.06.1-.09.07a.38.38,0,0,0-.16.19.47.47,0,0,0,0,.17l0,0-.17-.12a3.06,3.06,0,0,1-.36-.36c0-.08-.1-.15-.14-.23s-.06-.23-.09-.34A2.9,2.9,0,0,1,36.36,62.49ZM29.88,72h0A.14.14,0,0,0,30,72l.85-.36c.24-.11.49-.21.73-.3l0,.06c-.7.3-1.39.59-2.09.87Zm.42-.43a4.57,4.57,0,0,1,.45-.43,1.82,1.82,0,0,1,.27-.15l.15,0h0l.13,0,.09.06.06,0-.63.26Zm-1.05,1a0,0,0,0,0,0,0,.16.16,0,0,0,.2.11c.76-.31,1.53-.63,2.28-1,0,0,0,.09.05.13a3.86,3.86,0,0,0,.72,1.22,3.19,3.19,0,0,0,1.18.84,3.05,3.05,0,0,0,.68.15,2.38,2.38,0,0,0,.75-.06,2.55,2.55,0,0,0,.62-.23,3,3,0,0,0,.42-.27c.19-.14.38-.28.56-.44l.22-.19s.05.05.08.06a.15.15,0,0,0,.13,0l.22-.11.48-.21a.16.16,0,0,0,.09-.09.16.16,0,0,0,0-.12.21.21,0,0,0-.08-.1l-.09,0h0l-.19.09.06-.06.27-.2a5.08,5.08,0,0,1,.76-.42,3.21,3.21,0,0,1,.75-.21,3.66,3.66,0,0,1,.74,0,5.46,5.46,0,0,1,.88.24,4.19,4.19,0,0,1,.49.2l-.12-.05a5.67,5.67,0,0,1,1,.61,6.45,6.45,0,0,1,.66.62c.12.12.22.25.33.38s.38.52.56.79a15.05,15.05,0,0,0,1,1.4,4.74,4.74,0,0,0,1,.85,5.25,5.25,0,0,0,1.35.65,5.76,5.76,0,0,0,1,.22,6.64,6.64,0,0,0,1,.1,3.44,3.44,0,0,0,1.41-.27,3.71,3.71,0,0,0,1.18-.79,8.08,8.08,0,0,0,.78-1,6.7,6.7,0,0,0,.54-.88l1.59-.82a.16.16,0,0,0,.06-.23.17.17,0,0,0-.14-.08l-.09,0L53.43,74l.18-.4s0,0,0,0h0a.16.16,0,0,0,.22.06c.27-.14.53-.29.79-.44L55,73l.53-.33a.17.17,0,0,0-.09-.31.13.13,0,0,0-.08,0l-.84.52-.78.43.15-.29A.2.2,0,0,0,54,73l2.46-1.35a.16.16,0,0,0,.07-.13l.53,0a1.82,1.82,0,0,1,.46.11l.05,0,.07.08a.94.94,0,0,1,.12.22,2.44,2.44,0,0,1,.1.24h-.06a.15.15,0,0,0-.09,0l-1.35.7a.17.17,0,0,0-.06.23.18.18,0,0,0,.23.06l1.35-.71a.12.12,0,0,0,.06-.08l.12.28.06.13c-.38.17-.77.33-1.15.51a.16.16,0,0,0-.06.23.14.14,0,0,0,.1.07.13.13,0,0,0,.12,0c.38-.18.76-.35,1.15-.51,0,.09.12.18.18.27l-.29.15-.91.44a.18.18,0,0,0-.06.23.17.17,0,0,0,.1.07.15.15,0,0,0,.13,0l.85-.41.4-.21A2,2,0,0,0,59,74l-1.36.72a.17.17,0,0,0,.17.29c.49-.27,1-.53,1.49-.79l.12.08a3.91,3.91,0,0,0,.44.26l-.92.5-.49.27-.29.15-.17.08-.1.08-.06.1a.17.17,0,0,0,0,.12.14.14,0,0,0,.08.1l0,0L58,76a.13.13,0,0,0,.12,0,.16.16,0,0,0,.08-.1.09.09,0,0,0,0-.07l.09,0,.09,0,.26-.14.48-.26,1.06-.58a6.58,6.58,0,0,1,.63.38,3.15,3.15,0,0,1,.36.37,7.26,7.26,0,0,1,.57.91c-.67.29-1.34.58-2,.89a.18.18,0,0,0-.06.23.2.2,0,0,0,.1.08.19.19,0,0,0,.13,0c.66-.31,1.34-.6,2-.89A14.07,14.07,0,0,1,62.67,78a4.59,4.59,0,0,1,.24.9c.06.62.05,1.24.06,1.86a.27.27,0,0,0-.07-.08.16.16,0,0,0-.09,0h0c-.73.31-1.45.64-2.16,1a.16.16,0,0,0-.08.1.15.15,0,0,0,0,.13.16.16,0,0,0,.1.08.17.17,0,0,0,.12,0l1-.47.94-.41h0l.15-.06a.25.25,0,0,0,.1-.08v0c0,.16,0,.33,0,.5h0l-.09,0L61.34,82a.14.14,0,0,0-.07.1.15.15,0,0,0,0,.13.14.14,0,0,0,.1.07.15.15,0,0,0,.13,0l1.5-.67v0a2.54,2.54,0,0,0,0,.29l-1.57.83a.16.16,0,0,0-.06.23.16.16,0,0,0,.22.06l1.47-.78a4.37,4.37,0,0,0,.22.7,4.59,4.59,0,0,0,.57,1,.39.39,0,0,0-.18,0h-.1a.57.57,0,0,0-.38,0h0l-1.17.13c-.57.07-1.14.17-1.71.25s-1.32.15-2,.18-1.41,0-2.12,0c-1.43,0-2.85-.1-4.27-.15l-2.14-.1c-.7,0-1.4-.11-2.09-.2l-2.43-.38c-.8-.13-1.6-.24-2.4-.34h0c-.72-.1-1.43-.2-2.15-.28l-2-.23h.08l-.11,0h0l-1.91-.27-1.15-.17c-.35-.06-.7-.15-1-.23-.66-.16-1.31-.34-2-.44l-1-.16a5.91,5.91,0,0,1-1-.29h0l-1-.45-.5-.25-.32-.14a.17.17,0,0,0,0-.07v0c-.08-.58-.13-1.16-.16-1.74,0-.35,0-.7-.05-1.05a4.29,4.29,0,0,1,0-.62,1,1,0,0,1,.17-.1l.22-.12.58-.3,1.21-.63a.16.16,0,0,0,.05-.23.18.18,0,0,0-.1-.07h0l-.09,0-1.21.63-.54.28-.2.11c0-.24.08-.47.11-.71.23-.13.47-.25.71-.36h0l.45-.21.62-.26a.16.16,0,0,0-.05-.32H30.4l-.56.23-.42.19c-.22.1-.43.21-.64.32,0,0,0,0,0-.08a3.49,3.49,0,0,0,0-.56c0-.2-.06-.39-.09-.58a3.62,3.62,0,0,1,0-.57c.05-.3.12-.6.2-.9h0Zm25.06-.11.21-.24,1.4-.6H56c-.61.33-1.21.67-1.83,1Zm-26.69,17a4.7,4.7,0,0,1,.18-.74c.09-.28.2-.56.31-.83a4.46,4.46,0,0,0,.26-1.74c0-.54-.07-1.09-.11-1.64,0-.28-.05-.56-.07-.83a6.75,6.75,0,0,1,0-1c0-.14.06-.27.1-.41a1.19,1.19,0,0,1,.09-.15,4.07,4.07,0,0,1,.41-.42l1,.48.5.22.54.18a6.55,6.55,0,0,0,1,.2,19.57,19.57,0,0,1,2,.38l1.1.27c.36.08.73.14,1.09.19s.91.13,1.36.2,1.09.16,1.64.22l3,.36h0l1.41.19h.09l2,.3c.75.12,1.49.26,2.24.35.35,0,.71.09,1.06.12l1.1.09c.72,0,1.43.06,2.15.09,1.44.06,2.87.14,4.31.15a25.65,25.65,0,0,0,4.29-.22L62,85.17,63.67,85a5.67,5.67,0,0,0,.82.07,1.24,1.24,0,0,0,.27,0l.1,0,.2.14a3.39,3.39,0,0,0,.63.32,2.92,2.92,0,0,0,.72.18,1.73,1.73,0,0,0,1.17-.24,2.18,2.18,0,0,0,.76-1.14c0-.1.07-.2.1-.3a.52.52,0,0,0,.3,0l.4-.09.48-.07,1-.15,1-.17c.32-.06.66-.1,1-.18a8,8,0,0,0,.92-.27c.32-.11.65-.21,1-.34.65-.24,1.17-.72,1.79-1h0l.8-.31.24-.11.39.85c0,.11.09.23.13.35a3.43,3.43,0,0,1,.18.7.66.66,0,0,1,0,.14h0l-.09,0-1.4.69c-.39.19-.77.39-1.15.59a.16.16,0,0,0,0,.23.17.17,0,0,0,.23,0l1.14-.58,1.35-.67v.44c0,.3-.06.6-.1.89v0h0a.13.13,0,0,0,0,.06v0c0,.19,0,.37-.07.55H77.8c-.61.25-1.22.5-1.82.77a.16.16,0,0,0-.1.08.2.2,0,0,0,0,.13.16.16,0,0,0,.08.1.15.15,0,0,0,.13,0c.57-.26,1.16-.5,1.74-.74,0,.09,0,.19,0,.28s0,.36,0,.54a3.88,3.88,0,0,0,0,.59l0,.27-1,.74a.17.17,0,0,0,0,.23.17.17,0,0,0,.23,0l.91-.64c0,.21.08.42.13.62a11.32,11.32,0,0,1,.23,1.13,5,5,0,0,1,0,1c0,.23-.09.45-.14.66a6.57,6.57,0,0,1-.21.76.5.5,0,0,0,0,.21.59.59,0,0,0-.17.1l-.11.09c-.21.16-.43.31-.65.46s-.5.32-.76.47c-.57.31-1.17.55-1.76.81s-1.23.5-1.86.72-1.29.42-1.94.61-1.43.4-2.15.56-1.4.31-2.1.46l-1.06.23c-.33.07-.66.11-1,.16l-1.1.1-1,0c-.72,0-1.45.07-2.18.09-1.45,0-2.9.07-4.35,0l-4.44-.13c-1.4,0-2.8-.12-4.2-.24-1.81-.15-3.62-.31-5.42-.54h0l-.11,0h0c-.84-.12-1.68-.23-2.51-.36s-1.83-.28-2.76-.4l-2-.31c-.7-.1-1.4-.2-2.09-.32s-1.31-.27-2-.43l-1-.28c-.3-.08-.6-.17-.89-.27a4.08,4.08,0,0,1-.32-.58A1.83,1.83,0,0,1,27.9,93c0-.29-.07-.59-.11-.88s-.09-.59-.13-.88-.07-.67-.08-1A6.48,6.48,0,0,1,27.62,89.36ZM69.14,73.81a3.54,3.54,0,0,1,.16-.34,0,0,0,0,0,0,0l1.84-1.25a.18.18,0,0,0,.06-.23.19.19,0,0,0-.15-.09.13.13,0,0,0-.08,0l-1.32.9.09-.13a3.48,3.48,0,0,1,.48-.53,2,2,0,0,1,.35-.19,4.87,4.87,0,0,1,.83-.23c.31,0,.62,0,.93,0H73l-.46.37a.17.17,0,0,0,0,.24.11.11,0,0,0,.06,0l-.46.35a.25.25,0,0,0-.08.1.2.2,0,0,0,0,.13.14.14,0,0,0,.1.07.2.2,0,0,0,.13,0l1.18-.89,0,0a.39.39,0,0,0,.08.1l-1,.83a.17.17,0,0,0,0,.24.16.16,0,0,0,.11,0,.22.22,0,0,0,.12,0l1-.81.12.15.06.07c-.36.28-.72.56-1.07.85a.15.15,0,0,0,0,.12.16.16,0,0,0,0,.11.13.13,0,0,0,.11,0,.18.18,0,0,0,.12,0l1.07-.85.23.21,0,0-.17.14-.33.25h0l-.15.12a.15.15,0,0,0-.07.1.16.16,0,0,0,0,.12.16.16,0,0,0,.1.08.15.15,0,0,0,.13,0l.69-.53.08-.07.09.07a1.7,1.7,0,0,0,.35.19l-.79.66a.17.17,0,0,0,0,.24.17.17,0,0,0,.12.05.21.21,0,0,0,.12-.05l.91-.77a1.6,1.6,0,0,0,.53,0l.12,0-1.1.79a.16.16,0,0,0-.06.22.16.16,0,0,0,.23.06c.56-.39,1.11-.79,1.66-1.2a2.54,2.54,0,0,0,0,.39v0l-1,.78a.39.39,0,0,0-.08.1.19.19,0,0,0,0,.13.16.16,0,0,0,.1.08.2.2,0,0,0,.13,0l.88-.66c0,.15,0,.3,0,.45L75.57,76h0l0,0h0l-.88.67a.16.16,0,0,0-.07.09.15.15,0,0,0,0,.13.14.14,0,0,0,.09.08.15.15,0,0,0,.13,0c.72-.54,1.42-1.09,2.12-1.65v.6l-2.29,1.45a.18.18,0,0,0-.06.22.17.17,0,0,0,.23.06L77,76.32c0,.16,0,.33,0,.49l-2.09,1.31a.17.17,0,0,0-.06.23.17.17,0,0,0,.23.05q1-.59,1.92-1.2v.64l-.51.35-.84.59a.18.18,0,0,0-.07.1.15.15,0,0,0,0,.13.23.23,0,0,0,.1.07.19.19,0,0,0,.13,0c.26-.2.53-.38.8-.57l.38-.26a2,2,0,0,0,0,.25l0,0-1.25,1a.17.17,0,0,0,0,.23.16.16,0,0,0,.12,0,.18.18,0,0,0,.12,0L77,78.9c0,.24,0,.47.06.71s0,.33.07.5a.41.41,0,0,1,0,.11h0a4.17,4.17,0,0,1-.46.26,7,7,0,0,0-1.34.6l-.59.38a4.83,4.83,0,0,1-.59.32c-.43.17-.87.3-1.31.45a6.09,6.09,0,0,1-.71.17l-.79.14c-.49.08-1,.17-1.48.24l-.73.11-.43.09,0-.12c.07-.33.13-.66.19-1s.12-.75.15-1.13.06-.64.07-1v-1a8.86,8.86,0,0,0-.12-1s0,0,0-.07l1.63-1a.19.19,0,0,0,.06-.23.18.18,0,0,0-.15-.08l-.08,0-1.52.94-.09-.48c0-.1,0-.21,0-.32a.17.17,0,0,0,.14,0l.82-.49.3-.16.52-.28a.16.16,0,0,0,.06-.23.16.16,0,0,0-.14-.08l-.08,0-.47.25-.36.19-.81.5a4.89,4.89,0,0,1,0-.54.1.1,0,0,0,.09,0c.33-.22.67-.43,1-.64s.71-.43,1.07-.63a.19.19,0,0,0,.06-.23.17.17,0,0,0-.14-.08l-.09,0-1.07.63-.93.59a2.83,2.83,0,0,1,0-.29c0-.2.08-.39.13-.59l2-1.19a.17.17,0,0,0,.06-.23.17.17,0,0,0-.14-.08.15.15,0,0,0-.09,0l-1.68,1A1.8,1.8,0,0,1,69.14,73.81Zm9.2,29.38a.19.19,0,0,0-.14-.08.19.19,0,0,0-.1,0l-1.08.58H77a.17.17,0,0,0-.15.13l-1.15.6c.1-.26.19-.52.28-.78l0,0,.11,0h0l2.32-1.06a.15.15,0,0,0,.1-.08.16.16,0,0,0,0-.12.16.16,0,0,0-.08-.1l-.09,0h0l-1.46.66-.65.3-.08,0,.17-.48,0,0,.17-.1.19-.1c.35-.16.7-.31,1-.48l.83-.39a6.76,6.76,0,0,1,0,.9c0,.25-.11.49-.17.73A.43.43,0,0,0,78.34,103.19Zm-3.58,2.74-1.53.52-.59.19-1,.31-.34.1-.45.13.06-.2,0,0a.17.17,0,0,0,0-.12.09.09,0,0,0,0,0l0-.08,1.31-.44,0,0a.14.14,0,0,0,.1.07.17.17,0,0,0,.2-.12s0-.06,0-.09l1-.32v0a.18.18,0,0,0,.08.09.2.2,0,0,0,.13,0,.27.27,0,0,0,.1-.08c0-.07,0-.14.07-.21l1-.33Zm-5.18-.19,1.18-.35.27-.08c-.12.37-.23.75-.34,1.13l-1.33.44-.07,0C69.38,106.53,69.48,106.13,69.58,105.74Zm-1-.35-.08,0a.16.16,0,0,0-.15.09l-.19.36h0l.27-.9,1.16-.33c-.08.28-.16.55-.23.83v0l-.73.22,0-.08A.16.16,0,0,0,68.54,105.39Zm-1.94-1.48h.06l.27-.05.45-.09h0l.13,0a.15.15,0,0,0,.12,0,.13.13,0,0,0,0-.12.17.17,0,0,0-.16-.16h0l-.75.14a.18.18,0,0,0-.08-.11l-.07,0a.16.16,0,0,0-.15.09l-.08.12h0c.19-.48.38-1,.58-1.45l1.47-.41a.18.18,0,0,0,.1-.09h0l.57-.16c-.07.22-.13.45-.2.67,0,0,0,.1-.05.16l-1,.27a.16.16,0,1,0,.1.31l.84-.21c-.08.25-.16.5-.23.75l-.71.19a.16.16,0,0,0-.11.21.16.16,0,0,0,.21.1l.49-.13-.24.81L67,105a.17.17,0,0,0-.11.21.16.16,0,0,0,.07.09l-1.36.27h0Zm3.92-6v-.08l.74-.23a4,4,0,0,0,.45-.15l.33-.12.14,0L72.7,97l.63-.25.3-.13.3-.13c-.06.19-.12.37-.19.56,0,0,0,0,0-.06a.11.11,0,0,0-.08,0,.18.18,0,0,0-.15.08c-.06.15-.12.29-.19.43l-.14,0-.45.16-.48.16a.16.16,0,0,0-.09-.15l-.07,0a.16.16,0,0,0-.15.09.37.37,0,0,0,0,.11.83.83,0,0,1,0-.15.17.17,0,0,0-.13-.2h0a.17.17,0,0,0-.16.13l-.12.43-.1,0c-.32.11-.66.2-1,.29Zm5.58-2.73s0,0,0,0a.18.18,0,0,0,.24,0l.71-.42.71-.44a.17.17,0,0,0,0-.23.18.18,0,0,0-.13-.08l.27-.14a2.93,2.93,0,0,0,.07.41.85.85,0,0,0,0,.17c-.59.34-1.18.68-1.78,1a.17.17,0,0,0-.05.23.16.16,0,0,0,.23,0c.33-.17.66-.36,1-.54l-.18.46-.91.5a.16.16,0,0,0,0,.23.17.17,0,0,0,.23,0l.55-.3c-.1.24-.19.49-.28.73l-.54.29a.17.17,0,0,0,0,.23.16.16,0,0,0,.23,0l.17-.09-.24.62-.25.13a.17.17,0,0,0,0,.23.14.14,0,0,0,.1.07h0c-.2.5-.39,1-.57,1.51-.08.19-.15.38-.22.57l-1.2.34c.11-.34.23-.69.34-1l1.21-.44a.16.16,0,0,0,.11-.21.17.17,0,0,0-.16-.12h0l-1,.36.31-1,.48-.17a.17.17,0,0,0,.11-.21.18.18,0,0,0-.16-.11h0l-.25.08.14-.41C75.55,96.8,75.82,96,76.1,95.14Zm1.42,6.59-.59.27-.44.2,0,0,.06-.16c0-.1.08-.2.11-.3l.84-.41,1.05-.54c0,.15,0,.29,0,.44Zm-2.08,2a.23.23,0,0,0,.1.07c-.1.29-.21.59-.32.88l-.18.1A.17.17,0,0,0,75,105h0l-.91.3.36-1,.07,0a.18.18,0,0,0,.11-.21.16.16,0,0,0-.07-.09v0c.11-.3.21-.6.31-.9l.26-.08a.16.16,0,0,0,.1-.21.15.15,0,0,0-.15-.11H75c0-.1.07-.21.11-.31l.16-.45.17,0a.17.17,0,0,0,.11-.21.18.18,0,0,0-.15-.11c.09-.25.17-.5.26-.74l.22-.07a.16.16,0,0,0,0,.15.17.17,0,0,0,.23.05l.55-.31a.61.61,0,0,1,0,.12c-.07.21-.15.42-.23.62s0,.11,0,.16-.27.13-.4.2-.06.06-.07.1a.16.16,0,0,0,0,.12.16.16,0,0,0,.1.08.19.19,0,0,0,.13,0l.06,0c-.07.18-.14.36-.2.54l0,0a.15.15,0,0,0,0,.14c0,.13-.09.26-.14.39l-.11.32-.2.1A.17.17,0,0,0,75.44,103.71Zm-2.75,2.06,0-.16a1.33,1.33,0,0,0,0-.19c.06-.2.12-.39.17-.59a.49.49,0,0,0,0-.11l.24-.07.85-.24c-.12.34-.24.68-.37,1Zm-1.62.54.34-1.12,1.06-.32.14,0-.15.52c0,.06,0,.12,0,.18s-.06.24-.09.37Zm-2.57-1.77.24-.8.94-.24.18-.06,0,.07a2.33,2.33,0,0,0-.07.25l-.13.45Zm1.29-2.1.41-.11,0,.14c-.07.2-.13.4-.19.6l-.33.09-.79.21c.08-.25.15-.5.23-.75ZM71,101l.1,0,.6-.18.26-.07.68-.22-.27.79s0,.09,0,.14l-.67.19-.88.24h0c.08-.24.15-.48.22-.71C70.92,101.09,70.93,101,71,101Zm2.24-2.28-.08,0c.1-.24.21-.49.32-.73l-.18.53Zm1.11.85h0c.08-.31.17-.63.25-.95l.1,0-.26.8Zm.73,2.08-1.16.32.09-.26c.05-.15.1-.3.14-.45l1.19-.34C75.2,101.15,75.12,101.39,75,101.64Zm-.39,1.14-1.14.33c0-.11.07-.22.11-.33s.09-.29.14-.44L74.9,102l0,0Zm-.4,1.16,0,.09-1,.29-.08,0c.07-.22.13-.44.2-.66l.06-.19,1.14-.32Zm-.61-2.31c0,.15-.09.3-.14.44l-1.19.34.24-.72,1.18-.33Zm-1-.32,0-.1.29-.84.38-.12.19-.06.62-.23c-.11.34-.22.68-.32,1Zm1.25-1.61-.44.16-.17.06-.19.06c.11-.34.22-.67.34-1l.21-.06c.16,0,.32-.11.49-.15l-.24.87A.16.16,0,0,0,73.91,99.7Zm-1.15-1a.15.15,0,0,0,0,.13h0l-.26.07c-.15,0-.29.09-.44.12l-.39.11.17-.41c.06-.15.12-.29.19-.44l.1,0,.2-.07.47-.15.3-.11Zm-1.4.88h.07l.07,0,.6-.16c.32-.08.64-.18,1-.27-.11.34-.23.68-.34,1l-.9.29-.76.22Zm-.54,2.59.82-.23.51-.14c-.07.24-.15.48-.23.72l-.38.1-1.19.34.22-.73Zm-.74,1.72a2.81,2.81,0,0,1,.08-.31,2.17,2.17,0,0,0,.07-.24l1.39-.4.18,0s0,.08,0,.12l-.21.66-1.53.44Zm2.08-1.06,0,0,1.19-.34c0,.13-.09.26-.13.38l-.12.39-1.19.34C72,103.32,72.08,103.07,72.16,102.83Zm.83.77a.24.24,0,0,1,0,.08l-.21.68,0,.09-.34.1-.86.26c.09-.29.19-.58.28-.87Zm3.51-5c0-.12.1-.24.14-.36q1-.54,2-1a.12.12,0,0,0,0,0,3.4,3.4,0,0,1,0,.45l-.08,0-1.38.78-.54.29-.29.17Zm2,.68a.17.17,0,0,0-.14-.07.11.11,0,0,0-.08,0l-.61.4-.17.1-.2.12c0-.1.07-.21.12-.31a.22.22,0,0,0,0-.08l1.1-.61s0,0,0,0C78.58,99,78.56,99.13,78.54,99.28Zm-1.46,1.22.06-.14.15-.09a3.37,3.37,0,0,0,.32-.19l.26-.15.63-.41s0,0,0,0a7.53,7.53,0,0,0,0,1l-1.21.62-.49.24Zm-.84-1.2a.17.17,0,0,0,.12,0c.16-.1.32-.2.49-.29l.56-.31L78.69,98c0,.15,0,.31,0,.46a1.87,1.87,0,0,0,0,.25.06.06,0,0,0,0,0,.17.17,0,0,0-.14-.07.16.16,0,0,0-.09,0l-1.21.67-1.12.6,0,0C76.1,99.69,76.17,99.49,76.24,99.3Zm-.24.78a.21.21,0,0,0,.11.08.22.22,0,0,0,.13,0l.81-.43c-.06.14-.12.28-.17.43l-.28.16-.5.28a.2.2,0,0,0,0-.07.16.16,0,0,0-.16-.11h-.11c.06-.14.11-.28.16-.42A.24.24,0,0,0,76,100.08Zm2.64-3.16a.09.09,0,0,0-.07,0h0l-.1,0c-.54.28-1.08.56-1.61.85l.24-.62.54-.3c.31-.16.6-.34.9-.51C78.56,96.52,78.6,96.72,78.64,96.92Zm-.88-1.68a.14.14,0,0,0-.08-.09l-.06,0c.18-.1.36-.19.54-.3l0,.08.06.25-.52.28,0-.07A.15.15,0,0,0,77.76,95.24Zm.56.25.12.5-1,.57-.18.1.29-.74Zm-.4-2v0l-.17.1Zm-3.17,4.66-.12,0c0-.17.08-.34.13-.5a.17.17,0,0,0-.12-.2h0a.17.17,0,0,0-.16.13c-.07.24-.13.47-.19.71l-.15,0c-.16.06-.32.1-.48.15l0,0a1.72,1.72,0,0,1,.07-.21c.08-.25.17-.5.25-.75l.16,0,.46-.19.57-.23Zm-4.52.63,1.1-.32-.15.52c0,.09-.05.18-.08.26l-.4.11a.18.18,0,0,0-.11.21.18.18,0,0,0,.21.11l.19,0-.24.84-.07.22-.39.12-.73.2C69.78,100.3,70,99.56,70.23,98.82Zm.1,2.35.24-.07-.26.86-.59.15-.53.14c.09-.28.17-.56.26-.84ZM68,105.09h0s0,0,0,0h0Zm-.11.33-.15.51-.32.1.39-.59Zm2-.83,0-.11,1.51-.43a.88.88,0,0,1,0,.15c-.07.24-.15.48-.22.72l-.46.14-1,.3Zm8.48.65s0,0,0,.06l0,0a3.45,3.45,0,0,1-.26.28,2.5,2.5,0,0,1-.33.32,6.34,6.34,0,0,1-.6.41H77l-4.54,1.42-1.85.37c-.66.13-1.33.23-2,.33l-.84.12h0l-.08,0h0c-1.4.19-2.79.37-4.19.52-.67.08-1.35.14-2,.19s-1.41.12-2.11.14c-1.45,0-2.91.06-4.36,0s-2.9-.07-4.36-.15l-2.14-.12-2.19-.12c-1.38-.08-2.75-.22-4.13-.36s-2.9-.29-4.35-.47h0c-1.39-.21-2.77-.5-4.15-.79-.68-.15-1.37-.26-2.06-.4-.33-.07-.65-.16-1-.25l-1-.28-.49-.18.12,0c-.24-.11-.49-.21-.72-.33l-.66-.34c0-.12-.05-.25-.07-.37a13.09,13.09,0,0,1-.1-1.88c0-.67.14-1.32.21-2a.38.38,0,0,0,0-.1l.92.15.7.11.68.1c.3,0,.61.08.91.12a.27.27,0,0,0,.13,0,.26.26,0,0,0,.07-.11.2.2,0,0,0,0-.13.18.18,0,0,0-.11-.07l-.89-.11-.7-.1-.64-.11-1-.16c.05-.47.09-.94.13-1.41l1,.19,1,.17,2.09.34a.16.16,0,0,0,.2-.12.17.17,0,0,0-.12-.2l-2.09-.34-.93-.17-1.06-.2c0-.3.07-.6.1-.9a4.28,4.28,0,0,0,0-.62l.06,0,4.57,1a.16.16,0,0,0,.2-.12.17.17,0,0,0-.12-.2l-4.57-1h0a.16.16,0,0,0-.11,0,.66.66,0,0,0,0-.14c0-.44-.1-.87-.17-1.31V96a.18.18,0,0,0,.12.13l1.06.32.85.25,1.22.35c1,.27,1.94.54,2.92.79a.18.18,0,0,0,.2-.12.17.17,0,0,0-.13-.2l-2.92-.79-1.15-.34-.89-.25-1.08-.33h0a.16.16,0,0,0-.16.13.06.06,0,0,0,0,.06,2.79,2.79,0,0,1,0-.58l.09-.43c.21.07.42.14.64.19l.95.27,1,.25c.32.07.63.15.95.2.69.12,1.37.23,2.06.33l2.17.33.75.1h0l.1,0h0c1.35.19,2.69.41,4,.6.73.1,1.46.2,2.19.27l2.14.22c1.46.13,2.93.25,4.4.33s2.8.1,4.21.14l2.33.07c.51,0,1,0,1.53,0l-.77.14c-.22,0-.43.08-.65.12l-1,.18a.14.14,0,0,0-.09.08.15.15,0,0,0,0,.13.18.18,0,0,0,.08.09.12.12,0,0,0,.13,0l2.26-.41.75-.13a.19.19,0,0,0,.11,0,.18.18,0,0,0,.05-.12s0,0,0,0c1.31,0,2.62-.08,3.93-.13l1.22-.07c.36,0,.71-.07,1.07-.12.71-.1,1.4-.25,2.1-.41s1.44-.3,2.16-.47,1.34-.35,2-.54,1.38-.41,2-.65,1.34-.51,2-.8c.4-.17.8-.34,1.2-.53a.11.11,0,0,0,0,.08.16.16,0,0,0,.23,0l.87-.46-.36.23-.76.44h0v0a.16.16,0,0,0-.12-.2h0a.15.15,0,0,0-.09,0,.17.17,0,0,0-.07.1c-.21.63-.41,1.27-.62,1.9h0l-.76.31-.38.15.31-.9.2-.08.32-.16a.18.18,0,0,0,0-.24.18.18,0,0,0-.1-.07h0a.16.16,0,0,0-.09,0l-.21.1.05-.13.14-.07h0l.69-.31a.18.18,0,0,0,.09-.08.15.15,0,0,0,0-.13.14.14,0,0,0-.08-.09l-.08,0h-.05c-.48.21-1,.44-1.45.67a.18.18,0,0,0-.07.1.2.2,0,0,0,0,.13.18.18,0,0,0,.1.07.19.19,0,0,0,.13,0l.15-.07,0,.11-.68.3-.25.11-.67.27-.41.16-.18.07-.34.12-.39.13-.76.23a.15.15,0,0,0-.11.2h0a.15.15,0,0,0-.09.1l-1,3.35-.78.22a.18.18,0,0,0-.1.09h0l-1.22.35.12-.32c.1-.26.21-.51.32-.77l.21,0,.11,0,.3,0c.16,0,.33-.07.5-.09a.2.2,0,0,0,.1-.08.15.15,0,0,0,0-.13.16.16,0,0,0-.08-.1l-.06,0h-.06l-.87.16,0-.08a.77.77,0,0,1,.07-.16c.06-.15.13-.3.2-.44l.31-.7,1.27-.31a.16.16,0,0,0,.11-.21.17.17,0,0,0-.16-.11h-.05l-1,.26a.14.14,0,0,0-.08-.14.11.11,0,0,0-.08,0,.15.15,0,0,0-.14.08l-.08.17-2,.49-.58.14-.81.17h0l.54-.6a.16.16,0,0,0,0-.23.15.15,0,0,0-.11,0,.13.13,0,0,0-.12,0l-.55.59a.16.16,0,0,0,0,.23l.06,0-.71.14-.89.17a.2.2,0,0,0-.1.08.2.2,0,0,0,0,.13.14.14,0,0,0,.08.09s.08,0,.13,0l.86-.17c.26,0,.51-.09.76-.15l.93-.2.6-.14,1.75-.43c-.06.13-.11.26-.17.38s-.14.3-.2.45l-.09.2c0,.11-.09.23-.14.34l-.4.09-.59.14c-.3.08-.6.17-.91.24l-3,.8a.18.18,0,0,0-.11.21.17.17,0,0,0,.21.11l3-.8.88-.23.61-.15.14,0c-.07.16-.14.32-.2.49l-.24.61-.18,0-1.43.36-1.26.31c-.53.13-1.05.27-1.58.39a.17.17,0,0,0-.11.21.12.12,0,0,0,.08.09.15.15,0,0,0,.13,0l1.53-.38,1.31-.32,1.36-.35L66,103.73l-.09,0-.93.24-.16,0-.53.15-2.69.77-2,0H57.42a.18.18,0,0,0-.16.18.17.17,0,0,0,.17.16l1.25,0h.86l1.23,0a.11.11,0,0,0,0,.08.17.17,0,0,0,.21.11q1.6-.48,3.24-.93l.8-.22.2,0,.56-.14h0a.25.25,0,0,0,0,.08.16.16,0,0,0,.08.1H66c-.25.4-.5.8-.74,1.2a.17.17,0,0,0,0,.12l-1.2.25-1.41.29-1.83.34a.2.2,0,0,0-.1.08.15.15,0,0,0,0,.13.16.16,0,0,0,.08.1.19.19,0,0,0,.13,0l1.78-.34,1.44-.29,1.58-.32,1.67-.34-.35.52a.12.12,0,0,0,0,.1l0,0a.16.16,0,0,0-.11.21.17.17,0,0,0,.21.1l.58-.17,0,.07a.17.17,0,0,0,.12.19l-.12.22a.17.17,0,1,0,.3.16l.45-.85.87-.26c-.06.23-.11.46-.17.68,0,0,0,.08,0,.13a.11.11,0,0,0-.07.06l-.38.87a.3.3,0,0,0,0,.13.16.16,0,0,0,.08.1.19.19,0,0,0,.13,0,.15.15,0,0,0,.12.16.16.16,0,0,0,.2-.12c0-.26.11-.51.17-.77a.18.18,0,0,0,.2.11l1.12-.38v0l-.37.51-.51.14a.18.18,0,0,0-.11.21.17.17,0,0,0,.21.11l1.91-.54.32-.1.66-.2.32-.09.27-.1,1.34-.45-.15.42a.16.16,0,0,0,0,.12.19.19,0,0,0,.1.08.18.18,0,0,0,.13,0,.16.16,0,0,0,.07-.11l.23-.62h0l2.2-.78a.16.16,0,0,0,.11-.21.16.16,0,0,0-.16-.12h-.05l-2,.7.21-.57L76,105a.16.16,0,0,0,.11-.21.16.16,0,0,0-.16-.11h-.05l-.1,0c.84-.43,1.67-.87,2.5-1.33l0,0c0,.14-.07.27-.1.4a.53.53,0,0,0,.12.47C78.31,104.58,78.38,104.92,78.36,105.24ZM76.74,66h0c.28.13.57.24.85.35l.3.17,0,0,0,0c0,.13.07.26.1.39s.1.48.16.72.11.54.17.81.09.47.13.72a5.46,5.46,0,0,1,0,1.07,3.56,3.56,0,0,1-.15.56,1.13,1.13,0,0,1-.12.21l-.21.21a3.18,3.18,0,0,1-.4.23l-.22.1a2,2,0,0,0-.43.28,2.35,2.35,0,0,0-.33.37,2.72,2.72,0,0,1-.4.43l-.17.11H76a.43.43,0,0,1-.16,0l-.21-.06q-.22-.12-.45-.27a7.1,7.1,0,0,1-.75-.8l-.25-.36c-.08-.12-.16-.23-.25-.34a1.12,1.12,0,0,0-.21-.17.72.72,0,0,0-.38-.1,1.85,1.85,0,0,0-.23,0h-.72a5.28,5.28,0,0,0-2.54.53,2.56,2.56,0,0,0-.69.62,3.59,3.59,0,0,0-.37.5,5.66,5.66,0,0,0-.49.91,7.43,7.43,0,0,0-.42,1.2,5.93,5.93,0,0,0-.13,1.68,10,10,0,0,0,.15,1.21l.18,1.06c0,.23,0,.46,0,.69s0,.34,0,.5l-.35.21-.12.07-.11.07-.1.07a.3.3,0,0,0-.08.08s0,.09,0,.14a.17.17,0,0,0,.09.14l.1,0a.27.27,0,0,0,.13,0,.18.18,0,0,0,.07-.1.17.17,0,0,0,0-.07l.33-.2,0,0V80c-.13.1-.26.2-.38.31a.27.27,0,0,0-.07.08l0,0a.15.15,0,0,0,0,.09.11.11,0,0,0,0,.1.39.39,0,0,0,.08.1.15.15,0,0,0,.23,0,.14.14,0,0,0,0-.16l.13-.11c0,.24,0,.48-.08.72-.07.42-.14.85-.22,1.27a10.87,10.87,0,0,1-.42,1.61,1.79,1.79,0,0,1-.22.38l-.09.1-.06,0-.2.06h-.3a3.12,3.12,0,0,1-.5-.14,4.07,4.07,0,0,1-.53-.31.49.49,0,0,0-.11-.2.46.46,0,0,0-.27-.13,3.17,3.17,0,0,1-.3-.34,4.91,4.91,0,0,1-.51-.85,5.91,5.91,0,0,1-.25-.94c-.08-.77,0-1.55-.06-2.31a5,5,0,0,0-.4-1.93,8.88,8.88,0,0,0-.62-1.08,13.1,13.1,0,0,0-1.06-1.67,3.88,3.88,0,0,0-1.2-.88,9.65,9.65,0,0,1-1-.59,2.85,2.85,0,0,1-.43-.42,3.37,3.37,0,0,1-.32-.59A3.29,3.29,0,0,0,58.31,71a2.29,2.29,0,0,0-1.42-.45,5.17,5.17,0,0,0-1.47,0,2.72,2.72,0,0,0-1.83,1.09,6.89,6.89,0,0,0-.57.84c-.16.3-.29.61-.43.92s-.26.55-.41.81-.34.53-.53.79a5.63,5.63,0,0,1-.78.84,3.3,3.3,0,0,1-.55.32,3.79,3.79,0,0,1-.66.18,4.12,4.12,0,0,1-.86,0l-.4-.06A5.52,5.52,0,0,1,47.15,76a7.32,7.32,0,0,1-.93-.55,5.46,5.46,0,0,1-.68-.68c-.28-.38-.52-.79-.77-1.18l-.28-.4a5.32,5.32,0,0,0-.36-.47,3.79,3.79,0,0,0-.32-.38c-.15-.15-.3-.31-.46-.46a5.83,5.83,0,0,0-1.13-.78,9,9,0,0,0-.84-.38c-.15-.06-.33-.11-.49-.16a4,4,0,0,0-1.34-.16,3.9,3.9,0,0,0-1.35.35,4.32,4.32,0,0,0-.89.5c-.55.39-1.05.86-1.57,1.29a4.49,4.49,0,0,1-.59.37,1.82,1.82,0,0,1-.4.11h-.39a1.61,1.61,0,0,1-.36-.1,3.18,3.18,0,0,1-.4-.23,3.78,3.78,0,0,1-.49-.49,3.5,3.5,0,0,1-.31-.53A3,3,0,0,0,32,70.16,1.31,1.31,0,0,0,30.84,70a2.27,2.27,0,0,0-.55.25,3.1,3.1,0,0,0-.34.27,9.94,9.94,0,0,0-.79.8,7.75,7.75,0,0,1-.74.66,3.67,3.67,0,0,1-.71.44.35.35,0,0,1-.11,0h-.13a1.64,1.64,0,0,1-.22-.14l-.14-.14A2.39,2.39,0,0,1,27,71.9a2.72,2.72,0,0,1-.11-.38,8.34,8.34,0,0,1,0-1c0-.32,0-.64,0-1q0-.87.15-1.71c.06-.43.15-.86.25-1.28a11,11,0,0,1,.32-1.12,1.59,1.59,0,0,1,.13-.22l0,0,0,0,.52-.13c.31-.08.6-.2.89-.3s.63-.19.94-.29l1-.31,1-.28,1-.29c.63-.18,1.27-.34,1.9-.51l.3-.08v.1a3,3,0,0,0,.14.57,1.09,1.09,0,0,0,.08.15l-.49.09-.51.1a.15.15,0,0,0-.13,0,.15.15,0,0,0-.06.22.15.15,0,0,0,.1.09.4.4,0,0,0,.19,0l.2,0a.16.16,0,0,0-.06.17.17.17,0,0,0,.21.12l.66-.2.22,0,.16.18-.9.24a.17.17,0,0,0-.11.21.16.16,0,0,0,.2.11l1.12-.3.24.16a9,9,0,0,0-1.34.33.18.18,0,0,0-.11.21.17.17,0,0,0,.2.12,8.71,8.71,0,0,1,1.24-.33.11.11,0,0,0,0,.05.53.53,0,0,0,0,.13l-.21.09a5,5,0,0,0-.47.22.17.17,0,1,0,.17.29l.42-.21.18-.07.06.14a1.14,1.14,0,0,0,.22.32l-.38.07a.17.17,0,0,0-.12.2.17.17,0,0,0,.21.12,4.51,4.51,0,0,1,.53-.1.1.1,0,0,0,.08,0,2.25,2.25,0,0,0,.46.25l.35.11a1.57,1.57,0,0,0,.3,0,3.64,3.64,0,0,0,.56.05,3.17,3.17,0,0,0,.92-.16,7.67,7.67,0,0,0,.9-.36c.23.06.46.16.68.24a5.33,5.33,0,0,0,.66.17,4.65,4.65,0,0,0,1.44.11,4.14,4.14,0,0,0,.6-.09.13.13,0,0,0-.09.07.19.19,0,0,0,0,.13.16.16,0,0,0,.08.1.15.15,0,0,0,.13,0l.38-.14c.13,0,.26-.09.4-.12l.41-.11.52-.1a2.8,2.8,0,0,0,.25.35l-.51.18-.36.13-.27.09-.14.08a.26.26,0,0,0,0,.12.17.17,0,0,0,.07.19.43.43,0,0,0,.12,0,.16.16,0,0,0,.2-.11s0,0,0,0l.21-.07.4-.14.56-.2a1.14,1.14,0,0,0,.11.11l.19.15-1.19.53-.08,0-.22.1a.17.17,0,0,0-.1.07.16.16,0,0,0,.06.23.15.15,0,0,0,.13,0l.25-.1,0,0h0l.55-.24L47,67.8a.15.15,0,0,0,.05-.06l.34.21a3.13,3.13,0,0,0,.46.21,6.76,6.76,0,0,0,1,.33,8.1,8.1,0,0,0,1.1.16,5.71,5.71,0,0,0,1,0,10.74,10.74,0,0,0,1.14-.13,6.5,6.5,0,0,0,1-.29,4.35,4.35,0,0,0,.76-.35l.26-.18.22,0,.27,0,.43,0,.26,0-.33.07-.54.12-.84.17a.17.17,0,1,0,.09.32l.84-.18.43-.08.46-.1a4.76,4.76,0,0,0,.53-.19.17.17,0,0,0,.13-.16.3.3,0,0,0-.06-.18.28.28,0,0,0-.15-.06h-.14l-.39,0,.2,0,.36,0,.37,0,.22,0c.1,0,.19,0,.29-.06a.19.19,0,0,0,.11-.23,6.71,6.71,0,0,0,.76.13,6.46,6.46,0,0,0,1,0,6.06,6.06,0,0,0,1-.15,6.26,6.26,0,0,0,1-.29,5.08,5.08,0,0,0,.66-.33,4.07,4.07,0,0,0,.52-.41,2.19,2.19,0,0,0,.34-.34,4.15,4.15,0,0,0,1.15.41.56.56,0,0,0,.36,0l1,.19a15.28,15.28,0,0,0,2,.15,18,18,0,0,0,2.08-.12l.26,0h0a.19.19,0,0,0,.13,0h0a8,8,0,0,0,1.62-.34l.28-.11a.16.16,0,0,0-.1.15.18.18,0,0,0,.17.17l.79-.07.34,0,.26,0,.44-.06.26,0,.9-.16a.16.16,0,0,0,.12-.2.17.17,0,0,0-.17-.12h0l-.91.16h0l-1,.11-1.07.1H71q.3-.12.6-.27l.26-.12.08,0a.65.65,0,0,0,.2,0l.12,0a.18.18,0,0,0,.12,0,.19.19,0,0,0,0-.1l.25,0,.53-.05c.37,0,.75-.06,1.12-.12a.1.1,0,0,0,.07,0l.54.16A15.76,15.76,0,0,1,76.74,66Zm-4.86-11.8,0,0c-.12,0-.23.1-.35.15l-.36.17-.37.18-.3.14c-.24.12-.48.24-.71.37a.16.16,0,0,0-.06.23.16.16,0,0,0,.22.06c.32-.18.64-.34,1-.49l.47-.23.6-.28,0,0,.5-.21a1,1,0,0,1,.16.06c.08,0,.16.08.24.12-.89.48-1.79.94-2.69,1.42a.18.18,0,0,0-.06.23.18.18,0,0,0,.23.06c.93-.51,1.88-1,2.81-1.49.12.12.23.23.34.36l-3.38,1.72A.16.16,0,0,0,70,57a.17.17,0,0,0,.23.06l3.42-1.74a4.15,4.15,0,0,1,.24.34c.06.09.11.18.16.27L74,56l-.07,0a.16.16,0,0,0-.16.14l-.55.29-.59.3-.36.18-.3.14a.73.73,0,0,0-.22.16.17.17,0,0,0,0,.16.14.14,0,0,0,0,.08l.07,0,.07,0a.13.13,0,0,0,.12,0,.14.14,0,0,0,.08-.1v0l0,0,.2-.1.15-.07.43-.21.54-.27.32-.17c0,.23,0,.46,0,.69l-.51.24-.65.33a.17.17,0,0,0,0,.23.15.15,0,0,0,.16.07l-.06.36-.85.41a.17.17,0,0,0-.06.23.18.18,0,0,0,.23.06l.62-.3c0,.13,0,.26-.07.4l0,.19-.1,0a.18.18,0,0,0-.06.23.16.16,0,0,0,.09.07l-.15.71a.16.16,0,0,0,0,.17.64.64,0,0,0,0,.07l-.16.55v0l-.27.12a.18.18,0,0,0-.06.23.2.2,0,0,0,.1.08.17.17,0,0,0,.12,0v0l-.06.2-.22.62-.7.33.09-.31c.11-.45.2-.91.27-1.37,0-.18.06-.36.08-.54s0-.25.05-.37l0-.39a.17.17,0,0,0-.28-.12.21.21,0,0,0-.05.12,1.64,1.64,0,0,1,0,.23.15.15,0,0,0-.09-.06h0l-.09,0-1.6.71v-.09a.12.12,0,0,0,0-.11l.62-.24.65-.29.7-.32a.18.18,0,0,0,0-.31h0l-.08,0-.86.4-.69.3,0,0-1.08.43a.18.18,0,0,0-.1.07.2.2,0,0,0,0,.13.18.18,0,0,0,.21.12l.42-.17a1.79,1.79,0,0,1,0,.23l-1.48.64a.23.23,0,0,0-.07.1.19.19,0,0,0,0,.13.16.16,0,0,0,.1.08.19.19,0,0,0,.13,0l1.28-.56,0,.44c-.43.16-.87.31-1.29.49a.14.14,0,0,0-.07.1.2.2,0,0,0,0,.13l0,0a.17.17,0,0,0-.09.14c0,.34,0,.68,0,1h0a0,0,0,0,0,0,0,.16.16,0,0,0-.1-.08h0a.16.16,0,0,0-.09,0l-.66.31v-.52a.17.17,0,0,0-.17-.16.16.16,0,0,0-.16.16v.68l-.42.2.15-1.43a.14.14,0,0,0,0-.11.18.18,0,0,0-.12,0,.17.17,0,0,0-.12,0,.22.22,0,0,0,0,.11c-.06.54-.12,1.07-.17,1.6l-.48.23c0-.34,0-.67,0-1l.22-.14a.16.16,0,0,0,.06-.22.18.18,0,0,0-.15-.08.12.12,0,0,0-.08,0l0,0a.18.18,0,0,0-.16-.14.18.18,0,0,0-.17.17.91.91,0,0,1,0,.17l-.2.13-.35.21.06-.76,0,0c.45-.28.9-.56,1.34-.85a.19.19,0,0,0,.06-.23.18.18,0,0,0-.15-.08l-.08,0c-.39.26-.78.5-1.17.75v-.21a.13.13,0,0,0-.07-.13c.14-.07.27-.15.4-.23.46-.26.93-.53,1.39-.81a.17.17,0,0,0-.09-.31.13.13,0,0,0-.08,0l-1.35.78-1,.57v-.14a.18.18,0,0,0-.17-.17.16.16,0,0,0-.16.17c0,.24,0,.47,0,.71s0,.32,0,.49l0,0a5.1,5.1,0,0,0,0-1.51h0l1.12-.67,1.25-.77a.15.15,0,0,0,.06-.22.16.16,0,0,0-.14-.08.11.11,0,0,0-.08,0L64,60.93l-1,.61a.83.83,0,0,0,0-.15c0-.1-.07-.18-.11-.28l1.07-.61,1.23-.75a.17.17,0,0,0,.06-.22.19.19,0,0,0-.15-.09.11.11,0,0,0-.08,0l-1.23.74-1,.6a.41.41,0,0,0-.07-.11,1.76,1.76,0,0,0,.24-.3.14.14,0,0,0,.15,0l1.66-1.06a.17.17,0,0,0,.06-.23.16.16,0,0,0-.14-.08l-.08,0-1.39.88c.07-.15.14-.3.2-.45a7.23,7.23,0,0,0,.42-1.95,9.35,9.35,0,0,0-.06-2.18A4.69,4.69,0,0,0,63.3,54a5.73,5.73,0,0,0-.51-.86,5,5,0,0,0-.37-.43l.24-.07a8.15,8.15,0,0,1,.86-.16h0a4.9,4.9,0,0,1,.77-.06,8.11,8.11,0,0,1,.86,0,4.16,4.16,0,0,1,.59.13c.23.06.46.15.69.23l.73.33a1.86,1.86,0,0,0-.1.25c-.09.26-.2.52-.28.79l-.15.53a3,3,0,0,0-.09.32c0,.2-.09.4-.14.6l-.21-.07-.61-.23a.27.27,0,0,0-.13,0,.48.48,0,0,0-.26.07.46.46,0,0,0-.22.29.53.53,0,0,0,0,.39.61.61,0,0,0,.3.23,9.18,9.18,0,0,0,1.25.42l.08,0a.61.61,0,0,0,.19,0l.63.07a2.44,2.44,0,0,0,.54,0,.5.5,0,0,0,.35-.14.47.47,0,0,0,.15-.35.5.5,0,0,0-.5-.5,3.2,3.2,0,0,1-.62,0c0-.16.07-.33.11-.5s.15-.54.23-.81.18-.52.27-.78c0-.06,0-.12.08-.19l.25.11-.28.17A.17.17,0,0,0,68,54a.17.17,0,0,0,.23.05l.53-.31.24.08-.18.1c-.33.18-.66.35-1,.54a.16.16,0,0,0-.06.22.17.17,0,0,0,.23.06l1-.53.49-.28.38.07-.47.25-1.09.55a.17.17,0,0,0-.06.23.18.18,0,0,0,.23.06l1.09-.56.87-.46.18,0C71,54.16,71.46,54.15,71.88,54.19Zm9.27-11.67c0-.1-.06-.21-.1-.32h0l.17-.19a.45.45,0,0,0,.43.26l.85-.07h0A9.67,9.67,0,0,1,81.15,42.52Zm2-.36h0Z" transform="translate(-25.86 -28.71)"/><path class="cls-1" d="M38.79,82.92h0Z" transform="translate(-25.86 -28.71)"/><path class="cls-1" d="M43.44,84.5h0Z" transform="translate(-25.86 -28.71)"/><path class="cls-1" d="M43.39,84.49h0Z" transform="translate(-25.86 -28.71)"/><path class="cls-1" d="M41.55,96.41h0Z" transform="translate(-25.86 -28.71)"/><path class="cls-1" d="M36.71,96.7h0Z" transform="translate(-25.86 -28.71)"/><path class="cls-1" d="M37.85,108.24h0Z" transform="translate(-25.86 -28.71)"/><path class="cls-1" d="M67.77,108.58h0Z" transform="translate(-25.86 -28.71)"/></svg>