<svg id="Layer_1" data-name="Layer 1" xmlns="http://www.w3.org/2000/svg" viewBox="0 0 55.47 149.18"><defs><style>.cls-1{fill:#f1ebdf;}</style></defs><title>fork knife</title><polygon class="cls-1" points="16.05 17.55 16.05 17.55 16.04 17.56 16.05 17.55"/><polygon class="cls-1" points="16.29 19.32 16.29 19.32 16.3 19.32 16.29 19.32"/><path class="cls-1" d="M44.51,39.25a.14.14,0,0,0,.17-.06c.47-.75.92-1.51,1.38-2.27a.12.12,0,0,0-.05-.17l-.06,0a.14.14,0,0,0-.11.07l-1.38,2.28A.12.12,0,0,0,44.51,39.25Z" transform="translate(-28.33 -5.82)"/><polygon class="cls-1" points="22.16 12.75 22.16 12.74 22.16 12.75 22.16 12.75"/><path class="cls-1" d="M52.27,23.23a.14.14,0,0,0,0-.18.14.14,0,0,0-.09,0,.11.11,0,0,0-.09,0c-.2.24-.41.48-.61.73a.12.12,0,0,0,0,.17.11.11,0,0,0,.17,0Z" transform="translate(-28.33 -5.82)"/><path class="cls-1" d="M50,42.53a.12.12,0,0,0,.1,0l1.38-1.11L53,40.2a.35.35,0,0,0,0-.08.12.12,0,0,0,0-.1.14.14,0,0,0-.11-.06l-.06,0-1.53,1.2c-.46.37-.92.74-1.37,1.12a.12.12,0,0,0-.06.08.1.1,0,0,0,0,.09A.11.11,0,0,0,50,42.53Z" transform="translate(-28.33 -5.82)"/><path class="cls-1" d="M38.06,8.27l.39-.49a.18.18,0,0,0,0-.1.2.2,0,0,0,0-.08.12.12,0,0,0-.09,0,.13.13,0,0,0-.09,0l-.39.5a.12.12,0,0,0,0,.09.13.13,0,0,0,0,.09A.12.12,0,0,0,38.06,8.27Z" transform="translate(-28.33 -5.82)"/><path class="cls-1" d="M38.35,17.32a.09.09,0,0,0,.09,0,.12.12,0,0,0,.08-.06s0,0,0,0h0l.12-.16,0-.44c-.14.17-.28.35-.41.53a.17.17,0,0,0,0,.1A.12.12,0,0,0,38.35,17.32Z" transform="translate(-28.33 -5.82)"/><path class="cls-1" d="M38.09,19.18a.11.11,0,0,0,.09,0l.42-.55a1.62,1.62,0,0,1,0-.22,1.48,1.48,0,0,1,0-.21c-.22.27-.43.53-.63.81a.14.14,0,0,0,0,.09.18.18,0,0,0,0,.09A.16.16,0,0,0,38.09,19.18Z" transform="translate(-28.33 -5.82)"/><path class="cls-1" d="M30.93,13.76c.49-.57,1-1.11,1.52-1.65a.13.13,0,0,0,0-.18.11.11,0,0,0-.08,0,.13.13,0,0,0-.1,0c-.51.54-1,1.08-1.52,1.65a.13.13,0,0,0,.19.17Z" transform="translate(-28.33 -5.82)"/><polygon class="cls-1" points="2.59 20.48 2.59 20.48 2.58 20.49 2.59 20.48"/><polygon class="cls-1" points="2.58 20.49 2.58 20.49 2.58 20.49 2.58 20.49"/><path class="cls-1" d="M32.18,34.34a.12.12,0,0,0-.09,0l-.45.52-.28.33-.78,1a.12.12,0,0,0,0,.17.13.13,0,0,0,.18,0l.78-1,.29-.34.44-.52a.13.13,0,0,0,0-.18A.18.18,0,0,0,32.18,34.34Z" transform="translate(-28.33 -5.82)"/><path class="cls-1" d="M42.3,40.89a.13.13,0,0,0,.12-.13.13.13,0,0,0-.26,0A.13.13,0,0,0,42.3,40.89Z" transform="translate(-28.33 -5.82)"/><path class="cls-1" d="M39.57,44.38l1.16-.73.47-.3.55-.37.36-.24.52-.36,1.5-1a.14.14,0,0,0,0-.17.14.14,0,0,0-.11-.06l-.07,0-1.45,1-.54.37-.35.23-.57.38-.45.29-1.2.75a.14.14,0,0,0,0,.18A.13.13,0,0,0,39.57,44.38Z" transform="translate(-28.33 -5.82)"/><path class="cls-1" d="M38.82,46.91l1.31-1,.77-.57.56-.42.66-.5.14-.12.38-.3.87-.69,1-.82a.16.16,0,0,0,0-.08.12.12,0,0,0,0-.1.13.13,0,0,0-.07-.05h0a.08.08,0,0,0-.07,0l-1,.8-.86.68-.55.44-.18.14-.45.33-.58.45-.75.55-1.35,1a.12.12,0,0,0,0,.17A.13.13,0,0,0,38.82,46.91Z" transform="translate(-28.33 -5.82)"/><path class="cls-1" d="M41.9,46.83l.69-.51.1-.08L43,46l.81-.64.91-.73a.13.13,0,0,0,.06-.07.16.16,0,0,0,0-.1.16.16,0,0,0-.08-.06h0l-.07,0-.87.71-.81.63-.34.26-.11.09-.66.49-1.22.89-1.27.94a.16.16,0,0,0-.05.08.1.1,0,0,0,0,.09.12.12,0,0,0,.17,0l1.24-.92Z" transform="translate(-28.33 -5.82)"/><path class="cls-1" d="M39.63,50.64l1.4-1,.83-.61.48-.37.84-.64.12-.1.27-.24.84-.76.26-.23c.21-.19.4-.39.6-.58a.13.13,0,0,0,0-.18.12.12,0,0,0-.09,0,.18.18,0,0,0-.09,0l-.65.62L44,47l-.89.8,0,0-.92.7-.41.32-.34.24-2,1.43a.14.14,0,0,0,0,.17A.13.13,0,0,0,39.63,50.64Z" transform="translate(-28.33 -5.82)"/><path class="cls-1" d="M42.16,51l.22-.16.88-.65.44-.34.91-.72,1-.77a.21.21,0,0,0,.06-.08.18.18,0,0,0,0-.1.1.1,0,0,0-.08,0h0l-.07,0-1,.78-.92.71-.44.34-.87.65-.22.17-.29.2-.47.33-.26.17-1.43,1-.79.54a.12.12,0,0,0,0,.17.12.12,0,0,0,.17,0l1.44-1,.79-.53.73-.51Z" transform="translate(-28.33 -5.82)"/><path class="cls-1" d="M45.23,51.14l-.54,2.13c0,.09,0,.18-.07.27-.11.43-.21.87-.36,1.29h0c0,.06,0,.12-.07.19a.1.1,0,0,0,0,.09.11.11,0,0,0,.07.06.12.12,0,0,0,.1,0,.17.17,0,0,0,.06-.08l0-.09v0a1.8,1.8,0,0,1,.08-.21,2.76,2.76,0,0,0,.08-.27c.06-.18.1-.37.15-.55s.09-.36.14-.53.15-.58.22-.87c.15-.6.31-1.2.46-1.8l.12-.43c.09-.35.19-.69.28-1,.18-.67.36-1.34.55-2s.32-1.16.48-1.74a.12.12,0,0,0-.09-.15h0a.12.12,0,0,0-.12.1c-.16.55-.32,1.11-.47,1.66l-.19.7-.61,2.26C45.41,50.45,45.32,50.79,45.23,51.14Z" transform="translate(-28.33 -5.82)"/><path class="cls-1" d="M46.62,49.83c-.12.55-.23,1.11-.35,1.66-.08.35-.16.71-.23,1.06L46,53c0,.15-.07.31-.11.46a2.24,2.24,0,0,0-.07.51.11.11,0,0,0,.09.12h.07A.18.18,0,0,0,46,54a.59.59,0,0,0,0-.08c0-.06,0-.12.05-.18a.09.09,0,0,0,0-.11c0-.11,0-.22.07-.32s0-.2.07-.29.06-.27.08-.4c.08-.35.15-.69.23-1L46.84,50c.1-.43.19-.85.27-1.27l.42-2.13.19-1c.09-.44.17-.9.25-1.35a.13.13,0,0,0-.09-.15h0a.14.14,0,0,0-.13.1c-.08.44-.15.88-.24,1.32l-.18.89-.42,2.17C46.79,49,46.71,49.43,46.62,49.83Z" transform="translate(-28.33 -5.82)"/><path class="cls-1" d="M43.22,84.7c.44-.31.86-.63,1.29-1l1.29-1a.35.35,0,0,0,.05-.08.12.12,0,0,0,0-.1.14.14,0,0,0-.11-.06l-.06,0-1.29,1c-.42.32-.85.65-1.29,1a.14.14,0,0,0,0,.17A.13.13,0,0,0,43.22,84.7Z" transform="translate(-28.33 -5.82)"/><polygon class="cls-1" points="17.3 83.26 17.3 83.25 17.3 83.26 17.3 83.26"/><path class="cls-1" d="M43.13,93a.15.15,0,0,0,.09,0l1.48-1.33.34-.31.26-.25,1-.94a.13.13,0,0,0,0-.18.11.11,0,0,0-.08,0,.18.18,0,0,0-.1,0l-.93.9-.29.28-.31.28L43,92.79A.12.12,0,0,0,43,93,.11.11,0,0,0,43.13,93Z" transform="translate(-28.33 -5.82)"/><polygon class="cls-1" points="18.05 100.56 18.05 100.56 18.05 100.56 18.05 100.56"/><path class="cls-1" d="M46.23,106.19h0Z" transform="translate(-28.33 -5.82)"/><polygon class="cls-1" points="17.89 100.36 17.9 100.36 17.9 100.36 17.89 100.36"/><polygon class="cls-1" points="17.89 100.37 17.89 100.37 17.89 100.37 17.89 100.37"/><path class="cls-1" d="M42.82,127.81l1.3-1,1.26-.93,2.85-2.14,2.13-1.6a.12.12,0,0,0,0-.17.13.13,0,0,0-.11-.06l-.07,0-3.35,2.52-2.67,2c-.51.38-1,.76-1.52,1.16,0,0,0,0,0,.07a.16.16,0,0,0,0,.1A.14.14,0,0,0,42.82,127.81Z" transform="translate(-28.33 -5.82)"/><path class="cls-1" d="M48.76,125l-1,.68-.4.28-1.58,1.15-.46.35c-.21.16-.43.32-.63.49l-1.18,1a.1.1,0,0,0,0,.09.12.12,0,0,0,0,.09.12.12,0,0,0,.1,0,.09.09,0,0,0,.08,0l.19-.16,0,0,.65-.54.37-.3.23-.18.45-.35.23-.17.65-.48,1.22-.88c.59-.43,1.19-.85,1.79-1.27l1.33-.93a.12.12,0,0,0-.07-.23.08.08,0,0,0-.07,0l-1.07.75Z" transform="translate(-28.33 -5.82)"/><path class="cls-1" d="M43,133.94c1.84-1.26,3.68-2.52,5.5-3.81l2.82-2a.13.13,0,0,0,0-.18.13.13,0,0,0-.11-.06l-.07,0c-1.17.83-2.34,1.66-3.52,2.48l-1.18.83-1.28.88-2.34,1.61a.12.12,0,0,0,0,.17A.13.13,0,0,0,43,133.94Z" transform="translate(-28.33 -5.82)"/><path class="cls-1" d="M40.86,140.84a.12.12,0,0,0,.17,0L44,138.77l.63-.44.46-.31c.61-.43,1.23-.85,1.85-1.27l.58-.38,1.58-1,1.52-1,2-1.27a.12.12,0,0,0,0-.17.13.13,0,0,0-.11-.06l-.06,0-2.16,1.39-2,1.28-1.3.85c-.13.08-.25.17-.37.26l-.95.64-1.22.83-.37.26-.86.61-2.36,1.68A.14.14,0,0,0,40.86,140.84Z" transform="translate(-28.33 -5.82)"/><path class="cls-1" d="M40.88,67.31c.06-.57.12-1.14.17-1.71s.11-1.07.15-1.6l.09-1.17a4.55,4.55,0,0,0,0-.52l.12-2c0-.23,0-.47,0-.7a.12.12,0,0,0-.12-.12h0a.12.12,0,0,0-.12.13c0,.23,0,.47,0,.7l0,.67c0,.46,0,.91-.08,1.37a1.49,1.49,0,0,1,0,.21c0,.23,0,.47-.05.71,0,.39-.06.78-.1,1.17v0c-.09.95-.17,1.91-.28,2.86a.15.15,0,0,0,0,.09.11.11,0,0,0,.07.06.12.12,0,0,0,.1,0A.1.1,0,0,0,40.88,67.31Z" transform="translate(-28.33 -5.82)"/><path class="cls-1" d="M53.85,42.79c0-1.12-.07-2.23-.1-3.34l-.09-3.29c0-1.06-.06-2.13-.1-3.2l-.12-3.37c0-1.05-.07-2.1-.13-3.15,0-.56-.07-1.12-.11-1.68s-.09-1-.12-1.55q-.12-1.63-.18-3.27c0-1.07-.08-2.15-.13-3.22s-.1-2.1-.15-3.15c0-.54,0-1.08-.07-1.62s0-1.08,0-1.63c0-1.05-.08-2.11-.21-3.16l0-.23s0,0,0,0a.33.33,0,0,0,0-.29l0,0,0-.06a.38.38,0,0,0-.37-.33h0l0,0A1.34,1.34,0,0,0,51.3,6h-.23a3.92,3.92,0,0,0-.59,0,1.16,1.16,0,0,0-.32.08,2.18,2.18,0,0,0-.23.09,1.94,1.94,0,0,0-.33.23,1.84,1.84,0,0,0-.54.8,5.1,5.1,0,0,0-.22,1.45c0,.53,0,1,0,1.57,0,1,.07,2,.09,3s0,2.15,0,3.22,0,2.11,0,3.16,0,2.09,0,3.14S49,25,49,26s0,2.18,0,3.27c0,.53,0,1.06-.08,1.59s0,1-.06,1.54c-.06,1.07-.11,2.14-.13,3.21a14.18,14.18,0,0,1-.05,1.6,3,3,0,0,1-.15.57.82.82,0,0,1-.12.2.32.32,0,0,0-.18.1l-.15.14-.12.07-.25.07h-.1l-.1-.07a1.37,1.37,0,0,1-.22-.2,1.14,1.14,0,0,1-.1-.19,2.19,2.19,0,0,1-.14-.5,4,4,0,0,1-.09-.48c0-.36-.11-.72-.16-1.08s-.11-1-.15-1.48,0-1-.06-1.52,0-1,0-1.5,0-1-.06-1.48,0-1.05,0-1.58,0-1,0-1.54c0-1.06,0-2.12.08-3.19,0-.28,0-.57,0-.85v-.79c0-.54,0-1.07,0-1.61l-.09-1.53c0-.5,0-1,0-1.52s-.05-1-.05-1.55c0-.14,0-.29,0-.43l0,0a.32.32,0,0,0,0-.09.15.15,0,0,0,0-.09h0c0-.29,0-.57,0-.86.05-.51.07-1,.1-1.53,0-.26,0-.53,0-.8s0-.52,0-.77,0-.48,0-.72,0-.48,0-.72c0-.5,0-1,0-1.5,0-.24,0-.48,0-.72a6.84,6.84,0,0,0-.12-.79,3.82,3.82,0,0,0-.13-.36A.82.82,0,0,0,46.11,6a1.14,1.14,0,0,0-.41-.12h-.23l-.42,0a3.77,3.77,0,0,0-.76.13L44,6.1a1.07,1.07,0,0,0-.41.38,2.36,2.36,0,0,0-.28.74c-.06.23-.11.46-.16.7s-.1.47-.14.71-.07.53-.09.8,0,.48,0,.72-.05.54-.08.82q-.08.78-.12,1.56l-.09,1.54c0,1-.22,2.06-.24,3.1,0,.52,0,1,0,1.56s0,1,0,1.5c0,.26,0,.52,0,.77s0,.54,0,.81c0,.5,0,1,0,1.51s0,1,0,1.55c0,.26,0,.51,0,.76l0,.78c0,.54,0,1.08,0,1.62s0,1-.08,1.54-.1,1-.14,1.54,0,1,0,1.52,0,1,0,1.51,0,1,0,1.57A10.93,10.93,0,0,1,42.09,37a3.05,3.05,0,0,1-.17.66,2,2,0,0,1-.21.35l-.18.18-.22.13a1.17,1.17,0,0,1-.25.07,1.5,1.5,0,0,1-.3,0,2,2,0,0,1-.35-.09l-.09-.06a.68.68,0,0,1-.12-.12c-.06-.08-.1-.17-.15-.25a.57.57,0,0,0,0-.14.3.3,0,0,0,0-.21L40,37.32V37a.34.34,0,0,0-.2-.32c-.06-.29-.11-.59-.16-.88v0a23,23,0,0,1-.16-3c0-1,0-2,0-3s0-2.05-.07-3.07l0-1.57c0-.51,0-1,0-1.52,0-1,0-2.06,0-3.09,0-.52,0-1,0-1.56s0-1.1.05-1.64.07-1,.08-1.58,0-1.05,0-1.57c0-1,0-2.09,0-3.13a24.35,24.35,0,0,0-.14-3,5.12,5.12,0,0,0-.15-.78A2.53,2.53,0,0,0,39.11,7a2.92,2.92,0,0,0-.17-.36,1.1,1.1,0,0,0-.47-.46A1.71,1.71,0,0,0,38.09,6L37.7,6h-.39a.47.47,0,0,0-.2.06.85.85,0,0,0-.17.06,1.27,1.27,0,0,0-.59.62,3.24,3.24,0,0,0-.22.81c-.08.54-.14,1.08-.19,1.63,0,.26,0,.53-.06.8s0,.49-.05.73c0,.54,0,1.07-.07,1.6l0,1.65c0,.52,0,1-.06,1.55s0,1-.05,1.54,0,1,0,1.58c0,1.07,0,2.15,0,3.22s0,2.15,0,3.22c0,2.13,0,4.26,0,6.39v4.61c0,.5,0,1,0,1.5,0,.11,0,.22,0,.33a3.49,3.49,0,0,1-.12.54,1,1,0,0,1-.08.14l-.06.07a.31.31,0,0,0-.23.08h0a1.64,1.64,0,0,1-.43.13,3.18,3.18,0,0,1-.69,0l-.17,0-.09,0-.06-.06a2,2,0,0,1-.19-.36,1.29,1.29,0,0,1-.1-.35c0-.2,0-.4,0-.61v-.72c0-.5,0-1,0-1.49s0-1,0-1.5V28.94c0-.52,0-1,0-1.55V25.82c0-1,0-2.06,0-3.09s0-2.11,0-3.16c0-.53,0-1.06,0-1.59s0-1.05,0-1.57,0-1.07,0-1.6l0-1.53c0-.52,0-1,0-1.56s0-1,0-1.54,0-.95,0-1.43c0-.23,0-.47,0-.71a4.36,4.36,0,0,0-.07-.81,1.53,1.53,0,0,0-.54-.92A1.17,1.17,0,0,0,32,6.12a3.07,3.07,0,0,0-.53.06,3.17,3.17,0,0,0-.86.32l-.17.1-.05,0a.39.39,0,0,0-.3-.16.38.38,0,0,0-.38.38A.36.36,0,0,0,29.8,7c-.06.54-.11,1.07-.16,1.6s-.08,1-.13,1.52c-.11,1.06-.26,2.1-.34,3.16S29,15.47,29,16.55s-.11,2.16-.15,3.24c-.08,2.15-.16,4.31-.23,6.46s-.16,4.24-.21,6.36c0,1,0,2.06,0,3.09s0,2.14,0,3.21v6.27a26.86,26.86,0,0,0,.11,3.11,8.54,8.54,0,0,0,.33,1.58,15.82,15.82,0,0,0,.55,1.5,5.26,5.26,0,0,0,.34.67,4.54,4.54,0,0,0,.46.6,6.27,6.27,0,0,0,1.08.92,11.77,11.77,0,0,0,1.29.83c.2.11.41.2.62.3l.67.37.48.31a.39.39,0,0,0,.11.29c.17.19.35.38.52.58a7.7,7.7,0,0,1,.62,1,4.49,4.49,0,0,1,.26.54c.09.18.17.36.25.54A8,8,0,0,1,36.46,60l0,.19s0,.08,0,.12a0,0,0,0,1,0,0,.28.28,0,0,0,0,.09c.06.41.1.83.15,1.25s.09.8.1,1.21,0,.93,0,1.4,0,1,0,1.58c0,.94,0,1.89,0,2.83s-.06,1.93-.09,2.9c0,.48,0,1,0,1.44s0,1,0,1.51-.07,1-.1,1.45,0,.92,0,1.37c0,1,0,2,0,3s0,2,0,2.92c0,.53,0,1,0,1.57s0,1,0,1.53c0,1-.08,2-.15,2.92s-.12,2-.19,3c0,.48-.06,1-.1,1.43s-.11,1-.15,1.5c-.1,1-.18,2-.31,3h0c-.16,1.18-.33,2.37-.51,3.55-.09.62-.19,1.25-.27,1.88s-.15,1.2-.23,1.8h0v0h0v.05c-.14,1-.3,2-.45,3-.09.55-.17,1.11-.26,1.67s-.13,1-.21,1.46c-.16,1-.36,2.06-.52,3.09s-.33,2.06-.52,3.08l-.57,3.08c-.2,1-.41,2-.62,3s-.46,2-.6,3-.23,2-.32,3-.15,1.92-.2,2.88-.08,1.95-.08,2.92c0,.49,0,1,0,1.48s.07,1,.12,1.45a14.86,14.86,0,0,0,.22,1.49,11.65,11.65,0,0,0,.39,1.4c.16.46.32.91.5,1.36s.36.87.57,1.3.5.91.76,1.35.53.94.79,1.42c.46.85.93,1.7,1.46,2.52.26.41.53.82.81,1.22s.64.83,1,1.23c.18.21.36.41.55.61a.41.41,0,0,0,.11.25,3.91,3.91,0,0,0,.58.57,2,2,0,0,0,.35.25c.1.11.2.22.31.32l0,0a6,6,0,0,0,.76.47,2.48,2.48,0,0,0,.59.17l.47.06h.11v.12a.12.12,0,0,0,0,.1l.08.05a.12.12,0,0,0,.1,0,.09.09,0,0,0,0-.07l0-.21.38,0-.06,0a7.92,7.92,0,0,0,1.2-.05,6.19,6.19,0,0,0,1.34-.37,3,3,0,0,0,.31-.15c.14-.13.27-.27.4-.41a4.23,4.23,0,0,0,.4-.34,7.87,7.87,0,0,0,.66-.75c.08-.12.16-.24.23-.36l.07-.08c.34-.4.68-.8,1-1.19s.71-.71,1.06-1.09c.14-.15.27-.32.41-.49s.31-.39.45-.6l.38-.57.4-.65c.22-.41.43-.83.62-1.26.4-.89.78-1.78,1.14-2.68.18-.47.37-.93.57-1.39s.37-.91.53-1.38a13.32,13.32,0,0,0,.42-1.36,6.74,6.74,0,0,0,.17-.75c0-.26.09-.52.13-.78a20.14,20.14,0,0,0,.26-3V135l0,0v0a2.45,2.45,0,0,1,0-.27l-.07,0a23.1,23.1,0,0,0-.17-2.64c-.12-1-.27-1.95-.44-2.92-.09-.49-.19-1-.29-1.46s-.24-1-.36-1.5a.19.19,0,0,1,0-.08l.09-.06,0-.29-.13.09c-.21-.86-.41-1.72-.58-2.58s-.37-2-.53-3-.33-2.06-.51-3.09-.35-1.94-.5-2.92c-.06-.4-.12-.81-.17-1.21v0a.17.17,0,0,1,0-.07v0q-.39-3.08-.75-6.16c-.13-1-.24-2-.34-3.06s-.19-1.82-.28-2.73a.12.12,0,0,0,0-.14l0,0s0-.07,0-.11c-.05-.57-.1-1.14-.16-1.71a.07.07,0,0,0,0,0,.12.12,0,0,0,0-.1l0,0c0-.39-.07-.78-.11-1.18s-.09-1-.14-1.48-.11-1-.16-1.54-.1-1-.15-1.49-.12-1.08-.19-1.62c-.12-1-.23-2-.34-3-.16-1.62-.3-3.24-.46-4.85-.09-.83-.17-1.65-.27-2.47s-.21-1.57-.32-2.35c-.07-.63-.13-1.27-.19-1.91h0v-.29c0-.29,0-.58-.07-.86s0-.53,0-.79a.15.15,0,0,0,0-.07c0-.19,0-.39,0-.58l0-.85h0a.22.22,0,0,0,0-.08.16.16,0,0,0,0-.1.18.18,0,0,0-.07,0c0-.12,0-.25,0-.37,0-1,0-2,0-3s0-2,.1-3c0-.72.08-1.44.11-2.15s0-1.42,0-2.13.05-1.43.07-2.14.06-1.31.14-2a.28.28,0,0,0,.08-.15c0-.17.06-.35.08-.53s.06-.37.09-.56a4,4,0,0,1,.16-.57l.09-.06.06-.1a1.89,1.89,0,0,1,.11-.25l0-.07h0l-.07,0-.07,0a1.49,1.49,0,0,1,.18-.3,4.77,4.77,0,0,1,.72-.7,8,8,0,0,1,.81-.46.29.29,0,0,0,.12-.1l.05,0c.24-.11.47-.24.7-.37s.42-.25.62-.39a10.36,10.36,0,0,0,1.22-1c.18-.16.35-.34.53-.51s.36-.35.52-.54a7,7,0,0,0,.47-.64,4,4,0,0,0,.35-.68,8.13,8.13,0,0,0,.48-1.52s0-.06,0-.1a.09.09,0,0,0,0-.11c.09-.47.15-1,.2-1.43s.09-1,.12-1.56C53.92,44.84,53.88,43.81,53.85,42.79Zm-1.49,7.48a5.11,5.11,0,0,1-.5.88l-1.08.73-.36.24-.73.47q-1.12.73-2.25,1.5a.09.09,0,0,0,0,.06L47.61,53c.08-.42.17-.84.25-1.26l0,0a.15.15,0,0,0,.09,0l.87-.76c-.08.37-.16.75-.23,1.12a1.43,1.43,0,0,0,0,.22c-.31.24-.61.49-.91.75a.14.14,0,0,0,0,.09.12.12,0,0,0,0,.08.12.12,0,0,0,.09,0,.15.15,0,0,0,.09,0l.22-.19h0l.43-.35a.13.13,0,0,0,.09.15.13.13,0,0,0,.15-.1l.06-.3.08-.06.33-.25.49-.37.61-.44s0,0,.07,0a.13.13,0,0,0,.15-.09l0-.13,2-1.43Zm-3.73-2.39.18-.87.84-.71h0L50,46c0,.06,0,.11,0,.16l-.14.56c0,.1,0,.2-.08.3-.1.43-.19.85-.29,1.27-.32.29-.63.59-.93.89a.13.13,0,0,0,0,.18.14.14,0,0,0,.18,0l.64-.61-.06.26c0,.15-.07.31-.11.47-.07.36-.15.71-.22,1.06l-1,.9c0-.09,0-.17,0-.25.09-.45.19-.9.28-1.36Zm.59-3,1.45-1.17,0,.09c-.15.4-.27.8-.38,1.21l-.15.54-1.23,1,0-.08C49,46,49.12,45.45,49.22,44.91ZM50.33,51l-.79.57c-.19.14-.38.28-.56.43L48.9,52c.08-.39.15-.78.23-1.16l0-.21,1.47-1.27.07-.06-.12.55c-.08.36-.17.72-.25,1.08Zm-.65-2.55,1-.93.54-.49c-.14.64-.29,1.28-.43,1.91-.11.11-.23.21-.35.31l-1.2,1,.06-.27c0-.2.09-.4.13-.6Zm.66-2.7.88-.73.59-.51-.18.75-.3,1.34-.12.11-.7.64-.73.67.14-.63c.09-.38.19-.76.29-1.14C50.25,46.05,50.29,45.89,50.34,45.72Zm.7,3.33.86-.74.13-.12.39-.36.37-.36.21-.19c0,.27,0,.55-.09.82a9.4,9.4,0,0,1-.19,1.06.65.65,0,0,1,0,.13l-2,1.45C50.79,50.17,50.92,49.61,51,49.05Zm2.05-6.63,0,1.58c0,.51,0,1,0,1.55s0,.89-.08,1.34l-.41.39-.36.34-.41.38-.14.13-.59.51.21-.92c.07-.34.15-.68.22-1l.15-.14,1.38-1.32a.13.13,0,0,0,0-.18A.11.11,0,0,0,53,45a.18.18,0,0,0-.1,0c-.41.4-.82.8-1.24,1.19l0-.12.15-.68c.07-.29.13-.57.2-.86,0-.13.07-.26.1-.4l.81-.7a.13.13,0,0,0,0-.18.12.12,0,0,0-.08,0h0a.12.12,0,0,0-.08,0l-.53.46.18-.76a.13.13,0,0,0-.09-.16h0a.12.12,0,0,0-.12.1l-.27,1.1-.67.59-.79.65c.13-.47.27-.95.43-1.41l.16-.45h0l.21-.17c.34-.27.67-.56,1-.84l.38-.35.33-.31.1-.1Zm-1-22.61.06,1.32c-.29.36-.58.73-.86,1.1v0c0-.51,0-1,0-1.52l.13-.15c.1-.12.22-.23.33-.35l.28-.29Zm-.79,2.82,0,0c.27-.37.56-.74.85-1.1,0,.43,0,.86.07,1.29s.06.86.1,1.29h0a.1.1,0,0,0-.09,0l-.7.93-.21.27Zm.41,2.62.65-.87v.08l.09,1.28v.12h0l-.66.77-.43.5c0-.47,0-.93,0-1.4Zm-.37,2.28.59-.69.5-.58-.09,1.54-.5.45-.49.47C51.4,28.33,51.39,27.93,51.39,27.53Zm1.27,1.37-.08.08c0-.29,0-.59.05-.89Zm0,.36v0c0,.42,0,.84,0,1.27l-.24.27c0-.48.06-1,.08-1.44ZM49.6,8.85c0-.28,0-.56,0-.83a3.41,3.41,0,0,1,.14-.55c0-.08.09-.16.14-.24L50.15,7a.82.82,0,0,1,.2-.12,1.87,1.87,0,0,1,.32-.08,3,3,0,0,1,.67,0l.1,0h0c-.62.85-1.23,1.69-1.86,2.53C49.59,9.19,49.59,9,49.6,8.85ZM45.78,19.62l0,.58c-.33.46-.67.93-1,1.4,0,0,0,0,0,0h0v-.37c0-.11,0-.22,0-.32l.07-.11v0C45.15,20.43,45.47,20,45.78,19.62Zm-1,2.08a.13.13,0,0,0,.06.07.16.16,0,0,0,.1,0s.05,0,.07-.06.21-.31.32-.46l0,0,.49-.68s0,.09,0,.13c0,.2,0,.39,0,.58l-.66.92-.29.41-.09.13Zm.95-2.5v0l-.63.81-.29.39-.05.07c0-.25,0-.5,0-.75,0,0,0-.07,0-.11l.61-.8.27-.33.08-.1C45.74,18.68,45.74,18.94,45.76,19.2Zm-.93,4,0,0,1-1.46v.78c-.32.41-.63.82-.94,1.24l-.12.17c0-.24,0-.48,0-.72Zm-6.3,1.28-.43.39,0-1.17.46-.5v1.28Zm-.69.36v.25l0,0Zm0,.59v.22c0,.25,0,.49,0,.74v.28l-.1.1c0-.44,0-.87,0-1.31Zm.25,2v-.7l.14-.14a.14.14,0,0,0,0-.18.16.16,0,0,0-.09,0h0v0c0-.24,0-.47,0-.7s0-.32,0-.49l.43-.38v.51c0,.51,0,1,0,1.52,0,.31,0,.63,0,.94,0,0,0-.05,0-.07a.16.16,0,0,0-.09,0,.11.11,0,0,0-.09,0l-.29.28c0-.13,0-.26,0-.4Zm0,1v-.09l.49-.48a.11.11,0,0,0,0-.07l0,1.13h0l-.6.54Zm-6.32-2.5c0-.18,0-.35,0-.53v-.15l.39-.48a.14.14,0,0,0,0-.18.14.14,0,0,0-.09,0,.12.12,0,0,0-.09,0l-.2.24c0-.17,0-.35,0-.53s0-.25,0-.37c.18-.21.37-.41.55-.61,0,.9,0,1.79,0,2.68v.9l-.66.75.06-1.56Zm0-2.37c0-.29,0-.58,0-.87v-.12l0,0,.15-.15.37-.37c0,.3,0,.59,0,.88v.23l-.07,0a.15.15,0,0,0-.09,0Zm.53-1.88,0,0-.51.51c0-.5,0-1,0-1.49l.58-.62C32.31,20.63,32.31,21.16,32.31,21.68Zm0,5.61v.29c0,.35,0,.7,0,1l-.76.86.06-1.42C31.9,27.8,32.13,27.55,32.35,27.29ZM40.09,153.7c0-.57,0-1.15.08-1.72l1-.59-.3,2.51A5,5,0,0,1,40.09,153.7Zm10.19-9.11-.5,1.14c-.16.37-.33.74-.51,1.1-.08.17-.17.33-.26.5s-.23.38-.35.57-.41.63-.64.93l-.52.63c-.21.23-.44.45-.65.67s-.63.67-.93,1h-.05a.41.41,0,0,0-.22.17c-.14.19-.26.39-.39.59-.29.34-.58.69-.89,1-.09.11-.2.2-.29.3a4.29,4.29,0,0,1-.77.45,5,5,0,0,1-1.07.29,3.08,3.08,0,0,1-.61,0L41.1,154h0c.11-.91.22-1.81.32-2.72l1.44-.86c-.1.92-.22,1.85-.32,2.77a.12.12,0,0,0,0,.1.08.08,0,0,0,.07,0,.16.16,0,0,0,.1,0,.1.1,0,0,0,.05-.08l.36-3,1.29-.78c-.14.92-.29,1.85-.45,2.77a.13.13,0,0,0,.1.15.12.12,0,0,0,.15-.09c.17-1,.33-2,.49-3l1-.62.35-.22v0c0,.26-.09.53-.13.79s-.09.46-.13.69a.13.13,0,0,0,.1.15.12.12,0,0,0,.15-.09c.06-.32.11-.64.17-1l.12-.79.7-.43.61-.38v.05a.12.12,0,0,0,.09.15.12.12,0,0,0,.15-.1,2.5,2.5,0,0,0,.05-.29l.34-.21a.12.12,0,0,0,0-.17.11.11,0,0,0-.1-.06l-.07,0-.15.09c.07-.36.14-.73.2-1.09l.33-.19.53-.3c.19-.1.37-.21.55-.32,0,.15,0,.3-.08.45a.13.13,0,0,0,.1.15.12.12,0,0,0,.15-.09l.12-.67a1,1,0,0,1,.17-.1.13.13,0,0,0,0-.18.12.12,0,0,0-.1-.05h0c0-.24.08-.48.13-.73l.12-.76c0-.18.06-.35.08-.53l.29-.17.23-.13.27-.17.32-.2L50.92,143C50.71,143.53,50.5,144.06,50.28,144.59Zm-6.73,1.82s0,0,0,0l0,0,1.49-.83c-.09.65-.19,1.31-.29,2l-1.13.62a1.71,1.71,0,0,1-.23.13l.21-1.74A.18.18,0,0,0,43.55,146.41ZM47,143l0-.3c.28-.19.56-.38.85-.56l.69-.46-.12.81c0,.12,0,.25-.05.37s-.06.33-.08.49l-.49.29-.25.15-.72.39C46.94,143.81,47,143.41,47,143Zm2-2.84c0-.31.07-.61.11-.92a.1.1,0,0,0,0-.09.1.1,0,0,0-.05,0l.6-.35.24-.15.56-.35-.12,1.37v0c0,.21,0,.42-.07.63l-.46.32-.7.46-.24.15.09-.6Zm.5.88.72-.48c0,.11,0,.23,0,.35l-.12.94c0,.17,0,.33-.08.49l-.33.2-1.09.65,0-.13.06-.38c.05-.4.11-.79.17-1.18ZM49.8,144l-.12.7-.83.48-.59.33c.07-.44.15-.88.22-1.32,0-.22.07-.44.1-.66l1-.58.44-.26-.06.42Zm-2.07,3.1-.6.37-.73.45c.06-.38.11-.77.17-1.16l.35-.2,1-.57c0,.11,0,.21-.05.32S47.77,146.84,47.73,147.1Zm-1.61,1-1.34.82h0l.18-1.28,1.34-.74c0,.24-.07.49-.1.73S46.14,147.94,46.12,148.1ZM47.88,144l.15-.09.27-.16c-.06.42-.13.83-.2,1.25l-.09.54,0,.18-1.37.77c.06-.42.12-.84.17-1.26,0-.23.06-.45.08-.67Zm-1.36,1.32-.06.4c0,.31-.08.62-.13.93l-.09.06-1.24.68c.09-.63.19-1.26.28-1.89a.17.17,0,0,0,0-.07l1.32-.72C46.57,144.86,46.54,145.06,46.52,145.27Zm-2.43,2.87.59-.33c-.07.43-.13.85-.19,1.28h0l-.32.19-1,.6c0-.44.11-.88.16-1.33Zm-1.19,1.91-1.11.67-.33.19c0-.45.11-.91.16-1.37l.38-.23.76-.43.3-.16C43,149.16,43,149.61,42.9,150.05Zm3.37-40.28c0-.13,0-.26,0-.39l-.09-.91.71-.6c0,.29,0,.58,0,.86a.13.13,0,1,0,.25,0l-.06-1,1.07-.91a.14.14,0,0,0,0-.09.18.18,0,0,0,0-.09.14.14,0,0,0-.09,0,.15.15,0,0,0-.09,0l-.9.76L47,105.86l.18-.16.15-.13.81-.76c0,.12,0,.24,0,.37.11,1,.24,2,.36,3.07,0,0,0,.09,0,.14a.12.12,0,0,0-.09,0,.07.07,0,0,0-.06,0l-1.27.82c-.15.09-.29.19-.43.29l-.42.29ZM46,107.19c0-.15,0-.31-.05-.46l.41-.34s0,0,0,0v0h0l.35-.31.09,1.49-.71.6C46.08,107.84,46.05,107.51,46,107.19Zm-.14-1.32-.12-1.19.47-.4h0l0,0h0l.36-.3c0,.15,0,.31,0,.46,0,.44.05.89.08,1.33l-.5.44h0l-.28.24Zm-.69-6.79-.12-1.37h0l.68-.51.33-.24c0,.31.05.62.08.94s0,.55.07.83l-.3.23-.7.55C45.22,99.36,45.2,99.22,45.19,99.08Zm1.16-6.49h0l.5-.42.09.85.15,1.42-1.34.92-.82.58c0-.14,0-.28,0-.42,0-.43-.07-.86-.11-1.28l0-.3.51-.44h0ZM47.26,96c.06.59.11,1.18.17,1.77l-1,.75c0-.35-.05-.7-.08-1.05s0-.49-.07-.73l.79-.6a.12.12,0,0,0,0-.18.15.15,0,0,0-.11-.06A.09.09,0,0,0,47,96c-.23.17-.46.34-.68.52,0-.3,0-.6-.08-.9a.13.13,0,0,0-.13-.12h0l1.07-.74C47.16,95.16,47.21,95.59,47.26,96Zm.29,3c0,.09,0,.18,0,.26l-1,.8c0-.31-.05-.61-.08-.91,0-.12,0-.24,0-.35l1-.75Zm-.62,6c0-.42,0-.84-.08-1.26l.14-.12.93-.8c0,.55.11,1.1.17,1.65l-1,.9-.09.07-.09.08Zm.92-2.87c0,.15,0,.29,0,.43h0a.11.11,0,0,0-.09,0l-.58.5-.38.33c0-.38,0-.76-.08-1.14l.56-.41.48-.35C47.81,101.75,47.82,102,47.85,102.15Zm-.68-.46-.44.32,0-.53c0-.21,0-.41-.05-.62l0-.46,1-.8c0,.55.1,1.1.16,1.65ZM45,96.19l.84-.59.13-.09a.19.19,0,0,0,0,.07l.09,1.07-.43.33-.57.43c0-.4-.07-.79-.1-1.18Zm.47,3.42.67-.51.1-.08c0,.41.07.82.1,1.23v0l-.18.15-.79.64c0-.16,0-.32-.05-.47s0-.26,0-.39,0-.28,0-.42A2.11,2.11,0,0,0,45.48,99.61Zm0,2.88c0-.37-.07-.74-.11-1.12l.86-.69.11-.09.06.75c0,.28,0,.57.05.85l0,0-.88.67C45.55,102.76,45.54,102.63,45.52,102.49Zm1,0c0,.33.05.65.07,1,0,.06,0,.12,0,.18l-.83.7,0,0c0-.4-.09-.8-.13-1.19ZM45,74.32c0,.35,0,.69,0,1l-.37.34-.66.6-1.54,1.37a.14.14,0,0,0,0,.18.16.16,0,0,0,.09,0,.15.15,0,0,0,.09,0l1.5-1.34.67-.6.23-.21v.08c0,.47.07.93.11,1.4l-.83.64-.62.48-.38.3-.21.17-.26.22a.13.13,0,0,0,0,.18.1.1,0,0,0,.09,0,.11.11,0,0,0,.09,0l.17-.15c.42-.34.84-.67,1.27-1l.7-.54c0,.36.07.73.12,1.09l-.84.59c-.59.42-1.18.84-1.75,1.28a.12.12,0,0,0-.06.08.1.1,0,0,0,0,.09.12.12,0,0,0,.17,0c.57-.43,1.15-.84,1.73-1.25l.76-.54h0c0,.21,0,.41.08.62l-2,1.59-1.92,1.56a.21.21,0,0,0-.06.08.18.18,0,0,0,0,.1s0,0,.08,0a.12.12,0,0,0,.1,0l1.89-1.54,1.94-1.54.12.82h0c0,.11,0,.22,0,.34h0l-2.91,2.51a.11.11,0,0,0,0,.09.36.36,0,0,0,0,.09.17.17,0,0,0,.1,0,.12.12,0,0,0,.08,0l2.8-2.4c.1.88.2,1.77.28,2.65-.47.39-.93.78-1.41,1.16s-1,.82-1.49,1.25a.11.11,0,0,0,0,.09.12.12,0,0,0,0,.08.12.12,0,0,0,.09,0,.13.13,0,0,0,.09,0L43.8,86l0,0,.48-.39.64-.53c.38-.3.75-.61,1.12-.92,0,.47.09.93.14,1.39l0,0h0l0,0h0l-.8.66-.61.5L43,88.11s-.05,0-.05.08a.11.11,0,0,0,0,.1.16.16,0,0,0,.08.06.18.18,0,0,0,.1,0l1.75-1.42.69-.57.58-.48c0,.29.05.59.08.88l0,.31c-.52.42-1,.84-1.56,1.25s-1,.79-1.52,1.18a.22.22,0,0,0,0,.08.12.12,0,0,0,0,.1.13.13,0,0,0,.17,0c.5-.4,1-.79,1.52-1.18s1-.78,1.45-1.17c0,.35.06.7.1,1.05l-.25.21-.54.46h0L44.54,90c-.43.34-.86.68-1.28,1a.22.22,0,0,0,0,.08.17.17,0,0,0,0,.1s.05,0,.08,0a.12.12,0,0,0,.1,0c.3-.26.61-.51.92-.75l.79-.63.81-.66.54-.47c0,.41.08.81.13,1.22.07.65.15,1.3.22,2l-.6.51h0l-1.47,1.23,0-.57c0-.13,0-.26,0-.39l-.06-.5a.12.12,0,0,0,0-.09.14.14,0,0,0-.09,0h0a.12.12,0,0,0-.12.13c0,.16,0,.32,0,.48s0,.25,0,.37.05.53.08.8l-.16.13-.77.66-1.05.91a.14.14,0,0,0,0,.09.12.12,0,0,0,0,.08.12.12,0,0,0,.09,0,.15.15,0,0,0,.09,0c.6-.53,1.21-1,1.82-1.56v.06l.12,1.29c0,.21,0,.41,0,.62-.24.17-.48.34-.71.52s-.74.54-1.1.82a.09.09,0,0,0-.05.08.09.09,0,0,0,0,.09.12.12,0,0,0,.18,0l1-.79.34-.25.3-.22c0,.39.07.79.1,1.18l-.17.13-.9.69-.46.37-.58.49a.08.08,0,0,0,0,.09.1.1,0,0,0,0,.09.09.09,0,0,0,.09,0,.12.12,0,0,0,.09,0l.21-.18,0,0,.38-.32.44-.35.91-.7,0,0c0,.39.07.77.1,1.16l.06.65-.52.44a.11.11,0,0,0,0,.09.18.18,0,0,0,0,.09.16.16,0,0,0,.09,0,.15.15,0,0,0,.09,0l.23-.2h0L45,100c0,.07,0,.14,0,.2l0,.42.07.66-.84.69a.21.21,0,0,0-.06.08.12.12,0,0,0,0,.1s0,0,.07,0a.11.11,0,0,0,.1,0l.74-.61.1.88.06.62-.52.41a.16.16,0,0,0-.06.08.18.18,0,0,0,0,.1.16.16,0,0,0,.08,0,.13.13,0,0,0,.09,0c.14-.12.28-.22.42-.33,0,.4.09.81.13,1.21l-.23.2-.2.18-.17.15-.24.23a.13.13,0,1,0,.19.17l.23-.23.22-.19.23-.21c0,.32.07.64.11,1s0,.53.08.79l-.29.25h0l0,0s0,0,0,0L44.06,108a.12.12,0,0,0-.06.08.1.1,0,0,0,0,.09.11.11,0,0,0,.07.06.12.12,0,0,0,.1,0c.25-.2.5-.4.74-.61l.62-.51h0v0h0l.17-.15,0,.25c0,.4.07.8.11,1.19l-.47.4c-.67.58-1.34,1.15-2,1.74a.14.14,0,0,0,0,.18.17.17,0,0,0,.1,0,.12.12,0,0,0,.08,0l2-1.73.32-.27.06.68.06.59-1.82,1.3a.15.15,0,0,0,0,.18.14.14,0,0,0,.18,0l1.7-1.23c0,.12,0,.25,0,.37l.12,1.3-.83.65-1.3,1a.09.09,0,0,0,0,.08.1.1,0,0,0,0,.09.13.13,0,0,0,.18,0l1.53-1.2.48-.38,0,.26.09,1.09-.56.45-.34.27-.37.3-.25.23-.16.13c-.18.18-.37.36-.55.55a.12.12,0,1,0,.18.17l.56-.55.06,0,.16-.15.21-.18.7-.56.39-.31.18,2.07a.05.05,0,0,0,0,0l-.37.29-1.31,1-.63.51c-.24.2-.48.4-.71.61a.12.12,0,0,0,0,.17.11.11,0,0,0,.09,0,.18.18,0,0,0,.09,0l.29-.26.22-.19,0,0,.55-.45.69-.56,1.19-.93,1-.79c.5-.4,1-.8,1.49-1.21a.12.12,0,0,0,.06-.08.1.1,0,0,0,0-.09.1.1,0,0,0-.08-.06h0a.07.07,0,0,0-.06,0l-1.63,1.31-.58.46-.18-2.11.18-.15.51-.4.39-.31.94-.81a.13.13,0,0,0,0-.18.18.18,0,0,0-.09,0,.16.16,0,0,0-.09,0l-.94.81,0,0-.94.75c0-.3-.06-.61-.08-.91s0-.29,0-.44l.23-.18c.33-.27.66-.54,1-.83s.31-.32.46-.49l.39-.44a.13.13,0,0,0,0-.18.16.16,0,0,0-.09,0,.1.1,0,0,0-.09,0l-.27.3-.38.42a7.36,7.36,0,0,1-.77.71l0,0-.5.4-.09-1.07-.06-.58.1-.07c.13-.1.26-.18.4-.27a3.37,3.37,0,0,1,.31-.21l.14-.11,1.28-.82a.1.1,0,0,0,0,0c.11,1,.23,1.89.34,2.84s.26,2.09.42,3.13c.08.49.17,1,.25,1.48l-1.1.9-1.13.89-1.05.81c-.41.31-.82.64-1.23,1a.16.16,0,0,0-.06.08.18.18,0,0,0,0,.1.14.14,0,0,0,.08,0,.12.12,0,0,0,.1,0l1.22-1,1.06-.82,1.1-.86,1-.85c.07.37.14.75.2,1.13l0,.18-.75.52-.9.64c-.39.28-.79.56-1.17.85l-1.51,1.11-.73.57-.19.15-.39.32-.27.24a.14.14,0,0,0,0,.09.12.12,0,0,0,0,.09.14.14,0,0,0,.09,0,.15.15,0,0,0,.09,0l.69-.59,0,0c.34-.26.68-.53,1-.78l1.52-1.12.31-.23.86-.61.78-.56.62-.42c.07.45.15.9.22,1.36l-1.52,1.33-1.11,1-1.33,1.11h0l-1.21,1-1.45,1.19a.13.13,0,0,0-.06.07.12.12,0,0,0,0,.1.12.12,0,0,0,.08.06.13.13,0,0,0,.09,0c.49-.39,1-.79,1.45-1.19l.59-.47.65-.54h0l1.33-1.1,0,0,.35-.3.75-.65,1.42-1.24c.21,1.34.43,2.68.7,4,.18.92.39,1.83.62,2.74l-.77.51-2,1.29-.79.53-.27.17c-.56.37-1.13.73-1.7,1.09l-1.57,1c-.55.35-1.1.7-1.66,1a.13.13,0,0,0,0,.17.13.13,0,0,0,.18,0c.5-.3,1-.61,1.48-.92l1.31-.83,1.78-1.15.39-.25.47-.31,2.25-1.48.73-.48.24-.16c.11.45.23.91.32,1.36s.2,1,.29,1.46c0,.27.09.55.14.82l-.82.6-.93.67-1.11.79-1.73,1.21-.41.29-.93.68c-.51.36-1,.74-1.51,1.1l-2,1.45a.13.13,0,0,0,0,.17.12.12,0,0,0,.17,0l2.88-2.11c.45-.33.9-.66,1.36-1l.53-.38.64-.45L50.15,132l1.22-.87.44-.32.54-.4c.07.45.14.9.2,1.34v0h0v0h0v0h0a25.79,25.79,0,0,1,.2,2.78v.48l-.77.45-1.51.89-.44.25-.89.5-1.39.8-1.07.62-1.2.72-2.57,1.56a.12.12,0,0,0,0,.17.12.12,0,0,0,.17,0l1.49-.91,1.36-.82,1.42-.84,1.44-.83,1.43-.81.31-.18.85-.5,1.39-.82a20.41,20.41,0,0,1-.19,2.2v0s0,0,0,0h0v.07c-.05.28-.09.56-.14.84s-.12.61-.2.91a8.89,8.89,0,0,1-.26.88q-.14.44-.3.87l-.1.25c-.34.22-.68.44-1,.64l-.2.12,0-.17,0-.19c0-.19,0-.39.07-.59s.06-.46.08-.69a.88.88,0,0,0,0-.16l.62-.41a.14.14,0,0,0,0-.18.11.11,0,0,0-.11-.06l-.06,0-.44.3V140c0-.12,0-.24,0-.36s.05-.53.07-.8l.06-.72.8-.5.23-.14c.17-.1.33-.22.49-.32a.13.13,0,0,0,0-.18.14.14,0,0,0-.11-.06l-.06,0-.51.33-.31.2-1,.62-.71.44c-.12.08-.25.15-.38.22l-3,1.81-1.38.82-.44.27-.86.54-1.08.68-.62.41-.72.48a.13.13,0,0,0,0,.18.12.12,0,0,0,.17,0l.79-.53.67-.44.47-.3.3-.19.73-.45.76-.47.48-.29,1.71-1,1.77-1c0,.37-.09.74-.14,1.11l-.15,1-1.43.94-.12.08c0-.15,0-.3,0-.45v0a.31.31,0,0,0,0-.1.1.1,0,0,0,0-.09.16.16,0,0,0-.08-.06h0a.12.12,0,0,0-.12.1c0,.17,0,.35,0,.53h0l0,.22c-.77.51-1.55,1-2.33,1.51l-1.07.7-.44.28-.39.27-.44.32a.11.11,0,0,0-.06.11.13.13,0,0,0,.1.12h0l.09,0h.08a.38.38,0,0,0,.1,0l.07,0,.14-.05.26-.09a.13.13,0,0,0,.08-.16.14.14,0,0,0-.16-.08l-.12,0,.46-.31.63-.4L45.1,144l1.7-1.1,0,.28c-.05.39-.09.78-.14,1.17h0l-1.52.84-.75.41-.75.42c-.61.35-1.23.7-1.81,1.1a.14.14,0,0,0,0,.18.12.12,0,0,0,.17,0l.25-.17.23-.14.35-.22.55-.32c-.08.64-.15,1.28-.23,1.93l-.66.37-.62.35-.16.09.09-.73a.15.15,0,0,0,0-.09.12.12,0,0,0-.08-.06h0a.07.07,0,0,0-.06,0,.11.11,0,0,0-.06.07c0,.32-.07.64-.11,1l-.3.18a.14.14,0,0,0,0,.17.13.13,0,0,0,.18,0l.13-.08c-.06.46-.11.92-.16,1.37l-1,.6c0-.72.07-1.44.1-2.16a.12.12,0,0,0-.12-.12h0a.09.09,0,0,0-.08,0,.12.12,0,0,0,0,.09c0,.77-.07,1.54-.11,2.31l-.07,0a.12.12,0,0,0,0,.17.11.11,0,0,0,.09.06c0,.49,0,1-.07,1.48l-.46-.25c-.16-.08-.31-.17-.46-.26l-.33-.35c-.29-.3-.58-.59-.86-.9s-.58-.67-.86-1l-.06-.07,0,0c-.45-.6-.87-1.23-1.27-1.86s-.77-1.31-1.13-2l-.57-1.05c-.19-.34-.38-.67-.58-1a11.76,11.76,0,0,1-.57-1c-.16-.33-.31-.67-.45-1a.36.36,0,0,0,0,.09c-.24-.59-.47-1.19-.66-1.8a11.19,11.19,0,0,1-.42-1.8A25.9,25.9,0,0,1,31,136.4c0-1,0-1.91,0-2.87s.11-1.95.19-2.93.16-2,.28-3a2.3,2.3,0,0,1,0-.26v0c.07-.52.15-1,.26-1.56s.21-1,.32-1.53c.21-1,.42-2,.62-2.94s.38-2.05.58-3.08c.09-.54.19-1.07.28-1.6s.15-1,.22-1.43c.16-1,.34-2,.5-2.94s.28-1.88.43-2.82.31-2,.45-3,.26-1.9.39-2.85.27-1.89.41-2.84.31-2,.43-3.08.19-2,.29-3c.06-.48.1-1,.14-1.45s.07-1,.1-1.52c.06-1,.12-2,.19-2.94s.1-2,.13-3,0-2,0-3,0-2,0-3,0-2,0-3c0-.46,0-.93.06-1.39s.08-.93.1-1.39l0-1.55c0-.47,0-.94,0-1.41,0-1,.08-1.93.08-2.9s0-1.93,0-2.9c0-.53,0-1.07,0-1.6s0-.87-.05-1.3-.08-.81-.13-1.22c0-.21-.05-.41-.07-.62s0-.25-.05-.37v0a.13.13,0,0,0,0-.06c0-.11,0-.22,0-.34a10,10,0,0,0-.28-1.23,7.84,7.84,0,0,0-.38-.95c-.13-.3-.27-.6-.43-.9s-.29-.48-.45-.71a.36.36,0,0,0,0-.46c-.15-.14-.29-.3-.45-.44a4.81,4.81,0,0,0-.57-.44,10.14,10.14,0,0,0-1.1-.64L33,53.78c-.2-.1-.39-.22-.58-.34-.38-.24-.75-.5-1.11-.77a5.25,5.25,0,0,1-.76-.73c-.09-.13-.18-.26-.26-.39A6.19,6.19,0,0,1,30,51c-.17-.42-.33-.86-.47-1.3a11.1,11.1,0,0,1-.3-1.39,26.44,26.44,0,0,1-.11-3.09V35.73q0-1.54,0-3.09l.06-1.6c0-.53,0-1.07,0-1.6l.12-3.14c0-1.09.06-2.18.1-3.27.09-2.15.14-4.3.28-6.46.06-1.07.12-2.15.21-3.22s.22-2.11.33-3.16c0-.51.1-1,.14-1.54,0-.35.07-.71.1-1.06a2.31,2.31,0,0,1,.3-.32,2.16,2.16,0,0,1,.39-.22,2.82,2.82,0,0,1,.57-.15,2.23,2.23,0,0,1,.37,0l.06,0,.07,0,.06.06a1.09,1.09,0,0,1,.08.15.38.38,0,0,1,0,.1C32,7.85,31.47,8.44,31,9a.16.16,0,0,0,0,.09.1.1,0,0,0,0,.09.12.12,0,0,0,.18,0c.43-.55.87-1.1,1.31-1.64a8.38,8.38,0,0,1,0,1.12c-.61.64-1.22,1.27-1.81,1.93a.12.12,0,0,0,0,.17.13.13,0,0,0,.18,0c.53-.59,1.07-1.16,1.61-1.73,0,.43,0,.86,0,1.28v.23c-.39.39-.78.78-1.16,1.18a.12.12,0,1,0,.18.17l1-1c0,.32,0,.64,0,1,0,.51,0,1,0,1.53l-.7.71c-.27.29-.55.58-.8.88a.13.13,0,0,0,.19.18c.24-.3.5-.58.77-.86l.53-.54,0,1.23h0a.1.1,0,0,0-.09,0l-.7.75c-.21.22-.4.45-.6.67a.14.14,0,0,0,0,.18.13.13,0,0,0,.18,0c.19-.23.38-.44.58-.66l.64-.69,0,1.27c-.1.1-.2.21-.29.32l-.36.4-.24.27-.15.17-.22.28c-.1.12-.2.24-.29.37a.12.12,0,0,0,0,.18.14.14,0,0,0,.18,0l.27-.34.24-.29.13-.15.27-.31.32-.36.14-.15c0,.4,0,.81,0,1.21v0c-.23.27-.46.53-.68.8l-.39.46-.24.28-.16.21-.07.13a1.16,1.16,0,0,0,0,.18.14.14,0,0,0,.1.15.13.13,0,0,0,.15-.1.5.5,0,0,1,0-.12l0-.05a.36.36,0,0,1,.07-.1,2.42,2.42,0,0,1,.25-.31l.21-.25c.11-.14.23-.27.35-.41l.4-.47c0,.38,0,.77,0,1.15v0s0,0-.07,0c-.24.26-.48.51-.71.77l0,0h0l-.44.48-.51.57c-.07.1-.15.18-.22.28l-.16.2c-.07.09-.13.18-.2.26a.16.16,0,0,0,0,.09.1.1,0,0,0,0,.09.15.15,0,0,0,.09,0,.16.16,0,0,0,.09-.05l.17-.23.16-.2.22-.27.19-.22.31-.36.27-.29c0,.5,0,1,0,1.49l-.17.18-.15.18c-.06.08-.13.15-.2.23l-.2.25-.09.12-.07.1-.15.24a.13.13,0,0,0,.23.12c0-.08.09-.16.14-.24a5.07,5.07,0,0,1,.36-.45l.31-.36v.39c0,.2,0,.4,0,.6l-.23.25-.4.46c-.12.13-.23.25-.33.38l-.14.22a1.25,1.25,0,0,0-.1.27.14.14,0,0,0,.1.15.13.13,0,0,0,.15-.1s0-.1,0-.14l0-.06.06-.1c.15-.21.33-.4.49-.59l.3-.33,0,0c0,.17,0,.34,0,.51v.43l-.19.23-.45.56c-.05.08-.12.15-.17.23l-.26.36a.61.61,0,0,1-.07.1,1.3,1.3,0,0,1-.1.15l-.32.53a.12.12,0,0,0,.05.17.14.14,0,0,0,.17-.05l.42-.68.15-.21.17-.23h0v0l.49-.62.1-.12c0,.28,0,.56,0,.83,0,.53,0,1.05-.07,1.57l-1,1.09a.13.13,0,1,0,.19.17l.76-.86c0,.46,0,.92-.07,1.38,0,0,0,0,0,0-.18.22-.37.43-.55.66a.11.11,0,0,0,0,.17.13.13,0,0,0,.18,0c.45-.55.92-1.08,1.39-1.61v1.37L31.7,31c-.35.36-.71.72-1,1.1a.13.13,0,0,0,.19.17c.33-.38.68-.74,1-1.1l.49-.48V32l-.59.57c-.29.28-.57.56-.85.85a.12.12,0,0,0,0,.17.13.13,0,0,0,.18,0c.27-.28.54-.55.82-.82s.29-.28.43-.42v1.46c0,.49,0,1,0,1.49s0,1,0,1.48a7.82,7.82,0,0,0,.06,1.45,2.28,2.28,0,0,0,.15.44,3,3,0,0,0,.16.31,1.16,1.16,0,0,0,.42.43,1.25,1.25,0,0,0,.47.16l.51,0a2.19,2.19,0,0,0,.51,0,1.27,1.27,0,0,0,.38-.11l.26-.11a.45.45,0,0,0,.31-.11,2.26,2.26,0,0,0,.25-.29,1.66,1.66,0,0,0,.18-.35,3.28,3.28,0,0,0,.14-.76,9.87,9.87,0,0,0,.08-1.43V27c0-1,0-2.11,0-3.17s0-2.15,0-3.23,0-2.13.07-3.2c0-.52,0-1.05,0-1.58s.05-1,.07-1.53,0-1.06,0-1.58,0-1.09.06-1.64.07-1,.1-1.57.09-1,.16-1.53a3.87,3.87,0,0,1,.2-.88,1.06,1.06,0,0,1,.1-.17l.08-.08,0,0,.22,0a2.77,2.77,0,0,1,.41,0,.86.86,0,0,1,.23.06l.05,0,.06.06a1.82,1.82,0,0,1,.15.27,4.24,4.24,0,0,1,.24.93,1.1,1.1,0,0,1,0,.18c-.34.34-.68.68-1,1a.12.12,0,0,0,0,.17.13.13,0,0,0,.18,0c.28-.3.57-.59.86-.88,0,.42,0,.83.06,1.25l-.77.79a.12.12,0,0,0,0,.17.13.13,0,0,0,.18,0l.59-.61c0,.32,0,.63,0,.94v.12l-.93,1a.14.14,0,0,0,0,.18.13.13,0,0,0,.18,0c.24-.26.49-.52.74-.77,0,.4,0,.8,0,1.21l-.25.23c-.3.27-.6.54-.88.82a.12.12,0,1,0,.18.17l.88-.82.07-.06v.75l-.37.39a6,6,0,0,0-.48.53.11.11,0,0,0,0,.17.13.13,0,0,0,.18,0c.15-.19.32-.36.48-.53l.19-.19v.84c-.27.27-.53.55-.77.84a.13.13,0,0,0,0,.18.14.14,0,0,0,.18,0c.19-.22.39-.43.58-.64v.4c0,.53-.06,1.06-.09,1.59s0,1,0,1.55c0,.26,0,.52,0,.78l-.23.24c-.14.15-.27.31-.41.47a.14.14,0,0,0,0,.18.13.13,0,0,0,.18,0c.12-.15.25-.29.38-.44l.06-.06c0,.14,0,.28,0,.42s0,.39,0,.59l-.12.17-.24.34,0,.06-.1.15a.83.83,0,0,0-.07.13s0,0,0,0a.59.59,0,0,0,0,.13.38.38,0,0,0,0,.1.29.29,0,0,0,0,.09.12.12,0,0,0,.16.08.12.12,0,0,0,.08-.15s0,0,0-.06v0a.29.29,0,0,1,0-.09s0,0,0,0a1.19,1.19,0,0,1,.09-.15l.09-.13.14-.19h0c0,.37,0,.75,0,1.12l-.52.57-.06,0h0l0,0L38,21a.12.12,0,0,0-.13-.12h0a.12.12,0,0,0-.12.13c-.06,1.44-.11,2.89-.17,4.33-.26.24-.52.49-.77.75a.12.12,0,0,0,0,.17.13.13,0,0,0,.18,0,7.53,7.53,0,0,1,.57-.56c0,.44,0,.89-.05,1.34-.28.28-.55.57-.82.86a.13.13,0,0,0,0,.18.12.12,0,0,0,.17,0c.21-.22.42-.43.62-.65,0,.24,0,.48,0,.71a.13.13,0,0,0,.13.13.14.14,0,0,0,.12-.13c0-.33,0-.66,0-1l.1-.11v.57l0,.66-.87.89a.13.13,0,0,0,0,.18.14.14,0,0,0,.18,0c.21-.23.44-.46.67-.68,0,.36,0,.72-.07,1.09l-.3.27-.19.18-.31.3a.13.13,0,0,0,.19.17l.27-.27.21-.19.2-.19,0,0A.13.13,0,0,0,38,30a.11.11,0,0,0,0-.09v-.05h0l.63-.56c0,.22,0,.44,0,.67s0,.57,0,.85l-.58.62-.32.34-.19.22-.12.14c-.06.07-.1.15-.15.22a.13.13,0,0,0,.05.17.13.13,0,0,0,.18,0l.08-.13c.11-.14.23-.28.35-.41s.22-.23.32-.35l.39-.41c0,.45,0,.9,0,1.35l-.59.69a.13.13,0,0,0,.19.17l.4-.47v.06c0,.41,0,.81,0,1.21-.16.18-.33.35-.5.53l-.25.26-.11.12-.16.17c-.06.08-.11.16-.16.24a.14.14,0,0,0,.05.17.14.14,0,0,0,.18-.05.64.64,0,0,1,.08-.14l.33-.37.24-.24.33-.35c0,.29,0,.58.06.86,0,0,0,.07,0,.11l-1.33,1.41a.13.13,0,0,0,0,.18.14.14,0,0,0,.18,0c.39-.43.79-.85,1.19-1.27,0,.24.07.48.11.72a6.54,6.54,0,0,0,.26,1,1.49,1.49,0,0,0,0,.36,2.74,2.74,0,0,0,.15.4,1.69,1.69,0,0,0,.17.29,1.43,1.43,0,0,0,.33.32,1.13,1.13,0,0,0,.49.21,2.15,2.15,0,0,0,.8,0,1.79,1.79,0,0,0,1.27-.88,3.56,3.56,0,0,0,.42-1.47c0-.52,0-1,0-1.57s0-1.08,0-1.62,0-1,0-1.46.05-1,.09-1.48.1-1.05.14-1.57,0-1.07,0-1.61,0-1,0-1.57,0-1,0-1.52V22.82c0-.25,0-.51,0-.76s0-.55-.05-.82c0-.49-.06-1-.06-1.49s0-1,0-1.57,0-1.05,0-1.57.1-1,.15-1.51.07-1,.1-1.54.06-1,.1-1.53c0-.27,0-.53,0-.79s.06-.53.08-.8,0-.53,0-.8,0-.43.05-.65.12-.66.19-1a7.92,7.92,0,0,1,.24-1l.11-.2,0,0,.11-.06a3.16,3.16,0,0,1,.53-.13,4.36,4.36,0,0,1,.81,0h0l0,0v0h0a.12.12,0,0,0-.12.07l0,0h0a.16.16,0,0,0-.09,0,.12.12,0,0,0-.09,0L45,7.22a.13.13,0,0,0,0,.18.14.14,0,0,0,.18,0,1.63,1.63,0,0,0,.17-.2c-.11.23-.23.47-.36.69a.13.13,0,0,0,.22.12c.21-.38.41-.77.6-1.15,0,0,0,0,0,0a2.33,2.33,0,0,1,.05.28c0,.11,0,.23,0,.35h0a.13.13,0,0,0-.11.06c-.25.46-.5.91-.77,1.36a.12.12,0,0,0,0,.17.14.14,0,0,0,.17,0c.24-.4.47-.81.69-1.21l0,.75v.6l-.44.6a.17.17,0,0,0,0,.1.12.12,0,0,0,0,.08.11.11,0,0,0,.09,0,.15.15,0,0,0,.09,0c.08-.12.17-.24.26-.35v.56l-.67.87s0,.06,0,.09a.1.1,0,0,0,0,.09.13.13,0,0,0,.18,0c.15-.2.31-.4.46-.61l0,.58-.65.79a.16.16,0,0,0,0,.09.1.1,0,0,0,0,.09.11.11,0,0,0,.17,0c.15-.18.3-.35.44-.53l0,.6c-.25.32-.5.63-.74.95a.15.15,0,0,0,0,.09.16.16,0,0,0,0,.09.12.12,0,0,0,.17,0l.53-.67c0,.14,0,.29,0,.44s0,.14,0,.22c-.25.32-.5.65-.74,1,0,0,0,.06,0,.09a.11.11,0,0,0,0,.09.13.13,0,0,0,.18,0l.53-.72a.22.22,0,0,1,0,.08c0,.23,0,.46-.05.69l-.2.23c-.24.29-.48.58-.71.89a.14.14,0,0,0,0,.09.12.12,0,0,0,0,.09.14.14,0,0,0,.18,0c.22-.3.46-.58.69-.87h0c0,.29,0,.59,0,.88l-.73.95a.14.14,0,0,0,0,.09.15.15,0,0,0,0,.09A.14.14,0,0,0,45,17a.11.11,0,0,0,.09,0l.54-.71,0,.56c-.33.39-.66.79-1,1.2a.14.14,0,0,0,0,.09.11.11,0,0,0,0,.09.14.14,0,0,0,.18,0c.26-.34.53-.67.8-1,0,.16,0,.32,0,.48s0,.25,0,.37l-.21.27c-.11.12-.21.25-.31.37l-.43.57c0-.18,0-.35,0-.53a.12.12,0,0,0-.12-.12h0a.13.13,0,0,0-.12.13l0,.84-.1.12a.16.16,0,0,0,0,.09.15.15,0,0,0,0,.09.16.16,0,0,0,.09,0h0c0,.21,0,.41,0,.62s0,.23,0,.34l0,.08a.26.26,0,0,0,0,.08.23.23,0,0,0,0,.12.1.1,0,0,0,0,.06v.43c0,.49,0,1,0,1.49l-.17.25h0v0l-.06.07-.06.12a.36.36,0,0,0,0,.09.28.28,0,0,0,0,.09.1.1,0,0,0,0,.09.15.15,0,0,0,.09,0,.14.14,0,0,0,.12-.14v-.06l.06-.09v0c0,.24,0,.47,0,.71L44,25a.13.13,0,0,0,.06.17.1.1,0,0,0,.09,0,.12.12,0,0,0,.08-.06l.44-.66.32-.45h0c.28-.37.56-.75.85-1.12,0,.15,0,.31,0,.47a.11.11,0,0,0-.08,0,.12.12,0,0,0-.09,0l-.5.61-.36.46c-.12.15-.24.31-.35.47s-.28.39-.41.59a.12.12,0,0,0,0,.1.13.13,0,0,0,.06.07.12.12,0,0,0,.1,0,.13.13,0,0,0,.07-.06l.36-.52h0l.26-.36.08-.11.21-.26.64-.78c0,.14,0,.28,0,.41l0,.71a.11.11,0,0,0-.07,0c-.42.46-.84.93-1.24,1.4a.14.14,0,0,0,0,.18.13.13,0,0,0,.18,0c.36-.43.74-.86,1.12-1.28l0,.55c0,.1,0,.2,0,.3h0c-.5.52-1,1-1.48,1.58a.13.13,0,1,0,.19.17c.41-.48.86-.94,1.3-1.4l0,.93c-.2.23-.4.46-.58.7a.18.18,0,0,0,0,.09.13.13,0,0,0,0,.09.09.09,0,0,0,.08,0,.13.13,0,0,0,.09,0c.13-.17.27-.34.41-.5a2.26,2.26,0,0,0,0,.26l-.66.74a.12.12,0,0,0,0,.18.12.12,0,0,0,.17,0l.48-.53c0,.17,0,.35,0,.53a1.48,1.48,0,0,0,0,.21c-.47.5-1,1-1.4,1.52a.13.13,0,0,0,0,.18.14.14,0,0,0,.18,0c.39-.46.81-.9,1.22-1.34l0,.61c-.53.57-1.07,1.14-1.56,1.75a.13.13,0,0,0,0,.18.12.12,0,0,0,.17,0c.45-.54.92-1.05,1.39-1.57,0,.35,0,.7,0,1l-.05,0-.67.78-.29.34-.47.59s0,.06,0,.09a.1.1,0,0,0,0,.09.13.13,0,0,0,.18,0c.14-.19.29-.37.44-.56l.28-.33c.19-.23.39-.45.58-.67v.1c0,.33,0,.67,0,1h0a.18.18,0,0,0-.09,0l-.9,1-.33.39-.1.12-.05.06a1.47,1.47,0,0,0-.1.13l0,.1s0,.06,0,.09a.64.64,0,0,0,0,.07l0,0,.06.06a.13.13,0,0,0,.18,0,.12.12,0,0,0,0-.17l0,0h0a0,0,0,0,1,0,0l0,0c.11-.13.21-.26.32-.38l.32-.37.69-.77c0,.37,0,.74,0,1.11l-.56.63L45,35.2l-.24.28-.18.23a.86.86,0,0,0-.1.16l-.08.16a.13.13,0,0,0,.23.12.77.77,0,0,1,.07-.16l.09-.14c.15-.2.32-.39.48-.59l.27-.3c.12-.15.25-.29.37-.43,0,.32,0,.65.09,1-.2.25-.41.49-.6.74l-.29.36-.14.18a1.13,1.13,0,0,0-.1.13l-.06.09a.25.25,0,0,0,0,.08.14.14,0,0,0,0,.09.13.13,0,0,0,.09.12h.14a.14.14,0,0,0,.12-.13.15.15,0,0,0-.08-.11c.1-.13.2-.25.29-.38l.28-.35.4-.48.15,1v0A7.15,7.15,0,0,0,46.45,38a3.05,3.05,0,0,0,.13.32,1.49,1.49,0,0,0,.2.29,1.66,1.66,0,0,0,.27.26.4.4,0,0,0,.27.34,1,1,0,0,0,.43,0,1.92,1.92,0,0,0,.4-.09,2,2,0,0,0,.7-.45,2.17,2.17,0,0,0,.24-.29,1.54,1.54,0,0,0,.2-.38,3,3,0,0,0,.18-.77,13.47,13.47,0,0,0,.06-1.55c0-.53,0-1.06,0-1.58s0-1.07.07-1.6,0-1,.07-1.55.06-1.06.07-1.59,0-1.1,0-1.66c0-1,0-2.09,0-3.14s0-2.13-.05-3.19,0-2.11,0-3.16,0-2.13,0-3.19c0-.53,0-1.05,0-1.58s0-1,0-1.56c0-.71,0-1.41,0-2.11.66-.88,1.3-1.76,2-2.65,0,.39.09.78.12,1.18L50.3,9.86a.12.12,0,0,0,0,.18.12.12,0,0,0,.17,0l1.19-1.35c0,.18,0,.36,0,.55l-.67.84-.34.41-.13.17-.09.11-.14.19s0,.06,0,.09a.1.1,0,0,0,0,.09.12.12,0,0,0,.09,0s.07,0,.08,0l.14-.19.09-.11c0-.06.09-.12.14-.17l.33-.41.51-.63c0,.12,0,.24,0,.36s0,.38,0,.58l-.78.89-.41.48L50.5,12l-.1.11-.1.15,0,.09s0,0,0,.05v.08a.25.25,0,0,0,.13.17.14.14,0,0,0,.09,0,.12.12,0,0,0,.08,0,.11.11,0,0,0,0-.09.15.15,0,0,0,0-.09l0,0v0a.41.41,0,0,1,.05-.09l.18-.22.21-.25.35-.4.46-.52c0,.38,0,.76,0,1.14l-.58.68-.3.35,0,.05-.11.13a.86.86,0,0,0-.07.1.62.62,0,0,0-.07.19.14.14,0,0,0,0,.09s0,.06,0,.09a.14.14,0,0,0,.06.07.12.12,0,0,0,.1,0,.11.11,0,0,0,.07-.06.11.11,0,0,0,0-.1v-.11a.41.41,0,0,1,.07-.11c.28-.34.57-.67.85-1l0,.74a1,1,0,0,0,0,.17c-.15.19-.3.37-.44.56l-.33.42-.21.27-.24.35a.15.15,0,0,0,0,.09.18.18,0,0,0,0,.09.16.16,0,0,0,.09,0,.15.15,0,0,0,.09,0l.23-.31.21-.28c.1-.14.21-.28.32-.41s.2-.26.3-.39c0,.35,0,.7.05,1,0,.09,0,.18,0,.26-.28.36-.56.72-.83,1.09a.18.18,0,0,0,0,.09.25.25,0,0,0,0,.09.17.17,0,0,0,.1,0s.07,0,.08,0l.67-.87c0,.31,0,.62,0,.92a1.27,1.27,0,0,0,0,.2l-.36.46c-.12.17-.25.33-.38.5l-.38.51-.21.29a2.4,2.4,0,0,0-.18.26h0a.4.4,0,0,0-.1.15.2.2,0,0,0,0,.09.19.19,0,0,0,0,.08.3.3,0,0,0,0,.08.1.1,0,0,0,0,0l.08,0h.11a.1.1,0,0,0,.09,0,.16.16,0,0,0,.06-.08.13.13,0,0,0-.1-.15h-.09l.12-.18.13-.18s0,0,0,0c.21-.29.43-.58.65-.86L52,17c0,.41,0,.82,0,1.24l-.32.39-.3.37-.19.24L51,19.5a.17.17,0,0,0,0,.1.12.12,0,0,0,0,.08.11.11,0,0,0,.09,0,.16.16,0,0,0,.09,0c.07-.09.14-.19.22-.28l.19-.24c.1-.14.21-.27.31-.4a1.46,1.46,0,0,0,.16-.19l0,.9-.21.22-.3.31-.35.37-.06.07h0a.12.12,0,0,0-.12.13v0l-.22.26A.12.12,0,1,0,51,21l0-.05.06,4v.65l-.28.36a.16.16,0,0,0,0,.09.1.1,0,0,0,0,.09.13.13,0,0,0,.18,0l.09-.12c0,.25,0,.5,0,.75v.61l-.08.1a.13.13,0,0,0,0,.18l.08,0c0,.17,0,.34,0,.51V29l-.21.2a.12.12,0,1,0,.18.17l0,0v.07a.12.12,0,0,0,.13.12.13.13,0,0,0,.12-.13v-.3c.22-.22.45-.43.68-.64l.29-.27-.06,1.12c-.42.45-.83.9-1.24,1.37a.12.12,0,0,0,0,.17.13.13,0,0,0,.18,0c.33-.39.68-.77,1-1.14,0,.44-.05.88-.07,1.32a.09.09,0,0,0,0,.07l-.6.68a.13.13,0,0,0,.18.18l.91-1,0,.89c-.64.68-1.29,1.37-1.91,2.08a.13.13,0,1,0,.19.17c.56-.64,1.15-1.27,1.73-1.89,0,.15,0,.3,0,.45s0,.38,0,.57c-.63.64-1.26,1.28-1.86,2a.13.13,0,0,0,.19.18c.54-.61,1.11-1.2,1.68-1.78,0,.41,0,.82,0,1.24l-.93,1-.41.46-.24.27-.22.27a2,2,0,0,0-.17.23l0,.09,0,.12a.13.13,0,0,0,.1.15.13.13,0,0,0,.15-.1l0-.1,0,0,.08-.12a5.71,5.71,0,0,1,.39-.47l.31-.34.31-.35.66-.74c0,.21,0,.41,0,.62s0,.36,0,.53l-.57.57-.21.21-.34.36a3.83,3.83,0,0,0-.28.29.52.52,0,0,0-.1.11l-.23.25c-.22.25-.44.51-.65.77a.12.12,0,0,0,0,.17.13.13,0,0,0,.18,0c.21-.26.43-.52.65-.77l.32-.36.07-.08.21-.21.34-.36.21-.21.4-.39,0,1,0,0a.17.17,0,0,0-.1,0c-.52.56-1,1.11-1.58,1.66s-1,1-1.52,1.54a.13.13,0,0,0,.19.17c.5-.5,1-1,1.49-1.51L53,37.85l0,1.23c0,.75.05,1.5.07,2.24l-.24.24-.26.24-.44.42-.12.1-.31.26-.44.38h0l0,0a.17.17,0,0,0,0-.1.11.11,0,0,0-.06-.07l-.06,0a.12.12,0,0,0-.11.07c-.07.16-.12.32-.18.47l-1.68,1.35h-.05a.13.13,0,0,0-.12.1v.07l-.06,0a.12.12,0,0,0-.06.08.1.1,0,0,0,0,.09.1.1,0,0,0,0,0l-.33,1.65a1.42,1.42,0,0,1,0,.2l-.19.17a.09.09,0,0,0,0,.09.09.09,0,0,0,0,.08.1.1,0,0,0,.09,0h0l-.15.74c-.14.72-.29,1.45-.44,2.17-.09.46-.19.92-.28,1.38l-.3,1.57c-.09.52-.19,1-.27,1.56h0l-.06,0a.4.4,0,0,0-.13.13.37.37,0,0,0-.36.38.29.29,0,0,0,0,.09,2.8,2.8,0,0,0-.37.48,4.91,4.91,0,0,0-.25.57.83.83,0,0,1,0,.15l0,0c0,.1-.07.2-.1.3a1.09,1.09,0,0,0,0,.17l-1.33.89-.45.3a.11.11,0,0,0-.08,0h0a.18.18,0,0,0-.09,0,.16.16,0,0,0,0,.09v.05l-.59.39c0-.14,0-.28,0-.41a.11.11,0,0,0,0-.1.16.16,0,0,0-.08-.06h0l-.07,0s0,0,0,.08c0,.22,0,.44-.07.65l-.31.22a.13.13,0,0,0,0,.18.13.13,0,0,0,.17,0l.15-.1-.06.66c0,.26,0,.52-.08.77L42.44,63c0,.39-.08.78-.13,1.16s-.09.8-.14,1.2l-.06.58c-.11.86-.21,1.72-.34,2.58a.13.13,0,0,0,.09.15.13.13,0,0,0,.15-.1c.09-.56.17-1.13.24-1.7s.13-1,.19-1.58.09-.8.13-1.21c0-.18,0-.38.07-.57l0-.16a.12.12,0,0,0,.16,0l.47-.35,0,.33c0,.27,0,.53-.08.8l-.2.15s-.11.1-.16.16a.12.12,0,0,0,0,.17.13.13,0,0,0,.18,0l.12-.11,0,0c0,.15,0,.29,0,.43v0l-.06.65c-.14.12-.28.23-.41.36a.14.14,0,0,0,0,.18.13.13,0,0,0,.18,0l.2-.17c-.05.47-.1.94-.14,1.41l-.14.12-.19.17a1.21,1.21,0,0,0-.21.24.11.11,0,0,0,0,.12l0,0a.12.12,0,0,0,.09,0h.24l.14,0a.14.14,0,0,0,0,.07.1.1,0,0,0,.08,0,.09.09,0,0,0,.09,0s.06,0,.06-.08,0-.08,0-.12h0l.29-.1a.11.11,0,0,0,.08-.15.12.12,0,0,0-.15-.09l-.2.07c0-.07,0-.15,0-.22l.36-.31,0,0,.34-.29v.06l-.09.67a.16.16,0,0,0,0,.1.09.09,0,0,0,.08,0,.12.12,0,0,0,.15-.09c0-.34.08-.68.13-1l.6-.51c-.06.49-.11,1-.17,1.48l0,0,0,0-.77.63-.5.4-.31.25-.24.22a.52.52,0,0,0-.1.11.67.67,0,0,0-.11.18.12.12,0,0,0,.05.17.13.13,0,0,0,.17,0s0-.1.08-.14l.16-.15L43.1,69h0l1.36-1.1,0,0h0a.1.1,0,0,0,.08,0,.09.09,0,0,0,.09,0s.06,0,.06-.08,0-.12,0-.18L45,67.5l.08-.06c0,.32,0,.64,0,1l-.62.42-.4.26v-.22c0-.06-.06-.12-.12-.12h0a.14.14,0,0,0-.12.13c0,.13,0,.26,0,.39l-.07,0-.2.14-.63.47a.12.12,0,0,0,.13.21l.62-.46.21-.14h.06a.14.14,0,0,0,.13-.13h0l.07-.06.43-.28.52-.35c0,.24,0,.47,0,.7l-.64.63-.61.6-1.55,1.49a.14.14,0,0,0,0,.18.17.17,0,0,0,.1,0,.12.12,0,0,0,.08,0c.52-.48,1-1,1.53-1.46L45,69.77v.13c0,.24,0,.48,0,.72l-1,.89-1.25,1.11a.13.13,0,0,0,0,.18.1.1,0,0,0,.09,0,.12.12,0,0,0,.08,0l1.25-1.12L45,71c0,.28,0,.56,0,.85l-.66.61-.67.61-1.41,1.25a.13.13,0,0,0,0,.18.14.14,0,0,0,.09,0,.18.18,0,0,0,.09,0l1.4-1.25c.22-.19.44-.38.65-.58l.5-.47c0,.23,0,.47,0,.71s0,.58,0,.87L43.5,74.9l-.93.73c-.3.24-.6.49-.88.75a.13.13,0,0,0,0,.18.14.14,0,0,0,.09,0,.18.18,0,0,0,.09,0c.12-.12.25-.23.38-.34l0,0,.37-.3.45-.37.8-.63.73-.57L45,74A2.62,2.62,0,0,0,45,74.32Zm2.47,47.17h0l0,0Zm3-109.08h0ZM42.84,67.7l-.08,0h0l.11-.11Zm1.65-9.59,1.12-.74a9.3,9.3,0,0,0-.16.92l-.12.11-.61.5-.54.41-.33.27.09-1.1ZM44.63,62l.52-.4c0,.39-.07.78-.11,1.17l-.25.2-.29.21c0-.18,0-.36.07-.55Zm.14-1.33.5-.38-.06.64h0v0h0V61a0,0,0,0,0,0,0h0a1.49,1.49,0,0,1,0,.21l-.51.4c0-.31.06-.61.1-.91Zm.09-1.1a.09.09,0,0,0-.08-.05h0l-.06,0a.16.16,0,0,0-.06.08c0,.31-.06.62-.1.92a1.09,1.09,0,0,1-.17.13l-.65.49c0-.39.07-.79.1-1.19.3-.22.59-.45.88-.68l.38-.3.34-.28c0,.37-.07.75-.09,1.12v.14l-.5.37.07-.66A.16.16,0,0,0,44.86,59.53Zm-.49,4.73.09-.77.46-.35.09-.07c0,.33-.07.65-.1,1l-.17.14-.31.24-.09.07Zm.84-.68v.2l0,0A1.64,1.64,0,0,1,45.21,63.58Zm-1.63-3.79-.61.47v0c0-.38.08-.77.11-1.15l.59-.4C43.64,59,43.61,59.41,43.58,59.79Zm-.64.77a.08.08,0,0,0,.07,0l.53-.42c0,.4-.07.79-.1,1.19l-.62.48h0Zm-.15,1.51h0a.09.09,0,0,0,.09,0l.52-.4c0,.23,0,.47-.07.7a2.83,2.83,0,0,0,0,.29l-.64.48h0C42.71,62.78,42.75,62.42,42.79,62.07Zm.89-.62.78-.58,0,0c0,.33-.07.66-.11,1l-.17.13-.63.48Zm.68.72h0c0,.16,0,.31,0,.47l-.09.71,0,0-.57.43-.17.12c0-.38.07-.76.1-1.14ZM43.78,64l.4-.29-.12,1-.25.18-.49.39c0-.34.07-.67.1-1Zm-.49,1.63.53-.43.19-.14c0,.47-.11.94-.17,1.41l-.58.48-.11.09C43.2,66.56,43.25,66.09,43.29,65.62Zm.89.16c0-.3.07-.6.11-.9v0l.25-.19.32-.26-.09.87-.06.47-.6.5ZM45,65.3l.12-1v-.11l.05,0c0,.41,0,.83-.05,1.25l-.11.08,0,0-.07.06A1.11,1.11,0,0,0,45,65.3Zm.11.41c0,.4-.05.79-.07,1.19a1.15,1.15,0,0,0,0,.19l-.26.22c.06-.49.11-1,.17-1.46ZM49.93,53a9.28,9.28,0,0,1-1.43.9l-1.16.6c0-.11,0-.22,0-.34a.15.15,0,0,0,0,.07.13.13,0,0,0,.18,0c.74-.51,1.49-1,2.25-1.49l.69-.46.4-.25a1.09,1.09,0,0,0,.17-.13,1.29,1.29,0,0,1-.16.17A12,12,0,0,1,49.93,53Z" transform="translate(-28.33 -5.82)"/><polygon class="cls-1" points="21.53 107.19 21.53 107.19 21.54 107.19 21.53 107.19"/><path class="cls-1" d="M49.87,113v0Z" transform="translate(-28.33 -5.82)"/><path class="cls-1" d="M52.56,131.86h0v0Z" transform="translate(-28.33 -5.82)"/><path class="cls-1" d="M39.59,35.81v0Z" transform="translate(-28.33 -5.82)"/><path class="cls-1" d="M70.49,14.71l1-1.3c.4-.5.81-1,1.21-1.48a.13.13,0,0,0,0-.18.11.11,0,0,0-.08,0,.13.13,0,0,0-.1,0L71.38,13.2c-.36.44-.72.89-1.07,1.34a.15.15,0,0,0,0,.09.16.16,0,0,0,0,.09A.12.12,0,0,0,70.49,14.71Z" transform="translate(-28.33 -5.82)"/><path class="cls-1" d="M69.88,20.32c.68-.87,1.37-1.73,2.06-2.59l.5-.61.31-.41c.22-.27.43-.55.65-.83l.21-.27.39-.52A.14.14,0,0,0,74,15a.15.15,0,0,0,0-.09.11.11,0,0,0-.08,0h0a.11.11,0,0,0-.09,0c-.12.17-.25.34-.38.5l-.19.26-.67.86c-.11.13-.21.27-.31.4s-.34.41-.5.62L69.7,20.14a.13.13,0,0,0,0,.1.12.12,0,0,0,0,.08A.13.13,0,0,0,69.88,20.32Z" transform="translate(-28.33 -5.82)"/><path class="cls-1" d="M72.42,21.67l-1.14,1.22c-.44.47-.88,1-1.31,1.44a.13.13,0,1,0,.18.18l1.3-1.43,1.16-1.24c.33-.36.68-.71,1-1.07L75.33,19a.13.13,0,0,0,0-.18.16.16,0,0,0-.09,0,.11.11,0,0,0-.09,0c-.56.57-1.12,1.14-1.67,1.72C73.12,20.93,72.77,21.3,72.42,21.67Z" transform="translate(-28.33 -5.82)"/><path class="cls-1" d="M75,21.27l-.83.84-1.1,1.1-.57.56-.62.63a1.7,1.7,0,0,0-.19.19l-.33.35-.23.25-.33.38c-.19.21-.38.43-.56.65a.12.12,0,0,0,0,.18.11.11,0,0,0,.17,0c.21-.24.41-.48.62-.71l.28-.32c.1-.11.2-.21.29-.32l.26-.28L72,24.7l.19-.2.57-.57,1.36-1.35q.18-.16.36-.36l.83-.84.25-.26.38-.4a.12.12,0,0,0,0-.17.1.1,0,0,0-.09,0,.18.18,0,0,0-.09,0c-.12.14-.25.27-.38.4Z" transform="translate(-28.33 -5.82)"/><path class="cls-1" d="M72.44,28.66l.32-.36L73,28l.5-.51.82-.83.6-.63c.1-.11.22-.22.32-.34l.56-.63.24-.27.36-.42a.12.12,0,0,0,0-.18.11.11,0,0,0-.08,0,.13.13,0,0,0-.1,0c-.11.13-.22.27-.34.4l-.22.26c-.2.21-.39.43-.58.64l-.31.33c-.2.21-.41.42-.61.64l-.83.84-.5.52c-.2.2-.39.41-.58.62a.14.14,0,0,0,0,.18A.13.13,0,0,0,72.44,28.66Z" transform="translate(-28.33 -5.82)"/><path class="cls-1" d="M71.5,32c.39-.44.79-.87,1.2-1.3l.57-.61.64-.67c.2-.21.41-.42.61-.64l.43-.43,1.55-1.54.2-.2a.13.13,0,0,0,0-.18.16.16,0,0,0-.09,0,.12.12,0,0,0-.09,0c-.28.27-.56.54-.83.82l-.82.82-.53.53-.13.13-.38.4-.71.74c-.18.18-.34.36-.51.54l-1.1,1.2-.19.21a.12.12,0,0,0,0,.18A.11.11,0,0,0,71.5,32Z" transform="translate(-28.33 -5.82)"/><path class="cls-1" d="M76.42,37.55a.13.13,0,1,0-.13-.12A.12.12,0,0,0,76.42,37.55Z" transform="translate(-28.33 -5.82)"/><path class="cls-1" d="M73.57,43.63,75,42.3l1.07-1,1.44-1.41,1.12-1.12.81-.82a.14.14,0,0,0,0-.18.11.11,0,0,0-.08,0,.13.13,0,0,0-.1,0l-1.38,1.39-.09-1c0-.34-.06-.68-.1-1s-.07-.6-.1-.91L77.4,35a.13.13,0,0,0-.13-.12h0a.13.13,0,0,0-.13.13c0,.38.09.76.13,1.14s.07.58.1.87.07.68.11,1,.06.74.1,1.12c0,0,0,.07.07.1-.34.33-.68.66-1,1L75.5,41.41l-1.32,1.28-.8.77a.13.13,0,1,0,.19.17Z" transform="translate(-28.33 -5.82)"/><path class="cls-1" d="M75.31,62.68q.63-.65,1.29-1.26c.17-.18.35-.35.54-.53l.41-.38.22-.2.73-.64.59-.5,1.25-1.06.26-.22a.11.11,0,0,0,0-.09.13.13,0,0,0,0-.09.18.18,0,0,0-.09,0,.16.16,0,0,0-.09,0l-1.37,1.15-.68.58-.72.63-.57.52-.27.26-.26.25-1.21,1.18-.22.22a.12.12,0,0,0,0,.17A.13.13,0,0,0,75.31,62.68Z" transform="translate(-28.33 -5.82)"/><path class="cls-1" d="M73.74,96c.2-.21.38-.45.57-.67l.58-.73a.13.13,0,0,0,0-.18.11.11,0,0,0-.08,0,.13.13,0,0,0-.1,0l-.57.72-.57.68a.13.13,0,0,0,0,.18A.12.12,0,0,0,73.74,96Z" transform="translate(-28.33 -5.82)"/><path class="cls-1" d="M77.23,94.31a.13.13,0,0,0,.12-.13.12.12,0,0,0-.13-.12.12.12,0,0,0-.12.13A.12.12,0,0,0,77.23,94.31Z" transform="translate(-28.33 -5.82)"/><path class="cls-1" d="M74.4,116.35s.07,0,.08,0c.61-.82,1.2-1.66,1.82-2.47.75-1,1.51-2,2.27-3a.12.12,0,0,0,0-.1.09.09,0,0,0,0-.08.1.1,0,0,0-.09,0,.12.12,0,0,0-.09,0c-.75,1-1.51,2-2.27,3-.61.81-1.21,1.64-1.81,2.47a.18.18,0,0,0,0,.09.13.13,0,0,0,0,.09A.12.12,0,0,0,74.4,116.35Z" transform="translate(-28.33 -5.82)"/><polygon class="cls-1" points="47.6 120.62 47.6 120.62 47.61 120.61 47.6 120.62"/><path class="cls-1" d="M76.18,136.63l1.08-1.34,1.11-1.35,2.26-2.72.89-1.05a.14.14,0,0,0,0-.18.14.14,0,0,0-.09,0,.11.11,0,0,0-.09,0c-1.62,1.94-3.25,3.88-4.85,5.85l-.48.6a.18.18,0,0,0,0,.09.13.13,0,0,0,.05.09A.12.12,0,0,0,76.18,136.63Z" transform="translate(-28.33 -5.82)"/><path class="cls-1" d="M81.47,131.3a.11.11,0,0,0-.09,0c-.86,1.16-1.73,2.32-2.59,3.49-.68.9-1.37,1.81-2,2.72-.14.2-.28.39-.41.59a.09.09,0,0,0,0,.09.16.16,0,0,0,.06.08h.1a.23.23,0,0,0,.07-.07l.19-.27h0c.34-.49.7-1,1.06-1.44l1-1.38L81,132.3l.59-.79a.14.14,0,0,0,0-.09.11.11,0,0,0,0-.09.11.11,0,0,0-.08,0Z" transform="translate(-28.33 -5.82)"/><path class="cls-1" d="M77.13,147.1c.19-.21.37-.43.56-.65l1-1.11L80,143.81l.25-.29c.24-.29.49-.57.73-.85l.79-.93c.31-.35.61-.71.9-1.07a.13.13,0,0,0,0-.18.16.16,0,0,0-.09,0,.11.11,0,0,0-.09,0l-.85,1-.65.76-.78.91c-.12.13-.23.27-.35.41L78.61,145l-1,1.18c-.43.5-.86,1-1.3,1.51a.14.14,0,0,0,0,.18.12.12,0,0,0,.18,0Z" transform="translate(-28.33 -5.82)"/><path class="cls-1" d="M82.7,142a.11.11,0,0,0-.09,0c-.32.39-.63.79-1,1.18l-.57.68-1.32,1.59-.26.3-.75.88-1,1.2c-.43.5-.87,1-1.29,1.52a.13.13,0,0,0,0,.18.14.14,0,0,0,.18,0c.71-.86,1.44-1.69,2.16-2.54l.78-.91c.12-.13.24-.27.35-.41l1.2-1.44.69-.82,1-1.23a.14.14,0,0,0,0-.18A.14.14,0,0,0,82.7,142Z" transform="translate(-28.33 -5.82)"/><path class="cls-1" d="M82.56,144.81a.12.12,0,0,0-.09,0l-1.58,2-.4.5-.64.78-.5.58-.45.51-.56.66-.64.77a.13.13,0,0,0,0,.18.14.14,0,0,0,.18,0c.21-.24.41-.49.61-.73l.58-.68.45-.51.51-.6.63-.77.39-.48,1.61-2a.13.13,0,0,0,0-.18A.12.12,0,0,0,82.56,144.81Z" transform="translate(-28.33 -5.82)"/><polygon class="cls-1" points="48.58 90.09 48.58 90.09 48.58 90.08 48.58 90.09"/><path class="cls-1" d="M75.92,81.76c.18-.19.36-.38.56-.56l.52-.49,1.08-1,.74-.69.17-.15.15-.15.72-.72.8-.81a.13.13,0,0,0,0-.18.11.11,0,0,0-.08,0,.18.18,0,0,0-.1,0l-.77.78-.72.72-.17.17-.15.13-.77.71-1.06,1c-.18.15-.34.31-.51.47s-.4.39-.59.59a.13.13,0,1,0,.19.17Z" transform="translate(-28.33 -5.82)"/><path class="cls-1" d="M77.24,87.52,79,86.22l.76-.57.79-.61A.16.16,0,0,0,80.6,85a.18.18,0,0,0,0-.1l-.08,0h0s0,0-.06,0l-.76.58-.77.57-1.77,1.33a.12.12,0,0,0,.13.21Z" transform="translate(-28.33 -5.82)"/><path class="cls-1" d="M77.16,89.19l.9-.68c.25-.19.5-.38.76-.56l.78-.56,1.1-.76a.13.13,0,0,0,0-.18.15.15,0,0,0-.11-.06l-.06,0-1.08.75-.77.55c-.57.42-1.14.84-1.7,1.27,0,0,0,0,0,.08a.13.13,0,0,0,0,.09A.13.13,0,0,0,77.16,89.19Z" transform="translate(-28.33 -5.82)"/><path class="cls-1" d="M69.75,147.27c0-.07,0-.15,0-.22s-.08-.36-.11-.54-.07-.33-.11-.49,0-.15,0-.22c0-.25-.09-.49-.13-.73L69.09,144l-.24-1.32s0,0-.06-.07h-.1s0,0-.07.06a.18.18,0,0,0,0,.1l.24,1.29c.06.35.13.71.2,1.06s.09.51.14.76a1,1,0,0,0,0,.17c0,.17.07.34.1.51l.18.81a2.86,2.86,0,0,0,.07.28l.13.55c.13.55.26,1.1.4,1.64a.13.13,0,0,0,.16.09.13.13,0,0,0,.08-.16c-.14-.54-.27-1.07-.39-1.61Z" transform="translate(-28.33 -5.82)"/><path class="cls-1" d="M79.07,95.85h0Z" transform="translate(-28.33 -5.82)"/><polygon class="cls-1" points="50.76 90.03 50.77 90.02 50.77 90.02 50.76 90.03"/><path class="cls-1" d="M80.79,118.89v0h0Z" transform="translate(-28.33 -5.82)"/><path class="cls-1" d="M80.78,118.87v0Z" transform="translate(-28.33 -5.82)"/><path class="cls-1" d="M83.78,141c0-.63,0-1.25,0-1.88s-.09-1.22-.16-1.83-.15-1.3-.24-1.95c-.18-1.21-.36-2.42-.53-3.62s-.38-2.49-.58-3.74c-.1-.59-.21-1.18-.3-1.77s-.21-1.27-.31-1.91-.2-1.24-.3-1.86-.19-1.17-.27-1.76c0-.19-.06-.38-.08-.58l-.18-1.26h0v0c-.06-.48-.11-1-.16-1.43s-.12-1-.19-1.48c0,0,0,0,0,.06l-.18-1.46c-.07-.49-.15-1-.22-1.49s-.13-1.16-.18-1.75l-.15-1.87c0-.62-.08-1.25-.12-1.87s-.08-1.24-.11-1.85c-.06-.89-.12-1.78-.17-2.67l.36-.43a.12.12,0,0,0,0-.18.11.11,0,0,0-.08,0,.13.13,0,0,0-.1,0l-.2.24,0-.6c0-.37,0-.74-.08-1.1l.28-.39s0,0,0-.09a.12.12,0,0,0,0-.09.11.11,0,0,0-.08,0h0a.11.11,0,0,0-.09,0l-.11.16c-.05-.7-.11-1.41-.16-2.12,0-.35,0-.7-.09-1,0-.14,0-.28-.05-.43l.2-.27a.11.11,0,0,0,0-.08c.33,0,.65-.09,1-.16a1.74,1.74,0,0,0,1-.5.74.74,0,0,0,.2-.46.93.93,0,0,0,0-.24,2.34,2.34,0,0,0-.09-.24.87.87,0,0,0-.26-.28,1.84,1.84,0,0,0-.22-.17,3.69,3.69,0,0,0-.62-.33c-.22-.11-.44-.22-.65-.34l-.31-.17-.43-.19a3.6,3.6,0,0,0-.66-.2,2,2,0,0,0,0-.25c0-.22,0-.45,0-.68,0-.4,0-.8.09-1.2a2.44,2.44,0,0,1,.15-.59,1.76,1.76,0,0,1,.14-.23l.14-.15A3.68,3.68,0,0,1,79,90l.59-.27a3.79,3.79,0,0,0,1.07-.8,2.7,2.7,0,0,0,.4-.54,3.66,3.66,0,0,0,.25-.62,7.13,7.13,0,0,0,.25-1.27,22,22,0,0,0,.07-2.57c0-.91,0-1.81,0-2.72s0-1.73,0-2.59,0-1.81,0-2.71,0-1.85,0-2.77c0-.34,0-.67,0-1v0a.09.09,0,0,0,0-.08.1.1,0,0,0,0-.09s0,0-.06,0V70.45c0-1.84,0-3.69,0-5.53,0-.91,0-1.81,0-2.71s0-1.83,0-2.74c0-1.8,0-3.59-.07-5.39,0-1.31-.06-2.63-.13-3.94.16-.17.31-.35.46-.53a.11.11,0,0,0,0-.17.12.12,0,0,0-.08,0,.13.13,0,0,0-.09,0l-.29.34c0-.39,0-.78-.07-1.17L81,45.81l-.15-2.69q-.15-2.79-.55-5.55c-.12-.89-.3-1.77-.48-2.65s-.38-1.79-.57-2.68-.4-1.84-.59-2.76-.37-1.85-.55-2.78-.35-1.82-.53-2.73-.4-1.79-.62-2.68c-.44-1.73-1.06-3.41-1.63-5.1-.28-.85-.61-1.69-.94-2.52l-.5-1.25a10.1,10.1,0,0,0-.51-1.17A18.67,18.67,0,0,0,72.08,9a9,9,0,0,0-.8-1,4.06,4.06,0,0,0-.48-.45,3.26,3.26,0,0,0-.48-.27,2.54,2.54,0,0,0-.47-.14l-.21,0a.65.65,0,0,0-.09-.16.43.43,0,0,0-.28-.11.36.36,0,0,0-.26.11,6.33,6.33,0,0,0-.47.56,2.53,2.53,0,0,0-.18.27,1.87,1.87,0,0,0-.17.31,5.33,5.33,0,0,0-.36,1.22,21.34,21.34,0,0,0-.35,2.51c-.07.88-.1,1.75-.13,2.63s0,1.81,0,2.71,0,1.76-.06,2.64,0,1.85,0,2.77,0,1.77-.06,2.66,0,1.86,0,2.79,0,1.72,0,2.57.06,1.88.11,2.82.09,1.79.13,2.69.07,1.86.11,2.79.07,1.83.11,2.74.1,1.77.16,2.65.09,1.8.13,2.7,0,1.76,0,2.65,0,1.9,0,2.86,0,1.79,0,2.68,0,1.86.07,2.79,0,1.75.08,2.62c.06,1.79.18,3.57.28,5.36,0,.92.1,1.85.12,2.77s.07,1.95.11,2.93.07,1.78.11,2.68.1,1.76.15,2.64c.11,1.77.12,3.55.16,5.32,0,.9,0,1.79.07,2.68s0,1.77.09,2.65.07,1.62.11,2.43.07,1.59.1,2.39l0,.71c-.41.26-.82.5-1.24.74a6.36,6.36,0,0,0-.69.46,1.7,1.7,0,0,0-.57.7.78.78,0,0,0,0,.22.55.55,0,0,0,0,.22l0,.09a.35.35,0,0,0,.08.13.8.8,0,0,0,.15.17,2.18,2.18,0,0,0,.49.29,5.32,5.32,0,0,0,.79.29,5.45,5.45,0,0,0,.79.14h0c0,.6,0,1.21,0,1.81s0,1.23,0,1.85c0,1.27-.12,2.55-.16,3.83s0,2.46,0,3.69v5.67c0,.64,0,1.28,0,1.91s-.07,1.24-.11,1.86-.08,1.23-.13,1.84c-.08,1.21-.2,2.42-.29,3.63s-.18,2.52-.27,3.78-.16,2.43-.26,3.64c0,.62-.09,1.24-.13,1.86s-.08,1.26-.12,1.9-.11,1.26-.17,1.9l-.15,1.81c-.11,1.23-.23,2.46-.27,3.7,0,.72,0,1.44,0,2.16,0,.35,0,.69,0,1a11.76,11.76,0,0,0,.11,1.18h0c0,.28.08.57.14.85s.14.59.23.89a17.74,17.74,0,0,0,.66,1.71c.26.58.53,1.14.84,1.69A9.92,9.92,0,0,0,70,152.25a7.87,7.87,0,0,0,1.31,1.27,6.93,6.93,0,0,0,1.45.82,7.77,7.77,0,0,0,.92.33l.85.2.4.07a3.93,3.93,0,0,0,.48.06,4.76,4.76,0,0,0,1-.07,4,4,0,0,0,1.15-.41,5.63,5.63,0,0,0,.81-.57,14.05,14.05,0,0,0,1.24-1.2c.44-.45.87-.9,1.27-1.37A12.82,12.82,0,0,0,82,149.86a8.1,8.1,0,0,0,.84-1.63,12.71,12.71,0,0,0,.5-1.73c.07-.32.14-.64.19-1s.09-.63.13-.95c.06-.58.09-1.17.1-1.76S83.79,141.63,83.78,141ZM80.71,123.5l.21,1.27c-.16.22-.31.43-.47.63l-.09-2.19.15-.18a.16.16,0,0,0,0-.09.1.1,0,0,0,0-.09.12.12,0,0,0-.09,0l-.06,0,0-.76-.06-1.57C80.4,121.51,80.55,122.51,80.71,123.5Zm-2.41-3.88a.77.77,0,0,1,0-.15l.19-.23.11-.12.3-.32.4-.42.18-.19c.15-.14.29-.29.43-.43,0,.11,0,.22,0,.33a.38.38,0,0,1,0,.1.19.19,0,0,0,0,.08l0,.91a.11.11,0,0,0-.08,0,.1.1,0,0,0-.09,0l-1.28,1.54C78.43,120.36,78.37,120,78.3,119.62Zm1.44-3.19v0l.12,1-.37.37-.26.26-.71.75-.14.14c0,.07-.11.13-.16.19h0l-.17-.89-.21-1v0c.08-.1.17-.2.25-.31s.27-.34.4-.52l.74-.93.21-.28.14-.18ZM79,120.5l.94-1.13L80,121h0l-1.2,1.48c-.08-.47-.17-.93-.25-1.4C78.71,120.87,78.87,120.69,79,120.5Zm-1.87-13.29,0,0L77,105.89l.32-.4.86-1.06c0,.1,0,.2,0,.3l0,.59,0,.55C77.86,106.32,77.5,106.76,77.15,107.21Zm-.41-3.72-.09-1.17-.06-.74c.07-.09.13-.19.19-.28L77,101c.18-.29.36-.59.55-.88l.28-.45c0,.65.1,1.31.14,2,0,.18,0,.36,0,.54L77,103.47l-.27.38ZM75.05,98v-.2c.2-.26.4-.53.59-.8l.51,0-.38.52-.13.18-.3.4-.3.39C75.05,98.26,75.05,98.1,75.05,98Zm.36,3.22-.34.48c0-.09,0-.19,0-.28v-.3a.14.14,0,0,0,0-.13l0,0v0l0-.06c.07-.09.14-.17.2-.26l.21-.28.21-.3.44-.6,0,.33,0,.36-.09.12-.73,1Zm0-1.75c.21-.28.42-.55.62-.83l.06-.08c0,.07,0,.13,0,.19s0,.19,0,.29l0,0-.62.84-.3.42-.12.16V100l0,0a1.71,1.71,0,0,1,.13-.23,3.28,3.28,0,0,1,.2-.31Zm1-.2s0-.1,0-.16l1.25-1.68.06.72-.72,1-.48.64,0,.07C76.43,99.58,76.41,99.4,76.4,99.22Zm1.46-2.15L78,96.9a.14.14,0,0,0,0-.09.09.09,0,0,0,0-.06h.06c0,.19.06.37.09.56s0,.11,0,.17l-.23.32ZM77.6,97l-1.25,1.69c0-.16,0-.32,0-.48l.73-1s0,0,0-.09a.11.11,0,0,0,0-.09.11.11,0,0,0-.08,0h0a.15.15,0,0,0-.09,0l-.57.77c0-.14,0-.29,0-.43a.11.11,0,0,0,0-.09c.1-.14.2-.27.29-.41.38,0,.75-.06,1.13-.1a.06.06,0,0,0,0,0S77.6,97,77.6,97Zm-2,1.17c.14-.19.29-.38.43-.58v0l.06.57-.27.35c-.11.15-.22.29-.32.44s-.13.16-.18.24l-.19.26,0,.08v-.67Zm-.47,3.9.2-.28h0l.33-.46h0c.14-.18.27-.37.41-.56s.16-.22.24-.33l.09,1v0l-.92,1.38-.27.41,0,.06C75.1,102.93,75.08,102.5,75.08,102.07Zm1.47-1c0-.3,0-.6-.08-.91l.21-.27.48-.64c.19-.24.37-.5.56-.74l.06.75-.42.67-.58.93c-.06.1-.13.2-.19.31l0,0S76.55,101.09,76.55,101Zm1.71,1.3s0-.07,0-.11l.23-.31c0,.27,0,.54,0,.82s0,.51,0,.77l-.23.27Zm0-3.35c0,.63.1,1.25.14,1.87,0,.22,0,.44,0,.66l-.23.32c0-.23,0-.46,0-.69,0-.62-.09-1.24-.14-1.85l.12-.19.12-.19ZM78,102.55c0,.51.06,1,.1,1.51l-.37.44-.51.63c-.1.14-.21.27-.32.4l-.12-1.3Zm.38,1.93,0-.33.23-.28c0,.2,0,.41,0,.61s0,.55,0,.83h0l-.22.27C78.43,105.22,78.42,104.85,78.4,104.48Zm.32,1.19,0,.61c0,.26,0,.52,0,.78-.08.11-.17.21-.25.31,0-.47,0-.94-.08-1.41A3.47,3.47,0,0,1,78.72,105.67Zm-.48-7.19-.15.26-.09.13c0-.23,0-.47,0-.7l.24-.32C78.21,98.06,78.22,98.27,78.24,98.48ZM77.93,70.9l.75-.68.45-.39L80,69l.52-.46.25-.21V70a.05.05,0,0,0,0,0h0a.12.12,0,0,0-.08,0L79,71.57l-1,1-.11.09c0-.47.06-1,.08-1.43A2.53,2.53,0,0,1,77.93,70.9Zm.06-16c0-.56,0-1.11,0-1.67V53l1.12-.91,1-.81.19-.16.35-.31,0,1,0,1-1.09.93h0c-.53.42-1,.86-1.58,1.29Zm-.08-4.84c0-.57,0-1.14,0-1.71,0-.1,0-.21,0-.31l.25-.2.55-.44.24-.19,0,0,.94-.79.45-.38c0,.09,0,.17,0,.25.07.93.14,1.86.2,2.79,0,.46,0,.91.07,1.37l-.65.58-2,1.62c0-.32,0-.63,0-1s0-.79,0-1.19l.2-.15.64-.49,1.38-1a.16.16,0,0,0,.05-.08.12.12,0,0,0-.13-.15l-.06,0-1.57,1.2-.51.39Zm0-3.25c0-.52,0-1,0-1.56l2.26-1.77v0a.86.86,0,0,1,0,.16c0,.71.08,1.42.13,2.13l-1.52,1.27-.87.7C77.88,47.46,77.87,47.15,77.87,46.85Zm.12,9V55.4l1.15-.94c.24-.2.49-.39.73-.6l.79-.67c0,.46,0,.91,0,1.36v.5h0l-.06,0-1.76,1.4-.91.71c0-.2,0-.39,0-.59S78,56.09,78,55.85Zm.17-25.17-.24.25-.36.35-.64.65-.15.14-.06,0-.42-1.45.14-.14,1.4-1.44C77.94,29.62,78,30.15,78.16,30.68Zm-.58-2.84c.06.32.13.63.19.95l-1.5,1.55,0,.05L76,29.46l1.39-1.37ZM69.26,71.5l-.06-1.4c0-1,0-1.92-.09-2.87-.09-1.81-.22-3.62-.3-5.43,0-.89-.07-1.78-.1-2.67s0-1.73-.06-2.6-.06-1.89-.07-2.84,0-1.85,0-2.78,0-1.8.07-2.7,0-1.81-.09-2.71-.1-1.8-.15-2.71-.1-1.81-.14-2.72c-.07-1.8-.12-3.59-.21-5.39-.05-.93-.11-1.86-.15-2.8s0-1.76,0-2.63c0-1.81,0-3.62.06-5.42,0-.94.06-1.88.07-2.82,0-.43,0-.86,0-1.29s0-.86,0-1.29c0-1.35,0-2.69.08-4,0-.65,0-1.31.08-2s.09-1.17.16-1.76c.06-.38.12-.77.2-1.15a6.54,6.54,0,0,1,.31-1.13c0-.08.08-.17.13-.25a2.46,2.46,0,0,1,.17-.27l.11-.12a6.14,6.14,0,0,1,.74.18,2.53,2.53,0,0,1,.36.2,5.13,5.13,0,0,1,.51.53h0l-.06,0h0a.13.13,0,0,0-.07.06c-.64,1-1.27,1.89-1.92,2.82a.12.12,0,0,0,0,.1.11.11,0,0,0,.06.07.12.12,0,0,0,.1,0,.13.13,0,0,0,.07-.06c.65-.93,1.29-1.88,1.92-2.82a.11.11,0,0,0,0-.11l.16.19A14.56,14.56,0,0,1,72,10.23a.11.11,0,0,0-.08,0,.1.1,0,0,0-.09,0c-.34.38-.67.77-1,1.16l-1,1.09a.13.13,0,0,0,0,.18.14.14,0,0,0,.18,0c.33-.36.65-.73,1-1.09l1-1.16a.14.14,0,0,0,0-.17l.15.25A17.47,17.47,0,0,1,73,12.15l.56,1.41-.24.3c-.19.23-.37.47-.56.71l-.27.33-.49.59-1.76,2.16a.13.13,0,0,0,0,.18.14.14,0,0,0,.18,0l1.77-2.15.73-.9.56-.71a2.11,2.11,0,0,1,.19-.23c.09.24.19.47.28.71.16.42.33.84.48,1.27s.29.84.43,1.26c.29.85.59,1.69.85,2.54q.21.64.39,1.29l.3,1.17-.77.79c-.17.18-.34.36-.52.53l-1.2,1.16-.75.71-.51.51L71.42,27c-.25.24-.49.5-.72.75a.13.13,0,0,0,0,.18.14.14,0,0,0,.18,0c.45-.48.92-.94,1.38-1.41l.57-.56c.17-.17.33-.34.51-.5l1.19-1.15.76-.73L75.8,23l.66-.68c.22.89.4,1.78.58,2.68s.33,1.67.48,2.5l-.61.62-.83.82-.21.2,0-.12a.13.13,0,0,0-.12-.09h0a.12.12,0,0,0-.08.15c0,.09.05.17.07.25l-.17.17-.42.4-2.55,2.46-.41.4a.13.13,0,0,0,0,.18.11.11,0,0,0,.17,0c.85-.85,1.72-1.67,2.58-2.5l.87-.83c.08.31.17.62.26.93l-.72.72-.27.26-.11.1-.22.2-.58.51-.31.28-.27.24-.26.26c-.14.14-.27.29-.4.43a.12.12,0,1,0,.18.17l.37-.39.26-.26.27-.25.34-.31.53-.46.37-.34a2.73,2.73,0,0,0,.25-.23l.65-.65c.14.48.27,1,.41,1.45l-.15.14-.65.59-.62.58-.49.47c-.21.19-.41.38-.6.58s-.25.24-.37.37l-.26.27-.29.31a.14.14,0,0,0,0,.18.13.13,0,0,0,.18,0,2.85,2.85,0,0,1,.23-.26l.18-.19.25-.26.59-.57L75,34l.79-.73.77-.71,0,.12a.12.12,0,0,0,.16.08.12.12,0,0,0,.08-.15,2.17,2.17,0,0,0-.07-.24l.26-.24.43-.43c.23-.22.45-.45.68-.68l.07-.07c.12.54.23,1.07.35,1.61a.15.15,0,0,0-.09,0l-2.67,2.7-.17.19-.43.45-.48.52c-.38.42-.77.83-1.14,1.26-.07.07-.13.15-.19.22a.13.13,0,0,0,0,.18.14.14,0,0,0,.18,0l1.23-1.37.49-.54.69-.72.14-.14.41-.41.54-.55L78.46,33l.17-.17c0,.13.05.26.08.39.18.82.35,1.63.51,2.45.09.45.17.9.25,1.34s.13.82.19,1.23c.22,1.68.36,3.37.46,5.06l-.08,0a.07.07,0,0,0-.06,0L77.85,45V42.92l.5-.44,1.45-1.24a.14.14,0,0,0,0-.1.2.2,0,0,0,0-.08.12.12,0,0,0-.09,0h0a.12.12,0,0,0-.08,0l-2,1.72h0l-1.71,1.48-2.25,2-.74.65a.13.13,0,0,0,0,.18s.06,0,.09,0a.11.11,0,0,0,.09,0c1.47-1.32,3-2.61,4.47-3.9,0,.68,0,1.35,0,2q-1.85,1.44-3.68,2.89c-.53.41-1.05.83-1.57,1.25a.16.16,0,0,0-.06.08.18.18,0,0,0,0,.1l.08,0a.09.09,0,0,0,.09,0l1.33-1.07,1.23-1,2.56-2v.9c0,.52,0,1,0,1.58l-.71.57c-.34.26-.68.53-1,.81l-.47.39-.31.26-.39.35a.14.14,0,0,0,0,.18.17.17,0,0,0,.1,0,.12.12,0,0,0,.08,0l.43-.37.31-.27,0,0,.73-.6.92-.73.35-.28c0,.45,0,.9,0,1.35,0,.27,0,.55,0,.83a1.84,1.84,0,0,0-.22.17l-1.14.91-.49.41-.32.27-.41.37a.14.14,0,0,0,.1.22.2.2,0,0,0,.09-.05l.44-.39.3-.26h0l.75-.62.89-.71v.47c0,.3,0,.6,0,.89s0,.52,0,.78l-.36.3-.66.57c-.17.14-.34.3-.5.45l-.2.18-.15.14-.24.24a.12.12,0,0,0,0,.17.14.14,0,0,0,.18,0l.28-.28.27-.25a1.79,1.79,0,0,1,.14-.13l.3-.27.82-.7.12-.1c0,.69,0,1.37,0,2.05l-.26.22-.35.29-.36.32-.15.13-1.16,1.07a.13.13,0,0,0,0,.18.14.14,0,0,0,.18,0c.34-.33.69-.65,1-1s.58-.51.87-.76l0,0,.21-.17c0,.19,0,.37,0,.55,0,.41,0,.81,0,1.21l-.1.08-.62.49-.54.43-1.35,1.08-.46.37s0,0,0,.08a.12.12,0,0,0,0,.1l.08,0a.12.12,0,0,0,.1,0l1.37-1.11.61-.49.84-.66.1-.08,0,.77a.14.14,0,0,0,.13.12.13.13,0,0,0,.09,0,.11.11,0,0,0,0-.09c0-.32,0-.64,0-1l1-.74,1.3-1,.52-.4c0,1.55,0,3.09.05,4.64,0,1.84,0,3.69,0,5.53V68l-.56.48-.84.74-1.07.94-.39.35c0-.29,0-.59,0-.88s0-.86,0-1.29L79.76,67a.13.13,0,0,0,.06-.07.16.16,0,0,0,0-.1.13.13,0,0,0-.11-.06l-.06,0L78,68.06v0c0-.42,0-.83,0-1.25l2.39-1.94a.35.35,0,0,0,0-.08.12.12,0,0,0,0-.1s0,0-.07,0h0l-.06,0L78,66.45v-.13c0-.51,0-1,0-1.55V64.5l1.65-1.26a.12.12,0,0,0,0-.18.13.13,0,0,0-.11-.05.07.07,0,0,0-.06,0L78.4,64l-.29.22c0-.23,0-.46,0-.69,0-.47,0-.94.07-1.41a.12.12,0,0,0-.08-.1l.4-.34.07-.06h0l.06,0,0,0s0,0,0,0h0l.09-.07v0l.06-.05h0l0,0,0,0h0l0,0,0,0h0l1.12-.94a.13.13,0,0,0,.06-.07.16.16,0,0,0,0-.1.1.1,0,0,0-.08-.05h0l-.07,0L78.94,61h0l0,0h0v0h0l0,0h0l-.06,0h0l0,0,0,0,0,0-.07,0,0,0a0,0,0,0,0,0,0h0l0,0,0,0,0,0,0,0-.25.22c-.16.12-.31.25-.46.38l-.08.06h0l-.07.06,0,0h0l0,0,0,0-.08.07h0l0,0h0l-.07.06,0,0,0,0a0,0,0,0,0,0,0l0,0h0l-.56.47-.56.48L74.65,64.6a.13.13,0,0,0,0,.18.11.11,0,0,0,.09,0l.09,0c.8-.71,1.62-1.4,2.44-2.1h0l0,0h0l0,0h0l.07-.06,0,0,0,0h0l0,0,0,0,.07-.06,0,0h0l0,0,0,0,0,0,0,0,.13-.12c0,.55-.06,1.1-.07,1.64,0,.21,0,.41,0,.62l-.23.18-.85.67-.38.32-.26.23-.31.29a.13.13,0,0,0,0,.18.15.15,0,0,0,.18,0l.34-.32.26-.23,0,0,.58-.48.68-.53c0,.27,0,.55,0,.82l0,.79c0,.12,0,.24,0,.35L76,68.15a.16.16,0,0,0,0,.08.14.14,0,0,0,0,.09.16.16,0,0,0,.08.06.12.12,0,0,0,.1,0L77.77,67v0c0,.41,0,.82,0,1.23l-1.87,1.43a.08.08,0,0,0,0,.07.16.16,0,0,0,0,.1.14.14,0,0,0,.18,0l1.72-1.32v.09c0,.44,0,.87,0,1.31,0,.27,0,.54,0,.8l-.81.72-1.11,1-1.16,1a.14.14,0,0,0,0,.09.11.11,0,0,0,0,.09.14.14,0,0,0,.09,0,.15.15,0,0,0,.09,0c.83-.72,1.65-1.47,2.47-2.21l.41-.36a1.09,1.09,0,0,0,0,.18l0,.63c0,.24,0,.49,0,.74a1,1,0,0,0,0,.17l-2.23,2a.13.13,0,0,0,0,.18s.06,0,.09,0a.11.11,0,0,0,.09,0l2-1.77-.06.83h0v0h0v.08a0,0,0,0,0,0,0v.14h0v.12h0v0c0,.11,0,.23,0,.34a.1.1,0,0,0,0,.09.16.16,0,0,0,.08.06.13.13,0,0,0,.15-.09c0-.13,0-.25,0-.37h0v-.08h0a.06.06,0,0,0,0,0v0a.31.31,0,0,0,0-.09.28.28,0,0,0,0-.09v0h0l0-.39.06-.74.29-.26,1-.93,1.65-1.5V71c0,.49,0,1,0,1.45l-2.18,1.82c-.84.69-1.67,1.38-2.49,2.09l-1,.85a.14.14,0,0,0,0,.09.13.13,0,0,0,0,.09s.06,0,.09,0a.11.11,0,0,0,.09,0l1.39-1.2c.41-.36.83-.71,1.25-1.06l0,0,2.85-2.36c0,.75,0,1.5,0,2.25h0l-1.74,1.44c-.38.31-.76.62-1.13.94-.81.68-1.63,1.37-2.42,2.08a.13.13,0,0,0,0,.18.12.12,0,0,0,.09,0,.18.18,0,0,0,.09,0c.43-.39.88-.78,1.33-1.16s.72-.61,1.08-.92v0c.38-.32.75-.64,1.14-1l1.58-1.31c0,.38,0,.76,0,1.14,0,.82,0,1.65,0,2.47h0c-.35.41-.71.81-1.08,1.19l-.57.53-.29.26-.29.26L77.7,82l0,0-.85.7-1.09.87a.12.12,0,0,0-.06.08.13.13,0,0,0,0,.09.16.16,0,0,0,.08.06.12.12,0,0,0,.1,0L77,82.84l.85-.7.41-.34.52-.44.44-.4c.22-.19.44-.39.64-.59s.41-.42.6-.63l.38-.43c0,.82,0,1.63,0,2.46v.65c-1.65,1.34-3.29,2.67-4.92,4,0,0,0,0,0,.07a.11.11,0,0,0,0,.1.1.1,0,0,0,.08,0,.09.09,0,0,0,.09,0q2.39-2,4.79-3.91v1.47a19.25,19.25,0,0,1-.08,2.4,6.43,6.43,0,0,1-.31,1.24,3.26,3.26,0,0,1-.24.4,2.76,2.76,0,0,1-1.09.84l-.71.33a1.62,1.62,0,0,0-.64.52,2.08,2.08,0,0,0-.34.72,5.2,5.2,0,0,0-.12.87c0,.21,0,.43,0,.64s0,.5,0,.75c0,.09,0,.19,0,.29-.32,0-.64,0-1-.06l-.79,0c-.26,0-.52-.05-.79-.06-.53,0-1.06-.06-1.59-.07h-.73l-.74,0-.9,0-.48,0h-.18q0-.39,0-.78c0-.4,0-.8,0-1.2,0-.79-.08-1.59-.11-2.38s-.08-1.69-.11-2.54,0-1.78-.07-2.68c0-1.78-.06-3.56-.13-5.33,0-.88-.1-1.75-.14-2.62s-.09-1.86-.14-2.79C69.29,72.35,69.28,71.92,69.26,71.5Zm9.83-10.34Zm-2,1.32Zm-9.2,33a1.7,1.7,0,0,1-.35-.19l0,0a.47.47,0,0,1,.06-.09,2.58,2.58,0,0,1,.34-.32,10.74,10.74,0,0,1,.92-.56c.24-.13.47-.28.71-.43a.36.36,0,0,0,.33.08l.15,0c.48,0,1,0,1.44-.08l.73,0q.4,0,.81,0c.51,0,1,0,1.54.06s1.07.08,1.6.1.87,0,1.3.1a3.1,3.1,0,0,1,.53.1,5.52,5.52,0,0,1,.53.18c.3.15.59.33.9.48a7,7,0,0,1,.9.48l.14.14,0,0h0v0l0,0-.16.09a6,6,0,0,1-1.19.26h0l-.92.12.75-1.1a.1.1,0,0,0,0-.09.12.12,0,0,0-.06-.08h-.1s0,0-.07.06L77.81,96c-.34,0-.68.08-1,.11l0,0a1.18,1.18,0,0,1,.11-.19v0h0l.42-.55.64-.8a.16.16,0,0,0,0-.09.13.13,0,0,0,0-.09.15.15,0,0,0-.09,0,.12.12,0,0,0-.09,0l-.66.84-.24.3-.13.17-.11.16a1.3,1.3,0,0,0-.14.26s0,0,0,0h-.05c-.26,0-.53,0-.79,0v0a4.67,4.67,0,0,1,.27-.49c.09-.13.17-.26.25-.39l.6-1a.13.13,0,0,0,0-.17h-.06a.11.11,0,0,0-.11.06l-.63,1-.24.38c0,.08-.1.16-.14.24a1.55,1.55,0,0,0-.12.22.57.57,0,0,0,0,.14h-.76a.1.1,0,0,0,0,0c.34-.53.71-1,1.07-1.56a.1.1,0,0,0,0-.09.12.12,0,0,0-.06-.08h-.1a.17.17,0,0,0-.08.06c-.35.52-.72,1-1.06,1.56a.1.1,0,0,0,0,.15l-1.17-.07-.79,0h0c.12-.17.24-.33.37-.49l.54-.75a.14.14,0,0,0,0-.09.18.18,0,0,0,0-.09.11.11,0,0,0-.08,0h0a.11.11,0,0,0-.09,0l-.51.71-.51.68c-.16,0-.31,0-.46,0l-.28,0,.17-.31.18-.36L72,95l.21-.47a.11.11,0,0,0,0-.1.13.13,0,0,0-.06-.07h-.06a.11.11,0,0,0-.11.06l-.19.43c0,.11-.09.21-.15.32s-.25.5-.39.75l-.75-.07h-.06l.45-.71c.16-.26.31-.52.47-.77a.13.13,0,0,0,0-.18h-.06a.15.15,0,0,0-.11.07c-.15.25-.3.5-.46.75s-.34.52-.5.79c0,0,0,0,0,0l-.83-.07c.37-.43.74-.87,1.12-1.3a.14.14,0,0,0,0-.18.16.16,0,0,0-.09,0,.11.11,0,0,0-.09,0L69,95.75a3.58,3.58,0,0,1-.45-.09C68.34,95.59,68.13,95.52,67.92,95.43Zm4.23,2.32c0-.12,0-.24-.05-.36a2,2,0,0,0,0-.24c.08-.12.15-.24.22-.36l.64,0L72.17,98ZM71,96.7l-.1.14v-.15Zm12,46.89c0,.48-.07.95-.13,1.42,0,.27-.08.53-.14.8s-.11.58-.18.86a12.84,12.84,0,0,1-.52,1.59,10,10,0,0,1-1.31,2.12A20.87,20.87,0,0,1,79.27,152c-.25.26-.49.52-.74.76s-.52.49-.79.71a4.53,4.53,0,0,1-.81.5,4.73,4.73,0,0,1-.82.22l-.39,0-.46,0h-.05c.27-1.06.55-2.11.82-3.17a.12.12,0,0,0-.09-.15h0a.14.14,0,0,0-.13.09L75,154.17l-.67-.13q-.32-.07-.63-.18c.31-1.29.6-2.6.88-3.9a.12.12,0,0,0-.09-.15h0a.13.13,0,0,0-.12.09c-.28,1.3-.57,2.59-.88,3.88l-.23-.08c-.25-.11-.49-.22-.73-.35a7.43,7.43,0,0,1-.75-.49,8.75,8.75,0,0,1-.78-.72,9.19,9.19,0,0,1-.64-.76c-.17-.24-.34-.47-.5-.72a9.21,9.21,0,0,1-.45-.81c-.27-.51-.51-1-.74-1.58s-.33-.85-.47-1.29a9.27,9.27,0,0,1-.29-1.39s0-.07,0-.11h0c0-.31-.06-.62-.08-.94s0-.55,0-.83c0-.61,0-1.21,0-1.81s0-1.19.07-1.78.1-1.23.15-1.84l.15-1.79.18-1.94c.06-.64.09-1.27.14-1.9s.06-1.2.1-1.8c.1-1.24.2-2.48.28-3.73s.16-2.43.25-3.64.2-2.5.31-3.76.17-2.49.25-3.73c0-.6.08-1.21.09-1.81v-5.65c0-1.27,0-2.54,0-3.81s.09-2.5.14-3.75c0-.73.07-1.47.09-2.21s0-1.44,0-2.16h0c.24,0,.47,0,.71.06h0l0,.52-.54.83a.15.15,0,0,0,.06.18.14.14,0,0,0,.17-.06l.34-.53c.09,1.49.19,3,.28,4.46a.12.12,0,0,0,.13.12.12.12,0,0,0,.12-.13c-.09-1.6-.2-3.2-.3-4.8l.36-.54h.16l.52,0-.07.12h0a.12.12,0,0,0-.09,0,.14.14,0,0,0,0,.09.19.19,0,0,1,0,.08,1.74,1.74,0,0,1-.11.18c-.15.25-.31.5-.46.76a.13.13,0,0,0,.23.12c.13-.23.26-.45.4-.67l0,.22c0,.19,0,.39.07.58a.57.57,0,0,0-.08.13.12.12,0,0,0,.05.17H72c0,.09,0,.17,0,.26,0,.29.06.58.08.88s.07.75.1,1.13.07.88.1,1.32a.13.13,0,0,0,.25,0c0-.44-.06-.87-.1-1.31l-.09-1.11c0-.27,0-.55-.08-.83s0-.28,0-.42l0-.15,1-1.5.49,0-.18.26v0a.14.14,0,0,0-.13-.12h0a.13.13,0,0,0-.12.13l0,.36-.36.49-.18.26-.09.13a1.13,1.13,0,0,0-.1.13s0,0,0,.06l0,.1a.13.13,0,0,0,0,.13.15.15,0,0,0,.13,0l.06,0a.13.13,0,0,0,.07-.06.16.16,0,0,0,0-.1h0l.54-.74c0,.21,0,.42,0,.63a1.13,1.13,0,0,1-.1.13h0l0,0,0,0h0l0,0-.05.07s0,0,0,0,0,0,0,0l0,0-.21.32a.12.12,0,0,0,0,.17.12.12,0,0,0,.17,0l.21-.32s0,0,0,0h0l0,0,0-.07.06.83c0,1,.11,2,.16,3a.12.12,0,0,0,.13.12.12.12,0,0,0,.12-.13c0-1-.1-2-.16-3,0-.39-.06-.79-.08-1.18.12-.18.25-.35.37-.52l.58-.83a.12.12,0,0,0,0-.1.11.11,0,0,0-.06-.07l-.06,0h0a.13.13,0,0,0-.07.06l-.52.75,0,0-.26.36c0-.21,0-.42,0-.64L74,97a.13.13,0,0,0,0-.06l.67,0h.69c-.09.14-.19.27-.29.4a.13.13,0,0,0-.1-.06h0a.14.14,0,0,0-.12.14v.24l0,.07-.35.48-.24.32-.17.25a1.09,1.09,0,0,0-.08.15,1.11,1.11,0,0,0-.07.16.12.12,0,0,0,0,.1.1.1,0,0,0,.08,0,.09.09,0,0,0,.09,0,.12.12,0,0,0,.06-.08s0,0,0,0a.49.49,0,0,1,.06-.13l.13-.2c.16-.23.33-.46.5-.68,0,.22,0,.43,0,.65s-.26.34-.38.52a.11.11,0,0,0,0,.09.36.36,0,0,0,0,.09.16.16,0,0,0,.09,0,.11.11,0,0,0,.09,0c.07-.09.13-.18.2-.26v0c0,.54,0,1.07,0,1.6a.75.75,0,0,0,0,.16.13.13,0,0,0,.06.13c0,.87,0,1.75,0,2.62l-.28.39h0v0l-1.09,1.47a.18.18,0,0,0,0,.09.13.13,0,0,0,.05.09.11.11,0,0,0,.17,0l.59-.78.29-.39.24-.32.06-.09a.61.61,0,0,1,0,.14c0,.19,0,.38,0,.57A.15.15,0,0,0,75,105a.14.14,0,0,0,.12-.14l0-1.06.21-.3.3-.43.75-1.14c0,.47.07,1,.11,1.42,0,.19,0,.37,0,.56a2.11,2.11,0,0,1,0,.26l-.51.71-1,1.41-.36.53a.12.12,0,0,0,0,.17.12.12,0,0,0,.1,0,.13.13,0,0,0,.07-.06l.84-1.22.66-.93h0l.17-.22,0,.35c0,.3.06.61.09.91l-.19.25-.3.37-1.06,1.38c-.44.59-.89,1.18-1.31,1.79a.1.1,0,0,0,0,.09.12.12,0,0,0,.06.08.17.17,0,0,0,.1,0,.16.16,0,0,0,.07-.07,1.88,1.88,0,0,0,.16-.23h0l1-1.32.42-.55c.23-.29.46-.59.68-.89l.45-.56c.05.46.09.91.15,1.37l-.45.56-.28.35c-.33.42-.67.84-1,1.26l-.51.66-.31.41-.15.22-.13.18c0,.06-.07.13-.11.2a.14.14,0,0,0,.06.17.13.13,0,0,0,.17-.06l.07-.12a.92.92,0,0,1,.13-.21l.49-.66.54-.71.41-.52.54-.68c.1-.13.2-.26.31-.38l.39-.49a.11.11,0,0,0,.07-.1l.22-.27c.3-.36.59-.73.88-1.09,0,.47.05.94.07,1.41l0,0c-.23.29-.47.58-.7.88l-.61.76-.28.35-1.07,1.39-.64.84-.47.63-.45.64a.14.14,0,0,0,.05.18.17.17,0,0,0,.1,0,.16.16,0,0,0,.07-.07c0-.06.09-.13.14-.2l0,0,.25-.35.22-.3c.15-.2.3-.41.46-.61s.34-.46.52-.68l.51-.66c.3-.4.6-.79.91-1.18l1.17-1.45a.13.13,0,0,0,.12-.13v0l0,0,.24-.28c0,.23,0,.47,0,.71l0,.48-1,1.16c-.18.23-.37.45-.55.67l-1.3,1.6c-.1.11-.19.23-.28.35l-.73.94c-.34.42-.67.86-1,1.29l-.45.6c-.18.24-.35.48-.52.73a.1.1,0,0,0,0,.09.12.12,0,0,0,.06.08.16.16,0,0,0,.1,0s0,0,.07-.06l.13-.2.46-.62.46-.6,1-1.33.7-.9.24-.29,1.38-1.69.42-.52c.27-.32.53-.64.8-1,0,.36,0,.73.08,1.09,0,.59.09,1.18.14,1.76l-1.82,2.65c-.4.6-.82,1.19-1.24,1.78h0c-.63.88-1.27,1.76-1.91,2.63a.14.14,0,0,0,0,.09.18.18,0,0,0,0,.09.16.16,0,0,0,.09,0,.11.11,0,0,0,.09,0l1.09-1.49.52-.73.36-.5.63-.89c.11-.17.23-.33.35-.5l1.15-1.68.71-1c.08.78.2,1.54.31,2.31v.09l-.26.36-.23.28c-.24.32-.49.63-.73.94l-.41.52-.12.16c-.07-.31-.13-.62-.2-.92a.12.12,0,0,0-.12-.09h0a.14.14,0,0,0-.07.06.12.12,0,0,0,0,.1c.08.37.16.74.23,1.1l-.15.2c-.35.43-.7.86-1,1.3l-.57.74-.07.09-.16.22c0,.07-.1.15-.16.22l-.09.12c-.06.1-.13.2-.19.31s-.2.3-.29.45a.13.13,0,0,0,0,.17.13.13,0,0,0,.17,0l.29-.46.19-.29.44-.61.19-.24.39-.5,1-1.3,0,0c0,.26.1.52.16.78s.15.78.22,1.17l-.62.72-.33.39-.72.87-.91,1.13-.57.73a.13.13,0,0,0,0,.18.14.14,0,0,0,.18,0c.4-.52.81-1,1.22-1.54l.43-.53.63-.76.09-.11.33-.38.32-.38c.08.43.16.85.23,1.27l-1,1.23c-.75.89-1.5,1.77-2.24,2.66-.15.17-.29.35-.44.53l-.26.31-.27.35-.17.28a.13.13,0,0,0,0,.18.13.13,0,0,0,.17-.06l.15-.24c.15-.22.32-.42.49-.63l.26-.3.7-.84,1-1.22,1.61-1.93c.08.46.17.92.25,1.38v0l-1,1.28-.34.43-.67.84-.48.62L76,126c-.08.11-.17.2-.24.31l0,.07a.91.91,0,0,0-.07.14.58.58,0,0,0-.06.17,0,0,0,0,0,0,0,.17.17,0,0,0,0,.1l0,.09.06.11a.13.13,0,0,0,.17,0,.16.16,0,0,0,.06-.08.16.16,0,0,0,0-.1l0-.08v-.06s0,0,0-.06l0-.1a.57.57,0,0,1,.08-.13h0v0h0l.31-.39c.1-.13.2-.27.31-.4l.39-.5.51-.65.13-.15.33-.41.74-.9h0a.1.1,0,0,0,0,.09.15.15,0,0,0,.09,0,.2.2,0,0,0,.09,0,.09.09,0,0,0,0-.09c0-.08,0-.16,0-.24L80,121.34l.07,1.79-1,1.32c-.19.24-.38.47-.58.7s-.33.4-.5.59l-1.2,1.37-1,1.14-.91,1.1a.14.14,0,0,0,0,.18.13.13,0,0,0,.18,0c.2-.26.41-.51.62-.76l.51-.62.57-.66.65-.75c.36-.4.71-.81,1.06-1.22l.24-.27L79,125c.17-.21.34-.41.5-.62l.67-.84.08,1.89c0,.1,0,.2,0,.31l-.3.4-1.4,1.81-.24.32-.42.51-1.42,1.73c-.47.59-1,1.16-1.43,1.74l-1.64,2a.13.13,0,1,0,.19.17l2.3-2.76c.28-.35.57-.69.85-1l1.44-1.77c.13-.16.27-.32.39-.49.3-.37.59-.75.88-1.13l.82-1.07.09,2.42-.68.85-1,1.26-1.24,1.53-.4.49-.48.6-.92,1.18s0,.06,0,.09a.12.12,0,0,0,0,.09.13.13,0,0,0,.18,0c.35-.46.71-.91,1.07-1.36s.68-.85,1-1.27.68-.83,1-1.25l1.32-1.65a1.56,1.56,0,0,0,.16-.2.13.13,0,0,0,.11.06.13.13,0,0,0,.12-.13v-.19c.24-.31.48-.61.73-.91a.14.14,0,0,0,0-.18.16.16,0,0,0-.09,0,.1.1,0,0,0-.09,0l-.56.69-.09-2.43c.06-.09.13-.17.2-.26l.18-.25.12-.17.06.34c.1.59.18,1.18.29,1.77.22,1.25.41,2.5.61,3.76l.27,1.83v.11l0,0c-.08.13-.17.25-.26.38l0,0-.43.57-.74,1c-.08.12-.17.23-.26.35a1.71,1.71,0,0,1-.11.14l-.46.55-1.1,1.33-.66.8-.24.29-.17.22c-.14.17-.27.34-.4.52s-.18.24-.27.36l-.72,1a.16.16,0,0,0,0,.09.13.13,0,0,0,0,.09.18.18,0,0,0,.09,0,.16.16,0,0,0,.09-.05l.56-.76c.16-.22.31-.43.48-.65l.34-.44.18-.22.64-.77c.32-.4.65-.8,1-1.19s.47-.57.7-.85l.24-.3c.31-.4.61-.8.92-1.19l.38-.5c.11-.13.2-.27.29-.4.07.46.14.92.2,1.38s.1.65.14,1l-.21.29-.19.25-.7.89c-.21.27-.43.54-.63.81l-.22.26-2.31,2.75c-.21.24-.42.48-.62.73l-.77.94-.61.75-.78,1a.12.12,0,0,0,0,.09.09.09,0,0,0,0,.08.13.13,0,0,0,.18,0c.37-.48.76-.95,1.14-1.42s.69-.85,1-1.28l.5-.59.67-.79,1-1.17.81-1c.14-.16.26-.32.39-.49l.93-1.18.33-.42a.91.91,0,0,0,.11-.16c0,.12,0,.23,0,.35q.1.84.18,1.68h0c-.27.33-.53.67-.81,1l-.63.75-1.29,1.54a3.88,3.88,0,0,1-.26.31l-.76.86-1,1.13c-.62.7-1.25,1.39-1.87,2.08a.13.13,0,0,0,0,.18.12.12,0,0,0,.17,0c.41-.44.81-.89,1.21-1.33l1-1.15,1.42-1.62.25-.29.52-.62c.38-.45.76-.9,1.13-1.36l.34-.39.58-.72c0,.53.07,1.07.09,1.6l0,1.85C83.05,142.41,83,143,83,143.59Z" transform="translate(-28.33 -5.82)"/></svg>