<svg id="Layer_1" data-name="Layer 1" xmlns="http://www.w3.org/2000/svg" viewBox="0 0 93.02 80.04"><defs><style>.cls-1{fill:#f1ebdf;}</style></defs><title>hat</title><path class="cls-1" d="M22.26,66.57h0Z" transform="translate(-10.77 -46.61)"/><polygon class="cls-1" points="10.66 24.81 10.66 24.81 10.67 24.81 10.66 24.81"/><path class="cls-1" d="M24.55,71.43h0Z" transform="translate(-10.77 -46.61)"/><path class="cls-1" d="M22.92,76.74h0Z" transform="translate(-10.77 -46.61)"/><polygon class="cls-1" points="13.77 30.06 13.77 30.06 13.78 30.05 13.77 30.06"/><polygon class="cls-1" points="13.52 31.24 13.52 31.24 13.52 31.24 13.52 31.24"/><polygon class="cls-1" points="13.52 31.24 13.52 31.24 13.52 31.24 13.52 31.24"/><path class="cls-1" d="M27.45,80a.1.1,0,0,0,.06-.12.1.1,0,0,0-.09-.06h0l-1.05.42c-.3.11-.58.23-.87.36a.1.1,0,0,0,0,0,.06.06,0,0,0,0,.07.09.09,0,0,0,0,.06.11.11,0,0,0,.08,0l.86-.36Z" transform="translate(-10.77 -46.61)"/><path class="cls-1" d="M26.06,81.32l.79-.32.32-.12.52-.19a.1.1,0,0,0,0-.12.09.09,0,0,0-.08-.07h0l-.49.18-.34.13-.8.32a.11.11,0,0,0-.06.12A.1.1,0,0,0,26.06,81.32Z" transform="translate(-10.77 -46.61)"/><path class="cls-1" d="M26.64,81.88l.33-.14.19-.07.64-.22a.11.11,0,0,0,.06-.12.11.11,0,0,0-.09-.07h0l-.63.22-.2.07-.33.14a.1.1,0,0,0,0,0,.08.08,0,0,0,0,.08A.1.1,0,0,0,26.64,81.88Z" transform="translate(-10.77 -46.61)"/><path class="cls-1" d="M27.31,82.48l1.06-.25a.08.08,0,0,0,.06-.11.07.07,0,0,0,0-.06h-.07c-.36.07-.71.15-1.06.24a.09.09,0,0,0-.06.12A.09.09,0,0,0,27.31,82.48Z" transform="translate(-10.77 -46.61)"/><path class="cls-1" d="M27.54,82.85c.29-.13.58-.23.86-.34a.08.08,0,0,0,.06-.11.08.08,0,0,0-.08-.07h0c-.29.1-.58.21-.86.33l-.06,0a.11.11,0,0,0,0,.08.07.07,0,0,0,0,0A.09.09,0,0,0,27.54,82.85Z" transform="translate(-10.77 -46.61)"/><path class="cls-1" d="M27.7,83.44l1-.32a.1.1,0,0,0,.06-.12.1.1,0,0,0-.09-.07h0c-.34.1-.68.21-1,.33a.09.09,0,0,0,.05.17Z" transform="translate(-10.77 -46.61)"/><path class="cls-1" d="M55.42,70.72h0Z" transform="translate(-10.77 -46.61)"/><path class="cls-1" d="M50.47,86.24h0l-1.29.44-.55.2-.64.25c-.05,0-.08.06-.06.11a.08.08,0,0,0,.11.06l.61-.23.23-.09.36-.12,1.29-.44a.09.09,0,0,0,0-.18Z" transform="translate(-10.77 -46.61)"/><polygon class="cls-1" points="37.2 41.45 37.2 41.45 37.2 41.45 37.2 41.45"/><path class="cls-1" d="M50,87.94h-.08l-.9.44-.11,0-.22.12-.14.08-.25.16a.09.09,0,0,0,0,.12.09.09,0,0,0,.13,0,1.64,1.64,0,0,0,.22-.14l.12-.06,0,0,.2-.1.14-.08.9-.43s0,0,0-.06a.1.1,0,0,0,0-.07A.1.1,0,0,0,50,87.94Z" transform="translate(-10.77 -46.61)"/><path class="cls-1" d="M72.46,75.21h0a.11.11,0,0,0-.07,0l-.53.74-.23.31-.14.19-.21.26a.1.1,0,0,0,.14.13l.19-.24.15-.2L72,76.1c.18-.24.35-.49.53-.74a.14.14,0,0,0,0-.06.09.09,0,0,0,0-.07A.08.08,0,0,0,72.46,75.21Z" transform="translate(-10.77 -46.61)"/><path class="cls-1" d="M76.84,73.67a.09.09,0,0,0-.06,0,.09.09,0,0,0-.07,0l-.3.32-.32.35-.15.16-.26.3-.46.52c-.06.08-.13.15-.2.23l-.14.18-.16.21a.06.06,0,0,0,0,.07.11.11,0,0,0,.09.09.11.11,0,0,0,.07,0,1.66,1.66,0,0,1,.16-.21l.14-.18a2.2,2.2,0,0,1,.2-.23l.45-.52.27-.31.14-.15.33-.36.3-.31A.09.09,0,0,0,76.84,73.67Z" transform="translate(-10.77 -46.61)"/><path class="cls-1" d="M76.88,75.12A.76.76,0,0,1,77,75l.1-.11.12-.13.29-.3.31-.3.45-.42a.09.09,0,0,0,0-.13.09.09,0,0,0-.07,0h0a.06.06,0,0,0-.06,0l-.44.41-.3.3-.3.3-.11.12-.11.12a1,1,0,0,0-.13.16s0,0,0,.06a.09.09,0,0,0,0,.07A.09.09,0,0,0,76.88,75.12Z" transform="translate(-10.77 -46.61)"/><path class="cls-1" d="M78.31,74.28a2,2,0,0,0,.19-.22l.33-.38.77-.9a.09.09,0,0,0,0-.13l-.06,0a.09.09,0,0,0-.07,0c-.27.31-.55.62-.82.94l-.34.4-.21.25a1.49,1.49,0,0,0-.15.2l0,0,0,.06s0,.06,0,.09a.1.1,0,0,0,.1.09.07.07,0,0,0,.06,0,.09.09,0,0,0,0-.06v0l0-.06h0l.12-.16Z" transform="translate(-10.77 -46.61)"/><path class="cls-1" d="M79.73,89.89a.09.09,0,0,0-.06,0,.09.09,0,0,0-.07,0L78.43,91c-.36.36-.73.72-1.08,1.1a.09.09,0,0,0,0,.13.11.11,0,0,0,.14,0c.34-.36.7-.72,1.05-1.07L79.73,90A.09.09,0,0,0,79.73,89.89Z" transform="translate(-10.77 -46.61)"/><path class="cls-1" d="M85.53,91.72a.09.09,0,0,0,0-.06.09.09,0,0,0,0-.07l-.06,0h0a.07.07,0,0,0-.06,0l-.36.5-.24.33c-.2.26-.39.53-.59.8a.09.09,0,0,0,0,.06.09.09,0,0,0,0,.07.09.09,0,0,0,.13,0l.6-.8.24-.33C85.3,92.06,85.42,91.89,85.53,91.72Z" transform="translate(-10.77 -46.61)"/><path class="cls-1" d="M86.36,91.87a.09.09,0,0,0-.13,0l-.47.47h0l.06-.08.39-.47c0-.07.11-.13.16-.19l0,0,.14-.15.3-.33.33-.34a.09.09,0,0,0,0-.13.09.09,0,0,0-.06,0,.09.09,0,0,0-.07,0L86.7,91l-.32.35-.11.12,0,0-.22.27-.25.3-.15.19-.26.33-.18.22a.75.75,0,0,0-.07.12.3.3,0,0,0,0,.13.1.1,0,0,0,.05.08.11.11,0,0,0,.11,0l.37-.34.28-.28.48-.48A.09.09,0,0,0,86.36,91.87Z" transform="translate(-10.77 -46.61)"/><path class="cls-1" d="M87.46,91.31c.07-.08.13-.16.2-.23.24-.27.48-.55.73-.82a.09.09,0,0,0,0-.13l-.06,0a.09.09,0,0,0-.07,0l-.72.8c-.06.06-.11.13-.16.19l-.36.43-.47.57-.6.74a.09.09,0,0,0,0,.13.09.09,0,0,0,.13,0l.61-.74.45-.55Z" transform="translate(-10.77 -46.61)"/><path class="cls-1" d="M90.24,89.28h0a.09.09,0,0,0-.07,0l-.3.28-.26.25-.29.28-.1.1,0,0-.88,1-.08.1-.24.29-.39.47-.87,1.07a.1.1,0,0,0,.14.13c.28-.36.58-.72.87-1.07l.36-.44.25-.31.1-.11.88-1,.1-.1.29-.28.27-.26.32-.29a.1.1,0,0,0,0-.14Z" transform="translate(-10.77 -46.61)"/><path class="cls-1" d="M88.19,81.41l1.48-1.16L91.27,79s0,0,0-.06a.06.06,0,0,0,0-.07s0,0-.08,0h0L89.6,80.07l-1.51,1.18a.21.21,0,0,0,0,.06.15.15,0,0,0,0,.07s0,0,.06,0A.09.09,0,0,0,88.19,81.41Z" transform="translate(-10.77 -46.61)"/><path class="cls-1" d="M94.49,88.22l2-2.65a.09.09,0,0,0,0-.07.07.07,0,0,0,0-.06.09.09,0,0,0-.07,0,.07.07,0,0,0-.06,0l-2,2.69L93,89.88l-.37.48-.33.41c-.29.37-.58.74-.88,1.1a.12.12,0,0,0,0,.14.11.11,0,0,0,.14,0l.88-1.11.34-.44.36-.45Z" transform="translate(-10.77 -46.61)"/><path class="cls-1" d="M96.22,87.12l.48-.67.18-.26L97,86.1l.38-.49.21-.28c.09-.11.18-.23.28-.34a.09.09,0,0,0,0-.13.09.09,0,0,0-.07,0,.07.07,0,0,0-.06,0l-.27.34-.24.31-.25.33a1.71,1.71,0,0,0-.11.14L96,87.15l-.6.84c-.23.32-.46.64-.7,1s-.29.39-.44.59L93.9,90l-.14.16-.22.27c-.14.16-.29.33-.44.48a.11.11,0,0,0,0,.14.09.09,0,0,0,.13,0l.46-.51.2-.24.06-.07L94.1,90l.21-.27a.76.76,0,0,0,.11-.14l.48-.64.22-.29.51-.71Z" transform="translate(-10.77 -46.61)"/><path class="cls-1" d="M100.26,83.15h-.07l0,0-.18.24-1.31,1.84-1.6,2.19c-.57.8-1.16,1.59-1.74,2.38a.09.09,0,0,0,0,.06l0,.07.07,0a.07.07,0,0,0,.06,0q1.53-2.05,3-4.14l.75-1,1.08-1.52a.17.17,0,0,0,0-.07A.12.12,0,0,0,100.26,83.15Z" transform="translate(-10.77 -46.61)"/><polygon class="cls-1" points="86.98 41.16 86.97 41.16 86.97 41.16 86.98 41.16"/><path class="cls-1" d="M99.92,84.83a.09.09,0,0,0-.06,0l-.43.57-.22.29c-.21.31-.43.61-.65.91h0v0l0,0,0,0h0l0,0h0v0l0,0,0,0a.21.21,0,0,0,0,.06l-.11.15h0l0,0h0l0,.06,0,0v0h0l-.07.09,0,0-.16.22h0v0s0,0,0,0l0,0v0h0v0l0,0v0h0v0l0,0v0h0l-.38.55-.31.46c-.26.4-.53.79-.78,1.19a.09.09,0,0,0,0,.13.08.08,0,0,0,.07,0,.07.07,0,0,0,0,0l.76-1.16.3-.44.4-.58h0v0h0l0,0v0h0l0,0h0l0,0h0v0l0,0,0-.06.12-.16h0l.07-.09,0-.06,0,0h0a0,0,0,0,1,0,0l0-.06,0,0h0l.17-.23,0,0,0,0h0l0,0h0v0h0s0,0,0,0l0,0h0l0,0,0,0h0v0l0,0h0v0c.21-.3.44-.61.66-.91s.41-.56.63-.84a.14.14,0,0,0,0-.07.07.07,0,0,0,0-.06A.09.09,0,0,0,99.92,84.83Zm-2.16,2.93Z" transform="translate(-10.77 -46.61)"/><polygon class="cls-1" points="87.13 41.26 87.14 41.26 87.13 41.26 87.13 41.26"/><path class="cls-1" d="M97.74,87.78h0v0Z" transform="translate(-10.77 -46.61)"/><polygon class="cls-1" points="86.97 41.17 86.97 41.16 86.97 41.16 86.97 41.17"/><path class="cls-1" d="M99.48,77a.11.11,0,0,0,.07,0c.11-.16.23-.32.35-.47l.29-.39.34-.43.31-.39c.43-.53.88-1.06,1.32-1.59a.09.09,0,0,0,0-.13.07.07,0,0,0-.06,0,.09.09,0,0,0-.07,0l-1.3,1.57c-.1.14-.21.27-.32.41l-.34.43c-.1.12-.19.25-.29.38l-.36.49a.09.09,0,0,0,0,.06l0,.07Z" transform="translate(-10.77 -46.61)"/><path class="cls-1" d="M100.74,76.66c.08-.1.17-.19.26-.29l.54-.61,1.22-1.36a.11.11,0,0,0,0-.14l-.06,0a.09.09,0,0,0-.07,0l-1.22,1.37-.52.58c-.2.22-.41.45-.59.69a.09.09,0,0,0,0,.06.09.09,0,0,0,0,.07.09.09,0,0,0,.13,0c.06-.06.11-.13.16-.19Z" transform="translate(-10.77 -46.61)"/><path class="cls-1" d="M101.79,76.59l.35-.39.19-.21.72-.84a.1.1,0,0,0,0-.13.09.09,0,0,0-.07,0,.11.11,0,0,0-.07,0l-.7.83-.16.18c-.13.14-.25.28-.38.41l-.47.52-.3.33a.69.69,0,0,0-.11.13l-.08.08a1.83,1.83,0,0,1-.13.16.14.14,0,0,0,0,.07.07.07,0,0,0,0,.06.09.09,0,0,0,.13,0l.12-.15.06-.07.13-.15c.1-.11.2-.21.29-.32Z" transform="translate(-10.77 -46.61)"/><path class="cls-1" d="M103,75.86a.09.09,0,0,0-.07,0c-.27.34-.55.69-.83,1s-.55.67-.83,1a.09.09,0,0,0,0,.13.09.09,0,0,0,.13,0l.81-1,.85-1a.11.11,0,0,0,0-.14Z" transform="translate(-10.77 -46.61)"/><path class="cls-1" d="M103,77.31a.11.11,0,0,0-.07,0l-1,1.06a.09.09,0,0,0,0,.13.09.09,0,0,0,.13,0l1-1.06a.09.09,0,0,0,0-.13S103,77.31,103,77.31Z" transform="translate(-10.77 -46.61)"/><path class="cls-1" d="M29.44,83.36a.09.09,0,0,0-.07,0l-1.29,1.25a.09.09,0,0,0,.13.13l1.29-1.26a.09.09,0,0,0,0-.13Z" transform="translate(-10.77 -46.61)"/><path class="cls-1" d="M29.17,85.81,29,86l-.1.1-.37.41a.09.09,0,0,0,0,.13.09.09,0,0,0,.13,0l.36-.39a3.57,3.57,0,0,1,.27-.28l.23-.22.16-.15c0,.2.08.39.13.58l.27,1c.19.66.36,1.33.56,2a.28.28,0,0,0,.35.18.27.27,0,0,0,.18-.35c-.19-.64-.37-1.29-.55-1.94l-.27-1c-.09-.32-.16-.66-.23-1a.26.26,0,0,0-.13-.16.31.31,0,0,0-.13,0h0l.35-.32a.09.09,0,0,0,0-.13l-.06,0h0a.09.09,0,0,0-.06,0l-.67.6-.31.27a3.44,3.44,0,0,0-.27.27.83.83,0,0,0-.08.12.25.25,0,0,1,0,.07l0,.11a.08.08,0,0,0,0,.07.07.07,0,0,0,.06,0,.06.06,0,0,0,.07,0,.1.1,0,0,0,0,0l0-.11.05-.07c.06-.08.13-.15.2-.23l.3-.27.17-.14a.28.28,0,0,0,0,.13c0,.06,0,.12,0,.18l-.22.21Z" transform="translate(-10.77 -46.61)"/><path class="cls-1" d="M38.65,65.76h0Z" transform="translate(-10.77 -46.61)"/><polygon class="cls-1" points="28.06 18.68 28.06 18.68 28.06 18.68 28.06 18.68"/><path class="cls-1" d="M20,52.77,21.4,51c.2-.24.39-.48.58-.73l.91-1.16a.06.06,0,0,0,0-.07.11.11,0,0,0-.09-.09.09.09,0,0,0-.07,0c-.48.63-1,1.25-1.46,1.86l-1.43,1.78a.09.09,0,0,0,.14.12Z" transform="translate(-10.77 -46.61)"/><polygon class="cls-1" points="2.58 17.41 2.58 17.41 2.58 17.4 2.58 17.41"/><polygon class="cls-1" points="0.92 19.75 0.92 19.75 0.92 19.75 0.92 19.75"/><polygon class="cls-1" points="0.92 19.75 0.92 19.75 0.92 19.75 0.92 19.75"/><polygon class="cls-1" points="4.25 15.05 4.25 15.05 4.25 15.05 4.25 15.05"/><polygon class="cls-1" points="0.92 19.75 0.92 19.75 0.92 19.75 0.92 19.75"/><path class="cls-1" d="M15.06,61.61h0v0Z" transform="translate(-10.77 -46.61)"/><path class="cls-1" d="M15,61.66h0Z" transform="translate(-10.77 -46.61)"/><polygon class="cls-1" points="0.92 19.75 0.92 19.75 0.92 19.75 0.92 19.75"/><polygon class="cls-1" points="2.58 17.41 2.57 17.41 2.57 17.42 2.58 17.41"/><polygon class="cls-1" points="2.57 17.42 2.57 17.42 2.57 17.42 2.57 17.42"/><path class="cls-1" d="M13.65,63.6h0v0Z" transform="translate(-10.77 -46.61)"/><polygon class="cls-1" points="1.68 18.99 1.68 19 1.68 18.99 1.68 18.99"/><path class="cls-1" d="M13.15,66l.76-1,.71-1,.19-.26.07-.1.41-.62c.06-.09.13-.18.19-.28l.27-.42a.1.1,0,0,0,0-.13h0a.11.11,0,0,0-.09.05l-.27.43a4,4,0,0,0-.23.34l-.39.57,0,0-.77,1c-.23.32-.46.63-.7.94s-.42.58-.63.87-.52.72-.76,1.09a.08.08,0,0,0,0,.12.06.06,0,0,0,.07,0,.1.1,0,0,0,0,0l.39-.57v0Z" transform="translate(-10.77 -46.61)"/><path class="cls-1" d="M13.48,67.42h0l.1-.14h0l.33-.46,0,0,.1-.14h0l.32-.45.37-.51.89-1.32a.09.09,0,0,0,0-.12h-.07a.1.1,0,0,0-.06,0c-.29.43-.58.87-.88,1.3l-.31.44-.37.52h0l-.09.13h0l-.32.45v0l-.09.13h0l-.35.51c-.15.2-.29.41-.44.62a.09.09,0,0,0,0,.07.07.07,0,0,0,0,.06.09.09,0,0,0,.07,0s0,0,.06,0Zm0,0Z" transform="translate(-10.77 -46.61)"/><polygon class="cls-1" points="3.06 20 3.06 20 3.06 20 3.06 20"/><path class="cls-1" d="M16.7,64.57h0a.11.11,0,0,0-.09,0l-.46.77-.45.74-.21.33-.38.59-.62.94c-.24.35-.47.7-.7,1s-.35.52-.51.79a3.17,3.17,0,0,0-.23.36l-.15.25a3.21,3.21,0,0,0-.19.31.1.1,0,0,0,0,.12.1.1,0,0,0,.13,0c.12-.21.24-.43.37-.63s.21-.34.32-.5l.66-1,.65-1c.26-.4.53-.8.79-1.21a2.26,2.26,0,0,0,.13-.2c.11-.18.21-.36.32-.53l.66-1.08A.11.11,0,0,0,16.7,64.57Z" transform="translate(-10.77 -46.61)"/><path class="cls-1" d="M18.84,73.34h-.05a.1.1,0,0,0-.08,0c-.14.24-.29.48-.44.71l-.42.67-.45.72-.17.26-1.44,2.18c-.32.49-.65,1-1,1.5a.09.09,0,0,0,0,.12.09.09,0,0,0,.13,0c.45-.72.92-1.42,1.39-2.13.27-.41.53-.82.8-1.22l.17-.25.06-.09c.08-.14.17-.28.26-.42l.64-1c.07-.1.13-.21.2-.32s.24-.4.36-.59A.09.09,0,0,0,18.84,73.34Z" transform="translate(-10.77 -46.61)"/><path class="cls-1" d="M19,77.88l1-1.59a.1.1,0,0,0,0-.12l-.05,0a.1.1,0,0,0-.08,0c-1.07,1.66-2.14,3.32-3.19,5L16,82.29a.09.09,0,0,0,0,.13.11.11,0,0,0,.13,0c.46-.77.94-1.52,1.42-2.28S18.56,78.62,19,77.88Z" transform="translate(-10.77 -46.61)"/><path class="cls-1" d="M19.11,80.12l.57-.91c.49-.76,1-1.53,1.46-2.3a.11.11,0,0,0,0-.13h0a.11.11,0,0,0-.09,0l-1.58,2.5c-.26.43-.53.85-.8,1.28l-.19.29-.44.73c-.35.57-.7,1.13-1,1.71a.09.09,0,1,0,.16.08l.24-.39.2-.35.32-.52.67-1.09Z" transform="translate(-10.77 -46.61)"/><path class="cls-1" d="M21.46,78.07s-.07,0-.08,0L21,78.8l-.27.46-.38.62c-.1.16-.19.32-.29.47l-.63,1c-.22.35-.45.7-.66,1l-.29.46a.1.1,0,0,0,0,.12.09.09,0,0,0,.13,0c.22-.36.44-.72.67-1.08L20,80.71l.22-.36.43-.69.23-.37.41-.69.23-.4a.08.08,0,0,0,0-.12Z" transform="translate(-10.77 -46.61)"/><path class="cls-1" d="M22,82.48l.73-1,.75-1.1a.19.19,0,0,0,0-.08.12.12,0,0,0-.05-.05h-.07a.07.07,0,0,0,0,0c-.25.36-.49.72-.74,1.07l-.72,1.05c-.09.13-.19.25-.27.38l-.43.62-.32.49-.14.22c-.08.14-.17.28-.26.42a.11.11,0,0,0,0,.13.11.11,0,0,0,.13,0l.24-.4c.05-.08.09-.15.15-.23l.32-.49Z" transform="translate(-10.77 -46.61)"/><path class="cls-1" d="M23.94,81.56a.1.1,0,0,0,0-.13h0a.09.09,0,0,0-.08,0l-1.29,2.06-1.38,2.22a.09.09,0,0,0,0,.12.08.08,0,0,0,.12,0l1.38-2.21C23.08,82.94,23.52,82.25,23.94,81.56Z" transform="translate(-10.77 -46.61)"/><path class="cls-1" d="M23.86,83.64c.23-.41.47-.82.7-1.24a.08.08,0,0,0,0-.12h-.05a.1.1,0,0,0-.08,0l-.71,1.24c-.16.28-.34.56-.51.85s-.31.5-.47.75l-.61,1a.09.09,0,0,0,0,.13.11.11,0,0,0,.13,0l.62-1c.15-.25.31-.5.47-.75Z" transform="translate(-10.77 -46.61)"/><path class="cls-1" d="M25.11,83.35a.09.09,0,0,0,0-.12h0a.09.09,0,0,0-.08,0l-1,1.75-1,1.67a.1.1,0,0,0,0,.12.1.1,0,0,0,.13,0c.31-.56.63-1.1.95-1.65S24.77,84,25.11,83.35Z" transform="translate(-10.77 -46.61)"/><path class="cls-1" d="M25.48,85.48c.06-.09.11-.19.17-.29a.57.57,0,0,0,.08-.13l.63-1.12a.11.11,0,0,0,0-.13h0a.11.11,0,0,0-.09,0L25.57,85l-.06.09c-.06.1-.11.21-.18.31s-.17.3-.26.45l-.27.43-.22.36-.66,1.09a.09.09,0,1,0,.16.09c.38-.63.76-1.26,1.15-1.88C25.32,85.77,25.4,85.62,25.48,85.48Z" transform="translate(-10.77 -46.61)"/><path class="cls-1" d="M26.49,85.58h-.07s0,0-.06.05l-.76,1.17-.32.48-.4.6a.06.06,0,0,0,0,.07.13.13,0,0,0,.05.06A.08.08,0,0,0,25,88,.1.1,0,0,0,25,88c.24-.36.49-.72.72-1.08l.77-1.18A.1.1,0,0,0,26.49,85.58Z" transform="translate(-10.77 -46.61)"/><path class="cls-1" d="M34.73,105.05h-1l-1,0-2.14-.08h0a.08.08,0,0,0-.08.1.09.09,0,0,0,.09.09l2.14.08,1,0h1a.09.09,0,0,0,.09-.09A.1.1,0,0,0,34.73,105.05Z" transform="translate(-10.77 -46.61)"/><path class="cls-1" d="M33.88,106.26H32c-.41,0-.82,0-1.23,0h-.11c-.05,0-.09,0-.09.09a.16.16,0,0,0,0,.07l.06,0c.44,0,.88,0,1.32,0h2.33l1.6-.06h.14a.09.09,0,1,0,0-.18h0l-1.71.06Z" transform="translate(-10.77 -46.61)"/><path class="cls-1" d="M38.42,114.61l-2.9,0-1.12,0-1,0-1.57-.05c0-.1.05-.2.08-.31l.18-.65.74.08H33l.43,0h.16l.44,0,1.13,0H36.4l.57,0,.84,0a.1.1,0,0,0,.09-.1.09.09,0,0,0,0-.06s0,0-.07,0l-.86,0h-.6l-.62,0h-.6l-1.13,0-.59,0-.41,0h-.22l-.6-.06h-.06c.12-.47.25-.94.38-1.4l.5,0,1.63-.07h.17a1,1,0,0,1,.17,0h2.59l.59,0a.1.1,0,0,0,0-.19H34.66l-.75,0-1.25,0h-.12c.15-.54.29-1.08.44-1.62h3.41l.42,0,.84,0a.1.1,0,0,0,0-.19h0l-.77,0H33c.08-.28.15-.56.23-.84a.09.09,0,0,0-.07-.11h0a.1.1,0,0,0-.09.07l-.24.88H31.1c.07-.27.15-.54.21-.82l.06-.22h.5l1.3,0,2.52.09,2.17.08A.1.1,0,0,0,38,109s0-.08-.09-.09l-2.56-.09-2.4-.09-1.13,0-.35,0,.27-1.09h3.16l.65,0H36l.94,0a.09.09,0,0,0,.09-.1.09.09,0,0,0-.09-.08h0l-.88,0-.51,0H31.69s0,0,0,0h0a.07.07,0,0,0-.06,0h-.52a.09.09,0,0,0-.08.1.07.07,0,0,0,0,.06.09.09,0,0,0,.06,0h.44l-.27,1.09-.43,0h0l-.14,0h-.08s0,0,0,.06a.1.1,0,0,0,0,.07.07.07,0,0,0,.05,0l.2,0h.36l-.06.24-.21.81H29.82a.1.1,0,0,0-.09.1.11.11,0,0,0,.1.09h1l0,.09c-.09.33-.17.66-.26,1l-.17.64-1,0a.1.1,0,1,0,0,.19l.92,0-.19.74-.45,1.61h-.35a.1.1,0,0,0-.09.1.09.09,0,0,0,0,.06.08.08,0,0,0,.07,0l.29,0c0,.06,0,.13-.05.19-.23.81-.45,1.62-.69,2.42a.1.1,0,0,0,.07.11.11.11,0,0,0,.12-.07c.25-.88.5-1.76.74-2.64l.84,0,.87,0c-.11.39-.21.78-.32,1.17l-.31,0-.69,0h0a.09.09,0,0,0-.08.09.09.09,0,0,0,0,.07.07.07,0,0,0,.06,0l1,.06c-.1.38-.2.77-.31,1.16l-1.56-.09h0a.07.07,0,0,0-.06,0,.09.09,0,0,0,0,.06.15.15,0,0,0,0,.07.08.08,0,0,0,.07,0c.5,0,1,.06,1.51.09-.12.42-.23.85-.33,1.27l-.17,0h0a.09.09,0,0,0-.09.08.1.1,0,0,0,.07.11l.16,0c0,.1-.05.2-.08.3a.09.09,0,0,0,.18,0c0-.1.06-.21.08-.31l.8.12,1.38.21.49.07.84.1c.39.06.78.1,1.17.14l1.57.17a.06.06,0,0,0,.07,0,.09.09,0,0,0,0-.06.17.17,0,0,0,0-.07s0,0-.06,0l-1.41-.15-.54-.06-.57-.07L33,119l-.3,0-.82-.12-.63-.1-.57-.09c.11-.43.22-.86.34-1.29l.72,0,1.44.08.4,0,.88,0c.79,0,1.58.07,2.37.12a.1.1,0,0,0,.09-.1.09.09,0,0,0,0-.06s0,0-.07,0l-2.8-.14-1.06,0-1.37-.08-.53,0c.11-.39.21-.77.31-1.16l1.4.09,1.13.07,1.55.09,1,0a.1.1,0,0,0,.09-.1.07.07,0,0,0,0-.06.09.09,0,0,0-.07,0l-1.86-.1-1.1-.06-2.09-.13c.11-.39.21-.78.32-1.17h.11l1.47,0,1,0,2,0,2.1,0a.1.1,0,0,0,.09-.1A.11.11,0,0,0,38.42,114.61Zm-7.63-3.47c.09-.34.17-.68.26-1h1.74c-.15.54-.3,1.08-.44,1.63l-1.75.08Zm-.89,3.25c.17-.61.34-1.22.5-1.83l.15-.54,1.39-.07.35,0c-.12.46-.25.92-.37,1.38l-.49,0h-.07a.09.09,0,0,0,0,.06.17.17,0,0,0,0,.07.08.08,0,0,0,.06,0l.48,0c-.09.32-.18.64-.26,1H31.4Z" transform="translate(-10.77 -46.61)"/><path class="cls-1" d="M81.44,96.06l.15-.44a.09.09,0,0,0,0-.07.08.08,0,0,0-.06,0h-.07a.09.09,0,0,0,0,.06l-.15.43-.06.2-.86.21a.42.42,0,0,0,0-.1.09.09,0,0,0,0-.07l0-.06h-.07a.07.07,0,0,0,0,0l-.09.24-.49.12-.64.16s0,0,0,0h0s0,0,.06,0c.32-.5.65-1,1-1.49a.06.06,0,0,0,0-.07s0,0,0-.06h-.07s0,0-.05,0c-.33.5-.67,1-1,1.49a.09.09,0,0,0,0,.11.08.08,0,0,0-.08.07l0,0-1.07.26h0a.09.09,0,0,0-.06-.11h0a.08.08,0,0,0-.08.07l0,.09-1,.26v0l0-.07c.1-.15.2-.28.31-.42l.46-.59a.09.09,0,0,0,0-.07.11.11,0,0,0,0-.06.09.09,0,0,0-.07,0,.07.07,0,0,0-.06,0l-.48.62-.18.22-.09.13a1,1,0,0,0-.08.11.8.8,0,0,0-.08.16.07.07,0,0,0,0,0l-.26.06,0-.16A.1.1,0,0,0,76,97.2h0a.1.1,0,0,0-.09.07l-.06.25-.55.13a.09.09,0,0,0,.06.18l.44-.11c-.12.47-.24.94-.35,1.41s-.25,1-.37,1.54h0l-1.16-.13v0c.05-.2.1-.4.16-.6l.1-.37h0l.21,0a.11.11,0,0,0,.07,0,.1.1,0,0,0,0,0,.08.08,0,0,0,0-.07.07.07,0,0,0,0,0l-.21,0,.09-.33c.12-.42.23-.84.35-1.26,0-.11.06-.23.1-.34.08-.3.16-.59.25-.88a.09.09,0,0,0-.07-.11h0a.1.1,0,0,0-.09.07c-.09.32-.19.64-.28,1s-.11.41-.17.62c-.12.42-.23.84-.35,1.26l-1.39-.12c0-.17.08-.34.13-.51a.1.1,0,0,0,0-.1l1,.09a.11.11,0,0,0,.06,0,.11.11,0,0,0,0-.07.09.09,0,0,0,0-.07l-.07,0-3.19-.26h0l-1.75-.17.21-.23.18-.18.7.23a.09.09,0,0,0,0-.18l-.33-.11.89.07-.19.2a.09.09,0,1,0,.13.12l.3-.3.75,0-.12.14a.14.14,0,0,0,0,.06.09.09,0,0,0,0,.07.09.09,0,0,0,.13,0l.2-.24.37,0,1,.08a.15.15,0,0,0,.07,0,.1.1,0,0,0,0-.07A.11.11,0,0,0,73,97.7l-1.17-.09.28-.34c.19-.21.37-.43.55-.64s.27-.3.41-.44l.15-.17,1.48-.17-.1.09-.43.43-.12.12-.2.19a1.71,1.71,0,0,0-.11.14l0,.06,0,.06a.14.14,0,0,0,0,.09.44.44,0,0,0,.08.11.09.09,0,0,0,.13,0,.11.11,0,0,0,0-.06.09.09,0,0,0,0-.07h0l0,0h0v0h0l.06-.08.14-.13.12-.12.14-.14s0,0,0,0,0,0,.07,0l1.11-.23a.1.1,0,0,1,0,0,.6.6,0,0,0-.06.19.09.09,0,0,0,.07.11.1.1,0,0,0,.11-.07.29.29,0,0,1,0-.09.41.41,0,0,1,0-.09l.13-.14v0l2.31-.47c-.11.13-.23.26-.34.4s-.19.2-.28.31l-.15.18-.11.12a.16.16,0,0,0,0,.07v0a.19.19,0,0,0,0,.08.09.09,0,0,0,.07.11h.09a.1.1,0,0,0,.09-.1.1.1,0,0,0,0-.07l.15-.16.14-.17.27-.31c.16-.18.32-.37.49-.55l.93-.19a.07.07,0,0,0,0,0,.17.17,0,0,0,0-.07.1.1,0,0,0,0-.06h-.07l-.71.15s0,0,0-.06a.09.09,0,0,0-.07,0,.07.07,0,0,0-.06,0l-.1.11-2.3.47.14-.16.18-.18.54-.08.16,0,.45-.07,1.16-.21.17,0a.12.12,0,0,0,0,0,.17.17,0,0,0,0-.07l0,0h-.07l-1.08.2-.52.08-.34.06-.28,0,.18-.19a.09.09,0,0,0,0-.13l-.07,0a.11.11,0,0,0-.07,0l-.33.35h-.07l-.36.06-.64.07c.18-.17.36-.35.54-.51a.09.09,0,0,0,0-.13l-.06,0h0a.07.07,0,0,0-.06,0l-.71.68-1.5.17.24-.25.45-.46a.09.09,0,0,0,0-.13.07.07,0,0,0-.06,0A.11.11,0,0,0,74,95l-.42.44-.42.44h0a.09.09,0,0,0-.06.06c-.18.19-.35.39-.53.59s-.37.42-.55.63l-.38.46-.72-.06.7-.71.3-.3.21-.19c.25-.25.51-.5.78-.74a.09.09,0,0,0,0-.13.09.09,0,0,0-.06,0,.09.09,0,0,0-.07,0l-.78.74-.2.19-.3.3-.32.33,0,0-1-.21.65-.62a.09.09,0,0,0,0-.13l-.06,0h0a.09.09,0,0,0-.06,0l-.74.69-.55-.11-.77-.16-.3,0,.25-.27h.28a0,0,0,0,0,0,0,.09.09,0,0,0,0,.08h0l0,0H69a.08.08,0,0,0,.08,0l.17,0,.15,0,.23,0,.22,0,.2,0A.1.1,0,0,0,70.1,96a.1.1,0,0,0-.09-.09h0c-.43,0-.85,0-1.28.06L69,95.7a.09.09,0,0,0,0-.13s0,0-.06,0a.11.11,0,0,0-.07,0l-.41.42,0,0-.34.36H68l-.22,0-.32,0h0a.09.09,0,0,0-.1.07.1.1,0,0,0,.07.11l.31,0,.18,0-.37.38-.7-.25.07-.07.75-.84a.09.09,0,0,0,0-.13l-.06,0a.09.09,0,0,0-.07,0l-.73.81-.15.16-1.5-.56h0l-.05,0a.07.07,0,0,0,0,0,.08.08,0,0,0,0,.08.1.1,0,0,0,0,0l1.42.51a3.33,3.33,0,0,0-.25.28l-.66.7-.81-.09-.09,0-.2,0h0l.41-.41.62-.61a.09.09,0,0,0,0-.13.09.09,0,0,0-.07,0l-.07,0-1,1-.08.08-.17,0-.26-.06-.08,0-1-.32h0l-.62-.24-.36-.14c-.14,0-.27-.12-.41-.18h0a.08.08,0,0,0-.08,0,.1.1,0,0,0,0,.13l.39.17.35.13.65.26.14,0,.39.14.39.12.16.06.36.09-.63.64a.09.09,0,0,0,0,.13.1.1,0,0,0,.14,0c.23-.24.46-.48.7-.71h0a0,0,0,0,0,0,0,.07.07,0,0,0,.05,0l.32,0,.21,0,.42.1a2.62,2.62,0,0,0-.22.25.09.09,0,0,0,0,.13.09.09,0,0,0,.13,0c.1-.11.2-.21.29-.32l.58.14.17,0-.24.26a.09.09,0,1,0,.14.12l.31-.34h0a.11.11,0,0,0,.12-.07.14.14,0,0,0,0-.07l0-.06h.15L68,98.2l.4,0L68,98.7a.1.1,0,0,0,0,.13.11.11,0,0,0,.14,0l.51-.55,1.88.18h0l.21,0,.52,0,.71.06.65.05s0,0-.06.06l-.12.54-.72-.06-1.2-.1L69.58,99l-2-.15-2.41-.17h0l-.06,0a.11.11,0,0,0,0,.07.09.09,0,0,0,0,.07l.07,0,1.91.13,1.72.13.94.07,1.48.12,1.19.1v0c-.07.27-.13.54-.19.81l0,.1-.17,0-.29,0-.8-.07-1.09-.09-.72-.06L67.7,100l-1.32-.09h0a.07.07,0,0,0-.06,0,.09.09,0,0,0,0,.07l0,.06s0,0,.07,0l1,.06.65,0,1.63.13.87.07,1.42.12h0l.21,0c-.06.24-.11.47-.16.7a1.42,1.42,0,0,0,0,.2h-.07l-1.75-.1-.65,0-.67,0-.85,0h0a.1.1,0,0,0-.09.1.09.09,0,0,0,0,.06.08.08,0,0,0,.07,0l1.52.07,1.06.07,1.36.08c-.11.5-.22,1-.32,1.51l-1.07,0-.63,0h-.49a.1.1,0,0,0-.09.1.11.11,0,0,0,.1.09h.51l.68,0,.71,0h.24c0,.2-.09.4-.13.6s-.09.44-.14.66q-.47,0-.93,0h-.21a.1.1,0,0,0-.09.1.1.1,0,0,0,.1.08l1.09,0c-.06.27-.11.54-.17.82a.1.1,0,0,0,.07.11.09.09,0,0,0,.11-.07l.18-.86h0l.53,0,.69,0c-.06.25-.12.5-.17.75a.09.09,0,0,0,.07.11.09.09,0,0,0,.11-.07l.18-.79.82,0h.41c0,.18-.09.37-.13.55l-.18.79h-.07l-.48,0h-.06l.48-.9a.1.1,0,0,0,0-.12h0a.11.11,0,0,0-.09,0l-.51,1-1.41,0h-.67l-.79,0a.1.1,0,0,0,0,.19l.91,0h1.85l-.28.53-.81,1.5c-.17.33-.35.66-.53,1l-.16.29-.4.74-1,1.91-1,1.89a.11.11,0,0,0,0,.13.11.11,0,0,0,.13,0L70,112c.42-.76.83-1.52,1.24-2.28l.9-1.66.64-1.2c.08-.16.16-.31.25-.46h.14l.22,0,.29,0v.06c-.09.37-.17.75-.27,1.13a.09.09,0,0,0,.07.11.09.09,0,0,0,.11-.07c.1-.4.2-.81.29-1.22l.31,0,1.39.11h0l2,.2h0l-.16.05a.08.08,0,0,0-.06.11.08.08,0,0,0,.11.06l.65-.16.54.06c.4,0,.8.08,1.2.14a.1.1,0,0,0,.07,0,.1.1,0,0,0,0,0c0-.05,0-.11-.07-.11-.41-.06-.82-.1-1.24-.14h0l.1,0,.62-.16.72-.16,1.23-.28,1.21-.28.89-.21a.08.08,0,0,0,.06-.11.09.09,0,0,0-.09-.07s0,0,0,0l-2.88.65-1.17.28-.6.14-.57.15h0l-.61-.06L76,106.4l-.3,0-.13,0-.41,0-1.26-.09c.07-.29.14-.58.2-.87s.08-.31.11-.47l.25,0,.88.06.45,0h0l.89.08c0,.18-.09.36-.13.54a.09.09,0,0,0,.07.11.09.09,0,0,0,.11-.06c0-.19.09-.38.14-.57h0l1.25.13a.09.09,0,0,0,0,.07.08.08,0,0,0,.11.06l1.15-.34.45-.14.38-.12.62-.2.33-.11.6-.23.24-.09.4-.16a.09.09,0,0,0,.06-.12.1.1,0,0,0-.09-.07h0l-.39.16-.22.08-.64.24-.29.1-.65.21-.35.11-.49.15-.87.26-.05,0-.78-.08-.74-.07h0c.08-.33.15-.65.23-1l.95.14-.06.3a.1.1,0,0,0,.07.11.08.08,0,0,0,.07,0s0,0,0-.06,0,0,0,0h0v0h0c0-.08,0-.16.08-.24l.11,0a.1.1,0,0,0,.11-.07.1.1,0,0,0-.07-.12h-.08c.08-.25.17-.5.25-.74a.09.09,0,0,0-.14-.1h0l.06-.27.79-.18c0,.07,0,.13,0,.19a.09.09,0,0,0,.07.11h.07a.21.21,0,0,0,0-.06c0-.09.06-.18.1-.27l.26-.06.12,0,.38-.09h.06a1.33,1.33,0,0,1,0,.19c0,.18-.07.37-.11.55a.09.09,0,0,0,.17.06c.05-.1.1-.21.14-.31l0-.09.15-.4,0-.09.39-.09.15,0h0s0,.11,0,.17c-.07.28-.13.56-.2.85l-.31.08-.38.1-.38.09-.24.06-.3.05-.13,0-.07,0,0,0a.09.09,0,0,0,0,.13l0,0h.2s0,0,.06,0a.11.11,0,0,0,0-.07.05.05,0,0,0,0,0l.06,0,.29,0H80l.37-.09.45-.12.27-.07-.18.78a.09.09,0,0,0,.07.11.09.09,0,0,0,.11-.07l.21-.87.29-.08.89-.25a.1.1,0,0,0,.07-.11.11.11,0,0,0-.09-.07h0l-.84.22-.25.07.24-1,.74-.22.38-.12a.09.09,0,0,0,.06-.12.08.08,0,0,0-.08-.06h0l-.41.13-.36.1-.25.08,0-.09c.08-.32.15-.63.22-1l.28-.06.9-.2a.09.09,0,0,0,.06-.12.07.07,0,0,0,0,0H83l-.89.2-.19,0v0c.09-.41.17-.81.27-1.21,0-.12.06-.25.08-.37l1.18-.26a.09.09,0,0,0,.06-.11.1.1,0,0,0,0-.06H83.4l-1.07.23c.09-.36.17-.71.25-1.07l1-.15s0,0,.07,0a.19.19,0,0,0,0-.07.11.11,0,0,0-.09-.09h0l-.9.15c0-.15.07-.31.11-.46a.09.09,0,0,0-.07-.11h0a.1.1,0,0,0-.09.07c0,.18-.09.35-.13.53l-.7.11c0-.14.07-.28.11-.41q.1-.48.24-1A.1.1,0,0,0,82,96.3h0a.1.1,0,0,0-.1.07c-.07.29-.15.58-.22.88s-.09.38-.14.56l-.67.11,0-.06.15-.52c0-.11.07-.21.1-.32l.21-.65,1.92-.48a.09.09,0,0,0,.06-.11.11.11,0,0,0-.09-.07h0l-1.79.44Zm-6.36-.25.74-.09.29,0,0,0-.24.25-.06.07-1.25.26.36-.36.14-.13ZM71,97.17c-.11.12-.22.24-.34.35h-.24l-1-.07.09-.09,0-.06L69.9,97l0,0Zm-2.5-.51.24,0,.53.11.45.1-.26.25-.21.21-.05,0-.32,0h0l-.51-.17L67.72,97l.4-.41Zm-.93.49.09,0,.49.17-.42,0h-.31l.12-.13Zm-1.21,0,.33-.35.69.25-.21.21-.58,0h0a.1.1,0,0,0-.09.09.09.09,0,0,0,0,.07.08.08,0,0,0,.07,0l.41,0-.21.21-.16.18-.82-.09Zm.11.87-.18,0,.19,0Zm1.58,0-1.15-.13h0l0,0,.34-.36.37,0,.76,0,.46,0,.15,0-.1.1-.24.25a.39.39,0,0,0-.08.1h0Zm12-1.33-.12.32c0,.12-.09.24-.13.36a3.68,3.68,0,0,0-.15.47l-.09.3-.94.15c0-.1,0-.21.08-.31L79,97Zm.24,2.66-.32.06-.58.12L79.5,99c.07-.25.13-.5.2-.74l.91-.15v0c-.09.34-.19.68-.29,1ZM80,101.13c.06-.21.12-.42.17-.63s.18-.67.26-1l.75-.16c-.12.54-.25,1.08-.37,1.62l-.53.12Zm-.06-.49c0,.17-.09.35-.14.53l-.61.13-.23,0,.18-.74c.05-.24.11-.48.17-.72l0-.15.79-.16.1,0C80.13,99.91,80,100.27,79.93,100.64Zm-1.39,1.64-.2,0-.58-.09h-.13l.09-.35.07,0a3,3,0,0,1,.43-.09l.44-.09h0c0,.12-.06.25-.08.37S78.57,102.17,78.54,102.28Zm-1.63,1a.3.3,0,0,0,.16,0h.07s0,0,0-.06v0h0l-.15.61-1-.15c0-.22.09-.44.14-.66s0-.2.07-.3l.12-.51,1,.15h0v0c-.05.21-.11.42-.16.63l-.11,0L77,103l-.1.07s0,0,0,.08A.12.12,0,0,0,76.91,103.23Zm-3.35-1.45,1.19.13-.09.34c0,.19-.09.39-.13.58s-.09.37-.13.56l-.46-.06c-.1,0-.2,0-.3,0l-.44,0,0-.12c.08-.35.16-.69.25-1Zm1.19.9c.06-.23.11-.46.17-.69v-.06H75l.34,0,.81.12c0,.15-.08.3-.11.46l-.07.29-.09.4c0,.1,0,.21-.07.31l-.43-.06-.63-.08-.19,0C74.64,103.16,74.7,102.92,74.75,102.68Zm1.94-2c0-.16.09-.32.13-.48l1.1-.22h0l-.18.69c-.07.31-.15.63-.23.94l-.15,0a.09.09,0,0,0,0,.14l0,0a.06.06,0,0,0,.09,0l0,.22-.84-.12-.22,0,0-.12c.07-.27.13-.54.2-.81l0-.23A.64.64,0,0,1,76.69,100.72Zm.58-2.09a0,0,0,0,1,0,0,.11.11,0,0,0,.07,0l1-.17c-.11.44-.23.87-.34,1.3l-.17,0-1,.19.15-.55Zm.32,3.69.47.07.44.07,0,.23-.87.19-.14,0Zm1-.91-.39.08-.42.08h0l.24-1c0-.14.07-.27.1-.41l.06-.22,1-.2-.06.25c-.06.27-.13.55-.19.82s-.09.36-.13.54Zm.57-1.87v0H79.1l-.88.18c.06-.23.12-.47.19-.7l.15-.59.94-.15C79.39,98.73,79.29,99.14,79.19,99.54ZM78.76,97c-.07.25-.14.49-.2.74l-.15.57h0l-1,.17h0l.06-.22c0-.09,0-.19.08-.29l.09-.28c0-.15.09-.3.14-.45Zm-3.14,2.09c.11-.47.23-.94.35-1.42l1.5-.36c-.08.23-.15.46-.21.7s-.11.37-.16.56l-.43,1.51-1.33.27,0,0C75.41,99.94,75.52,99.52,75.62,99.09Zm-.34,1.38a.12.12,0,0,0,0,0h.07l1.22-.25c0,.13-.07.26-.11.39a2.86,2.86,0,0,0-.07.28c-.08.33-.15.65-.23,1l-1.13-.17H75c.07-.29.14-.58.2-.87l.68.08a.06.06,0,0,0,.07,0,.08.08,0,0,0,0,0,.12.12,0,0,0,0-.08.09.09,0,0,0,0,0l-.68-.08A2,2,0,0,0,75.28,100.47Zm-.28.39-.21.87-.63-.07-.55-.06c.07-.29.15-.58.22-.87Zm-2.5-1.11c0-.11,0-.22.07-.33h.13l1.25.11,0,.16c-.07.25-.13.51-.2.76l0,.06-.39,0-.53-.06-.42,0Zm-.26,1.12.07-.31.65.07.69.07-.23.87-.83-.09-.2,0h-.27Zm-.21,1c0-.06,0-.13,0-.2l.38,0h0l.92.1-.08.3c-.1.4-.2.8-.29,1.2l-.57,0-.63,0h-.06l0-.18Zm0,2.78-.59,0c.09-.42.17-.83.26-1.25l1.25.1a1.46,1.46,0,0,1,0,.2c0,.15-.07.3-.1.45l-.09.39s0,.11,0,.16Zm2,.08h-.29l-.85,0a2.46,2.46,0,0,1,.07-.29l.15-.67.06-.24.55,0h0l.65.08c-.09.37-.18.75-.26,1.13Zm2.92.42h0Zm-.16-.2-.9-.09h0l-.39,0-.87-.06-.31,0,.21-.88c0-.08,0-.16.05-.24l.43,0,.41,0,.41.06,0,.16,0,.13c0,.12,0,.23-.07.35a.38.38,0,0,1,0,.1v.06a.37.37,0,0,0,0,.11.09.09,0,0,0,.09.09.09.09,0,0,0,.09-.1v-.05a.2.2,0,0,1,0-.11c0-.15,0-.3.08-.46l.06-.25,1,.15C76.92,104.26,76.84,104.58,76.77,104.91Zm.46-1.13c0-.23.11-.46.16-.68l.27,0,.41-.09.33-.07-.09.38c0,.16-.07.32-.1.48a1,1,0,0,0,0,.17Zm1.52-1.16-.1,0,0-.16.25,0a.09.09,0,0,0,0-.18l-.25,0c0-.12.06-.23.08-.35l.1-.42.31-.06.53-.11-.09.35c0,.12-.07.25-.1.37s-.07.25-.1.37v0Zm1.18-.25-.23,0v0c0-.13.09-.26.14-.4s.15-.46.23-.7h0l.24,0,.44-.09c0,.18-.08.36-.13.55s-.07.33-.11.49v0Zm1.5-.36-.08,0-.06,0-.4.09.13-.37a.09.09,0,0,0,0-.07.07.07,0,0,0-.06,0,.09.09,0,0,0-.07,0,.09.09,0,0,0,0,.06l-.09.25a.94.94,0,0,1,0-.16c0-.24.11-.47.16-.71l.59-.12.13,0ZM81.9,100c-.06.27-.13.54-.19.81l-.19,0-.52.12.09-.41c.1-.4.19-.81.28-1.21l.35-.07.36-.09Zm.49-2.09c-.09.36-.18.72-.26,1.09l-.53.11-.18,0,.06-.29c0-.18.09-.36.14-.54s0-.2.07-.3Zm-.9.15v0l-.24,1,0,.1-.74.16a1.33,1.33,0,0,1,0-.19c0-.13.07-.27.11-.4l.17-.59Zm-.58-.9a1,1,0,0,0,0,.16.57.57,0,0,0,0,.14c0,.18-.11.36-.16.55l-.91.14v0c0-.16.09-.31.14-.47s.11-.31.16-.47v0c.06-.18.13-.36.2-.54l.87-.21C81.06,96.65,81,96.88,80.91,97.11Z" transform="translate(-10.77 -46.61)"/><path class="cls-1" d="M81.36,108h-.07a.13.13,0,0,0,0,.06h0l-.8.22-.41.11.1-.28a.09.09,0,0,0,0-.07s0,0-.06,0h0l0,0a.09.09,0,0,0,0,.06l-.12.36v0l-.25.07-1.17.31-1.07.28V109c0-.13.05-.26.07-.39s.09-.51.12-.76a.08.08,0,0,0,0-.08.09.09,0,0,0-.06,0h0a.1.1,0,0,0-.09.07l-.12.8c0,.07,0,.15,0,.23a1.16,1.16,0,0,1,0,.18l0,.14-.81.2a.09.09,0,0,0-.06.12.09.09,0,0,0,.11.06c.24-.06.47-.11.7-.18h0l-.09.49c0,.12-.05.25-.07.37-.17.8-.33,1.59-.49,2.39,0,.12,0,.23-.07.35l-1.25-.07-1-.07-1.91-.14.11-.18.41-.7.25-.42.28-.45.6-1,.13-.22.14-.2c.21-.33.43-.66.65-1l.21-.33.46-.67a.17.17,0,0,0,0-.07.12.12,0,0,0-.05,0h-.07a.1.1,0,0,0,0,0l-.53.78c-.14.22-.29.44-.44.66l-.42.65a1.64,1.64,0,0,0-.14.22c-.28.46-.56.91-.83,1.37s-.38.63-.57.94l-.34.59,0,0H71.8a.07.07,0,0,0-.06,0,.09.09,0,0,0,0,.07l0,.06a.08.08,0,0,0,.07,0h.06c-.1.19-.21.37-.32.56-.25.47-.51.93-.77,1.4h-.11a.1.1,0,0,0,0,.19l0,.08a.08.08,0,0,0,0,.12.08.08,0,0,0,.12,0,1.62,1.62,0,0,1,.1-.18l5.1-.18-.09.43-.21,1c0,.23-.09.47-.14.7l-1.15.1-4.25.35a.09.09,0,0,0-.09.1s.05.09.1.08l5.36-.44c0,.14-.06.29-.08.43-.07.41-.13.82-.19,1.23a.15.15,0,0,0,0,.07s0,0,.06,0a.09.09,0,0,0,.11-.07c0-.23.07-.46.1-.69s0-.23,0-.35a2,2,0,0,0,0-.26c0-.14,0-.28.08-.42l.37,0L77,117l-.18.9v0a.07.07,0,0,0-.06,0,.09.09,0,0,0-.07,0,.08.08,0,0,0,0,.06c0,.2,0,.4-.05.59l0,.31s0,.08,0,.12v.11l-1.52.51-.8.27-.82.26-.46.15-1.17.37H70.39l-2.5,0H63.18a.08.08,0,0,0-.08.1.09.09,0,0,0,.09.09h8l-.45.14a.09.09,0,0,0-.06.12.09.09,0,0,0,.11.06l1.06-.33,1.13,0a.1.1,0,0,0,.09-.1.08.08,0,0,0-.09-.08h-.5l.65-.21,1.4-.46.94-.31,1.12-.38a.1.1,0,0,0,0,0,.09.09,0,0,0,.11-.07v0l1.21-.41c0,.17-.07.34-.1.52l-.07.35-1.1.38a.1.1,0,0,0-.06.12.09.09,0,0,0,.12.06l1-.35-.09.46h0l-.37.12-.83.28-.34.12-1.21.38-1.46.43a.08.08,0,0,0-.06.11.09.09,0,0,0,.12.06c.42-.11.84-.24,1.26-.37L76,121.1l1.12-.37.55-.19.11,0,.34-.12,1.59-.58,0,0a.09.09,0,0,0,.11-.07v0l.18-.06a.09.09,0,0,0,.06-.12.1.1,0,0,0-.09-.07h0l-.09,0c0-.16.07-.31.1-.47l.27-.1.79-.3.23-.09.06,0,1.1-.48a.09.09,0,0,0,.06.06.1.1,0,0,0,.11-.07l0-.07.46-.2,0,0a.52.52,0,0,1,0,.11c0,.08,0,.17,0,.25s0,.16,0,.24a.1.1,0,0,0,.15.07s0,0,0,0a.09.09,0,0,0,0-.13h0v0a3.07,3.07,0,0,1,.07-.42.5.5,0,0,1,0-.12l.59-.26.08,0-.12.78a.09.09,0,0,0,.07.11.1.1,0,0,0,.11-.07c.05-.3.1-.59.14-.89v0l.31-.14-.18.91a.09.09,0,0,0,.18,0c.06-.33.13-.65.19-1l0-.07.48-.22a.1.1,0,0,0,0,0,.08.08,0,0,0,0-.08.08.08,0,0,0,0,0h-.07l-.37.18,0-.15c0-.2.09-.4.13-.6a.11.11,0,0,0-.07-.12h0a.1.1,0,0,0-.09.07c0,.2-.09.39-.13.59l-.06.31-.19.08-.14.07c0-.2,0-.39.08-.58s0-.37.07-.55,0-.06,0-.09l.59-.18a.1.1,0,0,0,.06-.12.1.1,0,0,0-.09-.07h0l-.51.16c0-.18,0-.37.05-.55l.06-.65a.15.15,0,0,0,0-.07l-.07,0h0a.06.06,0,0,0-.06,0,.09.09,0,0,0,0,.06c0,.28,0,.55-.07.82s0,.29,0,.44l-.61.19.08-.51c0-.12,0-.25.05-.38l0-.28,0-.3a.49.49,0,0,1,0-.12l1.06-.23A.09.09,0,0,0,85,114a.1.1,0,0,0,0,0h-.07l-1,.22a2.85,2.85,0,0,0,0-.29.11.11,0,0,0-.08-.09.1.1,0,0,0-.1,0l-.09.19a1,1,0,0,0-.08.22l-.18,0-.07,0c0-.11,0-.22,0-.33s.07-.51.11-.77l0-.24.81-.2.49-.13a.08.08,0,0,0,.06-.11.1.1,0,0,0-.09-.07h0l-1.22.3c0-.19,0-.38.08-.57a.15.15,0,0,0,0-.07s0,0-.06,0h0s-.09,0-.09.07l-.09.66-.43.1c0-.11,0-.22.07-.33s0-.15,0-.23,0,0,0-.08l.12-.53.18-.75.55-.12,0,0a.09.09,0,0,0,0-.07.08.08,0,0,0-.05,0h-.07l-.45.1,0-.06c0-.19.09-.37.14-.55a.09.09,0,0,0-.07-.11h0a.1.1,0,0,0-.09.07c0,.18-.1.36-.14.55l0,.14-.37.08.15-.62.12-.46,0-.11c0-.11.07-.22.1-.33a.09.09,0,0,0-.07-.12h0a.11.11,0,0,0-.09.07c0,.13-.08.25-.11.38s0,.2-.08.3l-.21.85,0,.08-.22,0-.41.09-.16,0,0-.1.09-.42a.64.64,0,0,0,0-.07c0-.09,0-.18.07-.28l.2-.78.25-.08,1.15-.32a.09.09,0,0,0,.06-.12.09.09,0,0,0-.09-.06h0l-1.29.37,0-.18c0-.13.06-.26.1-.39s.14-.52.21-.79h0l1.5-.42a.08.08,0,0,0,.06-.11.08.08,0,0,0-.08-.07h0l-2.59.71S81.38,108,81.36,108Zm-.18.29a1.18,1.18,0,0,0-.07.2l-.06.24-.21.82,0,.11-.28.07-.84.24c0-.23.08-.46.13-.69s.09-.41.14-.62l0,0,.16,0Zm-.12,5-.93.23,0-.2c0-.12,0-.24.07-.36l.09-.4.21-1,.53-.12.42-.1c-.13.62-.27,1.24-.41,1.86Zm1.84,3h0v0Zm-.17-.14-.38.12-.2.07c.09-.45.18-.9.26-1.36,0-.14.06-.28.08-.42l.14,0,.37-.08-.06.47c0,.27-.09.53-.14.8S82.76,116.07,82.73,116.21Zm-.52-1.08c-.08.42-.17.85-.25,1.27v.06l-.42.14c0-.14.07-.28.1-.42l.12-.51.16-.72a1.18,1.18,0,0,1,0-.2l.35-.08ZM80.88,115l.28-.06.59-.14,0,.14-.21.95c-.05.2-.09.4-.14.6l-.05.19-.86.29c.14-.65.27-1.3.42-1.95Zm1.44-.52-.33.08c.05-.28.11-.55.16-.83s.07-.34.1-.5l.34-.09c-.08.45-.17.89-.25,1.34Zm-.5,0,0,.14-.87.2.3-1.32.39-.1.44-.1C82,113.66,81.9,114.05,81.82,114.45Zm-1.1.39-.86.2h0l0-.12.06-.28.49,0a.08.08,0,0,0,.08-.1.09.09,0,0,0-.09-.09h0l-.45,0,.15-.71.93-.22Zm-4.19-1.71,1,.06h.2l-.27,1.34-1.25,0c0-.18.07-.36.11-.53S76.46,113.44,76.53,113.13Zm1.62-.95v0l1-.25,0,.21c-.06.32-.11.65-.17,1l-1,0a1.16,1.16,0,0,0,0-.18C78.06,112.63,78.1,112.4,78.15,112.18Zm.37-1.73.93-.26-.06.36,0,.15c0,.34-.11.67-.17,1l-.39.09-.6.15c.09-.45.19-.91.29-1.36Zm.41,2.81-.05.32-.15.83v.09l-1,0,.06-.28.21-1.05Zm-.24,1.42c-.08.42-.15.84-.22,1.26l-.15.8-1.11.09v0l.42-2.09Zm-.16,2c0-.32.11-.64.17-1l0-.2h0l.84-.19v0c-.08.45-.17.89-.26,1.34l-.81.06Zm.24-1.35c0-.21.07-.41.1-.61l.85,0-.09.45Zm1.5-3.32c0,.24-.11.49-.16.74l-.06.25-.12.63-.48.11-.31.08a.09.09,0,0,0-.06.11.1.1,0,0,0,.12.06l.69-.16c0,.22-.09.44-.13.67l-.85,0c.07-.39.14-.77.2-1.16v-.06h0a.07.07,0,0,0,.08-.09.14.14,0,0,0,0-.07l0,0,.21-1.23.65-.16.33-.08C80.32,111.74,80.29,111.85,80.27,112Zm-.88-.31h0c.06-.37.13-.75.19-1.12,0-.13,0-.26.07-.39l.18,0,.92-.26c0,.14-.07.27-.1.41a1.6,1.6,0,0,0-.05.21l-.21,1Zm.38-3s0,.1,0,.15c-.07.3-.13.61-.19.92,0,.09,0,.18-.05.28l-.93.25c.09-.43.19-.87.28-1.31a.06.06,0,0,0,0,0Zm-2.65,1.58c0-.13,0-.27.08-.41s.07-.35.1-.52l.39-.1,1-.25c-.1.45-.2.9-.29,1.36l-.23.06-.93.26a.09.09,0,0,0-.06.12.09.09,0,0,0,.11.06l1.06-.3,0,.11c-.09.46-.19.93-.29,1.39l-.64.16a.09.09,0,1,0,.06.18l.54-.14,0,.1-.15.72L76.56,113c.09-.42.18-.85.26-1.27Zm-1.52,4.4-4.6.16c.14-.25.27-.5.41-.74l.33-.6.33-.59h0l1.65.12c.29,0,.58,0,.87.06l.35,0,1.39.08L76,114.6Zm.15,2.33c0-.23.1-.47.14-.7l.21-1.06.09-.41,1.26,0c-.15.71-.29,1.41-.43,2.12Zm1,2s0-.1,0-.16l.09-.42c0-.16.07-.33.1-.49l.18-.91,1.11-.09,0,.16c-.09.5-.19,1-.29,1.51Zm1.36-.26.47-.16a.09.09,0,0,0,.06-.11.1.1,0,0,0-.09-.07h0l-.37.12c0-.23.09-.46.14-.69s.11-.62.17-.93l.82-.07c-.07.34-.13.67-.2,1,0,.17-.07.34-.1.51a0,0,0,0,0,0,0v.05a.09.09,0,0,0,.18,0c.06-.26.11-.52.16-.77s.07-.37.11-.56l.06-.31h.1a.09.09,0,0,0,.09-.1.11.11,0,0,0-.09-.09h-.06l.12-.66.15-.74.89-.2c-.05.21-.09.43-.14.65-.1.44-.19.89-.29,1.34l-.2.06-.6.21a.09.09,0,0,0-.06.11.09.09,0,0,0,.12.06l.7-.23-.15.69-.21,1-.13,0-.48.17-1,.36-.28.1C78,119.32,78.07,119,78.12,118.74Zm1.59.86-1.46.53-.43.16.09-.47,1.37-.48.28-.1.24-.1Zm1.68-1.27-.19.08-1.14.44c.11-.56.23-1.12.35-1.68l.33-.11.53-.18v.05l-.06.24-.06.25,0,.13,0,.09v0h0a.11.11,0,0,0,0,.13.09.09,0,0,0,.13,0,.24.24,0,0,0,.08-.06l0,0,0-.07s0,0,0-.06l0-.12c0-.07,0-.13.05-.2l.09-.39,0-.07.34-.11.09,0c0,.15,0,.3-.08.45s0,.17,0,.26l-.06.28,0,.21a.41.41,0,0,0,0,.18.08.08,0,0,0,0,.07.09.09,0,0,0,.11,0l0-.06.05-.12a.1.1,0,0,0,0-.07s0,0,0,0,.06-.29.09-.44,0-.24.07-.37,0-.28.07-.42l.53-.17.06,0c0,.19-.06.38-.1.57s0,.18,0,.27a2.5,2.5,0,0,0,0,.29,1.55,1.55,0,0,0,0,.21.49.49,0,0,0,0,.12l-.5.22Zm1.32-.57.12-.39c0-.19.09-.37.14-.56s.1-.35.14-.53l.33-.11,0,.19c0,.27-.09.53-.14.78s0,.27-.07.41Zm1.3-.56-.45.19-.15.07.06-.36.15-.89s0-.07,0-.1l.61-.19c0,.18,0,.36-.07.53s0,.32-.07.48l0,.24Zm-.84-1.13c0-.18.1-.37.14-.55l.09-.3c0-.17.09-.34.14-.51s0-.12,0-.18,0-.11,0-.16h0s0,.1,0,.16v0c0,.39-.09.77-.14,1.16,0,.11,0,.22,0,.33Zm.26-1.66,0,.13c-.06.18-.11.37-.16.56s-.16.57-.23.86l-.05.18h0l.06-.36c0-.26.09-.53.13-.79,0-.09,0-.18,0-.27s0-.18,0-.26Zm-.2-1.43a.77.77,0,0,0,0,.15c0,.26-.08.51-.11.76s0,.28-.07.42l-.5.11c.09-.44.18-.89.26-1.33Zm-.17-2-.18.74-.07.33c0,.05,0,.09,0,.14s0,.27-.08.41l-.06.31-.34.08a1.55,1.55,0,0,0,0-.21c.08-.37.15-.74.22-1.1,0-.13,0-.26.08-.39a.36.36,0,0,1,0-.11l0-.12Zm-1.14.25.44-.1.12,0h0a.24.24,0,0,0,0,.08l-.12.57c-.08.43-.16.86-.25,1.28l-.3.08-.53.13c0-.2.09-.4.13-.59l.3-1.38Zm-.19-1-.06.27c0,.19-.09.38-.13.58l-.5.11-.45.11.1-.46c0-.17.07-.33.1-.5s.06-.19.08-.28l.09-.35,1-.28C81.87,109.77,81.8,110,81.73,110.3Zm.4-1.56-.14.55-.26.08-.71.2c.08-.33.17-.66.25-1l0-.11a.64.64,0,0,0,0-.07c0-.07.05-.14.07-.21l1-.27C82.27,108.2,82.19,108.47,82.13,108.74Z" transform="translate(-10.77 -46.61)"/><path class="cls-1" d="M36.15,120.88l-2.67-.22c-.86-.08-1.73-.15-2.6-.21l-1.09-.09h0a.09.09,0,0,0-.07,0,.14.14,0,0,0,0,.07.09.09,0,0,0,0,.06s0,0,.07,0l1.81.14,1.21.1,2.47.2.87.08.06,0a.09.09,0,0,0,0-.07.11.11,0,0,0,0-.06S36.18,120.89,36.15,120.88Z" transform="translate(-10.77 -46.61)"/><polygon class="cls-1" points="62.94 56.87 62.94 56.87 62.94 56.87 62.94 56.87"/><polygon class="cls-1" points="62.93 56.87 62.93 56.87 62.94 56.87 62.93 56.87"/><polygon class="cls-1" points="66.19 58.5 66.19 58.5 66.19 58.5 66.19 58.5"/><polygon class="cls-1" points="66.19 58.5 66.19 58.5 66.19 58.5 66.19 58.5"/><path class="cls-1" d="M71,112.59c.09-.11.17-.23.26-.35l.15-.22.33-.51c.13-.21.27-.42.4-.64s.15-.23.22-.35l.63-1,.43-.72.12-.2.1-.16.43-.66c.16-.21.31-.42.47-.62a.09.09,0,0,0,0-.07.11.11,0,0,0,0-.06.09.09,0,0,0-.07,0,.07.07,0,0,0-.06,0c-.16.21-.32.41-.47.62l-.08.12-.24.36-.2.31-.07.11-.39.67-.63,1-.25.41-.42.67-.3.47-.14.22-.21.29-.15.2a.14.14,0,0,0,0,.07.09.09,0,0,0,0,.06.09.09,0,0,0,.07,0S71,112.61,71,112.59Z" transform="translate(-10.77 -46.61)"/><path class="cls-1" d="M79.87,120.7h0l-.92.29-.79.24-.64.2-.38.11-1.19.34-.73.2-.57.15-.69.15a.09.09,0,0,0,0,.12.07.07,0,0,0,0,0,.06.06,0,0,0,.07,0l.68-.16.58-.15c.37-.1.74-.19,1.1-.3l.82-.23.38-.11,1.43-.45.91-.29a.08.08,0,0,0,.06-.11A.1.1,0,0,0,79.87,120.7Z" transform="translate(-10.77 -46.61)"/><path class="cls-1" d="M70.86,95.45a.1.1,0,0,0,.13,0q1.16-1.9,2.36-3.79a.09.09,0,0,0,0-.12l0,0a.09.09,0,0,0-.08.05q-1.2,1.89-2.36,3.79A.08.08,0,0,0,70.86,95.45Z" transform="translate(-10.77 -46.61)"/><path class="cls-1" d="M72,94.86h.07a.12.12,0,0,0,0-.05L73.37,93l.47-.66h0l.1-.14a.09.09,0,0,0,0-.07s0,0,0-.06a.09.09,0,0,0-.06,0h0s-.05,0-.06,0c-.2.26-.39.54-.59.82h0L73,93.3l-.25.36L72,94.73A.1.1,0,0,0,72,94.86Z" transform="translate(-10.77 -46.61)"/><path class="cls-1" d="M73,95.07a.08.08,0,0,0,.12,0l.4-.63.35-.55c.22-.34.45-.68.69-1a.11.11,0,0,0,0-.08.1.1,0,0,0,0-.05h-.07s0,0-.06,0c-.23.34-.46.67-.68,1-.12.18-.24.36-.35.54s-.27.43-.4.64A.1.1,0,0,0,73,95.07Z" transform="translate(-10.77 -46.61)"/><path class="cls-1" d="M55.19,95.22a.07.07,0,0,0-.06,0,.09.09,0,0,0-.07,0l-.46.46a2.28,2.28,0,0,1-.22.22l-.09.1,0,0,0,.07a.25.25,0,0,0,0,.07s0,.07,0,.1a.07.07,0,0,0,0,.06.09.09,0,0,0,.07,0,.07.07,0,0,0,.06,0s0,0,0-.07v0h0v0l0,0,.16-.18.15-.15a.93.93,0,0,1,.14-.14l.39-.4A.09.09,0,0,0,55.19,95.22Zm-.85,1Z" transform="translate(-10.77 -46.61)"/><path class="cls-1" d="M56.1,95.24l-.06,0a.11.11,0,0,0-.07,0c-.29.29-.58.57-.86.87a.1.1,0,0,0,.14.13c.27-.31.57-.59.86-.87A.11.11,0,0,0,56.1,95.24Z" transform="translate(-10.77 -46.61)"/><path class="cls-1" d="M57.12,95.49l.18-.15a.1.1,0,0,0,0,0,.15.15,0,0,0,0-.07l-.06,0h0l0,0-.35.29c-.08.07-.17.13-.25.21l-.28.25-.13.12-.07.07a.67.67,0,0,0-.14.15.09.09,0,1,0,.13.12c.06-.06.11-.12.17-.17l.16-.15.24-.22c.15-.13.3-.26.46-.38Z" transform="translate(-10.77 -46.61)"/><path class="cls-1" d="M58.41,95.39a.09.09,0,0,0,0-.07.09.09,0,0,0-.08,0h0l-.35.28-.23.18-.14.12a.58.58,0,0,0-.12.1l-.12.1-.06.05-.11.12a.09.09,0,0,0,0,.13.09.09,0,0,0,.13,0c0-.05.1-.11.15-.15l.13-.12.31-.25.51-.4A.13.13,0,0,0,58.41,95.39Z" transform="translate(-10.77 -46.61)"/><path class="cls-1" d="M58.75,95.53a.09.09,0,0,0-.07,0l-.3.33-.17.18,0,.06a.25.25,0,0,0,0,.07.24.24,0,0,0,0,.08s0,.06,0,.09a.09.09,0,0,0,.18-.06v0h0v0s0,0,0,0,0,0,0,0l.07-.07,0,0,.1-.11.27-.29a.11.11,0,0,0,0-.14Z" transform="translate(-10.77 -46.61)"/><path class="cls-1" d="M59.92,95.4a.07.07,0,0,0-.06,0c-.07.08-.13.17-.2.26l-.09.11a.43.43,0,0,0,0,.07.61.61,0,0,0-.07.1.09.09,0,0,0,0,.13.09.09,0,0,0,.12,0l.06-.08a.22.22,0,0,1,0-.08h0l.27-.35a.09.09,0,0,0,0-.07.11.11,0,0,0,0-.07Z" transform="translate(-10.77 -46.61)"/><path class="cls-1" d="M60.78,95.53a.09.09,0,0,0-.07,0l-.48.56a.09.09,0,0,0,0,.13.09.09,0,0,0,.13,0l.48-.55a.09.09,0,0,0,0-.13Z" transform="translate(-10.77 -46.61)"/><path class="cls-1" d="M79.48,95.2a.1.1,0,0,0,.1.08.09.09,0,0,0,.09-.09.1.1,0,1,0-.19,0Z" transform="translate(-10.77 -46.61)"/><path class="cls-1" d="M82,93.62a.1.1,0,0,0-.09.1.11.11,0,0,0,.1.09.1.1,0,0,0,0-.19Z" transform="translate(-10.77 -46.61)"/><path class="cls-1" d="M53.57,55.81c1.38-.82,2.75-1.66,4.12-2.5a.09.09,0,0,0,0-.12.1.1,0,0,0-.08,0l0,0q-2.06,1.26-4.12,2.49a.11.11,0,0,0,0,.13A.1.1,0,0,0,53.57,55.81Z" transform="translate(-10.77 -46.61)"/><path class="cls-1" d="M56.77,55.36l-1.05.54-1.14.59-.32.16a.11.11,0,0,0,0,.13s0,0,.06,0a.09.09,0,0,0,.07,0l1.36-.7,1.11-.57L57.88,55l1.57-.79.32-.16a.1.1,0,0,0,0-.05.08.08,0,0,0,0-.07.07.07,0,0,0,0,0h0l0,0-1.73.86-.79.4Z" transform="translate(-10.77 -46.61)"/><path class="cls-1" d="M56.89,56.39a5.21,5.21,0,0,1-.47.24.09.09,0,0,0,0,.13.07.07,0,0,0,.05,0,.08.08,0,0,0,.07,0L59,55.49l2.29-1.22.84-.44a.09.09,0,0,0,0-.13.1.1,0,0,0,0,0h0l0,0-3,1.61Z" transform="translate(-10.77 -46.61)"/><path class="cls-1" d="M61.28,55.37l-2.19,1.22-.71.4a.09.09,0,1,0,.1.16c.78-.45,1.56-.88,2.34-1.31l.91-.5,1.37-.74.93-.5a.09.09,0,0,0,0-.13.1.1,0,0,0,0,0h0l0,0-1.63.87-.74.4Z" transform="translate(-10.77 -46.61)"/><path class="cls-1" d="M65.36,54.43a.1.1,0,0,0-.08,0l0,0-4.42,2.71a.1.1,0,0,0,0,.13.11.11,0,0,0,.13,0l4.42-2.72A.08.08,0,0,0,65.36,54.43Z" transform="translate(-10.77 -46.61)"/><path class="cls-1" d="M64.14,57.19l-.47.28-.41.26-.51.33a.11.11,0,0,0,0,.13.1.1,0,0,0,.13,0l.42-.27.36-.23.4-.25,1-.61,2.35-1.44.91-.55a.11.11,0,0,0,0-.13.09.09,0,0,0-.08,0h0l-2.33,1.43-1.22.75Z" transform="translate(-10.77 -46.61)"/><path class="cls-1" d="M66.1,57.68a.1.1,0,0,0,.13,0c.75-.46,1.52-.9,2.28-1.35L70.92,55a.1.1,0,0,0,0-.13.12.12,0,0,0-.08,0l-.05,0-2.41,1.39c-.76.44-1.52.88-2.28,1.34A.11.11,0,0,0,66.1,57.68Z" transform="translate(-10.77 -46.61)"/><path class="cls-1" d="M70.14,56.77a2.26,2.26,0,0,0-.26.16,1.14,1.14,0,0,0-.19.19s0,.07,0,.11l0,0,.07.06.07,0a.07.07,0,0,0,.06,0,.09.09,0,0,0,0-.13h0l0,0,.07-.07.1-.06a.24.24,0,0,1,.11-.06l.27-.15.15-.08.54-.28c.29-.16.58-.3.87-.45l2-1a.1.1,0,0,0,0-.12s0,0-.06,0h0l0,0-2,1-.88.45-.57.3A2.49,2.49,0,0,1,70.14,56.77Z" transform="translate(-10.77 -46.61)"/><path class="cls-1" d="M73.23,57c-.17.08-.32.17-.48.26l-.19.1a2.07,2.07,0,0,0-.25.15l-.06,0,0,0,0,.05a.09.09,0,0,0,0,0v0s0,.05,0,.08l0,0h.07l0,0a.06.06,0,0,0,0-.07v0h0v0l.16-.11.12-.07.17-.09.17-.09.37-.2.8-.44.53-.3.24-.14L76,55.6a.09.09,0,0,0,0-.12.1.1,0,0,0-.08,0l0,0-1.09.64-.27.16-.57.32Z" transform="translate(-10.77 -46.61)"/><path class="cls-1" d="M76.24,57.43,78,56.36a.09.09,0,0,0,0-.13s0,0-.08,0h0l-1.71,1.07a.1.1,0,0,0,0,.13A.11.11,0,0,0,76.24,57.43Z" transform="translate(-10.77 -46.61)"/><path class="cls-1" d="M49,53.68a.11.11,0,0,0,.07,0l1.72-.87a.09.09,0,0,0,0-.13.1.1,0,0,0-.05,0h-.07L49,53.51a.09.09,0,0,0,0,.13A.09.09,0,0,0,49,53.68Z" transform="translate(-10.77 -46.61)"/><path class="cls-1" d="M52,53.22a.1.1,0,0,0,.09-.1A.08.08,0,0,0,52,53a.09.09,0,0,0,0,.18Z" transform="translate(-10.77 -46.61)"/><path class="cls-1" d="M30.59,92.89a.09.09,0,0,0,.07,0l4.22-3.79a.09.09,0,0,0,0-.13s0,0-.06,0h0l-.07,0-4.22,3.8s0,.09,0,.13Z" transform="translate(-10.77 -46.61)"/><path class="cls-1" d="M31.7,93.24l1.05-1,.79-.73.6-.54.31-.28,1.1-1,.62-.53a.1.1,0,0,0,0-.07.11.11,0,0,0-.09-.09h0a.09.09,0,0,0-.07,0l-1.36,1.19-.27.24-.12.1-.47.42-.46.43-.47.43-.84.78-.48.45a.09.09,0,0,0,0,.13A.09.09,0,0,0,31.7,93.24Z" transform="translate(-10.77 -46.61)"/><path class="cls-1" d="M42.25,94.71a.09.09,0,0,0,.13,0c.85-.8,1.71-1.58,2.57-2.36a.09.09,0,0,0,0-.13.09.09,0,0,0-.06,0h0a.09.09,0,0,0-.06,0c-.85.79-1.72,1.57-2.56,2.36A.09.09,0,0,0,42.25,94.71Z" transform="translate(-10.77 -46.61)"/><path class="cls-1" d="M46.59,92.42a.11.11,0,0,0-.07,0c-.74.72-1.47,1.43-2.2,2.16a.09.09,0,1,0,.13.12l2.21-2.16a.09.09,0,0,0,0-.13A.07.07,0,0,0,46.59,92.42Z" transform="translate(-10.77 -46.61)"/><path class="cls-1" d="M45.21,95.6l-3.45-.67-1-.18-.62-.12,1.52-1.41.61-.57,1-1a.09.09,0,0,0,0-.13.09.09,0,0,0-.06,0,.09.09,0,0,0-.07,0l-1,1-.61.57L40,94.55a.08.08,0,0,0,0,0l-.45-.08-.41-.08-.77-.14,1.39-1.35c.15-.16.31-.31.47-.46l.31-.32c.4-.39.8-.8,1.2-1.2a.09.09,0,0,0,0-.13l-.06,0a.11.11,0,0,0-.07,0L40.38,92l-.78.77c-.49.48-1,1-1.48,1.43l-.79-.15L36,93.84l.57-.54.42-.4.35-.32.58-.53.33-.31,1-.88.09-.09a3.11,3.11,0,0,0,.28-.23l.42-.36,0,0,.22-.18s0,0,0-.06a.08.08,0,0,0,0-.07.07.07,0,0,0-.06,0h-.07l-.6.51-.31.26-.12.11-1,.89-.37.34c-.18.17-.36.34-.55.5l-.37.36-.4.37-.64.6-1-.19h0a.1.1,0,0,0-.1.07.1.1,0,0,0,.07.12l.87.16a2.39,2.39,0,0,0-.23.22.09.09,0,0,0,0,.13.09.09,0,0,0,.13,0l.32-.3,1.58.29.57.11-.1.09a.11.11,0,0,0,0,.14.09.09,0,0,0,.13,0l.18-.18,1.36.26c1.88.35,3.75.72,5.63,1.08a.09.09,0,1,0,0-.18Z" transform="translate(-10.77 -46.61)"/><path class="cls-1" d="M43.22,96.56c-.14,0-.27-.07-.41-.09l-.26-.06-.85-.17-.59-.12-.31-.05-1.64-.29-.31,0-.6-.09-.86-.14-.33,0-1.51-.22-2.26-.32L31,94.58h.89l1.5,0a.1.1,0,0,0,.09-.1.11.11,0,0,0-.1-.09h-.29L34.8,92.7l.83-.79.63-.61.27-.25,1.53-1.43a.09.09,0,0,0,0-.13.07.07,0,0,0-.06,0,.09.09,0,0,0-.07,0L36.63,90.7l-.8.76-1.76,1.69c-.41.39-.82.78-1.22,1.18,0,0,0,0,0,0l-1,0H29.74c0-.2.07-.4.11-.59l1.66-.07a.09.09,0,0,0,.09-.1.1.1,0,0,0-.1-.08h0l-1.61.06.15-.79A.11.11,0,0,0,30,92.7h0a.1.1,0,0,0-.09.07c-.06.28-.11.57-.16.85l-1.53.06a.09.09,0,0,0-.09.09.1.1,0,0,0,.1.09l1.48-.06c0,.2-.07.39-.11.58h-.23l-.7,0h0a.1.1,0,0,0-.09.1c0,.05,0,.08.09.09l.7,0h.2c-.07.34-.13.68-.2,1l-.4,0-.7,0h0a.1.1,0,0,0-.09.1.07.07,0,0,0,0,.06.09.09,0,0,0,.07,0l1.06,0-.21,1.07H29a.08.08,0,0,0-.08.09.09.09,0,0,0,0,.07A.07.07,0,0,0,29,97h.07c-.08.38-.15.77-.23,1.16h-.35a.15.15,0,0,0-.07,0,.14.14,0,0,0,0,.07.07.07,0,0,0,0,.06.09.09,0,0,0,.06,0h.32c0,.11-.05.23-.07.35s-.07.39-.11.59h-.25a.11.11,0,0,0-.09.1.1.1,0,0,0,.1.09h.2l-.12.61c-.06.28-.12.57-.19.85a.09.09,0,0,0,.18,0l.15-.69.06-.24c0-.12.05-.24.07-.36a2.07,2.07,0,0,0,0-.22l1-.06.26,0-.08.34h-.17l-.06,0a.19.19,0,0,0,0,.07.09.09,0,0,0,0,.07l.07,0h.11l-.18.74-.06.3h-1a.09.09,0,0,0-.09.09.1.1,0,0,0,.1.09h.93l-.15.65a.09.09,0,0,0,.07.11.11.11,0,0,0,.12-.07c.05-.23.1-.46.16-.69h1l-.06.25-.18.81h-.21a.09.09,0,0,0-.09.09.11.11,0,0,0,.1.09h.16l-.27,1.15-1.12,0h0a.1.1,0,0,0-.09.1s.05.08.1.09l1.07,0c0,.19-.08.37-.13.56a.09.09,0,0,0,.07.11.09.09,0,0,0,.11-.06c0-.2.09-.4.14-.6l1.31,0q1.21,0,2.43,0c.46,0,.91,0,1.37,0a.09.09,0,0,0,.09-.09.11.11,0,0,0-.1-.09c-.86,0-1.73,0-2.59,0s-1.56,0-2.33-.06h-.14l.27-1.16,1,0,1.21,0,1.25-.06,1.18-.07h.13a.09.09,0,0,0,.09-.09.1.1,0,0,0-.09-.09h0l-1.29.08-1.2.05-1.22.06-1,0c0-.17.08-.34.11-.5l.13-.55H35.1a.1.1,0,0,0,0-.19l-4,0,.06-.28.14-.65,1.13.09,2.63.22,2,.16,1.54.12,1.89.14a.09.09,0,0,0,.07,0,.14.14,0,0,0,0-.07.09.09,0,0,0,0-.06s0,0-.06,0l-1.94-.14-1.68-.13-1.2-.09-1-.08L32.2,100l-.91-.07v0l.06-.31,0-.11,0-.12h.15l.36,0,.81-.09.86-.1s.1,0,.09-.09a.09.09,0,0,0-.08-.09h0l-.86.09-.82.09-.47,0c0-.24.09-.49.14-.74l1.09.18,1.06.16.84.14.29,0,1.48.22.91.13L40,99.6l1.39.18h.07a.21.21,0,0,0,0-.06.15.15,0,0,0,0-.07s0,0-.06,0l-1.85-.24-1.71-.22L37.1,99l-1.57-.23-.89-.13-1.51-.24L32,98.26l1.43-.06.63,0a.11.11,0,0,0,.09-.1.09.09,0,0,0-.09-.09h0l-2.44.11c0-.12,0-.23.07-.35s.07-.42.1-.63l2.52.06a.08.08,0,0,0,.08-.06l1.91.31,1,.18.81.14.37.06,2.94.54a.09.09,0,0,0,.11-.06.1.1,0,0,0-.07-.12l-2.94-.54-.39-.07-.86-.15-1-.17L34.78,97l-1-.16-2.59-.41h0a.1.1,0,0,0-.09.07c0,.05,0,.11.07.11L33.5,97l-1.66,0v-.08a.09.09,0,0,0-.07-.11h0a.1.1,0,0,0-.09.07s0,.08,0,.12h-.16l-.69,0v0c.08-.33.16-.67.23-1l.46,0,.52,0,.68,0h.6l.76,0a.1.1,0,0,0,.09-.09.09.09,0,0,0-.1-.09l-.83,0h-.54l-.74,0-.47,0h-.38l.05-.22a.09.09,0,0,0-.07-.11h0a.1.1,0,0,0-.09.07l-.06.25-.65,0-.75,0c.07-.34.14-.68.2-1h.85s0,0,0,0a.1.1,0,0,0,.07.12l4.79.68,1.57.22,1.1.17L39,96l1.62.28.3,0,.1,0,.54.11.89.18.27,0,.43.1a.09.09,0,1,0,0-.18Zm-13.3,1.56.24,0H30l-.64,0H29c.08-.39.15-.77.22-1.16l1.19,0h.15c-.07.31-.14.61-.22.92L30,97.93h0a.1.1,0,0,0-.09.07A.1.1,0,0,0,29.92,98.12Zm-.16,1.13-1,.06c.06-.3.11-.59.17-.89v0h.67l.63,0-.21.9Zm1.1,1.74h-1l.24-1,1,.08Zm.31-1.41-.06.28-1-.08c0-.13.05-.25.08-.38h.14l.42,0,.45,0A2.21,2.21,0,0,0,31.17,99.58Zm.19-1c0,.2-.07.39-.11.58l-.49,0-.42,0h-.08l.21-.89.53,0h.09l.31,0Zm.13-1.45h.13l-.12.67-.06.32-.27,0h-.06l-.23,0-.34,0V98l.21-.88Zm-.72-1.26h.09c-.09.35-.17.7-.25,1.05h-.19l-1.15,0c.05-.28.1-.57.16-.85,0-.08,0-.15,0-.22Z" transform="translate(-10.77 -46.61)"/><path class="cls-1" d="M70.8,117.93l2.84-.18c.06,0,.1,0,.09-.09a.09.09,0,0,0-.09-.09h0l-2.81.17-2.72.19A.09.09,0,0,0,68,118a.1.1,0,0,0,.1.09Z" transform="translate(-10.77 -46.61)"/><path class="cls-1" d="M66.93,119.37l-1.58,0-1.14,0H62.48a.1.1,0,0,0-.09.1.07.07,0,0,0,0,.06l.06,0h2.65l1.27,0,.83,0,3-.09.62,0,1.71-.08,1,0h.24l.77-.05a.11.11,0,0,0,.09-.1.1.1,0,0,0-.09-.09h0l-.84.06-.55,0-1.76.09-1.07,0h-.25l-.7,0-1.76,0Z" transform="translate(-10.77 -46.61)"/><path class="cls-1" d="M71.61,121.81h0l-1,.13-.66.07-1.55.16-.22,0-.69,0-1.55.1-.22,0-.71,0-1.18,0-1.19,0-1.43,0a.1.1,0,0,0-.09.1.11.11,0,0,0,.1.09l1.44,0,1.19,0,1.31-.06.64,0,.25,0,1.58-.1.61,0,.21,0,1.55-.16.62-.07,1-.12s0,0,.06,0a.11.11,0,0,0,0-.07A.1.1,0,0,0,71.61,121.81Z" transform="translate(-10.77 -46.61)"/><path class="cls-1" d="M103.78,72.65c0-.24,0-.48,0-.72s0-.55,0-.83c0-.47-.07-.94-.11-1.41s-.1-.93-.16-1.39l-.12-.74c0-.15,0-.29-.08-.44a6.74,6.74,0,0,0-.31-1.06,8.1,8.1,0,0,0-.65-1.36L102,64l-.36-.62c-.07-.12-.14-.23-.2-.35a4.93,4.93,0,0,0-.58-.78,1.68,1.68,0,0,0-.29-.24,1.28,1.28,0,0,0-.25-.15,2.69,2.69,0,0,0-.29-.16q-.36-.16-.72-.3c-.43-.17-.86-.31-1.3-.44l-1.49-.46c-.49-.15-1-.28-1.47-.41s-.9-.21-1.35-.33l-1.42-.38-1.36-.35-1.5-.4-1.29-.37-1.47-.41c-.47-.14-.93-.3-1.39-.45L83.89,57l-2.83-1c-.46-.15-.92-.32-1.38-.48s-.86-.33-1.3-.47-.88-.29-1.33-.4-.94-.19-1.42-.27c-1-.15-2-.29-3-.4s-2-.19-3-.25-1.91-.07-2.86-.14l-2.4-.21h0l-1.44-.15L61.58,53l-1.52-.19c-.49-.06-1-.15-1.47-.23l-1.36-.24-1.57-.26c-.48-.07-.95-.16-1.42-.24s-.87-.14-1.3-.2-1-.14-1.5-.24-.91-.22-1.37-.33l-1.32-.32c-.45-.1-.89-.2-1.33-.32s-.94-.27-1.41-.41l-1.4-.37c-.93-.24-1.85-.52-2.79-.74l-2.9-.71c-1-.24-1.91-.48-2.86-.68l-1.38-.27L33.27,47c-.49-.09-1-.17-1.48-.23s-1-.1-1.48-.13l-.61,0-.71,0h-.74l-.66,0-1.43.11c-.46,0-.91.14-1.36.23-.24,0-.47.11-.7.16a4,4,0,0,0-.84.28,4.42,4.42,0,0,0-.76.44l-.15.13a.48.48,0,0,0-.11.09,2.5,2.5,0,0,0-.23.23c-.31.34-.6.69-.88,1.06-.16.21-.31.41-.46.63l-.42.6c-.57.79-1.16,1.57-1.76,2.34l-.93,1.18c-.31.39-.6.79-.89,1.2l-.88,1.22-.89,1.23c-.28.39-.56.78-.82,1.17s-.54.85-.81,1.28-.47.77-.7,1.16-.51.85-.75,1.28a12.75,12.75,0,0,0-.66,1.27l-.15.34c0,.15-.1.29-.14.44a1.51,1.51,0,0,0-.07.37,3.38,3.38,0,0,0,0,.78c0,.44.1.88.15,1.32s.11.94.18,1.4.15,1,.21,1.45.11,1,.2,1.44l.12.71c.06.27.11.55.17.82.09.45.18.89.28,1.33l.33,1.5c.09.46.19.91.29,1.36l.36,1.37c.12.5.24,1,.37,1.49a21.33,21.33,0,0,0,.86,2.71c0,.06,0,.12.07.17s.08.18.13.27l.15.27.12.15a1.5,1.5,0,0,0,.2.23,2.2,2.2,0,0,0,.25.17l.19.12.49.3.89.53c.3.17.6.34.91.5l.54.32-.11.19a.09.09,0,1,0,.16.09l.11-.19.23.13.9.58c.55.35,1.11.7,1.65,1.07s.87.67,1.28,1l.64.58c.19.17.37.36.56.54a6,6,0,0,0,.62.51,3.79,3.79,0,0,0,.34.2,3.2,3.2,0,0,0,.43.17l.32.11a.29.29,0,0,0,0,.16l.27.52c.06.14.13.29.18.44s.15.4.22.61a7.46,7.46,0,0,1,.26,1.06c.13.75.22,1.5.28,2.26s.1,1.59.18,2.38.21,1.62.33,2.42.19,1.56.31,2.34c0,.37.12.75.16,1.13s.08.84.12,1.26.05.76.06,1.13,0,.8,0,1.2c0,.82-.12,1.64-.17,2.46s-.09,1.53-.12,2.3c-.08,1.58-.12,3.16-.13,4.74,0,.61,0,1.22,0,1.83,0,.31,0,.62,0,.93v.45c0,.15,0,.29,0,.44h0a.29.29,0,0,0,0,.22.3.3,0,0,0,.17.12.29.29,0,0,0,.18,0c.55.12,1.09.22,1.63.36l.8.22c.25.07.5.16.75.25l.86.33c.31.12.63.21.94.32l.83.27,1,.29.95.29.9.22.9.18c.29.06.58.11.87.18s.63.15.94.24l1,.27c.61.16,1.23.3,1.85.44l1.92.41c.59.12,1.18.19,1.78.28s1.29.19,1.93.3l.89.16q.52.09,1,.15c.3,0,.61.08.91.11l.9.1,1,.08c.31,0,.63,0,.94,0s.61,0,.91,0l1-.08c.61,0,1.22-.08,1.83-.11l1.92-.09c.61,0,1.23,0,1.84-.1s1.23-.14,1.84-.24l.46-.08h.09a1,1,0,0,0,.18,0l.15,0h.15l1-.2,1.86-.4c1.22-.27,2.44-.54,3.67-.77l.93-.17,1-.21c.64-.13,1.27-.27,1.9-.43l.56-.14h0l1.25-.35c.61-.17,1.21-.36,1.81-.55,1.18-.38,2.34-.81,3.48-1.3.59-.26,1.19-.52,1.77-.81s1-.59,1.56-.91l1.49-1,.68-.45.5-.32a.23.23,0,0,0,.17-.13.28.28,0,0,0,0-.25c0-.06,0-.13,0-.2a2.76,2.76,0,0,0-.08-.27l-.15-.55c-.1-.37-.21-.74-.31-1.11s-.22-.76-.32-1.15-.18-.74-.29-1.11c0-.18-.09-.36-.13-.54s-.06-.34-.1-.51c-.08-.38-.18-.76-.27-1.13s-.16-.75-.23-1.13-.13-.7-.2-1c-.09-.57-.19-1.14-.29-1.71h0v0a.5.5,0,0,0,0-.12.17.17,0,0,0,0-.07v0s0,0,0-.07v0h0a2.56,2.56,0,0,0,0-.27h0v0h0v0a.15.15,0,0,0,0-.07h0v0h0s0-.06,0-.09a.08.08,0,0,0,0,0v0a.43.43,0,0,1,0,0c0-.13,0-.27-.07-.4-.1-.6-.21-1.19-.32-1.78a10.37,10.37,0,0,1-.15-1.1c0-.39,0-.79,0-1.19s0-.77,0-1.15,0-.81,0-1.21,0-.76.07-1.14,0-.82.07-1.24,0-.79.06-1.18,0-.77.06-1.15a2.44,2.44,0,0,0,0-.27h0c.82-.09,1.62-.27,2.42-.42l.64-.11h.06l.06,0h0l.14,0h.1l.09,0,.38-.07c.46-.08.91-.2,1.37-.3s.89-.23,1.32-.37.87-.28,1.29-.44.92-.35,1.38-.52L95,91.56c.67-.24,1.32-.53,2-.83l.46-.22a4.09,4.09,0,0,0,.46-.25l.41-.26c.14-.1.28-.19.41-.3l.21-.18.24-.21.3-.33c.1-.12.19-.25.28-.38s.22-.32.32-.49.37-.64.56-1,.35-.54.54-.81.53-.74.8-1.1.54-.77.81-1.16l.36-.53c.13-.18.26-.37.38-.56a1.19,1.19,0,0,0,.13-.25,1,1,0,0,0,.06-.29c0-.11,0-.22,0-.33s0-.47,0-.7c0-1,0-2,0-3,0-.48,0-1,0-1.44s0-1,0-1.52,0-1,0-1.44S103.78,73.1,103.78,72.65ZM84.31,107.13v0Zm3.55-13.94ZM103.15,76c0,1,.06,2,.08,3,0,.57,0,1.14,0,1.72s0,1.09,0,1.63a.78.78,0,0,1,0,.16,1.11,1.11,0,0,1-.09.19l-.09.14-.16.22-.33.48-.74,1.08c-.41.56-.83,1.11-1.22,1.69-.22.33-.43.67-.64,1s-.36.63-.56.93c-.1.14-.2.28-.31.41s-.28.28-.42.42h0a8.5,8.5,0,0,1-.77.57l-.47.27a4.93,4.93,0,0,1-.46.23l-1,.47c-.37.16-.75.3-1.13.44l-1.09.38c-.4.15-.78.31-1.18.45s-.73.26-1.1.39-.79.26-1.2.37l-.14,0c.14-.18.28-.37.43-.55.24-.33.49-.65.74-1l.76-1,.51-.69c.39-.52.77-1,1.15-1.57s.89-1.21,1.34-1.82A.14.14,0,0,0,95,86a.11.11,0,0,0-.09-.09l-.07,0-1.17,1.61-1,1.39-.5.67-1,1.27c-.27.36-.55.72-.82,1.09l-.41.54-.21.26L89,93l-.56.11c.49-.58,1-1.17,1.45-1.76l.79-1L91,90l.46-.54.13-.13a.11.11,0,0,0,0-.14l-.06,0a.11.11,0,0,0-.07,0c-.08.1-.17.19-.26.29l-.26.3-.27.31a1.34,1.34,0,0,0-.11.14c-.25.3-.51.6-.76.91L88.24,93l-.06.08-.32.07h-.07l-.1,0h0l-.14,0h-.06l-.34.06-.75.13-1.25.25c-.25,0-.49.07-.74.09l-.78.09L82,94.15a.37.37,0,0,0-.2.09.37.37,0,0,0-.07.2.34.34,0,0,0,.09.2.29.29,0,0,0,.2.07l1.18-.2.6-.1h.13c0,.35,0,.7,0,1s-.06.81-.08,1.2,0,.78,0,1.17-.06.8-.08,1.2,0,.76-.05,1.13,0,.79,0,1.19,0,.8,0,1.2c0,.19,0,.39,0,.59s.05.38.08.58c.08.51.18,1,.28,1.55l.09.57c0,.09,0,.18,0,.27s0,.07,0,.11,0,.05,0,.08v0s0,0,0,.08,0,0,0,.06h0s0,0,0,0l0,.17,0,.17h0v0s0,.08,0,.12,0,0,0,.07v0a.15.15,0,0,0,0,.07c.13.77.25,1.54.4,2.31.08.39.15.78.23,1.18s.19.82.29,1.23.15.74.24,1.12c0,.2.1.4.16.6s.09.35.13.52c.1.39.19.77.31,1.15s.21.73.31,1.1.13.49.2.73.07.25.11.37v0l-.18.12c-.2.12-.4.24-.59.37-.4.26-.79.53-1.19.78l-.07,0-.18.09-.93.48-1.61.82-2.5,1.12-.32.15-.08,0-.26.11-.74.31-1.17.38c-.59.19-1.2.36-1.8.53s-1.23.33-1.86.48l-1,.22-.84.18c-.63.13-1.26.24-1.89.36l-1.9.39c-1.38.3-2.75.62-4.13.88h-.06l-.18,0-.15,0H63l-.46.07-1,.16q-.46.06-.93.09c-.31,0-.62,0-.94.06l-1.88.08c-1,0-2,.1-3,.19l-.74,0c-.26,0-.52,0-.79,0-.5,0-1,0-1.49-.06h0l-1.83-.2q-.45,0-.9-.12l-1-.17c-.6-.11-1.2-.22-1.81-.3s-1.32-.19-2-.3-1.19-.23-1.77-.36l-1.93-.45c-.6-.15-1.18-.33-1.77-.47l-.52-.13-.5-.11c-.31-.06-.62-.11-.92-.18s-.85-.18-1.27-.3-.9-.28-1.35-.42-.87-.27-1.3-.41l-1.21-.41c-.3-.12-.59-.24-.89-.34s-.63-.2-.95-.28l-.9-.23-1-.21v-.34c0-.18,0-.36,0-.53,0-.39,0-.78,0-1.16,0-.8,0-1.59,0-2.39,0-1.57.09-3.15.17-4.72,0-.78.08-1.56.15-2.34s.12-1.59.11-2.39c0-.39,0-.79,0-1.19s-.06-.8-.1-1.2c-.09-.8-.24-1.59-.33-2.39-.05-.38-.09-.76-.15-1.13s-.11-.78-.16-1.17-.12-.81-.17-1.21-.07-.8-.1-1.2c-.06-.78-.09-1.56-.19-2.34a14,14,0,0,0-.42-2.4c-.05-.16-.1-.31-.16-.47l-.07-.19c0-.08-.05-.15-.08-.22s-.13-.31-.21-.46L26.06,91l.52.18.07,0a.38.38,0,0,0,.21,0,.39.39,0,0,0,.17-.14.26.26,0,0,0,0-.21.25.25,0,0,0-.13-.17c-.33-.12-.65-.24-1-.34s-.55-.16-.82-.26L24.83,90a1.91,1.91,0,0,1-.27-.16c-.15-.11-.29-.23-.43-.35l-.51-.5c-.33-.31-.67-.62-1-.92s-.71-.6-1.09-.87-.71-.48-1.08-.71l-1.2-.77-.53-.34.31-.53.66-1.09.57-.94.57-.92,1.66-2.72a.08.08,0,0,0,0-.12h0a.11.11,0,0,0-.09,0c-.94,1.52-1.88,3.06-2.81,4.6l-.65,1.06-.31.53L18,85l-1.21-.67-1.17-.72-.21-.12a1.22,1.22,0,0,1-.17-.15,2.44,2.44,0,0,1-.28-.43,8.88,8.88,0,0,1-.36-.9c.17-.29.34-.58.52-.87l.21-.35.12-.2.35-.55.21-.34.1-.15c.08-.12.16-.24.23-.36l.93-1.39,2.28-3.46a.09.09,0,0,0,0-.12h-.07l-.05,0-3.18,4.8-.33.51-.59.93c-.07.11-.14.24-.22.36l-.21.34-.34.59,0-.07c-.15-.43-.28-.87-.4-1.31s-.23-.9-.34-1.35l1-1.75.38-.65c.08-.13.16-.25.23-.38l.59-1c.36-.59.73-1.18,1.1-1.77l1.58-2.5a.1.1,0,0,0,0-.12h0a.11.11,0,0,0-.09,0c-.56.89-1.13,1.78-1.69,2.68l-.61,1c-.19.29-.37.59-.55.89l-.63,1-.23.39-.33.56c-.16.26-.31.53-.47.8l-.29.5c-.11-.44-.22-.87-.34-1.31-.2-.78-.36-1.57-.53-2.35a.1.1,0,0,0,.05,0c.47-.76,1-1.51,1.44-2.26.08-.12.16-.24.23-.36l.48-.72.57-.85.58-.87c.1-.14.2-.29.29-.44.22-.32.43-.65.65-1l.66-1a.1.1,0,0,0,0-.13h-.08a.1.1,0,0,0-.05,0l-.54.84-.42.64c-.16.23-.31.46-.46.7l-.16.24-.86,1.27-.58.87c-.1.16-.2.32-.31.47l-.12.19-.53.83c-.29.44-.57.89-.86,1.34a1.16,1.16,0,0,0,0-.18c-.07-.35-.14-.69-.22-1l.52-.87c.08-.12.15-.24.22-.36l.11-.17.39-.63.23-.34.44-.65c.11-.17.22-.34.34-.51l.24-.35,1.46-2.07c.49-.71,1-1.41,1.46-2.12a.09.09,0,0,0,0-.07.07.07,0,0,0,0,0h-.07a.08.08,0,0,0-.05,0l-1,1.41-.61.87L14.67,70l-.15.21c-.14.22-.29.44-.44.66l-.3.45-.08.12-.21.34-.3.46-.35.58-.37.62c-.11-.49-.21-1-.31-1.48,0,0,0,0,0,.06L12,71.13c0-.27-.07-.54-.11-.81-.07-.6-.16-1.19-.25-1.79s-.14-1-.2-1.54l0,0h0l.36-.5h0l.61-.87h0l0,0h0l.12-.17,0,0c.28-.38.55-.77.82-1.16h0l.12-.17v0h0l0,0,0,0,0,0h0l.09-.13h0l.13-.18,0,0,1.15-1.61,0,0,0,0s0,0,0,0L15,62h0l.12-.17h0l0,0,0,0h0v0h0c.14-.21.29-.42.44-.62l.51-.73a.17.17,0,0,0,0-.07l-.05-.05h-.07s0,0-.06,0l-.93,1.31h0l0,0h0l0,0v0l-.1.15h0l-.07.09a.43.43,0,0,0,0,.07h0l-.22.31-.9,1.26h0l-.11.15h0l-.1.14v0l0,.07h0v0h0l-.11.16h0c-.28.38-.55.77-.82,1.15h0l-.12.17v0l0,0h0l-.61.86h0v0h0l-.25.35a10.69,10.69,0,0,1-.1-1.27.09.09,0,0,0,.11,0l.76-1c.15-.21.3-.41.44-.62s.19-.27.29-.41l.39-.58.24-.36.78-1.18.54-.83a.1.1,0,0,0,0-.13h-.07s0,0,0,0l-1.38,2.09-.3.46c-.18.25-.35.51-.52.76h0c-.4.55-.79,1.1-1.2,1.64v0c0-.09,0-.18.05-.28a2.67,2.67,0,0,1,.16-.53c.09-.21.18-.42.29-.64s.14-.26.21-.39l.18-.33q.4-.73.84-1.44l.79-1.31.49-.78.43-.65c.51-.72,1-1.44,1.56-2.16S17.4,55.23,18,54.5s1.17-1.49,1.74-2.24l.74-1,.82-1.17.34-.44c.12-.16.24-.31.37-.46l.29-.36a2.09,2.09,0,0,0,.2-.22l.2-.18.13-.11a2.26,2.26,0,0,1,.38-.25l.33-.17a7.33,7.33,0,0,1,1-.31l.8-.17.75-.11.66-.06c.53,0,1.06-.08,1.59-.09s1,0,1.52,0l.82,0,.7.06.62.07.77.13,1.46.28,1.5.28c.47.09.93.2,1.39.31l2.79.69c.94.24,1.88.45,2.8.7l1.55.41c.47.13.94.24,1.41.38l1.28.38c.45.12.91.23,1.36.33l2.77.67c.43.11.88.17,1.33.24l1.5.22,1.45.25,1.32.21,1.58.27c.47.09.95.17,1.43.24l1.42.18,1.47.19,1.5.17,1.5.13,1.53.13c.5,0,1,.06,1.5.08l1.7.08,1.53.12h-.07c.94.1,1.89.21,2.83.35a20.61,20.61,0,0,1,2.9.56c.44.14.88.28,1.32.44l1.39.51,2.69.93c.93.32,1.85.65,2.79,1,.46.15.93.29,1.4.42l1.46.41,1.33.38,1.5.39c.46.11.91.23,1.37.36l1.42.36,1.23.31c.42.11.85.24,1.27.37.78.24,1.57.47,2.35.76a6,6,0,0,1,1.2.58,2.43,2.43,0,0,1,.29.26l.13.17c.1.13.19.28.28.42l.15.27.33.56c.28.48.57,1,.82,1.48a7.92,7.92,0,0,1,.34.85,7,7,0,0,1,.23.9c0,.2.07.39.1.59s.07.55.1.82q.09.69.15,1.38c0,.48.08,1,.08,1.43,0,.25,0,.49,0,.74s0,.55,0,.83C103.18,74.15,103.13,75.07,103.15,76Z" transform="translate(-10.77 -46.61)"/><path class="cls-1" d="M84.76,106.48v0h0Z" transform="translate(-10.77 -46.61)"/><path class="cls-1" d="M84.26,106.85h0v0Z" transform="translate(-10.77 -46.61)"/><path class="cls-1" d="M84.8,106.73v0h0Z" transform="translate(-10.77 -46.61)"/><path class="cls-1" d="M72.4,74.54c-.38.16-.76.33-1.13.51s-.76.38-1.14.57l-1,.56c-.35.2-.69.41-1,.63s-.68.46-1,.69l-.9.63c-.35.25-.69.51-1,.78a4,4,0,0,0-.45.37l-.2.19-.23.24a5,5,0,0,0-.71,1,3.37,3.37,0,0,0-.28.61,2.58,2.58,0,0,0-.08.26,3.38,3.38,0,0,0-.08.34c-.08.36-.12.74-.19,1.11s-.16.77-.23,1.15-.16.82-.21,1.23-.09.88-.12,1.32a19.58,19.58,0,0,0-.05,2.3c0,.81.07,1.62.13,2.43s.11,1.62.18,2.42c0,.49.1,1,.15,1.47a.28.28,0,1,0,.56,0c0-.43-.1-.85-.14-1.28s-.07-.78-.1-1.18a.28.28,0,0,0,0-.09h0a.09.09,0,0,0,0-.07v-.12l.18-.22.25-.28.18-.21.35-.38.74-.81a1.48,1.48,0,0,0,0,.21c0,.46-.05.92-.08,1.38a.09.09,0,0,0,.1.09.07.07,0,0,0,.06,0,.09.09,0,0,0,0-.06l.09-1.8.33-.36a.09.09,0,0,0,0-.13.09.09,0,0,0-.06,0,.09.09,0,0,0-.07,0l-.18.2c0-.22,0-.44,0-.66l.78-.78a.09.09,0,0,0,0-.13.07.07,0,0,0-.06,0,.09.09,0,0,0-.07,0l-.63.62,0-.64.15-.14.81-.76a.09.09,0,0,0,0-.13.09.09,0,0,0-.06,0h0a.09.09,0,0,0-.06,0l-.81.75h0l0-.59L66,87s0,0,0-.06a.09.09,0,0,0,0-.07l-.06,0a.09.09,0,0,0-.07,0l-.72.63v-.09c0-.38,0-.76.07-1.14l.35-.34s0-.09,0-.13a.08.08,0,0,0-.06,0,.11.11,0,0,0-.07,0l-.2.19,0-.6.08-.07a.1.1,0,0,0,0-.14l0,0,0-.62,2.06-2.16a.09.09,0,0,0,0-.13.09.09,0,0,0-.06,0,.09.09,0,0,0-.07,0l-1.8,1.88,0,0-.08.07,0-.49.43-.36a.07.07,0,0,0,0-.06.09.09,0,0,0,0-.07.09.09,0,0,0-.06,0H65.7c-.11.09-.21.19-.32.27v-.15L65.7,83c.11-.11.21-.23.31-.35l.35-.41.08-.1.21-.26c.13-.16.27-.32.4-.49a.09.09,0,0,0,0-.13s0,0-.06,0a.09.09,0,0,0-.07,0l-.37.46-.22.27-.09.11-.66.77-.16.18V82.8h0l.52-.45a.07.07,0,0,0,0-.06.16.16,0,0,0,0-.07l-.06,0h0a.09.09,0,0,0-.07,0l-.38.33,0-.48,0-.44,1-.54a.09.09,0,0,0,0-.13.08.08,0,0,0-.07,0h-.06l-.87.48,0-.67,1.26-.65a.09.09,0,0,0,0-.13.1.1,0,0,0,0,0h0l0,0-1.14.58,0-.38,1-.4a.1.1,0,0,0,.06,0,.09.09,0,0,0,0-.07.1.1,0,0,0-.09-.07h0l-.1,0,.4-.51.15-.2.36,0-.19.26a.09.09,0,0,0,0,.07.09.09,0,0,0,0,.06.09.09,0,0,0,.07,0,.07.07,0,0,0,.06,0L67.5,79l.57.08-.48.61a.09.09,0,1,0,.13.12l.56-.7.74.09a.06.06,0,0,0,.07,0,.07.07,0,0,0,0-.06.09.09,0,0,0,0-.07l-.06,0-.65-.08a.76.76,0,0,0,.08-.11c.11-.13.21-.27.31-.41s.19-.27.28-.4l.76.17a.09.09,0,0,0,0-.18l-.68-.15v0l.54-.76.77.14,1.51.3a.09.09,0,0,0,0-.18L70.56,77l-.19,0s0,0,0,0l.69-1,0,0c.06-.07.11-.15.17-.23a.14.14,0,0,0,0-.06v0l.22-.11.51-.24.6-.26,1.14-.49.44-.19h0l-.17.21-.24.3c-.13.15-.25.31-.37.47l-.5.63a.14.14,0,0,0,0,.07.09.09,0,0,0,0,.06.09.09,0,0,0,.13,0L73.86,75l.2-.24.22-.26a2.52,2.52,0,0,1,.21-.25l.05-.06,1.15-.47L74.61,75c-.38.45-.77.9-1.14,1.36a.09.09,0,0,0,0,.13.09.09,0,0,0,.13,0c.38-.46.76-.9,1.15-1.36l1.2-1.4a.08.08,0,0,0,0-.09c.56-.22,1.13-.43,1.71-.62l1-.32a8.19,8.19,0,0,1,.85-.23,1,1,0,0,1,.24,0,1.2,1.2,0,0,1,.37.1,3.25,3.25,0,0,1,.43.18c-.29.39-.57.78-.86,1.16a.14.14,0,0,0,0,.07.11.11,0,0,0,.09.09.09.09,0,0,0,.07,0l.89-1.21c.2.1.39.24.59.36a.28.28,0,0,0,.26-.49l-.5-.31a4.44,4.44,0,0,0-.49-.24L80.26,72l-.13,0a1.59,1.59,0,0,0-.38-.07h-.08a2.35,2.35,0,0,0-.58.1c-.37.09-.74.21-1.1.33l-1.17.4C75.32,73.25,73.86,73.91,72.4,74.54Zm-8.67,8.93.62-.61,0,0c0,.11,0,.23,0,.34s0,.22,0,.33l-.09.08-.55.5Zm.39,4.94c-.27.25-.54.51-.8.78l0-.4.06-.7.27-.3.27-.28.22-.24C64.15,87.65,64.14,88,64.12,88.41Zm0,.58c0,.11,0,.23,0,.34l-.09.09-.29.32-.17.19-.21.25a.09.09,0,1,0,.14.12c.12-.14.24-.29.37-.43s.15-.17.23-.26c0,.11,0,.22,0,.33s0,.21,0,.31l-.21.21-.31.32-.27.28-.07.08c0-.37,0-.73.07-1.09l0-.38,0-.3a.09.09,0,0,0,.1,0c.23-.24.47-.47.7-.69C64.11,88.78,64.11,88.88,64.1,89Zm0-1.86a1.8,1.8,0,0,0-.19.2c-.11.11-.21.22-.31.34l-.12.12.06-.75.71-.66c0,.11,0,.21,0,.31s0,.21,0,.31Zm0-.89-.58.53c0-.14,0-.27,0-.41s0-.19,0-.29l.15-.13.18-.17a.1.1,0,0,0,0,.09.09.09,0,0,0,.13,0l.18-.19c0,.15,0,.31,0,.46Zm.06-.95-.55.51v-.08a1.64,1.64,0,0,0,0-.22c0-.1,0-.19,0-.29l.6-.53,0,0,0,.55A.94.94,0,0,1,64.15,85.29Zm.17-1.52V84a2.18,2.18,0,0,0,0,.25v0l-.08.09a.09.09,0,0,0,0,.12l-.56.49,0-.6Zm-.86,1.35-.32.28a.09.09,0,0,0,0,.13.11.11,0,0,0,.07,0,.09.09,0,0,0,.07,0l.16-.15v.16c0,.11,0,.23,0,.34V86l-.06,0-.18.18-.21.21a.09.09,0,0,0,.14.12l.18-.18a.94.94,0,0,0,.1-.1l0,.42,0,.28-.34.32a.09.09,0,0,0,0,.13.09.09,0,0,0,.13,0,1.54,1.54,0,0,0,.19-.17l-.06.79-.08.09-.08.09a1,1,0,0,0-.13.16.14.14,0,0,0,0,.06.09.09,0,0,0,0,.07.09.09,0,0,0,.13,0,1.71,1.71,0,0,1,.11-.14v0l-.06.8c0,.36-.06.71-.08,1.07S63,91,63,91.35v0c0-.31,0-.62-.06-.94l-.06-1.05c0-.33,0-.67,0-1v-.53c0-.19,0-.38,0-.57s0-.66.07-1v0c0-.38.07-.76.13-1.14l.06-.32.38-.34Zm.46,6.23-.33.37-.2.22-.23.27,0,.05c0-.22,0-.45,0-.67l0,0,.19-.1.18-.11.21-.12a.08.08,0,0,0,0-.12.08.08,0,0,0-.12,0l-.21.12-.23.13,0,0,.2-.21a3,3,0,0,1,.25-.25c.09-.11.19-.21.29-.31l0,.52a.07.07,0,0,0,0,.06.09.09,0,0,0,.06,0,.09.09,0,0,0,.07,0Zm.89-1-.66.72a.11.11,0,0,0,0-.06c0-.23,0-.47,0-.7l.14-.15c.16-.17.33-.33.49-.49C64.84,89.93,64.83,90.15,64.81,90.38Zm-.58-.33c0-.1,0-.2,0-.3s0-.23,0-.34l.07-.08.22-.22.1-.1.24-.23,0,.65Zm.69-1.63v.09l-.4.37-.06.06-.18.19,0-.64.64-.58Zm0-.77-.64.58c0-.38,0-.77,0-1.15l.18-.18.21-.2.28-.27C65,86.83,65,87.24,65,87.65Zm.1-1.73v.24l-.43.4-.17.17-.08.08c0-.19,0-.37,0-.56v0l.3-.29.38-.36C65.07,85.68,65.07,85.8,65.06,85.92Zm0-.64c-.17.18-.35.35-.53.52l-.15.14c0-.16,0-.32,0-.48l.7-.74C65.12,84.91,65.11,85.1,65.09,85.28ZM64.45,85v-.11c0-.14,0-.29,0-.43l.23-.21.47-.4,0,.51Zm.74-1.39-.35.29.35-.39Zm0-.4L65,83.5l-.48.53,0-.43.59-.53.11-.1Zm0-.52-.25.22-.46.41,0-.46c0-.08,0-.15,0-.23l.07-.07.49-.46a.11.11,0,0,0,0-.14l-.06,0A.09.09,0,0,0,65,82l-.42.39v-.13s0-.1,0-.15l.68-.37C65.28,82.06,65.26,82.39,65.24,82.71Zm.07-1.19-.68.36c0-.09,0-.19,0-.29a.11.11,0,0,0-.09-.09.09.09,0,0,0-.07,0,.08.08,0,0,0,0,.07l0,.39-.42.23a.09.09,0,0,0,0,.12.09.09,0,0,0,.13,0l.3-.16c0,.05,0,.09,0,.14s0,.14,0,.22l-.17.15-.48.48c0-.16,0-.31,0-.46a.1.1,0,0,0-.1-.09h0a.1.1,0,0,0-.09.1c0,.17,0,.35,0,.52v.11a.57.57,0,0,1-.11.11.09.09,0,0,0,0,.13.08.08,0,0,0,.09,0c0,.21,0,.42,0,.62l-.33.31c0-.22.07-.44.12-.65.07-.37.15-.75.21-1.12,0-.2.06-.39.1-.59a4.82,4.82,0,0,1,.11-.52c.51-.28,1-.54,1.54-.81l.09,0Zm0-.9-.21.11-1.35.7c.06-.15.13-.3.2-.44l.17-.27a0,0,0,0,0,0,0l1.16-.49C65.37,80.36,65.36,80.49,65.36,80.62Zm1.29-1.68-.6.78v0l-.46.2v-.16a.1.1,0,0,0-.09-.09h0a.07.07,0,0,0-.06,0s0,0,0,.07V80l-1,.45a4.23,4.23,0,0,1,.33-.41l.23-.24a2.5,2.5,0,0,1,.24-.22l-.06,0,.46-.37c.17-.14.35-.27.53-.4l.11-.08h0l.51.06Zm.39-.22c.11-.13.21-.27.31-.4a.14.14,0,0,0,0-.07.09.09,0,0,0,0-.06.07.07,0,0,0-.06,0,.09.09,0,0,0-.07,0l-.38.51-.43-.06.58-.41.8-.56a.1.1,0,0,0,.06,0l.35.07,0,.06-.24.3c-.17.2-.32.41-.48.62Zm1.72-.58-.5.67-.06.07-.57-.08.41-.53.23-.29.12-.14.5.11Zm.39-.57-.14.21-.48-.1.44-.52A.09.09,0,0,0,69,77l-.06,0a.11.11,0,0,0-.07,0l-.51.59L68,77.55h0c.33-.22.66-.45,1-.65h0l.58.11C69.42,77.2,69.29,77.39,69.15,77.57Zm1.08-.7a.08.08,0,0,0,0,.08l-.35-.07,0,0a.06.06,0,0,0,0-.07.09.09,0,0,0,0-.06h-.08s0,0-.05,0l-.07.1-.46-.08c.13-.08.26-.16.4-.23l.66-.36.7-.35Z" transform="translate(-10.77 -46.61)"/><path class="cls-1" d="M95.3,78.2h0v0a.19.19,0,0,1,0,.08,2.25,2.25,0,0,1,0,.58l0,.42c0,.34-.08.68-.13,1a.3.3,0,0,0,0,.21.28.28,0,0,0,.18.12.27.27,0,0,0,.33-.2c0-.23.07-.46.1-.69l.06-.71a5.47,5.47,0,0,0,0-.7,1.05,1.05,0,0,0-.08-.35.67.67,0,0,0-.23-.27,1.45,1.45,0,0,0-.79-.17h0a7.41,7.41,0,0,0-.8.07,4.81,4.81,0,0,0-.53.07c-.44.06-.88.14-1.32.22s-.77.18-1.15.28-.8.22-1.19.33c-.77.21-1.53.43-2.28.68s-1.58.54-2.37.81l-1,.34-1.29.45c-.75.27-1.49.56-2.24.84l-.54.21-.23.1-.31.13-.52.26c-.2.1-.39.21-.58.32a4.79,4.79,0,0,0-.68.42,2,2,0,0,0-.49.55,2.12,2.12,0,0,0-.14.31,2.91,2.91,0,0,0-.12.39,11.3,11.3,0,0,0-.22,1.16c-.05.41-.08.81-.11,1.21L76.59,88c0,.43,0,.87,0,1.3v0c0,.35,0,.7,0,1s0,.76,0,1.15,0,.76,0,1.14,0,.71,0,1.06l.06.51a2.74,2.74,0,0,0,0,.28,2,2,0,0,0,.06.23.3.3,0,0,0,.08.18.26.26,0,0,0,.2.07.28.28,0,0,0,.2-.08.29.29,0,0,0,.07-.2c0-.14-.06-.28-.09-.41s-.06-.48-.08-.71l.3-.33.49-.52.56-.58.35-.35.3-.3a.09.09,0,0,0,0-.13l-.06,0a.09.09,0,0,0-.07,0l-.3.28c-.11.12-.22.23-.34.34l-.58.61c-.16.16-.32.33-.47.5l-.2.21s0-.05,0-.08c0-.36,0-.73,0-1.1s0-.78,0-1.17l0-1.13c0-.07,0-.15,0-.22l.21-.21s.11-.1.16-.16l.1-.09c0,.07,0,.13,0,.2a.62.62,0,0,0,0,.13,1.28,1.28,0,0,1,0,.19l-.28.27a.09.09,0,0,0,.13.13l.14-.14,0,.87a3.19,3.19,0,0,1-.26.26.1.1,0,0,0,.14.13l.11-.12v.25a.09.09,0,0,0,.09.09.1.1,0,0,0,.09-.1c0-.14,0-.28,0-.42l.39-.39c0,.24,0,.48-.07.71a.15.15,0,0,0,0,.07.08.08,0,0,0,.07,0,.07.07,0,0,0,.06,0,.09.09,0,0,0,0-.06l.06-.65v0l0-.29.2-.19c.39-.38.78-.76,1.16-1.15a.09.09,0,0,0,0-.13l-.06,0a.11.11,0,0,0-.07,0L78.34,90l0,0,.09-.87c.31-.28.63-.55,1-.82a.11.11,0,0,0,0-.07.07.07,0,0,0,0-.06.09.09,0,0,0-.06,0h0l-.06,0-.79.69c0-.17,0-.34,0-.5l1.25-1a.1.1,0,0,0,0-.06.1.1,0,0,0,0-.07.07.07,0,0,0,0,0h-.07l-.88.7-.26.21.06-.51,0,0a2.39,2.39,0,0,1,.26-.21L80,86.4s0,0,0-.07a.09.09,0,0,0,0-.06.07.07,0,0,0-.06,0l-.07,0-1.1.92-.14.12.06-.57.15-.14.42-.36.17-.16c.25-.23.5-.46.74-.7a.09.09,0,0,0,0-.13.09.09,0,0,0-.06,0,.09.09,0,0,0-.07,0l-.73.69-.15.13-.4.37,0,0c0-.33.07-.65.11-1v0l.73-.58a.07.07,0,0,0,0-.06.09.09,0,0,0,0-.07.12.12,0,0,0-.08,0h0l-.6.48.06-.53,0,0,0,0a.12.12,0,0,0,0,.1.08.08,0,0,0,.1,0l.19-.08.15-.08.18-.11.21-.13a.09.09,0,0,0,0-.13.09.09,0,0,0-.13,0l-.21.13-.07,0,.12-.1.21-.18.45-.39c.47-.39.94-.79,1.42-1.17l1-.83.26-.2.3-.23.59-.2a.1.1,0,0,0,.08,0,.08.08,0,0,0,.08-.1h0l.53-.19.24-.08-.11.1-.33.28-.15.13v0s0,0-.06,0h0l0,0L82.55,82.4l-.31.26-.58.51-.34.3-.56.53a1.14,1.14,0,0,0-.11.11l-.32.31-.42.43-.41.41a.11.11,0,0,0,0,.14.09.09,0,0,0,.13,0c.3-.32.61-.63.93-.94l.39-.38.55-.52.09-.08.3-.26.51-.45.38-.32.63-.53.09-.08h0l.12-.11a.1.1,0,0,0,.1.11h.09l.07,0,.07,0,.14-.08a.11.11,0,0,0,0-.13.1.1,0,0,0,0,0l0,0,.21-.18.34-.29.43-.37,1.61-.55h0c-.55.47-1.09.93-1.63,1.41a0,0,0,0,0,0,.06.09.09,0,0,0,0,.07l.06,0a.09.09,0,0,0,.07,0c.64-.57,1.3-1.13,2-1.69.57-.2,1.14-.39,1.72-.56l.31-.08-.63.44-.53.39-.6.44-.31.22-.11.08-.15.12-.08.08-.08.1a.14.14,0,0,0,0,.07.09.09,0,0,0,0,.06.09.09,0,0,0,.13,0,.39.39,0,0,1,.08-.1l.08-.08a3.55,3.55,0,0,1,.31-.23l.23-.18.6-.44.55-.39.82-.59a.08.08,0,0,0,0-.09l1.23-.35.45-.12.53-.14.51-.12.42-.08.57-.09-.91.66-.62.45c-.49.37-1,.74-1.48,1.13a.13.13,0,0,0,0,.06.1.1,0,0,0,0,.07.1.1,0,0,0,0,0h.07c.48-.39,1-.75,1.46-1.12.2-.15.4-.3.61-.44l1-.74a.1.1,0,0,0,0-.13l.2,0,.53-.06.37,0-.39.37-.28.26-.21.21c-.1.1-.2.19-.29.29l-.26.25-.64.65a.1.1,0,0,0,.14.13l.61-.63.28-.28.27-.26c.08-.07.15-.16.24-.23l.25-.24.56-.52a1.47,1.47,0,0,1,.21,0A1,1,0,0,1,95.3,78.2Zm0,0,0,0,0,0Zm0,0Zm-18,7.62c0-.23,0-.47.1-.7a6.51,6.51,0,0,1,.23-1,2,2,0,0,1,.18-.32,1.62,1.62,0,0,1,.25-.28,4.79,4.79,0,0,1,.53-.34L79,83a3.36,3.36,0,0,1,.42-.22l.4-.2c.17-.07.33-.15.5-.21l.57-.22.16-.06-.11.08-.76.62-.79.65-.81.68a.11.11,0,0,0,0,.07l0,.07.07,0s0,0,.07,0l0,0c0,.12,0,.23,0,.35l-.19.17-.38.33.06-.57a.13.13,0,0,0,0-.06l1.63-1.41s0,0,0-.07a.09.09,0,0,0,0-.06s0,0-.06,0h0a.09.09,0,0,0-.07,0c-.57.48-1.14,1-1.7,1.47a.09.09,0,0,0,0,.13s0,0,0,0c0,.24,0,.49-.07.74l-.55.49a.09.09,0,0,0,0,.13.09.09,0,0,0,.07,0,.09.09,0,0,0,.06,0l.39-.35,0,.43-.58.48C77.27,86.25,77.29,86.05,77.31,85.84Zm.41,1.46-.14.12h0l-.12.09-.13.14a.08.08,0,0,0,0,0,.16.16,0,0,0,0,.07s0,.07,0,.11a.11.11,0,0,0,.1.09.1.1,0,0,0,.09-.1.08.08,0,0,0,0,0l0,0,.06-.07.13-.12h0l0,0c0,.19,0,.37,0,.55v0l-.35.32-.18.18c0-.3,0-.59,0-.89s0-.7.08-1.05l.44-.35.15-.12v.07Zm-.39,1.8-.16.15-.07.08v-.42l.32-.3.2-.19s0,.1,0,.15,0,.19,0,.29Zm.36,1.5c0-.16,0-.32,0-.49s0-.25,0-.38l.16-.15.24-.22.07-.06,0,.38c0,.17,0,.34-.05.51S77.83,90.47,77.69,90.6Zm.51-1.55c-.15.12-.29.25-.43.38l0,0v0c0-.14,0-.28,0-.41v0l.23-.2.27-.23-.06.51Zm.09-.79a.52.52,0,0,0-.11.1l-.37.31,0,0,0-.46,0,0,.27-.24.21-.19C78.33,87.93,78.31,88.1,78.29,88.26Zm.11-1.1,0,.34-.38.33-.15.13v0c0-.18,0-.36,0-.54l.33-.28.21-.18Zm.06-.5-.3.26-.24.21c0-.15,0-.29,0-.44h0c0-.21,0-.42.07-.63l.22-.17.33-.27C78.53,86,78.5,86.32,78.46,86.66Zm.14-1.28c-.18.13-.35.27-.52.41l0,0c0-.15,0-.3,0-.45l.54-.49,0,0C78.63,85,78.62,85.2,78.6,85.38Zm.5-.8Zm3.2-2.84-1.09.88-.38.32-.66.54-.26.23s0,0,0,0,0,0-.06,0h0a.09.09,0,0,0-.07,0l-.77.66-.09.08,0-.34.14-.12,0,0c.47-.4.95-.79,1.43-1.18s.73-.59,1.11-.89l.38-.14.57-.21A2.11,2.11,0,0,0,82.3,81.74Z" transform="translate(-10.77 -46.61)"/><path class="cls-1" d="M60.46,69.64a.26.26,0,0,0,.07-.2.29.29,0,0,0-.09-.2q-.13-.17-.3-.33a1.64,1.64,0,0,0-.35-.29,2.71,2.71,0,0,0-.87-.38,1.84,1.84,0,0,0-.47-.06,4.2,4.2,0,0,0-1.35.3,5.39,5.39,0,0,0-.8.39,5.11,5.11,0,0,0-.48.33c-.19.14-.38.29-.56.45l.06-.05-.47.39.06,0c-.62.52-1.25,1-1.86,1.54-.16.14-.32.27-.48.42l-.46.43-.43.44c-.12.12-.25.25-.36.38-.44.51-.85,1-1.25,1.57s-.81,1.1-1.2,1.66l0-.06-.24.35-.07,0-.09.16,0,.07h0l-.27.41c-.21.33-.42.66-.61,1a7.64,7.64,0,0,0-.53,1.12c-.14.37-.26.76-.37,1.14,0,.18-.1.36-.14.54s-.09.39-.13.59c-.09.39-.16.78-.22,1.17a7.26,7.26,0,0,0-.08,1.23c0,.2,0,.41,0,.61s.06.44.1.66c.07.39.18.77.28,1.16s.19.79.29,1.19c.2.77.43,1.53.65,2.3l.42,1.47c.08.25.15.5.22.75s.13.44.2.66l-.29.36-.2.24c-.11.14-.22.27-.34.4a.11.11,0,0,0,0,.14.09.09,0,0,0,.13,0l.34-.4c.07-.09.14-.16.2-.25l.25-.3a.28.28,0,0,0,.28.07.29.29,0,0,0,.18-.35c-.07-.18-.12-.37-.18-.55l-.15-.54c-.12-.38-.22-.76-.33-1.14s-.27-.93-.4-1.4a.08.08,0,0,0,0,0c0-.33,0-.65,0-1h0l0,0,.1-.05h0l.56-.23.54-.2,1.42-.53a.09.09,0,0,0,.06-.12.1.1,0,0,0-.09-.06h0L49,87.48l-.53.2-.3.12-.19.08-.11.05h0c0-.49,0-1,0-1.49h0l.33-.14v.11a.1.1,0,0,0,.19,0v-.17l.83-.33.66-.27.31-.12.44-.19.06,0a.09.09,0,0,0,0-.07.09.09,0,0,0-.08-.07h0l-.75.31-.3.12-.37.14-.57.23-.2.08c0-.11,0-.23,0-.35s0-.28,0-.42l.47-.18L49,85v.3a.1.1,0,0,0,.1.09.11.11,0,0,0,.09-.1c0-.12,0-.24,0-.36l1.23-.46a.09.09,0,0,0,.06-.12.1.1,0,0,0-.09-.07h0l-1.17.45c0-.27,0-.54,0-.8l.47-.19,1.22-.52a.09.09,0,0,0,.06,0,.17.17,0,0,0,0-.07.12.12,0,0,0-.09-.07h0l-1.23.51-.41.17c0-.25,0-.49,0-.74l2.14-.77a.09.09,0,0,0,0-.18h0l-2.09.76v-1l.2-.07,1-.4.32-.12.12,0,.67-.29a.1.1,0,0,0,0,0,.09.09,0,0,0,0-.07.13.13,0,0,0,0-.06h-.08l-.65.28-.42.16-1.08.41-.15.06v-.36c.1-.22.21-.43.31-.65l.07,0,.12,0,1.13-.38,1.14-.38a.09.09,0,0,0,.06-.12.08.08,0,0,0-.08-.07h0L50.72,80l-1.13.38h0l.12-.24.33-.64s0,0,0,0l.61-.24,1.22-.49c.05,0,.08-.06.06-.11a.1.1,0,0,0-.09-.07h0L50.59,79l-.41.17v0l.41-.75.34-.14.64-.25.66-.28a.08.08,0,0,0,0,0,.06.06,0,0,0,0-.07.11.11,0,0,0-.09-.07h0l-.64.27-.66.27-.14,0c.07-.12.14-.24.2-.36l.12-.2c.1-.16.2-.32.29-.48l.82-.33.73-.27A.09.09,0,0,0,53,76.4a.1.1,0,0,0-.09-.06h0l-.84.32-.49.2.62-1,.71-.21,1.22-.36a.09.09,0,0,0,.06-.12.08.08,0,0,0-.08-.06h0l-1.73.51.06-.1.41-.6c.08-.12.16-.23.23-.35l1-.3a.11.11,0,0,0,.06-.12.1.1,0,0,0-.09-.06h0l-.75.24c.12-.19.25-.37.37-.55l1.35-.25.05,0a.06.06,0,0,0,0-.07.1.1,0,0,0,0,0h-.08l-1.13.21.37-.49,1.71-.27a.09.09,0,0,0,.07,0,.14.14,0,0,0,0-.06.09.09,0,0,0,0-.07l-.06,0h0l-1,.16-.43.07h-.06l.24-.32.11-.13c0-.06.1-.12.15-.18l.27,0,.56-.09.38,0,.66-.1a.11.11,0,0,0,.09-.09.09.09,0,0,0,0-.07l-.06,0h0l-.62.09-.42.06-.8.12h0a.07.07,0,0,0-.06,0h0l-.78.13h0L54,72l.28-.41.11-.16.16,0,.87-.11,2-.24a.09.09,0,0,0,.09-.09s0-.09-.09-.09h0l-2,.24-.83.11c.09-.14.18-.27.28-.4a.07.07,0,0,0,0,0h0a.07.07,0,0,0,0,.06h.07l.51-.1h0l1.28-.22.5-.07.42-.06.46-.07a.06.06,0,0,0,.06,0,.07.07,0,0,0,0-.06.09.09,0,0,0-.09-.09h0l-.51.07-.51.07-.28,0-.36.07L55,70.62l.29-.23,0,0,0,0h0l.4-.34,0,0a.11.11,0,0,0,.08,0l.09,0,.1,0,.18,0h0l.67-.1.71-.08,1.64-.19a.11.11,0,0,0,.09-.1s0-.09-.09-.09h0l-1.79.21-.78.1-.43.06-.16,0a5.94,5.94,0,0,1,.85-.56l2.5-.24.17.1a3.47,3.47,0,0,1,.58.57.28.28,0,0,0,.2.08A.34.34,0,0,0,60.46,69.64ZM51.35,74c.23-.28.48-.56.74-.83l.61-.6.09,0h0l.67-.11L53,73h0l-.39.08a2.77,2.77,0,0,0-.41.12.09.09,0,1,0,.05.17,3.59,3.59,0,0,1,.41-.11l.22,0-.18.28-.14.2L51.4,74a.07.07,0,0,0,0,0,.09.09,0,0,0,0,.07.1.1,0,0,0,0,.06.08.08,0,0,0,.07,0l.95-.17-.49.72-.17.06-.41.14L51,75l-.62.24C50.69,74.81,51,74.39,51.35,74Zm-1.19,1.55.87-.33.33-.12.39-.14,0,0-.32.49-.11.16c-.07.1-.13.21-.2.32L51,76l-.53.16-.77.23-.19.06.4-.57ZM49,81.2l0,.07-.24.51-.43.16c0-.11,0-.22,0-.33l0-.58.4-.15.27-.1Zm-.9,3.26v.69l-.34.13,0-.75.32-.14h0Zm-.16-.22-.22.09v0c0-.25,0-.5,0-.76l.4-.15v.78Zm-.3-2.94.51-.2,0,.65V82l-.45.17C47.6,81.89,47.59,81.6,47.59,81.3Zm.47.91h0v.33c0,.22,0,.43,0,.65l-.4.16,0-1Zm.29-2.91.62-.25c0,.15,0,.3,0,.45l-.13.24-.19.08-.31.14c0-.18,0-.35,0-.53ZM49,78.11c0,.25,0,.5,0,.74l-.62.25c0-.25,0-.49,0-.73a.14.14,0,0,0,0-.06l.26-.11.35-.14Zm-.67,2,.37-.16c0,.06-.07.13-.1.2a1.09,1.09,0,0,0-.08.15l-.13.28a.1.1,0,0,0,0,.13h0l-.08,0-.1,0Zm.31.54-.12,0s0,0,0,0l.12-.26.08-.15c0-.09.09-.19.14-.28L49,79.9v.68ZM49.16,79l.12,0a2.53,2.53,0,0,1-.13.22Zm0-.2c0-.22,0-.44,0-.65V78l.65-.27.22-.09-.2.33-.14.23c-.09.16-.19.32-.28.49Zm1.06-1.42-1,.43c0-.21,0-.41,0-.62a.09.09,0,0,0-.09-.09h0a.1.1,0,0,0-.09.1l0,.68-.61.26c.26-.43.53-.85.82-1.26l0,0,.18-.25.91-.27.69-.21-.31.5Zm-3.5,6.13c0-.34.08-.67.14-1s.14-.69.22-1,.16-.66.26-1,.2-.65.32-1,.21-.45.33-.68.15-.28.23-.42c0,.26,0,.52,0,.78l-.09,0a.1.1,0,0,0,0,0,.17.17,0,0,0,0,.07.09.09,0,0,0,.12.06h0v.08l0,.59-.55.25a.08.08,0,0,0,0,.06.09.09,0,0,0,0,.07.07.07,0,0,0,.06,0,.09.09,0,0,0,.07,0l.13-.06h0l.29-.13,0,.65h0l-.52.21c0-.13,0-.26,0-.39a.09.09,0,0,0-.09-.09h0a.1.1,0,0,0-.09.1c0,.5,0,1,0,1.52l-.46.18a.08.08,0,0,0,0,0,.09.09,0,0,0,0,.07.1.1,0,0,0,.12.06l.4-.16,0,1-.33.14a.1.1,0,0,0-.05,0,.11.11,0,0,0,0,.08l0,0a.09.09,0,0,0,.07,0l.28-.13c0,.22,0,.43,0,.65v.12l-.06,0-.29.12-.08,0-.05,0-.08,0,0,0a.12.12,0,0,0-.05,0,.09.09,0,0,0,0,.07l0,.06a.11.11,0,0,0,.14,0s0,0,0,0l0,0,.47-.2c0,.25,0,.5,0,.75l-.27.1-.29.11-.08,0c0-.16-.07-.31-.1-.47s0-.25-.05-.38,0-.3,0-.44A5.63,5.63,0,0,1,46.72,83.49Zm.85,4.81c-.15-.54-.29-1.08-.42-1.63L47,85.94l0-.16.39-.16.21-.08,0,.83c0,.72,0,1.45.08,2.17C47.62,88.46,47.59,88.38,47.57,88.3Zm.5-2.58v.4l-.33.14,0-.79.1,0,.25-.1C48.06,85.47,48.06,85.59,48.07,85.72Zm.93-.94-.37.15-.39.15c0-.26,0-.52,0-.78L48.9,84,49,84C49,84.26,49,84.52,49,84.78Zm-.19-.91-.58.23V84c0-.23,0-.45,0-.68l.37-.14.36-.13c0,.25,0,.5,0,.75ZM49,82v.46c0,.12,0,.24,0,.35l-.4.15-.33.13v-1l.33-.13c0,.1-.09.2-.14.3a.1.1,0,1,0,.17.09l.22-.48.14,0Zm0-.36,0,0v0Zm.21-.86v-.11h.06Zm.47-.95c-.09.19-.19.39-.29.58l-.17.06h0v-.43c0-.09,0-.19,0-.28l.13-.06.35-.14.16-.07Zm.3-.58-.38.15-.35.15,0,0v-.06l.07-.15.21-.36.13-.22.53-.2.24-.09Zm1-1.87-.14.24-.28.51-.06.1-.43.17-.33.13.15-.27.15-.24.31-.5,0,0h0l.42-.17.3-.11ZM51.82,76c-.2.32-.4.65-.59,1l-.72.28.7-1.15.66-.19Zm.42-.67-.12.18,0,0-.07.12-.58.18-.07,0,.09-.15c0-.06.07-.1.1-.15l.49-.73h.05l.58-.19h0Zm.93-1.39-.3.45-.23.07-.44.14.12-.17c.12-.17.23-.34.34-.51l.35-.07.25,0Zm.32-.46-.08.11h0l-.42.08-.18,0c.1-.16.21-.32.32-.48l.34-.07.32,0-.1.12C53.62,73.3,53.56,73.39,53.49,73.47Zm.94-1.22,0,0-.18.25-.27.35H53.9l-.51.09-.11,0,0,0,.38-.57Zm-.85,0-.4.07-.23,0h0s0,0,0,0l.52-.45,0,0,.48-.39.13,0h0Zm.67-1h0l.11-.1Zm4.33-2.5a2.62,2.62,0,0,1,.38.09l-1.6.15a4.68,4.68,0,0,1,.73-.21A2,2,0,0,1,58.58,68.74Z" transform="translate(-10.77 -46.61)"/><path class="cls-1" d="M29.94,73.77a.3.3,0,0,0-.09.39.29.29,0,0,0,.39.08c.35-.26.7-.51,1.07-.76l1.09-.73c.65-.43,1.31-.84,2-1.29l1-.7c.34-.24.69-.47,1-.71s.67-.49,1-.74l.51-.4c.15-.12.3-.24.44-.37q.45-.41.87-.84c.14-.14.27-.28.4-.43s.19-.22.28-.34l.29-.45c.09-.16.17-.32.25-.48a1.93,1.93,0,0,0,.15-.4.82.82,0,0,0-.12-.65,1.23,1.23,0,0,0-.26-.25l-.27-.14a3.28,3.28,0,0,0-.51-.15l-.54-.1-1-.15-.25,0-.28,0h0a2.21,2.21,0,0,0-.37,0,3.09,3.09,0,0,0-.66.25,3.15,3.15,0,0,0-.5.3q-.44.32-.84.66c-.28.24-.57.48-.83.74a.28.28,0,1,0,.41.38c.17-.17.36-.34.55-.5l-.17.39c-.08.21-.17.41-.26.62l-.6,1.42-.1.24-.33.74-.44,1-.12,0-.39.12-.49.15a.1.1,0,0,0-.06.12.11.11,0,0,0,.12.06l.47-.15.37-.11c-.22.49-.45,1-.69,1.49l-.39.25L31,73C30.63,73.27,30.28,73.52,29.94,73.77ZM35,70.32l-.89.62c0-.07.05-.14.07-.2s.11-.32.17-.47l.5-.12.35-.09.27-.07Zm.94-.66a.6.6,0,0,1-.13.09.08.08,0,0,0-.06,0h0l-.55.13-.37.1-.39.09.15-.41c.65-.15,1.3-.28,2-.41Zm-1.09-.77h0Zm0,0,.16,0,.41-.1.23,0,0,0-.09.2a.47.47,0,0,0,0,.1l0,0,0,.1s0,.06,0,.1h0l-.75.17C34.73,69.26,34.79,69.07,34.86,68.89Zm2.07.06-.06,0-1.22.24a.08.08,0,0,0,0,0v0l0-.07s0-.09.07-.14.07-.13.1-.2l0-.11.2,0,.75-.16.75-.18a1.87,1.87,0,0,0-.07.22Zm-.22-1.87.42-.11.14,0-.13.26-.18.37-.35.06-.22.05c0-.07.07-.14.11-.2Zm.63-1.14.43-.07-.19.43c-.07.14-.14.28-.2.42l-.28.07-.27.07a1.74,1.74,0,0,1,.1-.19l.26-.47Zm1-.81.43-.1h0l-.08.21-.11.3-.32.06-.14,0,.1-.2C38.22,65.32,38.25,65.23,38.3,65.13Zm.2-.31.18,0-.3.07,0-.11Zm-.23,1,.2,0c-.1.26-.2.52-.29.79h0l-.54.13.14-.29L38,65.9l0-.07Zm-.38,1.6-.49.1-.21,0,.13-.26c.06-.13.13-.26.19-.38l.08,0,.52-.13A2.31,2.31,0,0,1,38,67Zm-.23.68-.79.18a.06.06,0,0,0,0,0v0c0-.11.11-.21.16-.32l.06-.13.38-.08.36-.07C37.77,67.74,37.71,67.9,37.66,68.06Zm-1.38-.17.39-.08.19,0,0,.06-.06.12s-.05.1-.08.16l0,.13s0,0,0,0l-.63.14h0l0-.09C36.12,68.19,36.2,68,36.28,67.89Zm1.58.31-.08.06,0-.05h.06Zm.39-.36-.37.35s0-.07,0-.1,0,0,0,0l.17-.5.65-.13h0Zm.78-.79-.13.13-.8.16c0-.08,0-.17.08-.25l.15-.41.85-.19.36-.09-.11.18A4.51,4.51,0,0,1,39,67.05Zm.62-2a1.05,1.05,0,0,1,.21.12.58.58,0,0,1,.12.1l0,0a.43.43,0,0,1,0,0v.08a.9.9,0,0,1,0,.16l-.21.43s-.07.1-.1.16l-.53.12-.74.18c.08-.24.16-.47.25-.71h0v0h0l0-.06.23,0,1-.2a.09.09,0,0,0,.06-.11s0,0,0-.06h-.07l-.93.19-.13,0,.07-.19h0v0h0l.06-.17a.08.08,0,0,0,0-.07.1.1,0,0,0,0,0h0a.08.08,0,0,0,0-.1h0l.15,0A4.47,4.47,0,0,1,39.65,65.05Zm-2.46-.36a1.51,1.51,0,0,1,.3,0l.75.11a1.54,1.54,0,0,1-.08.19L38,65l-.82.17a.07.07,0,0,0,0,0,.06.06,0,0,0,0,.07.09.09,0,0,0,0,.06h.08l.8-.17.06,0-.06.15-.15.33-.4.08,0,0a.09.09,0,0,0,0-.13h0a.1.1,0,0,0-.08,0l-.1.17-.61.11a.1.1,0,0,0-.06,0,.08.08,0,0,0,0,.07.07.07,0,0,0,0,0h.07L37.1,66,37,66.1c-.1.16-.19.32-.28.48l-.18.34-.5.14a.09.09,0,0,0-.06.12.09.09,0,0,0,.11.06,2,2,0,0,1,.33-.09l-.13.25-.17.33-.13,0-.26,0-.32.09a.09.09,0,0,0-.06.07,0,0,0,0,0,0,.05.1.1,0,0,0,0,0,.33.33,0,0,0,.1.06l.1,0h.1a.08.08,0,0,0,.07,0,.07.07,0,0,0,0,0,.08.08,0,0,0,0-.07l0,0,.21,0h0c-.06.1-.11.21-.17.32s-.07.15-.11.22l-.4.09-.4.1h0l.1-.26.12-.31.06-.14.21-.51.13-.3,0-.12.25-.54c.06-.12.11-.24.17-.35l.64-1.22a.06.06,0,0,0,0-.07A2.78,2.78,0,0,1,37.19,64.69Zm-3,4,.09-.22c.09-.22.18-.44.28-.65L35,66.69l.39-1,.44-.36a4.28,4.28,0,0,1,.57-.37c-.11.2-.22.4-.32.6s-.13.24-.19.36a1.09,1.09,0,0,0-.08.15l-.32.68-.08.17c0,.08-.07.16-.1.25s-.19.44-.28.67L35,68c0,.14-.11.28-.16.41l-.12.31h0l-.13,0a.12.12,0,0,0,0,0,.07.07,0,0,0,0,.09.13.13,0,0,0,0,.07l.05,0h0c0,.16-.11.32-.17.48l-.41.09a.09.09,0,0,0-.06.12.1.1,0,0,0,.12.06l.27-.07-.14.41-.2,0-.5.12h-.07l.1-.19Zm-1.1,2.42.27-.6h0l.16,0,.5-.12.09,0,0,.1c-.06.15-.12.31-.17.47s0,.15-.07.22c-.38.27-.76.52-1.14.77Z" transform="translate(-10.77 -46.61)"/><path class="cls-1" d="M28.21,56.22h0Z" transform="translate(-10.77 -46.61)"/><path class="cls-1" d="M28.74,88.58a.28.28,0,0,0,.18-.35,22.93,22.93,0,0,1-.65-2.29l-.14-.5.06,0c.22-.22.46-.42.69-.62l.83-.72a.11.11,0,0,0,0-.06.09.09,0,0,0,0-.07l-.07,0a.09.09,0,0,0-.06,0c-.27.23-.54.46-.8.7s-.47.39-.68.6c-.05-.18-.11-.35-.16-.53s-.05-.13-.07-.2l1.47-1.38a.09.09,0,0,0,0-.13l-.06,0a.09.09,0,0,0-.07,0l-1.41,1.31c-.1-.23-.2-.46-.31-.69a1.67,1.67,0,0,0-.18-.28l-.17-.25c-.16-.2-.33-.39-.5-.58l-.42-.45L26,81.84a2.2,2.2,0,0,0-.2-.23l-.35-.48-.31-.45c-.23-.34-.48-.67-.72-1-.46-.64-.86-1.33-1.31-2-.22-.31-.45-.62-.65-1s-.24-.38-.35-.57-.18-.33-.28-.49l-.6-1.08c-.09-.15-.17-.31-.25-.47l.48-.22h0l.66-.3.19-.09,0,.1.12.39-1,.45a.09.09,0,0,0-.06,0,.09.09,0,0,0,0,.07.07.07,0,0,0,0,.06h.07l1-.44c.06.2.13.4.19.6l-.8.32s-.05,0-.06.05a.17.17,0,0,0,0,.07.09.09,0,0,0,.12.06l.8-.32c.07.19.13.38.19.58l-.49.21-.06,0a.09.09,0,0,0,0,.07.07.07,0,0,0,0,0,.06.06,0,0,0,.07,0l.49-.22c.08.24.15.47.22.7l-.5.24a.07.07,0,0,0,0,0,.11.11,0,0,0,0,.08.09.09,0,0,0,.06,0l.07,0,.13-.06h0l.32-.14v0L23.68,78l-.13.07a.09.09,0,0,0,0,.13.09.09,0,0,0,.13,0l.09,0c.05.17.1.34.16.51a.1.1,0,0,0,.11.06.09.09,0,0,0,.06-.12C24,78.4,24,78.22,23.9,78L24,78l.28-.13h0l.06,0h0l0,0h0l.05,0h0l.06,0h0l.18.65-.64.29a.1.1,0,0,0-.05,0,.11.11,0,0,0,0,.08.12.12,0,0,0,.05,0,.09.09,0,0,0,.07,0l.63-.29.15.54a.1.1,0,0,0,.11.06.09.09,0,0,0,.06-.12L25,78.46l.41-.18.07,0,.21.63-.94.4s0,0-.06,0a.09.09,0,0,0,0,.07.1.1,0,0,0,0,0,.09.09,0,0,0,.07,0l.95-.4.16.49s0,0,.07.06l-.83.34a.1.1,0,0,0-.05,0,.09.09,0,0,0,0,.07.09.09,0,0,0,.12.06c.65-.27,1.32-.53,2-.78a.1.1,0,0,0,.06-.12.1.1,0,0,0-.09-.07h0l-1.05.41a.09.09,0,0,0,0-.07c-.06-.17-.11-.34-.17-.51l.93-.38a.09.09,0,0,0,.06-.12.09.09,0,0,0-.09-.06h0l-.93.38-.21-.63.9-.39s.05,0,.06-.05a.08.08,0,0,0,0-.07.1.1,0,0,0-.09-.06h0l-.91.39-.21-.64.81-.32a.1.1,0,0,0,.06-.11.11.11,0,0,0-.09-.07h0l-.81.32-.09-.28c0-.11-.07-.21-.1-.31l.13-.06h0l1-.48s0,0,0-.06a.17.17,0,0,0,0-.07s0,0-.06,0h-.07l-1,.47h0l-.12,0-.18-.57.44-.2.33-.15.5-.23s0,0,0-.06a.15.15,0,0,0,0-.07s0,0-.06,0h0l-.05,0-.5.23h0l-.73.34L24.61,75l1-.4s.05,0,.06,0a.08.08,0,0,0,0-.07.1.1,0,0,0-.08-.06h0l-1,.41,0-.06-.15-.47,1.14-.45a.08.08,0,0,0,.06-.11.1.1,0,0,0-.09-.07h0l-1.14.44-.21-.65.93-.38a.09.09,0,0,0,0-.18h0l-.92.38c-.06-.17-.11-.34-.16-.52L25,72.29a.1.1,0,0,0,.05,0,.22.22,0,0,0,0-.08.12.12,0,0,0-.05,0H25l-1.12.5c0-.13-.08-.25-.11-.37l-.12-.37.92-.44h0l.05,0h0l.18-.09a.07.07,0,0,0,0,0,.06.06,0,0,0,0-.07s0,0-.06-.05h0l-.06,0-.16.07h0l-.18.08-.77.37c0-.12-.07-.24-.11-.37a.08.08,0,0,0-.08-.06h0a.1.1,0,0,0-.06.12c0,.13.07.26.11.39l-.24.12c-.11-.37-.21-.74-.32-1.11h0l.11,0,.18-.09.51-.25.44-.21.6-.3a.07.07,0,0,0,0,0,.08.08,0,0,0,0-.07.07.07,0,0,0-.06,0h0l-.05,0c-.55.27-1.11.55-1.67.81l.22-.79.93-.43,1-.48a.07.07,0,0,0,0,0,.08.08,0,0,0,0-.07l-.06,0h0l-.05,0-.8.39-.94.43c.07-.26.15-.51.22-.77L25,68.05a.12.12,0,0,0,.05,0,.09.09,0,0,0,0-.07.07.07,0,0,0,0-.05l0,0h0l-1.44.64c.06-.19.11-.38.17-.57a2.76,2.76,0,0,1,.08-.27l0-.13,1-.44a.1.1,0,0,0,.05,0,.08.08,0,0,0,0-.08.1.1,0,0,0-.09-.06h0l-.89.38c.09-.29.18-.58.28-.87l.21-.1.48-.2.55-.22a.09.09,0,0,0,.06-.12.1.1,0,0,0-.08-.06h0l-1.1.46h0c.06-.18.11-.36.17-.54l1.16-.5a.1.1,0,0,0,.05,0,.17.17,0,0,0,0-.07.1.1,0,0,0-.05-.06h-.07l-1,.44,0,0,.29-.89.82-.34s.05,0,.06,0a.09.09,0,0,0,0-.07.09.09,0,0,0-.08-.07h0l-.69.29c0-.13.08-.26.13-.39l.11-.35.61-.26.46-.2.65-.29s.05,0,.06-.05a.08.08,0,0,0,0-.07.07.07,0,0,0,0,0h-.07l-.62.28-.49.21-.48.2s0,0,0-.06.12-.33.19-.5l.21-.08.32-.12a.76.76,0,0,0,.16-.06l.56-.23a.11.11,0,0,0,.06-.12.1.1,0,0,0,0,0h-.08c-.18.09-.37.16-.55.24l-.14.05-.35.13-.07,0a1.34,1.34,0,0,1,.07-.18h0c0-.07.06-.15.09-.23a.16.16,0,0,0,0-.07.1.1,0,0,0,0-.05h0l1.29-.44a.11.11,0,0,0,.07-.12.1.1,0,0,0-.09-.06h0L25,62c.05-.16.11-.31.17-.47l.85-.26,1.41-.42a.1.1,0,0,0,.07-.12.11.11,0,0,0-.09-.06h0L26,61l-.46.14-.27.08.1-.26.11-.31.46-.15,2-.65a.09.09,0,0,0,.06-.12.09.09,0,0,0-.09-.06h0l-2,.65-.32.11.23-.65,1.07-.33,1.2-.38.24-.08.3-.1.75-.23a.08.08,0,0,0,.06-.11.1.1,0,0,0-.09-.07h0l-.74.23-.24.08-.26.08-1.2.39-1,.3c.08-.21.15-.43.23-.64l.71-.21.35-.11,1.31-.37.74-.21,1-.28a.1.1,0,0,0,.06-.12.1.1,0,0,0-.09-.06h0l-1,.26-.67.19-1.4.4-.29.09-.65.19.21-.58.54-.15,1.14-.33,1.49-.43,1-.31a.09.09,0,0,0,.06-.11.1.1,0,0,0-.09-.07h0l-2.72.79-2,.57.25-.61a.08.08,0,0,0,0-.12h0a.07.07,0,0,0-.08,0c-.11.25-.22.5-.32.75l-.29.09-.41.11.23-.34a3,3,0,0,1,.47-.54l.15-.1h0l.22,0,.62-.13.74-.13.46-.07L28,57l.89-.09.43,0c.17,0,.35,0,.52,0a.09.09,0,0,0,.09-.09.1.1,0,0,0-.09-.09h0a3.39,3.39,0,0,0-.45,0l-.21,0-.75.07-.32,0,.3-.06-.08,0h.05l.09,0h0l.46-.09h0a6.63,6.63,0,0,1,1.47-.12,2.33,2.33,0,0,1,.44.1l.11.06.08.07.05.08V57a2.24,2.24,0,0,1-.1.37c-.15.35-.32.7-.49,1l-.54,1.13c-.17.32-.33.66-.51,1s-.19.34-.29.51l-.38.64c-.08.13-.18.27-.27.4l-.32.5-1,1.36a.3.3,0,0,0-.08.2.34.34,0,0,0,.09.2.37.37,0,0,0,.2.07.27.27,0,0,0,.2-.09c.33-.44.65-.9,1-1.35s.45-.67.67-1l.32-.52c.1-.16.19-.32.28-.49.2-.36.39-.72.57-1.1l.48-1c.17-.36.35-.72.51-1.08a3.73,3.73,0,0,0,.2-.56,1.47,1.47,0,0,0,0-.36.88.88,0,0,0-.14-.38.8.8,0,0,0-.23-.22l-.16-.1-.19-.07A2.59,2.59,0,0,0,30.1,56h-.05a4,4,0,0,0-.6.05l-.64.1h-.07l-.44.08h-.08l-1.1.21a11.67,11.67,0,0,0-1.2.29,1.83,1.83,0,0,0-.59.3,3,3,0,0,0-.57.61,4,4,0,0,0-.29.43,2.61,2.61,0,0,0-.17.28,5.21,5.21,0,0,0-.28.52c-.1.19-.19.38-.28.58-.34.73-.66,1.46-1,2.21s-.55,1.49-.85,2.23c-.15.37-.31.75-.45,1.12s-.29.78-.43,1.16c-.28.77-.56,1.52-.82,2.29s-.51,1.53-.77,2.28a5.05,5.05,0,0,0-.18.55,1.65,1.65,0,0,0-.06.32,1.55,1.55,0,0,0,.19.82c.18.37.38.73.57,1.08l.56,1c.18.35.38.69.57,1s.4.71.61,1.06.4.64.62,1,.46.66.68,1l.68,1c.21.32.44.62.66.92s.47.67.7,1a9.39,9.39,0,0,0,.76.91c.24.26.49.52.73.79s.21.27.31.42.16.28.24.42.13.29.18.44,0,.15.08.22a.13.13,0,0,0,0,.06c0,.1.07.2.1.3.11.35.2.7.29,1,.19.74.37,1.49.63,2.21A.27.27,0,0,0,28.74,88.58Zm-6.61-15.2c0-.07,0-.13.05-.2l0,.12v0ZM22,71.81l-.15-.5v0l.28-.13.54-.25-.15.53c-.08.31-.17.62-.25.92l-.09,0C22.08,72.19,22,72,22,71.81ZM22,68.34l.43-.21h0l.24-.11s0,.1-.05.15l-.24.71,0,.14-.19.09L22,69.2l-.28.13c.1-.32.2-.65.31-1Zm1.87-6-.45.17-.19.07-.14.06-.07,0h0l-.06,0,.15-.38a1.19,1.19,0,0,1,.08-.2l.24-.09.58-.19.15,0-.12.32a1.67,1.67,0,0,0-.08.2Zm2-3.33-.23.66-.52.17.26-.68Zm-1,.91-.28.09-.53.19-.12,0c.09-.2.17-.39.26-.58a1.3,1.3,0,0,0,.08-.17l.86-.26Zm-1.36,1.3.33-.75.24-.09.52-.18.18-.06-.15.37-.11.29-.64.22a.09.09,0,0,0-.06.11.09.09,0,0,0,.12.06l.49-.17c-.07.19-.15.37-.22.56l-.29.09-.55.18-.13,0Zm.55,1.24.63-.22-.21.59-.46.16-.19.08c0-.07.05-.14.07-.21S24.05,62.61,24.1,62.47Zm-.32.84.34-.13.32-.12-.22.63-.54.22-.13.05c0-.09.06-.18.1-.27S23.74,63.44,23.78,63.31Zm-.08.79.43-.18-.05.13c-.07.22-.15.44-.23.66l-.24.11-.3.15-.15.07.3-.84Zm-.63,1.2.19-.1.5-.25-.33.91-.12.06-.55.23,0-.12C22.89,65.78,23,65.54,23.07,65.3Zm-.39,1.08.33-.13.34-.15c-.05.15-.1.29-.16.43a.75.75,0,0,1-.05.16l-.49.25-.19.09C22.53,66.82,22.61,66.6,22.68,66.38Zm-.31.9.43-.22.25-.12a1,1,0,0,1,0,.1c-.07.22-.15.43-.22.65a.42.42,0,0,1,0,.1l-.15.07-.32.15-.18.08Zm-.73,2.28.44-.21h0l.2-.09-.15.46c0,.11-.07.22-.1.33l-.3.14-.13.06,0-.17,0-.12,0,0c0-.11.07-.23.11-.35Zm-.24.72v.06l0,0Zm0,.28h0l.09,0c0,.06,0,.12,0,.18s.06.25.08.38,0,0,0,.06l-.4.19-.15.07c.08-.27.17-.54.25-.81Zm.27,0,0-.13.31-.15c0,.12-.07.23-.1.35a.09.09,0,0,0,.07.11.1.1,0,0,0,.11-.07l.15-.49.3-.14c.06.21.11.41.17.61l-.84.39,0,0C21.72,70.91,21.69,70.75,21.65,70.58Zm1.15-.31,0,.16c-.05-.15-.09-.3-.13-.45l.29-.13Zm-.42,2.19.18-.08.49-.23c.06.24.13.48.2.72l-.55.25-.3.14a1,1,0,0,1,0-.14l-.08-.28C22.31,72.72,22.35,72.59,22.38,72.46Zm.12,1.16a1.8,1.8,0,0,0-.05-.19L23,73.2l.34-.15.07.25c0,.09.05.18.07.26l-.29.13-.55.24A2.81,2.81,0,0,0,22.5,73.62Zm.16.48.52-.23.31-.13.18.64-.05,0-.77.3C22.79,74.51,22.72,74.31,22.66,74.1Zm.25.79.77-.31,0,0c.05.19.11.37.16.56l-.79.34Zm.39,1.24c-.05-.17-.11-.33-.16-.49l.79-.34.09.32c0,.13.06.25.1.37h0l-.65.3-.08,0Zm.87,0c0,.2.11.4.16.6l-.72.35c-.06-.21-.13-.41-.19-.61Zm.35,1.37h-.06a.05.05,0,0,0,0,0l0,0h0s0,0,0,0l-.05,0-.07,0h0l-.32.16-.07,0c-.06-.17-.11-.34-.17-.52v0l.71-.34.16.58h0Zm.82.56-.4.18-.18-.65.25-.11.19-.08.21.63Zm-.2-.84-.22.1-.21.09c-.05-.19-.1-.39-.16-.58l.05,0h0l.33-.16C25,76.87,25.08,77.07,25.14,77.26Zm-.29-.9s0,.1,0,.14l-.34.17h0l0,0-.08-.3c0-.1-.05-.2-.08-.3l.18-.08.19-.08C24.75,76.07,24.8,76.22,24.85,76.36Zm-.34-1c0,.15.09.3.14.44l-.36.16c-.06-.23-.13-.46-.19-.68l.33-.15C24.46,75.16,24.48,75.24,24.51,75.31Zm-.13-.4-.33.14-.15-.55.31-.13C24.27,74.55,24.32,74.73,24.38,74.91ZM24,73.79c.05.13.09.27.13.41l-.3.12-.05-.17c0-.16-.09-.32-.13-.48l.22-.09.06,0C24,73.63,24,73.71,24,73.79Zm-.16-.4-.24.1L23.47,73l.27-.12c.05.17.1.34.16.51ZM23.46,72l0,.09.19.64-.12,0a.61.61,0,0,1-.14.07c-.07-.25-.14-.49-.2-.73ZM23,72l-.55.26c.09-.34.18-.67.28-1l0-.11Zm.07-2.64c0,.09-.05.19-.08.28l-.41.19,0-.1a.09.09,0,0,0-.09-.06h0a.11.11,0,0,0-.07.12l0,.12-.18.08c.07-.19.13-.39.19-.58l.07-.21.7-.32h0C23.16,69,23.12,69.16,23.07,69.33Zm.45-1.53-.24.81-.71.32.23-.71c0-.1.07-.19.1-.29l.46-.2.21-.09A.75.75,0,0,0,23.52,67.8Zm-.05-.32-.49.21.21-.61.09-.25.08,0,.48-.22.07,0-.12.37-.15.5ZM24,66.3l-.61.28,0,0,.19-.54.22-.09.36-.15Zm.34-1a2.25,2.25,0,0,0-.08.24v0l-.57.24c.12-.31.23-.62.34-.93l.26-.12.27-.12Zm.29-.89-.15.07-.37.17.27-.77.4-.17.1,0C24.77,63.87,24.69,64.12,24.61,64.36ZM25,63.08s0,.09-.05.13l-.06.18-.21.09-.27.11c.07-.2.14-.41.22-.61h0l.47-.17Zm.4-1.07-.21.57-.48.18.21-.59Zm-.77.07-.48.17,0-.11c.06-.14.11-.27.16-.41l.6-.18-.18.48Zm.39-.75-.58.18c.07-.18.15-.37.22-.56l.23-.08.34-.11Zm-.19-.63-.08,0,.07-.19c.06-.16.13-.31.19-.47l.14,0,.39-.13c-.08.21-.16.43-.23.64Zm1.31-2.48-.21.59-.48.14,0-.06.21-.53h0Zm-.67.19a1.08,1.08,0,0,1-.08.19,1.67,1.67,0,0,1-.08.2c0,.08-.05.15-.08.22l-.29.09-.55.16c.11-.22.22-.43.35-.64ZM22.9,62.88a.08.08,0,0,0,.12,0l.08,0h0l.45-.17.31-.11,0,.09c0,.06,0,.12-.07.17l-.12.34h0c-.33.13-.66.27-1,.42v0l0-.12C22.75,63.29,22.83,63.09,22.9,62.88Zm-.3.79a.07.07,0,0,0,0,0,.07.07,0,0,0,.06,0,.09.09,0,0,0,.07,0l0,0h0l.76-.32-.24.66-.76.32a.07.07,0,0,0,0,0,.17.17,0,0,0,0,.07.12.12,0,0,0,.05.05.06.06,0,0,0,.07,0l.61-.26c-.1.3-.21.59-.31.88l-.25.13-.91.5,0-.09C22.06,65,22.33,64.35,22.6,63.67ZM21.68,66h.08l.58-.33.44-.24,0,0,0,.09c-.08.24-.17.47-.25.71v0l-.05,0-.28.13-.21.1-.55.27a.11.11,0,0,0,0,.13l.06,0a.08.08,0,0,0,.07,0l.71-.35h0l.18-.08-.23.66-.1.06-1.06.55.23-.63Zm-1.77,6.15a1.71,1.71,0,0,1-.13-.38.49.49,0,0,1,0-.12,5,5,0,0,1,.31-1.07c.14-.4.28-.8.41-1.2s.24-.73.37-1.09c0-.12.09-.24.13-.35a0,0,0,0,1,0,0l.07,0,1.06-.55-.06.17c-.05.16-.1.32-.16.48l0,.14-.11,0-.18.09-.26.13-.51.26a.11.11,0,0,0,0,.13s0,0,.06,0a.08.08,0,0,0,.07,0l.86-.43h0l0,.08c-.1.3-.19.61-.29.91l0,0-.44.23a6.55,6.55,0,0,0-.58.32.09.09,0,0,0,0,.13.09.09,0,0,0,.13,0c.27-.16.55-.3.83-.44l.06,0h0c-.08.26-.17.51-.25.77l-.44.22-.6.3a.11.11,0,0,0,0,.13l.06,0a.08.08,0,0,0,.07,0l.66-.34.21-.1c-.09.27-.18.54-.26.81l-.33.17c-.05,0-.05.09,0,.13a.09.09,0,0,0,.06,0,.08.08,0,0,0,.07,0l.15-.07,0,0a.1.1,0,0,0,.07.11.09.09,0,0,0,.11-.07l.07-.21.1-.05.37-.17h0l.2-.09L22,72.45l-1.31.6a.08.08,0,0,0-.05,0,.15.15,0,0,0,0,.07l0,0a.09.09,0,0,0,.07,0l1.3-.6.06.21c-.06.22-.12.43-.17.64h0L20.86,74l-.21-.4C20.4,73.11,20.14,72.65,19.91,72.18Z" transform="translate(-10.77 -46.61)"/><path class="cls-1" d="M28.78,56.12h0Z" transform="translate(-10.77 -46.61)"/></svg>